<svg width="328" height="79" viewBox="0 0 328 79" fill="none" xmlns="http://www.w3.org/2000/svg">
<path d="M321.871 0.265533H6.65384C3.34535 0.265533 0.643921 3.64994 0.643921 7.78979V70.7034C0.643921 74.8735 3.34535 78.2277 6.65384 78.2277H321.901C325.21 78.2277 327.911 74.8433 327.911 70.7034V7.78979C327.911 3.61972 325.21 0.265533 321.901 0.265533H321.871Z" fill="#DFE3D8"/>
<g style="mix-blend-mode:screen" opacity="0.5">
<path d="M5.28795 56.4104C34.6091 42.1173 66.3584 34.442 98.7756 31.3295C134.774 27.8545 171.684 27.4314 207.683 30.9971C225.773 32.78 243.803 35.6809 261.438 40.1834C276.098 43.9304 290.455 48.8257 304.63 54.0836C312.249 56.9241 320.202 60.0365 327.911 63.7231V7.78979C327.911 3.61972 325.21 0.265533 321.901 0.265533H6.65384C3.34535 0.265533 0.643921 3.64994 0.643921 7.78979V58.7673C2.19193 57.9515 3.73994 57.1658 5.3183 56.4104H5.28795Z" fill="#DFE3D8"/>
</g>
</svg>
