<svg width="456" height="59" viewBox="0 0 456 59" fill="none" xmlns="http://www.w3.org/2000/svg">
<g filter="url(#filter0_di_17_295)">
<rect x="4" width="448" height="50.9362" rx="10" fill="url(#paint0_linear_17_295)"/>
</g>
<g filter="url(#filter1_d_17_295)">
<path d="M146.918 34L145.883 30.6016H140.678L139.643 34H136.381L141.42 19.6641H145.121L150.18 34H146.918ZM145.16 28.0625L144.125 24.7422C144.06 24.5208 143.972 24.2376 143.861 23.8926C143.757 23.541 143.65 23.1862 143.539 22.8281C143.435 22.4635 143.35 22.1478 143.285 21.8809C143.22 22.1478 143.129 22.4798 143.012 22.877C142.901 23.2676 142.794 23.6387 142.689 23.9902C142.585 24.3418 142.51 24.5924 142.465 24.7422L141.439 28.0625H145.16ZM158.051 22.0371C157.471 22.0371 156.957 22.151 156.508 22.3789C156.065 22.6003 155.691 22.9225 155.385 23.3457C155.085 23.7689 154.857 24.2799 154.701 24.8789C154.545 25.4779 154.467 26.1517 154.467 26.9004C154.467 27.9095 154.59 28.7721 154.838 29.4883C155.092 30.1979 155.482 30.7415 156.01 31.1191C156.537 31.4902 157.217 31.6758 158.051 31.6758C158.63 31.6758 159.21 31.6107 159.789 31.4805C160.375 31.3503 161.01 31.1647 161.693 30.9238V33.4629C161.062 33.7233 160.44 33.9089 159.828 34.0195C159.216 34.1367 158.529 34.1953 157.768 34.1953C156.296 34.1953 155.085 33.8926 154.135 33.2871C153.191 32.6751 152.491 31.8223 152.035 30.7285C151.579 29.6283 151.352 28.3457 151.352 26.8809C151.352 25.8001 151.498 24.8105 151.791 23.9121C152.084 23.0137 152.514 22.2357 153.08 21.5781C153.646 20.9206 154.346 20.4128 155.18 20.0547C156.013 19.6966 156.97 19.5176 158.051 19.5176C158.76 19.5176 159.47 19.6087 160.18 19.791C160.896 19.9668 161.579 20.2109 162.23 20.5234L161.254 22.9844C160.72 22.7305 160.183 22.5091 159.643 22.3203C159.102 22.1315 158.572 22.0371 158.051 22.0371ZM170.248 34H167.221V22.2422H163.344V19.7227H174.125V22.2422H170.248V34ZM176.322 34V19.7227H179.35V34H176.322ZM194.145 19.7227L189.291 34H185.99L181.146 19.7227H184.203L186.889 28.2188C186.934 28.362 187.009 28.6322 187.113 29.0293C187.217 29.4199 187.322 29.8366 187.426 30.2793C187.536 30.7155 187.611 31.0768 187.65 31.3633C187.689 31.0768 187.758 30.7155 187.855 30.2793C187.96 29.8431 188.061 29.4297 188.158 29.0391C188.262 28.6419 188.337 28.3685 188.383 28.2188L191.088 19.7227H194.145ZM204.691 34L203.656 30.6016H198.451L197.416 34H194.154L199.193 19.6641H202.895L207.953 34H204.691ZM202.934 28.0625L201.898 24.7422C201.833 24.5208 201.745 24.2376 201.635 23.8926C201.531 23.541 201.423 23.1862 201.312 22.8281C201.208 22.4635 201.124 22.1478 201.059 21.8809C200.993 22.1478 200.902 22.4798 200.785 22.877C200.674 23.2676 200.567 23.6387 200.463 23.9902C200.359 24.3418 200.284 24.5924 200.238 24.7422L199.213 28.0625H202.934ZM213.92 19.7227C215.215 19.7227 216.283 19.8789 217.123 20.1914C217.969 20.5039 218.598 20.9759 219.008 21.6074C219.418 22.2389 219.623 23.0365 219.623 24C219.623 24.651 219.499 25.2207 219.252 25.709C219.005 26.1973 218.679 26.6107 218.275 26.9492C217.872 27.2878 217.436 27.5645 216.967 27.7793L221.166 34H217.807L214.398 28.5215H212.787V34H209.76V19.7227H213.92ZM213.705 22.2031H212.787V26.0605H213.764C214.766 26.0605 215.482 25.8945 215.912 25.5625C216.348 25.224 216.566 24.7292 216.566 24.0781C216.566 23.401 216.332 22.9193 215.863 22.6328C215.401 22.3464 214.682 22.2031 213.705 22.2031ZM236.381 34H228.158V19.7227H236.381V22.2031H231.186V25.3379H236.02V27.8184H231.186V31.5H236.381V34ZM252.035 34H248.188L241.977 23.1992H241.889C241.915 23.6484 241.938 24.1009 241.957 24.5566C241.977 25.0124 241.996 25.4681 242.016 25.9238C242.035 26.373 242.055 26.8255 242.074 27.2812V34H239.369V19.7227H243.188L249.389 30.416H249.457C249.444 29.9733 249.428 29.5339 249.408 29.0977C249.389 28.6615 249.369 28.2253 249.35 27.7891C249.337 27.3529 249.324 26.9167 249.311 26.4805V19.7227H252.035V34ZM261.146 34H258.119V22.2422H254.242V19.7227H265.023V22.2422H261.146V34ZM271.381 19.7227C272.676 19.7227 273.744 19.8789 274.584 20.1914C275.43 20.5039 276.059 20.9759 276.469 21.6074C276.879 22.2389 277.084 23.0365 277.084 24C277.084 24.651 276.96 25.2207 276.713 25.709C276.465 26.1973 276.14 26.6107 275.736 26.9492C275.333 27.2878 274.896 27.5645 274.428 27.7793L278.627 34H275.268L271.859 28.5215H270.248V34H267.221V19.7227H271.381ZM271.166 22.2031H270.248V26.0605H271.225C272.227 26.0605 272.943 25.8945 273.373 25.5625C273.809 25.224 274.027 24.7292 274.027 24.0781C274.027 23.401 273.793 22.9193 273.324 22.6328C272.862 22.3464 272.143 22.2031 271.166 22.2031ZM289.164 34L288.129 30.6016H282.924L281.889 34H278.627L283.666 19.6641H287.367L292.426 34H289.164ZM287.406 28.0625L286.371 24.7422C286.306 24.5208 286.218 24.2376 286.107 23.8926C286.003 23.541 285.896 23.1862 285.785 22.8281C285.681 22.4635 285.596 22.1478 285.531 21.8809C285.466 22.1478 285.375 22.4798 285.258 22.877C285.147 23.2676 285.04 23.6387 284.936 23.9902C284.831 24.3418 284.757 24.5924 284.711 24.7422L283.686 28.0625H287.406ZM306.078 26.7246C306.078 28.3327 305.769 29.6771 305.15 30.7578C304.538 31.832 303.65 32.6426 302.484 33.1895C301.319 33.7298 299.916 34 298.275 34H294.232V19.7227H298.715C300.212 19.7227 301.511 19.9896 302.611 20.5234C303.712 21.0508 304.564 21.8353 305.17 22.877C305.775 23.9121 306.078 25.1947 306.078 26.7246ZM302.934 26.8027C302.934 25.748 302.777 24.8822 302.465 24.2051C302.159 23.5215 301.703 23.0169 301.098 22.6914C300.499 22.3659 299.757 22.2031 298.871 22.2031H297.26V31.5H298.559C300.036 31.5 301.133 31.1061 301.85 30.3184C302.572 29.5306 302.934 28.3587 302.934 26.8027ZM317.777 34L316.742 30.6016H311.537L310.502 34H307.24L312.279 19.6641H315.98L321.039 34H317.777ZM316.02 28.0625L314.984 24.7422C314.919 24.5208 314.831 24.2376 314.721 23.8926C314.617 23.541 314.509 23.1862 314.398 22.8281C314.294 22.4635 314.21 22.1478 314.145 21.8809C314.079 22.1478 313.988 22.4798 313.871 22.877C313.76 23.2676 313.653 23.6387 313.549 23.9902C313.445 24.3418 313.37 24.5924 313.324 24.7422L312.299 28.0625H316.02ZM321.85 28.5215C321.85 27.4342 321.954 26.373 322.162 25.3379C322.37 24.2962 322.693 23.3034 323.129 22.3594C323.565 21.4089 324.118 20.5299 324.789 19.7227H327.23C326.319 20.9727 325.626 22.3529 325.15 23.8633C324.682 25.3737 324.447 26.9199 324.447 28.502C324.447 29.5306 324.551 30.556 324.76 31.5781C324.968 32.5938 325.277 33.5736 325.688 34.5176C326.104 35.4616 326.612 36.3438 327.211 37.1641H324.789C324.118 36.3828 323.565 35.5267 323.129 34.5957C322.693 33.6712 322.37 32.6979 322.162 31.6758C321.954 30.6471 321.85 29.5957 321.85 28.5215ZM338.051 30.0352C338.051 30.8815 337.846 31.6172 337.436 32.2422C337.025 32.8672 336.426 33.349 335.639 33.6875C334.857 34.026 333.907 34.1953 332.787 34.1953C332.292 34.1953 331.807 34.1628 331.332 34.0977C330.863 34.0326 330.411 33.9382 329.975 33.8145C329.545 33.6842 329.135 33.5247 328.744 33.3359V30.5234C329.421 30.8229 330.124 31.0931 330.854 31.334C331.583 31.5749 332.305 31.6953 333.021 31.6953C333.516 31.6953 333.913 31.6302 334.213 31.5C334.519 31.3698 334.74 31.1908 334.877 30.9629C335.014 30.735 335.082 30.4746 335.082 30.1816C335.082 29.8236 334.962 29.5176 334.721 29.2637C334.48 29.0098 334.148 28.7721 333.725 28.5508C333.308 28.3294 332.836 28.0918 332.309 27.8379C331.977 27.6816 331.615 27.4928 331.225 27.2715C330.834 27.0436 330.463 26.7669 330.111 26.4414C329.76 26.1159 329.47 25.722 329.242 25.2598C329.021 24.791 328.91 24.2311 328.91 23.5801C328.91 22.7272 329.105 21.998 329.496 21.3926C329.887 20.7871 330.443 20.3249 331.166 20.0059C331.895 19.6803 332.755 19.5176 333.744 19.5176C334.486 19.5176 335.193 19.6055 335.863 19.7812C336.54 19.9505 337.247 20.1979 337.982 20.5234L337.006 22.877C336.348 22.61 335.759 22.4049 335.238 22.2617C334.717 22.112 334.187 22.0371 333.646 22.0371C333.269 22.0371 332.947 22.099 332.68 22.2227C332.413 22.3398 332.211 22.5091 332.074 22.7305C331.938 22.9453 331.869 23.196 331.869 23.4824C331.869 23.821 331.967 24.1074 332.162 24.3418C332.364 24.5697 332.663 24.791 333.061 25.0059C333.464 25.2207 333.965 25.4714 334.564 25.7578C335.294 26.1029 335.915 26.4642 336.43 26.8418C336.951 27.2129 337.351 27.6523 337.631 28.1602C337.911 28.6615 338.051 29.2865 338.051 30.0352ZM344.818 28.5215C344.818 29.5957 344.714 30.6471 344.506 31.6758C344.298 32.6979 343.975 33.6712 343.539 34.5957C343.109 35.5267 342.556 36.3828 341.879 37.1641H339.457C340.062 36.3438 340.57 35.4616 340.98 34.5176C341.391 33.5736 341.7 32.5938 341.908 31.5781C342.117 30.556 342.221 29.5306 342.221 28.502C342.221 27.4473 342.113 26.4056 341.898 25.377C341.69 24.3483 341.381 23.3587 340.971 22.4082C340.561 21.4512 340.049 20.556 339.438 19.7227H341.879C342.556 20.5299 343.109 21.4089 343.539 22.3594C343.975 23.3034 344.298 24.2962 344.506 25.3379C344.714 26.373 344.818 27.4342 344.818 28.5215Z" fill="#343333"/>
</g>
<defs>
<filter id="filter0_di_17_295" x="0" y="0" width="456" height="58.9362" filterUnits="userSpaceOnUse" color-interpolation-filters="sRGB">
<feFlood flood-opacity="0" result="BackgroundImageFix"/>
<feColorMatrix in="SourceAlpha" type="matrix" values="0 0 0 0 0 0 0 0 0 0 0 0 0 0 0 0 0 0 127 0" result="hardAlpha"/>
<feOffset dy="4"/>
<feGaussianBlur stdDeviation="2"/>
<feComposite in2="hardAlpha" operator="out"/>
<feColorMatrix type="matrix" values="0 0 0 0 0 0 0 0 0 0 0 0 0 0 0 0 0 0 0.25 0"/>
<feBlend mode="normal" in2="BackgroundImageFix" result="effect1_dropShadow_17_295"/>
<feBlend mode="normal" in="SourceGraphic" in2="effect1_dropShadow_17_295" result="shape"/>
<feColorMatrix in="SourceAlpha" type="matrix" values="0 0 0 0 0 0 0 0 0 0 0 0 0 0 0 0 0 0 127 0" result="hardAlpha"/>
<feOffset dy="2"/>
<feGaussianBlur stdDeviation="0.5"/>
<feComposite in2="hardAlpha" operator="arithmetic" k2="-1" k3="1"/>
<feColorMatrix type="matrix" values="0 0 0 0 0.968627 0 0 0 0 0.984314 0 0 0 0 0.980392 0 0 0 1 0"/>
<feBlend mode="normal" in2="shape" result="effect2_innerShadow_17_295"/>
</filter>
<filter id="filter1_d_17_295" x="136" y="13" width="213" height="29" filterUnits="userSpaceOnUse" color-interpolation-filters="sRGB">
<feFlood flood-opacity="0" result="BackgroundImageFix"/>
<feColorMatrix in="SourceAlpha" type="matrix" values="0 0 0 0 0 0 0 0 0 0 0 0 0 0 0 0 0 0 127 0" result="hardAlpha"/>
<feOffset dx="2" dy="1"/>
<feGaussianBlur stdDeviation="0.5"/>
<feComposite in2="hardAlpha" operator="out"/>
<feColorMatrix type="matrix" values="0 0 0 0 0.968627 0 0 0 0 0.984314 0 0 0 0 0.980392 0 0 0 1 0"/>
<feBlend mode="normal" in2="BackgroundImageFix" result="effect1_dropShadow_17_295"/>
<feBlend mode="normal" in="SourceGraphic" in2="effect1_dropShadow_17_295" result="shape"/>
</filter>
<linearGradient id="paint0_linear_17_295" x1="228" y1="0" x2="228" y2="50.9362" gradientUnits="userSpaceOnUse">
<stop stop-color="#E8D12C"/>
<stop offset="0.75" stop-color="#E8D12C"/>
<stop offset="1" stop-color="#FFAC22"/>
</linearGradient>
</defs>
</svg>
