<svg width="282" height="51" viewBox="0 0 282 51" fill="none" xmlns="http://www.w3.org/2000/svg">
<g filter="url(#filter0_i_61_16)">
<rect width="281.525" height="50.9362" rx="10" fill="url(#paint0_linear_61_16)"/>
</g>
<rect x="0.5" y="0.5" width="280.525" height="49.9362" rx="9.5" stroke="#999999"/>
<g filter="url(#filter1_d_61_16)">
<path d="M22.4795 16.8125C22.9795 16.8125 24.9795 21.3125 24.9795 21.8125C24.9795 22.8125 23.4795 23.8125 22.9795 24.8125C22.4795 25.8125 23.4795 26.8125 24.4795 27.8125C24.8695 28.2025 26.4795 29.8125 27.4795 29.3125C28.4795 28.8125 29.4795 27.3125 30.4795 27.3125C30.9795 27.3125 35.4795 29.3125 35.4795 29.8125C35.4795 31.8125 33.9795 33.3125 32.4795 33.8125C30.9795 34.3125 29.9795 34.3125 27.9795 33.8125C25.9795 33.3125 24.4795 32.8125 21.9795 30.3125C19.4795 27.8125 18.9795 26.3125 18.4795 24.3125C17.9795 22.3125 17.9795 21.3125 18.4795 19.8125C18.9795 18.3125 20.4795 16.8125 22.4795 16.8125Z" stroke="black" stroke-width="2" stroke-linecap="round" stroke-linejoin="round"/>
<path d="M49.333 33L45.8955 21.7988H45.8076C45.8206 22.0658 45.8402 22.4694 45.8662 23.0098C45.8988 23.5436 45.9281 24.1133 45.9541 24.7188C45.9801 25.3242 45.9932 25.8711 45.9932 26.3594V33H43.2881V18.7227H47.4092L50.7881 29.6406H50.8467L54.4307 18.7227H58.5518V33H55.7295V26.2422C55.7295 25.793 55.736 25.2754 55.749 24.6895C55.7686 24.1035 55.7913 23.5469 55.8174 23.0195C55.8434 22.4857 55.863 22.0853 55.876 21.8184H55.7881L52.1064 33H49.333ZM75.1143 25.8418C75.1143 26.9421 74.9775 27.9447 74.7041 28.8496C74.4307 29.748 74.014 30.5228 73.4541 31.1738C72.9007 31.8249 72.1976 32.3262 71.3447 32.6777C70.4919 33.0228 69.4827 33.1953 68.3174 33.1953C67.152 33.1953 66.1429 33.0228 65.29 32.6777C64.4372 32.3262 63.7308 31.8249 63.1709 31.1738C62.6175 30.5228 62.2041 29.7448 61.9307 28.8398C61.6572 27.9349 61.5205 26.929 61.5205 25.8223C61.5205 24.3444 61.7614 23.0586 62.2432 21.9648C62.7314 20.8646 63.4801 20.0117 64.4893 19.4062C65.4984 18.8008 66.7809 18.498 68.3369 18.498C69.8864 18.498 71.1592 18.8008 72.1553 19.4062C73.1579 20.0117 73.9001 20.8646 74.3818 21.9648C74.8701 23.0651 75.1143 24.3574 75.1143 25.8418ZM64.6943 25.8418C64.6943 26.8379 64.818 27.6973 65.0654 28.4199C65.3193 29.1361 65.7132 29.6895 66.2471 30.0801C66.7809 30.4642 67.471 30.6562 68.3174 30.6562C69.1768 30.6562 69.8734 30.4642 70.4072 30.0801C70.9411 29.6895 71.3285 29.1361 71.5693 28.4199C71.8167 27.6973 71.9404 26.8379 71.9404 25.8418C71.9404 24.3444 71.6605 23.166 71.1006 22.3066C70.5407 21.4473 69.6195 21.0176 68.3369 21.0176C67.484 21.0176 66.7874 21.2129 66.2471 21.6035C65.7132 21.9876 65.3193 22.541 65.0654 23.2637C64.818 23.9798 64.6943 24.8392 64.6943 25.8418ZM89.9189 25.7246C89.9189 27.3327 89.6097 28.6771 88.9912 29.7578C88.3792 30.832 87.4906 31.6426 86.3252 32.1895C85.1598 32.7298 83.7568 33 82.1162 33H78.0732V18.7227H82.5557C84.0531 18.7227 85.3519 18.9896 86.4521 19.5234C87.5524 20.0508 88.4053 20.8353 89.0107 21.877C89.6162 22.9121 89.9189 24.1947 89.9189 25.7246ZM86.7744 25.8027C86.7744 24.748 86.6182 23.8822 86.3057 23.2051C85.9997 22.5215 85.5439 22.0169 84.9385 21.6914C84.3395 21.3659 83.5973 21.2031 82.7119 21.2031H81.1006V30.5H82.3994C83.8773 30.5 84.9743 30.1061 85.6904 29.3184C86.4131 28.5306 86.7744 27.3587 86.7744 25.8027ZM92.8779 33V18.7227H95.9053V33H92.8779ZM102.478 33H99.499V18.7227H107.683V21.2031H102.478V24.8848H107.321V27.3555H102.478V33ZM110.476 33V18.7227H113.503V33H110.476ZM123.161 21.0371C122.582 21.0371 122.067 21.151 121.618 21.3789C121.175 21.6003 120.801 21.9225 120.495 22.3457C120.196 22.7689 119.968 23.2799 119.812 23.8789C119.655 24.4779 119.577 25.1517 119.577 25.9004C119.577 26.9095 119.701 27.7721 119.948 28.4883C120.202 29.1979 120.593 29.7415 121.12 30.1191C121.647 30.4902 122.328 30.6758 123.161 30.6758C123.741 30.6758 124.32 30.6107 124.899 30.4805C125.485 30.3503 126.12 30.1647 126.804 29.9238V32.4629C126.172 32.7233 125.55 32.9089 124.938 33.0195C124.326 33.1367 123.64 33.1953 122.878 33.1953C121.407 33.1953 120.196 32.8926 119.245 32.2871C118.301 31.6751 117.601 30.8223 117.146 29.7285C116.69 28.6283 116.462 27.3457 116.462 25.8809C116.462 24.8001 116.608 23.8105 116.901 22.9121C117.194 22.0137 117.624 21.2357 118.19 20.5781C118.757 19.9206 119.457 19.4128 120.29 19.0547C121.123 18.6966 122.08 18.5176 123.161 18.5176C123.871 18.5176 124.58 18.6087 125.29 18.791C126.006 18.9668 126.69 19.2109 127.341 19.5234L126.364 21.9844C125.83 21.7305 125.293 21.5091 124.753 21.3203C124.213 21.1315 123.682 21.0371 123.161 21.0371ZM138.591 33L137.556 29.6016H132.351L131.315 33H128.054L133.093 18.6641H136.794L141.853 33H138.591ZM136.833 27.0625L135.798 23.7422C135.733 23.5208 135.645 23.2376 135.534 22.8926C135.43 22.541 135.323 22.1862 135.212 21.8281C135.108 21.4635 135.023 21.1478 134.958 20.8809C134.893 21.1478 134.802 21.4798 134.685 21.877C134.574 22.2676 134.466 22.6387 134.362 22.9902C134.258 23.3418 134.183 23.5924 134.138 23.7422L133.112 27.0625H136.833ZM147.819 18.7227C149.115 18.7227 150.183 18.8789 151.022 19.1914C151.869 19.5039 152.497 19.9759 152.907 20.6074C153.317 21.2389 153.522 22.0365 153.522 23C153.522 23.651 153.399 24.2207 153.151 24.709C152.904 25.1973 152.578 25.6107 152.175 25.9492C151.771 26.2878 151.335 26.5645 150.866 26.7793L155.065 33H151.706L148.298 27.5215H146.687V33H143.659V18.7227H147.819ZM147.604 21.2031H146.687V25.0605H147.663C148.666 25.0605 149.382 24.8945 149.812 24.5625C150.248 24.224 150.466 23.7292 150.466 23.0781C150.466 22.401 150.231 21.9193 149.763 21.6328C149.3 21.3464 148.581 21.2031 147.604 21.2031ZM168.122 21.0371C167.543 21.0371 167.028 21.151 166.579 21.3789C166.136 21.6003 165.762 21.9225 165.456 22.3457C165.157 22.7689 164.929 23.2799 164.772 23.8789C164.616 24.4779 164.538 25.1517 164.538 25.9004C164.538 26.9095 164.662 27.7721 164.909 28.4883C165.163 29.1979 165.554 29.7415 166.081 30.1191C166.608 30.4902 167.289 30.6758 168.122 30.6758C168.701 30.6758 169.281 30.6107 169.86 30.4805C170.446 30.3503 171.081 30.1647 171.765 29.9238V32.4629C171.133 32.7233 170.511 32.9089 169.899 33.0195C169.287 33.1367 168.601 33.1953 167.839 33.1953C166.368 33.1953 165.157 32.8926 164.206 32.2871C163.262 31.6751 162.562 30.8223 162.106 29.7285C161.651 28.6283 161.423 27.3457 161.423 25.8809C161.423 24.8001 161.569 23.8105 161.862 22.9121C162.155 22.0137 162.585 21.2357 163.151 20.5781C163.718 19.9206 164.418 19.4128 165.251 19.0547C166.084 18.6966 167.041 18.5176 168.122 18.5176C168.832 18.5176 169.541 18.6087 170.251 18.791C170.967 18.9668 171.651 19.2109 172.302 19.5234L171.325 21.9844C170.791 21.7305 170.254 21.5091 169.714 21.3203C169.174 21.1315 168.643 21.0371 168.122 21.0371ZM187.771 25.8418C187.771 26.9421 187.634 27.9447 187.36 28.8496C187.087 29.748 186.67 30.5228 186.11 31.1738C185.557 31.8249 184.854 32.3262 184.001 32.6777C183.148 33.0228 182.139 33.1953 180.974 33.1953C179.808 33.1953 178.799 33.0228 177.946 32.6777C177.093 32.3262 176.387 31.8249 175.827 31.1738C175.274 30.5228 174.86 29.7448 174.587 28.8398C174.313 27.9349 174.177 26.929 174.177 25.8223C174.177 24.3444 174.418 23.0586 174.899 21.9648C175.388 20.8646 176.136 20.0117 177.146 19.4062C178.155 18.8008 179.437 18.498 180.993 18.498C182.543 18.498 183.815 18.8008 184.812 19.4062C185.814 20.0117 186.556 20.8646 187.038 21.9648C187.526 23.0651 187.771 24.3574 187.771 25.8418ZM177.351 25.8418C177.351 26.8379 177.474 27.6973 177.722 28.4199C177.976 29.1361 178.369 29.6895 178.903 30.0801C179.437 30.4642 180.127 30.6562 180.974 30.6562C181.833 30.6562 182.53 30.4642 183.063 30.0801C183.597 29.6895 183.985 29.1361 184.226 28.4199C184.473 27.6973 184.597 26.8379 184.597 25.8418C184.597 24.3444 184.317 23.166 183.757 22.3066C183.197 21.4473 182.276 21.0176 180.993 21.0176C180.14 21.0176 179.444 21.2129 178.903 21.6035C178.369 21.9876 177.976 22.541 177.722 23.2637C177.474 23.9798 177.351 24.8392 177.351 25.8418ZM194.89 18.7227C196.185 18.7227 197.253 18.8789 198.093 19.1914C198.939 19.5039 199.567 19.9759 199.978 20.6074C200.388 21.2389 200.593 22.0365 200.593 23C200.593 23.651 200.469 24.2207 200.222 24.709C199.974 25.1973 199.649 25.6107 199.245 25.9492C198.841 26.2878 198.405 26.5645 197.937 26.7793L202.136 33H198.776L195.368 27.5215H193.757V33H190.729V18.7227H194.89ZM194.675 21.2031H193.757V25.0605H194.733C195.736 25.0605 196.452 24.8945 196.882 24.5625C197.318 24.224 197.536 23.7292 197.536 23.0781C197.536 22.401 197.302 21.9193 196.833 21.6328C196.371 21.3464 195.651 21.2031 194.675 21.2031ZM208.093 18.7227C209.388 18.7227 210.456 18.8789 211.296 19.1914C212.142 19.5039 212.771 19.9759 213.181 20.6074C213.591 21.2389 213.796 22.0365 213.796 23C213.796 23.651 213.672 24.2207 213.425 24.709C213.177 25.1973 212.852 25.6107 212.448 25.9492C212.045 26.2878 211.608 26.5645 211.14 26.7793L215.339 33H211.979L208.571 27.5215H206.96V33H203.933V18.7227H208.093ZM207.878 21.2031H206.96V25.0605H207.937C208.939 25.0605 209.655 24.8945 210.085 24.5625C210.521 24.224 210.739 23.7292 210.739 23.0781C210.739 22.401 210.505 21.9193 210.036 21.6328C209.574 21.3464 208.854 21.2031 207.878 21.2031ZM225.358 33H217.136V18.7227H225.358V21.2031H220.163V24.3379H224.997V26.8184H220.163V30.5H225.358V33ZM241.306 25.8418C241.306 26.9421 241.169 27.9447 240.896 28.8496C240.622 29.748 240.205 30.5228 239.646 31.1738C239.092 31.8249 238.389 32.3262 237.536 32.6777C236.683 33.0228 235.674 33.1953 234.509 33.1953C233.343 33.1953 232.334 33.0228 231.481 32.6777C230.629 32.3262 229.922 31.8249 229.362 31.1738C228.809 30.5228 228.396 29.7448 228.122 28.8398C227.849 27.9349 227.712 26.929 227.712 25.8223C227.712 24.3444 227.953 23.0586 228.435 21.9648C228.923 20.8646 229.672 20.0117 230.681 19.4062C231.69 18.8008 232.972 18.498 234.528 18.498C236.078 18.498 237.351 18.8008 238.347 19.4062C239.349 20.0117 240.091 20.8646 240.573 21.9648C241.062 23.0651 241.306 24.3574 241.306 25.8418ZM230.886 25.8418C230.886 26.8379 231.009 27.6973 231.257 28.4199C231.511 29.1361 231.905 29.6895 232.438 30.0801C232.972 30.4642 233.662 30.6562 234.509 30.6562C235.368 30.6562 236.065 30.4642 236.599 30.0801C237.132 29.6895 237.52 29.1361 237.761 28.4199C238.008 27.6973 238.132 26.8379 238.132 25.8418C238.132 24.3444 237.852 23.166 237.292 22.3066C236.732 21.4473 235.811 21.0176 234.528 21.0176C233.675 21.0176 232.979 21.2129 232.438 21.6035C231.905 21.9876 231.511 22.541 231.257 23.2637C231.009 23.9798 230.886 24.8392 230.886 25.8418Z" fill="#343333"/>
</g>
<defs>
<filter id="filter0_i_61_16" x="0" y="0" width="281.525" height="51.9363" filterUnits="userSpaceOnUse" color-interpolation-filters="sRGB">
<feFlood flood-opacity="0" result="BackgroundImageFix"/>
<feBlend mode="normal" in="SourceGraphic" in2="BackgroundImageFix" result="shape"/>
<feColorMatrix in="SourceAlpha" type="matrix" values="0 0 0 0 0 0 0 0 0 0 0 0 0 0 0 0 0 0 127 0" result="hardAlpha"/>
<feOffset dy="2"/>
<feGaussianBlur stdDeviation="0.5"/>
<feComposite in2="hardAlpha" operator="arithmetic" k2="-1" k3="1"/>
<feColorMatrix type="matrix" values="0 0 0 0 0.968627 0 0 0 0 0.984314 0 0 0 0 0.980392 0 0 0 1 0"/>
<feBlend mode="normal" in2="shape" result="effect1_innerShadow_61_16"/>
</filter>
<filter id="filter1_d_61_16" x="17.1045" y="12" width="228.375" height="29" filterUnits="userSpaceOnUse" color-interpolation-filters="sRGB">
<feFlood flood-opacity="0" result="BackgroundImageFix"/>
<feColorMatrix in="SourceAlpha" type="matrix" values="0 0 0 0 0 0 0 0 0 0 0 0 0 0 0 0 0 0 127 0" result="hardAlpha"/>
<feOffset dx="2" dy="1"/>
<feGaussianBlur stdDeviation="0.5"/>
<feComposite in2="hardAlpha" operator="out"/>
<feColorMatrix type="matrix" values="0 0 0 0 0.968627 0 0 0 0 0.984314 0 0 0 0 0.980392 0 0 0 1 0"/>
<feBlend mode="normal" in2="BackgroundImageFix" result="effect1_dropShadow_61_16"/>
<feBlend mode="normal" in="SourceGraphic" in2="effect1_dropShadow_61_16" result="shape"/>
</filter>
<linearGradient id="paint0_linear_61_16" x1="140.762" y1="0" x2="140.762" y2="50.9362" gradientUnits="userSpaceOnUse">
<stop stop-color="#E8D12C"/>
<stop offset="0.75" stop-color="#E8D12C"/>
<stop offset="1" stop-color="#FFAC22"/>
</linearGradient>
</defs>
</svg>
