<svg width="282" height="51" viewBox="0 0 282 51" fill="none" xmlns="http://www.w3.org/2000/svg">
<g filter="url(#filter0_i_61_16)">
<rect width="281.525" height="50.9362" rx="10" fill="url(#paint0_linear_61_16)"/>
</g>
<g filter="url(#filter1_d_61_16)">
<path d="M22.4795 16.8125C22.9795 16.8125 24.9795 21.3125 24.9795 21.8125C24.9795 22.8125 23.4795 23.8125 22.9795 24.8125C22.4795 25.8125 23.4795 26.8125 24.4795 27.8125C24.8695 28.2025 26.4795 29.8125 27.4795 29.3125C28.4795 28.8125 29.4795 27.3125 30.4795 27.3125C30.9795 27.3125 35.4795 29.3125 35.4795 29.8125C35.4795 31.8125 33.9795 33.3125 32.4795 33.8125C30.9795 34.3125 29.9795 34.3125 27.9795 33.8125C25.9795 33.3125 24.4795 32.8125 21.9795 30.3125C19.4795 27.8125 18.9795 26.3125 18.4795 24.3125C17.9795 22.3125 17.9795 21.3125 18.4795 19.8125C18.9795 18.3125 20.4795 16.8125 22.4795 16.8125Z" stroke="black" stroke-width="2" stroke-linecap="round" stroke-linejoin="round"/>
<path d="M49.7393 33L46.3018 21.7988H46.2139C46.2269 22.0658 46.2464 22.4694 46.2725 23.0098C46.305 23.5436 46.3343 24.1133 46.3604 24.7188C46.3864 25.3242 46.3994 25.8711 46.3994 26.3594V33H43.6943V18.7227H47.8154L51.1943 29.6406H51.2529L54.8369 18.7227H58.958V33H56.1357V26.2422C56.1357 25.793 56.1423 25.2754 56.1553 24.6895C56.1748 24.1035 56.1976 23.5469 56.2236 23.0195C56.2497 22.4857 56.2692 22.0853 56.2822 21.8184H56.1943L52.5127 33H49.7393ZM75.5205 25.8418C75.5205 26.9421 75.3838 27.9447 75.1104 28.8496C74.8369 29.748 74.4202 30.5228 73.8604 31.1738C73.307 31.8249 72.6038 32.3262 71.751 32.6777C70.8981 33.0228 69.889 33.1953 68.7236 33.1953C67.5583 33.1953 66.5492 33.0228 65.6963 32.6777C64.8434 32.3262 64.137 31.8249 63.5771 31.1738C63.0238 30.5228 62.6104 29.7448 62.3369 28.8398C62.0635 27.9349 61.9268 26.929 61.9268 25.8223C61.9268 24.3444 62.1676 23.0586 62.6494 21.9648C63.1377 20.8646 63.8864 20.0117 64.8955 19.4062C65.9046 18.8008 67.1872 18.498 68.7432 18.498C70.2926 18.498 71.5654 18.8008 72.5615 19.4062C73.5641 20.0117 74.3063 20.8646 74.7881 21.9648C75.2764 23.0651 75.5205 24.3574 75.5205 25.8418ZM65.1006 25.8418C65.1006 26.8379 65.2243 27.6973 65.4717 28.4199C65.7256 29.1361 66.1195 29.6895 66.6533 30.0801C67.1872 30.4642 67.8773 30.6562 68.7236 30.6562C69.583 30.6562 70.2796 30.4642 70.8135 30.0801C71.3473 29.6895 71.7347 29.1361 71.9756 28.4199C72.223 27.6973 72.3467 26.8379 72.3467 25.8418C72.3467 24.3444 72.0667 23.166 71.5068 22.3066C70.9469 21.4473 70.0257 21.0176 68.7432 21.0176C67.8903 21.0176 67.1937 21.2129 66.6533 21.6035C66.1195 21.9876 65.7256 22.541 65.4717 23.2637C65.2243 23.9798 65.1006 24.8392 65.1006 25.8418ZM90.3252 25.7246C90.3252 27.3327 90.016 28.6771 89.3975 29.7578C88.7855 30.832 87.8968 31.6426 86.7314 32.1895C85.5661 32.7298 84.1631 33 82.5225 33H78.4795V18.7227H82.9619C84.4593 18.7227 85.7581 18.9896 86.8584 19.5234C87.9587 20.0508 88.8115 20.8353 89.417 21.877C90.0225 22.9121 90.3252 24.1947 90.3252 25.7246ZM87.1807 25.8027C87.1807 24.748 87.0244 23.8822 86.7119 23.2051C86.4059 22.5215 85.9502 22.0169 85.3447 21.6914C84.7458 21.3659 84.0036 21.2031 83.1182 21.2031H81.5068V30.5H82.8057C84.2835 30.5 85.3805 30.1061 86.0967 29.3184C86.8193 28.5306 87.1807 27.3587 87.1807 25.8027ZM93.2842 33V18.7227H96.3115V33H93.2842ZM102.884 33H99.9053V18.7227H108.089V21.2031H102.884V24.8848H107.728V27.3555H102.884V33ZM110.882 33V18.7227H113.909V33H110.882ZM123.567 21.0371C122.988 21.0371 122.474 21.151 122.024 21.3789C121.582 21.6003 121.207 21.9225 120.901 22.3457C120.602 22.7689 120.374 23.2799 120.218 23.8789C120.062 24.4779 119.983 25.1517 119.983 25.9004C119.983 26.9095 120.107 27.7721 120.354 28.4883C120.608 29.1979 120.999 29.7415 121.526 30.1191C122.054 30.4902 122.734 30.6758 123.567 30.6758C124.147 30.6758 124.726 30.6107 125.306 30.4805C125.892 30.3503 126.526 30.1647 127.21 29.9238V32.4629C126.578 32.7233 125.957 32.9089 125.345 33.0195C124.733 33.1367 124.046 33.1953 123.284 33.1953C121.813 33.1953 120.602 32.8926 119.651 32.2871C118.707 31.6751 118.007 30.8223 117.552 29.7285C117.096 28.6283 116.868 27.3457 116.868 25.8809C116.868 24.8001 117.015 23.8105 117.308 22.9121C117.601 22.0137 118.03 21.2357 118.597 20.5781C119.163 19.9206 119.863 19.4128 120.696 19.0547C121.53 18.6966 122.487 18.5176 123.567 18.5176C124.277 18.5176 124.987 18.6087 125.696 18.791C126.412 18.9668 127.096 19.2109 127.747 19.5234L126.771 21.9844C126.237 21.7305 125.7 21.5091 125.159 21.3203C124.619 21.1315 124.088 21.0371 123.567 21.0371ZM138.997 33L137.962 29.6016H132.757L131.722 33H128.46L133.499 18.6641H137.2L142.259 33H138.997ZM137.239 27.0625L136.204 23.7422C136.139 23.5208 136.051 23.2376 135.94 22.8926C135.836 22.541 135.729 22.1862 135.618 21.8281C135.514 21.4635 135.429 21.1478 135.364 20.8809C135.299 21.1478 135.208 21.4798 135.091 21.877C134.98 22.2676 134.873 22.6387 134.769 22.9902C134.664 23.3418 134.59 23.5924 134.544 23.7422L133.519 27.0625H137.239ZM148.226 18.7227C149.521 18.7227 150.589 18.8789 151.429 19.1914C152.275 19.5039 152.903 19.9759 153.313 20.6074C153.724 21.2389 153.929 22.0365 153.929 23C153.929 23.651 153.805 24.2207 153.558 24.709C153.31 25.1973 152.985 25.6107 152.581 25.9492C152.177 26.2878 151.741 26.5645 151.272 26.7793L155.472 33H152.112L148.704 27.5215H147.093V33H144.065V18.7227H148.226ZM148.011 21.2031H147.093V25.0605H148.069C149.072 25.0605 149.788 24.8945 150.218 24.5625C150.654 24.224 150.872 23.7292 150.872 23.0781C150.872 22.401 150.638 21.9193 150.169 21.6328C149.707 21.3464 148.987 21.2031 148.011 21.2031ZM167.972 33H164.944V21.2422H161.067V18.7227H171.849V21.2422H167.972V33ZM182.269 33H174.046V18.7227H182.269V21.2031H177.073V24.3379H181.907V26.8184H177.073V30.5H182.269V33ZM185.257 33V18.7227H188.284V30.5H194.075V33H185.257ZM204.788 33H196.565V18.7227H204.788V21.2031H199.593V24.3379H204.427V26.8184H199.593V30.5H204.788V33ZM204.622 14.3184V14.5234C204.433 14.7057 204.186 14.9303 203.88 15.1973C203.574 15.4642 203.245 15.7441 202.894 16.0371C202.542 16.3236 202.197 16.6003 201.858 16.8672C201.52 17.1276 201.224 17.3457 200.97 17.5215H198.987V17.2578C199.202 17.0104 199.45 16.7174 199.729 16.3789C200.016 16.0339 200.299 15.679 200.579 15.3145C200.859 14.9499 201.093 14.6178 201.282 14.3184H204.622ZM210.755 33H207.776V18.7227H215.96V21.2031H210.755V24.8848H215.599V27.3555H210.755V33ZM231.712 25.8418C231.712 26.9421 231.575 27.9447 231.302 28.8496C231.028 29.748 230.612 30.5228 230.052 31.1738C229.498 31.8249 228.795 32.3262 227.942 32.6777C227.09 33.0228 226.08 33.1953 224.915 33.1953C223.75 33.1953 222.741 33.0228 221.888 32.6777C221.035 32.3262 220.328 31.8249 219.769 31.1738C219.215 30.5228 218.802 29.7448 218.528 28.8398C218.255 27.9349 218.118 26.929 218.118 25.8223C218.118 24.3444 218.359 23.0586 218.841 21.9648C219.329 20.8646 220.078 20.0117 221.087 19.4062C222.096 18.8008 223.379 18.498 224.935 18.498C226.484 18.498 227.757 18.8008 228.753 19.4062C229.756 20.0117 230.498 20.8646 230.979 21.9648C231.468 23.0651 231.712 24.3574 231.712 25.8418ZM221.292 25.8418C221.292 26.8379 221.416 27.6973 221.663 28.4199C221.917 29.1361 222.311 29.6895 222.845 30.0801C223.379 30.4642 224.069 30.6562 224.915 30.6562C225.774 30.6562 226.471 30.4642 227.005 30.0801C227.539 29.6895 227.926 29.1361 228.167 28.4199C228.414 27.6973 228.538 26.8379 228.538 25.8418C228.538 24.3444 228.258 23.166 227.698 22.3066C227.138 21.4473 226.217 21.0176 224.935 21.0176C224.082 21.0176 223.385 21.2129 222.845 21.6035C222.311 21.9876 221.917 22.541 221.663 23.2637C221.416 23.9798 221.292 24.8392 221.292 25.8418ZM247.337 33H243.489L237.278 22.1992H237.19C237.216 22.6484 237.239 23.1009 237.259 23.5566C237.278 24.0124 237.298 24.4681 237.317 24.9238C237.337 25.373 237.356 25.8255 237.376 26.2812V33H234.671V18.7227H238.489L244.69 29.416H244.759C244.746 28.9733 244.729 28.5339 244.71 28.0977C244.69 27.6615 244.671 27.2253 244.651 26.7891C244.638 26.3529 244.625 25.9167 244.612 25.4805V18.7227H247.337V33ZM263.899 25.8418C263.899 26.9421 263.763 27.9447 263.489 28.8496C263.216 29.748 262.799 30.5228 262.239 31.1738C261.686 31.8249 260.983 32.3262 260.13 32.6777C259.277 33.0228 258.268 33.1953 257.103 33.1953C255.937 33.1953 254.928 33.0228 254.075 32.6777C253.222 32.3262 252.516 31.8249 251.956 31.1738C251.403 30.5228 250.989 29.7448 250.716 28.8398C250.442 27.9349 250.306 26.929 250.306 25.8223C250.306 24.3444 250.547 23.0586 251.028 21.9648C251.517 20.8646 252.265 20.0117 253.274 19.4062C254.284 18.8008 255.566 18.498 257.122 18.498C258.672 18.498 259.944 18.8008 260.94 19.4062C261.943 20.0117 262.685 20.8646 263.167 21.9648C263.655 23.0651 263.899 24.3574 263.899 25.8418ZM253.479 25.8418C253.479 26.8379 253.603 27.6973 253.851 28.4199C254.104 29.1361 254.498 29.6895 255.032 30.0801C255.566 30.4642 256.256 30.6562 257.103 30.6562C257.962 30.6562 258.659 30.4642 259.192 30.0801C259.726 29.6895 260.114 29.1361 260.354 28.4199C260.602 27.6973 260.726 26.8379 260.726 25.8418C260.726 24.3444 260.446 23.166 259.886 22.3066C259.326 21.4473 258.405 21.0176 257.122 21.0176C256.269 21.0176 255.573 21.2129 255.032 21.6035C254.498 21.9876 254.104 22.541 253.851 23.2637C253.603 23.9798 253.479 24.8392 253.479 25.8418Z" fill="#343333"/>
</g>
<defs>
<filter id="filter0_i_61_16" x="0" y="0" width="281.525" height="51.9363" filterUnits="userSpaceOnUse" color-interpolation-filters="sRGB">
<feFlood flood-opacity="0" result="BackgroundImageFix"/>
<feBlend mode="normal" in="SourceGraphic" in2="BackgroundImageFix" result="shape"/>
<feColorMatrix in="SourceAlpha" type="matrix" values="0 0 0 0 0 0 0 0 0 0 0 0 0 0 0 0 0 0 127 0" result="hardAlpha"/>
<feOffset dy="2"/>
<feGaussianBlur stdDeviation="0.5"/>
<feComposite in2="hardAlpha" operator="arithmetic" k2="-1" k3="1"/>
<feColorMatrix type="matrix" values="0 0 0 0 0.968627 0 0 0 0 0.984314 0 0 0 0 0.980392 0 0 0 1 0"/>
<feBlend mode="normal" in2="shape" result="effect1_innerShadow_61_16"/>
</filter>
<filter id="filter1_d_61_16" x="17.1045" y="12" width="251.375" height="29" filterUnits="userSpaceOnUse" color-interpolation-filters="sRGB">
<feFlood flood-opacity="0" result="BackgroundImageFix"/>
<feColorMatrix in="SourceAlpha" type="matrix" values="0 0 0 0 0 0 0 0 0 0 0 0 0 0 0 0 0 0 127 0" result="hardAlpha"/>
<feOffset dx="2" dy="1"/>
<feGaussianBlur stdDeviation="0.5"/>
<feComposite in2="hardAlpha" operator="out"/>
<feColorMatrix type="matrix" values="0 0 0 0 0.968627 0 0 0 0 0.984314 0 0 0 0 0.980392 0 0 0 1 0"/>
<feBlend mode="normal" in2="BackgroundImageFix" result="effect1_dropShadow_61_16"/>
<feBlend mode="normal" in="SourceGraphic" in2="effect1_dropShadow_61_16" result="shape"/>
</filter>
<linearGradient id="paint0_linear_61_16" x1="140.762" y1="0" x2="140.762" y2="50.9362" gradientUnits="userSpaceOnUse">
<stop stop-color="#E8D12C"/>
<stop offset="0.75" stop-color="#E8D12C"/>
<stop offset="1" stop-color="#FFAC22"/>
</linearGradient>
</defs>
</svg>
