<svg width="215" height="59" viewBox="0 0 215 59" fill="none" xmlns="http://www.w3.org/2000/svg">
<g filter="url(#filter0_di_7_1189)">
<rect x="4" width="207" height="50.9362" rx="10" fill="url(#paint0_linear_7_1189)"/>
</g>
<g filter="url(#filter1_d_7_1189)">
<path d="M57 21.5L55.6 22.9L58.2 25.5H48V27.5H58.2L55.6 30.1L57 31.5L62 26.5L57 21.5ZM66 33.5H58V35.5H66C67.1 35.5 68 34.6 68 33.5V19.5C68 18.4 67.1 17.5 66 17.5H58V19.5H66V33.5Z" fill="black"/>
<path d="M74.7969 34V19.7227H77.8242V34H74.7969ZM94.084 34H90.2363L84.0254 23.1992H83.9375C83.9635 23.6484 83.9863 24.1009 84.0059 24.5566C84.0254 25.0124 84.0449 25.4681 84.0645 25.9238C84.084 26.373 84.1035 26.8255 84.123 27.2812V34H81.418V19.7227H85.2363L91.4375 30.416H91.5059C91.4928 29.9733 91.4766 29.5339 91.457 29.0977C91.4375 28.6615 91.418 28.2253 91.3984 27.7891C91.3854 27.3529 91.3724 26.9167 91.3594 26.4805V19.7227H94.084V34ZM103.107 25.9824H108.771V33.3848C108.023 33.6322 107.245 33.8307 106.438 33.9805C105.63 34.1237 104.715 34.1953 103.693 34.1953C102.274 34.1953 101.07 33.9154 100.08 33.3555C99.0905 32.7956 98.3385 31.9688 97.8242 30.875C97.3099 29.7812 97.0527 28.4368 97.0527 26.8418C97.0527 25.3444 97.3392 24.0488 97.9121 22.9551C98.4915 21.8613 99.3346 21.015 100.441 20.416C101.555 19.8171 102.912 19.5176 104.514 19.5176C105.269 19.5176 106.014 19.599 106.75 19.7617C107.486 19.9245 108.153 20.1361 108.752 20.3965L107.746 22.8184C107.31 22.597 106.812 22.4115 106.252 22.2617C105.692 22.112 105.106 22.0371 104.494 22.0371C103.615 22.0371 102.85 22.2389 102.199 22.6426C101.555 23.0462 101.053 23.6126 100.695 24.3418C100.344 25.0645 100.168 25.9173 100.168 26.9004C100.168 27.8314 100.295 28.6582 100.549 29.3809C100.803 30.097 101.203 30.6602 101.75 31.0703C102.297 31.474 103.01 31.6758 103.889 31.6758C104.318 31.6758 104.68 31.6562 104.973 31.6172C105.272 31.5716 105.552 31.526 105.812 31.4805V28.502H103.107V25.9824ZM116.34 19.7227C117.635 19.7227 118.703 19.8789 119.543 20.1914C120.389 20.5039 121.018 20.9759 121.428 21.6074C121.838 22.2389 122.043 23.0365 122.043 24C122.043 24.651 121.919 25.2207 121.672 25.709C121.424 26.1973 121.099 26.6107 120.695 26.9492C120.292 27.2878 119.855 27.5645 119.387 27.7793L123.586 34H120.227L116.818 28.5215H115.207V34H112.18V19.7227H116.34ZM116.125 22.2031H115.207V26.0605H116.184C117.186 26.0605 117.902 25.8945 118.332 25.5625C118.768 25.224 118.986 24.7292 118.986 24.0781C118.986 23.401 118.752 22.9193 118.283 22.6328C117.821 22.3464 117.102 22.2031 116.125 22.2031ZM133.605 34H125.383V19.7227H133.605V22.2031H128.41V25.3379H133.244V27.8184H128.41V31.5H133.605V34ZM145.021 30.0352C145.021 30.8815 144.816 31.6172 144.406 32.2422C143.996 32.8672 143.397 33.349 142.609 33.6875C141.828 34.026 140.878 34.1953 139.758 34.1953C139.263 34.1953 138.778 34.1628 138.303 34.0977C137.834 34.0326 137.382 33.9382 136.945 33.8145C136.516 33.6842 136.105 33.5247 135.715 33.3359V30.5234C136.392 30.8229 137.095 31.0931 137.824 31.334C138.553 31.5749 139.276 31.6953 139.992 31.6953C140.487 31.6953 140.884 31.6302 141.184 31.5C141.49 31.3698 141.711 31.1908 141.848 30.9629C141.984 30.735 142.053 30.4746 142.053 30.1816C142.053 29.8236 141.932 29.5176 141.691 29.2637C141.451 29.0098 141.118 28.7721 140.695 28.5508C140.279 28.3294 139.807 28.0918 139.279 27.8379C138.947 27.6816 138.586 27.4928 138.195 27.2715C137.805 27.0436 137.434 26.7669 137.082 26.4414C136.73 26.1159 136.441 25.722 136.213 25.2598C135.992 24.791 135.881 24.2311 135.881 23.5801C135.881 22.7272 136.076 21.998 136.467 21.3926C136.857 20.7871 137.414 20.3249 138.137 20.0059C138.866 19.6803 139.725 19.5176 140.715 19.5176C141.457 19.5176 142.163 19.6055 142.834 19.7812C143.511 19.9505 144.217 20.1979 144.953 20.5234L143.977 22.877C143.319 22.61 142.73 22.4049 142.209 22.2617C141.688 22.112 141.158 22.0371 140.617 22.0371C140.24 22.0371 139.917 22.099 139.65 22.2227C139.383 22.3398 139.182 22.5091 139.045 22.7305C138.908 22.9453 138.84 23.196 138.84 23.4824C138.84 23.821 138.938 24.1074 139.133 24.3418C139.335 24.5697 139.634 24.791 140.031 25.0059C140.435 25.2207 140.936 25.4714 141.535 25.7578C142.264 26.1029 142.886 26.4642 143.4 26.8418C143.921 27.2129 144.322 27.6523 144.602 28.1602C144.882 28.6615 145.021 29.2865 145.021 30.0352ZM156.35 34L155.314 30.6016H150.109L149.074 34H145.812L150.852 19.6641H154.553L159.611 34H156.35ZM154.592 28.0625L153.557 24.7422C153.492 24.5208 153.404 24.2376 153.293 23.8926C153.189 23.541 153.081 23.1862 152.971 22.8281C152.867 22.4635 152.782 22.1478 152.717 21.8809C152.652 22.1478 152.561 22.4798 152.443 22.877C152.333 23.2676 152.225 23.6387 152.121 23.9902C152.017 24.3418 151.942 24.5924 151.896 24.7422L150.871 28.0625H154.592ZM165.578 19.7227C166.874 19.7227 167.941 19.8789 168.781 20.1914C169.628 20.5039 170.256 20.9759 170.666 21.6074C171.076 22.2389 171.281 23.0365 171.281 24C171.281 24.651 171.158 25.2207 170.91 25.709C170.663 26.1973 170.337 26.6107 169.934 26.9492C169.53 27.2878 169.094 27.5645 168.625 27.7793L172.824 34H169.465L166.057 28.5215H164.445V34H161.418V19.7227H165.578ZM165.363 22.2031H164.445V26.0605H165.422C166.424 26.0605 167.141 25.8945 167.57 25.5625C168.007 25.224 168.225 24.7292 168.225 24.0781C168.225 23.401 167.99 22.9193 167.521 22.6328C167.059 22.3464 166.34 22.2031 165.363 22.2031Z" fill="#343333"/>
</g>
<defs>
<filter id="filter0_di_7_1189" x="0" y="0" width="215" height="58.9362" filterUnits="userSpaceOnUse" color-interpolation-filters="sRGB">
<feFlood flood-opacity="0" result="BackgroundImageFix"/>
<feColorMatrix in="SourceAlpha" type="matrix" values="0 0 0 0 0 0 0 0 0 0 0 0 0 0 0 0 0 0 127 0" result="hardAlpha"/>
<feOffset dy="4"/>
<feGaussianBlur stdDeviation="2"/>
<feComposite in2="hardAlpha" operator="out"/>
<feColorMatrix type="matrix" values="0 0 0 0 0 0 0 0 0 0 0 0 0 0 0 0 0 0 0.25 0"/>
<feBlend mode="normal" in2="BackgroundImageFix" result="effect1_dropShadow_7_1189"/>
<feBlend mode="normal" in="SourceGraphic" in2="effect1_dropShadow_7_1189" result="shape"/>
<feColorMatrix in="SourceAlpha" type="matrix" values="0 0 0 0 0 0 0 0 0 0 0 0 0 0 0 0 0 0 127 0" result="hardAlpha"/>
<feOffset dy="2"/>
<feGaussianBlur stdDeviation="0.5"/>
<feComposite in2="hardAlpha" operator="arithmetic" k2="-1" k3="1"/>
<feColorMatrix type="matrix" values="0 0 0 0 0.968627 0 0 0 0 0.984314 0 0 0 0 0.980392 0 0 0 1 0"/>
<feBlend mode="normal" in2="shape" result="effect2_innerShadow_7_1189"/>
</filter>
<filter id="filter1_d_7_1189" x="48" y="13" width="127.824" height="29" filterUnits="userSpaceOnUse" color-interpolation-filters="sRGB">
<feFlood flood-opacity="0" result="BackgroundImageFix"/>
<feColorMatrix in="SourceAlpha" type="matrix" values="0 0 0 0 0 0 0 0 0 0 0 0 0 0 0 0 0 0 127 0" result="hardAlpha"/>
<feOffset dx="2" dy="1"/>
<feGaussianBlur stdDeviation="0.5"/>
<feComposite in2="hardAlpha" operator="out"/>
<feColorMatrix type="matrix" values="0 0 0 0 0.968627 0 0 0 0 0.984314 0 0 0 0 0.980392 0 0 0 1 0"/>
<feBlend mode="normal" in2="BackgroundImageFix" result="effect1_dropShadow_7_1189"/>
<feBlend mode="normal" in="SourceGraphic" in2="effect1_dropShadow_7_1189" result="shape"/>
</filter>
<linearGradient id="paint0_linear_7_1189" x1="107.5" y1="0" x2="107.5" y2="50.9362" gradientUnits="userSpaceOnUse">
<stop stop-color="#E8D12C"/>
<stop offset="0.75" stop-color="#E8D12C"/>
<stop offset="1" stop-color="#FFAC22"/>
</linearGradient>
</defs>
</svg>
