<svg width="456" height="59" viewBox="0 0 456 59" fill="none" xmlns="http://www.w3.org/2000/svg">
<g filter="url(#filter0_di_17_295)">
<rect x="4" width="448" height="50.9362" rx="10" fill="url(#paint0_linear_17_295)"/>
</g>
<g filter="url(#filter1_d_17_295)">
<path d="M152 21.5H140V17.5H152V21.5ZM152 27C152.283 27 152.521 26.904 152.713 26.712C152.905 26.52 153.001 26.2827 153 26C152.999 25.7173 152.903 25.48 152.712 25.288C152.521 25.096 152.283 25 152 25C151.717 25 151.479 25.096 151.288 25.288C151.097 25.48 151.001 25.7173 151 26C150.999 26.2827 151.095 26.5203 151.288 26.713C151.481 26.9057 151.718 27.0013 152 27ZM150 33.5V29.5H142V33.5H150ZM152 35.5H140V31.5H136V25.5C136 24.65 136.292 23.9377 136.875 23.363C137.458 22.7883 138.167 22.5007 139 22.5H153C153.85 22.5 154.563 22.7877 155.138 23.363C155.713 23.9383 156.001 24.6507 156 25.5V31.5H152V35.5Z" fill="#262525"/>
<path d="M165.078 34V19.7227H168.105V34H165.078ZM177.744 34L174.307 22.7988H174.219C174.232 23.0658 174.251 23.4694 174.277 24.0098C174.31 24.5436 174.339 25.1133 174.365 25.7188C174.391 26.3242 174.404 26.8711 174.404 27.3594V34H171.699V19.7227H175.82L179.199 30.6406H179.258L182.842 19.7227H186.963V34H184.141V27.2422C184.141 26.793 184.147 26.2754 184.16 25.6895C184.18 25.1035 184.202 24.5469 184.229 24.0195C184.255 23.4857 184.274 23.0853 184.287 22.8184H184.199L180.518 34H177.744ZM195.127 19.7227C196.969 19.7227 198.314 20.1198 199.16 20.9141C200.007 21.7018 200.43 22.7891 200.43 24.1758C200.43 24.8008 200.335 25.3997 200.146 25.9727C199.958 26.5391 199.648 27.0436 199.219 27.4863C198.796 27.929 198.229 28.2806 197.52 28.541C196.81 28.7949 195.934 28.9219 194.893 28.9219H193.594V34H190.566V19.7227H195.127ZM194.971 22.2031H193.594V26.4414H194.59C195.156 26.4414 195.648 26.3665 196.064 26.2168C196.481 26.0671 196.803 25.8327 197.031 25.5137C197.259 25.1947 197.373 24.7845 197.373 24.2832C197.373 23.5801 197.178 23.0592 196.787 22.7207C196.396 22.3757 195.791 22.2031 194.971 22.2031ZM207.285 19.7227C208.581 19.7227 209.648 19.8789 210.488 20.1914C211.335 20.5039 211.963 20.9759 212.373 21.6074C212.783 22.2389 212.988 23.0365 212.988 24C212.988 24.651 212.865 25.2207 212.617 25.709C212.37 26.1973 212.044 26.6107 211.641 26.9492C211.237 27.2878 210.801 27.5645 210.332 27.7793L214.531 34H211.172L207.764 28.5215H206.152V34H203.125V19.7227H207.285ZM207.07 22.2031H206.152V26.0605H207.129C208.132 26.0605 208.848 25.8945 209.277 25.5625C209.714 25.224 209.932 24.7292 209.932 24.0781C209.932 23.401 209.697 22.9193 209.229 22.6328C208.766 22.3464 208.047 22.2031 207.07 22.2031ZM216.328 34V19.7227H219.355V34H216.328ZM228.994 34L225.557 22.7988H225.469C225.482 23.0658 225.501 23.4694 225.527 24.0098C225.56 24.5436 225.589 25.1133 225.615 25.7188C225.641 26.3242 225.654 26.8711 225.654 27.3594V34H222.949V19.7227H227.07L230.449 30.6406H230.508L234.092 19.7227H238.213V34H235.391V27.2422C235.391 26.793 235.397 26.2754 235.41 25.6895C235.43 25.1035 235.452 24.5469 235.479 24.0195C235.505 23.4857 235.524 23.0853 235.537 22.8184H235.449L231.768 34H228.994ZM241.816 34V19.7227H244.844V34H241.816ZM252.598 19.7227C253.893 19.7227 254.961 19.8789 255.801 20.1914C256.647 20.5039 257.275 20.9759 257.686 21.6074C258.096 22.2389 258.301 23.0365 258.301 24C258.301 24.651 258.177 25.2207 257.93 25.709C257.682 26.1973 257.357 26.6107 256.953 26.9492C256.549 27.2878 256.113 27.5645 255.645 27.7793L259.844 34H256.484L253.076 28.5215H251.465V34H248.438V19.7227H252.598ZM252.383 22.2031H251.465V26.0605H252.441C253.444 26.0605 254.16 25.8945 254.59 25.5625C255.026 25.224 255.244 24.7292 255.244 24.0781C255.244 23.401 255.01 22.9193 254.541 22.6328C254.079 22.3464 253.359 22.2031 252.383 22.2031ZM272.9 22.0371C272.321 22.0371 271.807 22.151 271.357 22.3789C270.915 22.6003 270.54 22.9225 270.234 23.3457C269.935 23.7689 269.707 24.2799 269.551 24.8789C269.395 25.4779 269.316 26.1517 269.316 26.9004C269.316 27.9095 269.44 28.7721 269.688 29.4883C269.941 30.1979 270.332 30.7415 270.859 31.1191C271.387 31.4902 272.067 31.6758 272.9 31.6758C273.48 31.6758 274.059 31.6107 274.639 31.4805C275.225 31.3503 275.859 31.1647 276.543 30.9238V33.4629C275.911 33.7233 275.29 33.9089 274.678 34.0195C274.066 34.1367 273.379 34.1953 272.617 34.1953C271.146 34.1953 269.935 33.8926 268.984 33.2871C268.04 32.6751 267.34 31.8223 266.885 30.7285C266.429 29.6283 266.201 28.3457 266.201 26.8809C266.201 25.8001 266.348 24.8105 266.641 23.9121C266.934 23.0137 267.363 22.2357 267.93 21.5781C268.496 20.9206 269.196 20.4128 270.029 20.0547C270.863 19.6966 271.82 19.5176 272.9 19.5176C273.61 19.5176 274.32 19.6087 275.029 19.791C275.745 19.9668 276.429 20.2109 277.08 20.5234L276.104 22.9844C275.57 22.7305 275.033 22.5091 274.492 22.3203C273.952 22.1315 273.421 22.0371 272.9 22.0371ZM288.33 34L287.295 30.6016H282.09L281.055 34H277.793L282.832 19.6641H286.533L291.592 34H288.33ZM286.572 28.0625L285.537 24.7422C285.472 24.5208 285.384 24.2376 285.273 23.8926C285.169 23.541 285.062 23.1862 284.951 22.8281C284.847 22.4635 284.762 22.1478 284.697 21.8809C284.632 22.1478 284.541 22.4798 284.424 22.877C284.313 23.2676 284.206 23.6387 284.102 23.9902C283.997 24.3418 283.923 24.5924 283.877 24.7422L282.852 28.0625H286.572ZM306.064 34H302.217L296.006 23.1992H295.918C295.944 23.6484 295.967 24.1009 295.986 24.5566C296.006 25.0124 296.025 25.4681 296.045 25.9238C296.064 26.373 296.084 26.8255 296.104 27.2812V34H293.398V19.7227H297.217L303.418 30.416H303.486C303.473 29.9733 303.457 29.5339 303.438 29.0977C303.418 28.6615 303.398 28.2253 303.379 27.7891C303.366 27.3529 303.353 26.9167 303.34 26.4805V19.7227H306.064V34ZM308.174 38.1992C307.783 38.1992 307.441 38.1764 307.148 38.1309C306.849 38.0918 306.595 38.043 306.387 37.9844V35.4648C306.595 35.5104 306.82 35.5527 307.061 35.5918C307.295 35.6374 307.546 35.6602 307.812 35.6602C308.164 35.6602 308.48 35.5918 308.76 35.4551C309.04 35.3249 309.261 35.0742 309.424 34.7031C309.587 34.332 309.668 33.7982 309.668 33.1016V19.7227H312.695V33.082C312.695 34.306 312.503 35.2923 312.119 36.041C311.742 36.7962 311.211 37.3431 310.527 37.6816C309.85 38.0267 309.066 38.1992 308.174 38.1992ZM324.512 34H316.289V19.7227H324.512V22.2031H319.316V25.3379H324.15V27.8184H319.316V31.5H324.512V34ZM335.928 30.0352C335.928 30.8815 335.723 31.6172 335.312 32.2422C334.902 32.8672 334.303 33.349 333.516 33.6875C332.734 34.026 331.784 34.1953 330.664 34.1953C330.169 34.1953 329.684 34.1628 329.209 34.0977C328.74 34.0326 328.288 33.9382 327.852 33.8145C327.422 33.6842 327.012 33.5247 326.621 33.3359V30.5234C327.298 30.8229 328.001 31.0931 328.73 31.334C329.46 31.5749 330.182 31.6953 330.898 31.6953C331.393 31.6953 331.79 31.6302 332.09 31.5C332.396 31.3698 332.617 31.1908 332.754 30.9629C332.891 30.735 332.959 30.4746 332.959 30.1816C332.959 29.8236 332.839 29.5176 332.598 29.2637C332.357 29.0098 332.025 28.7721 331.602 28.5508C331.185 28.3294 330.713 28.0918 330.186 27.8379C329.854 27.6816 329.492 27.4928 329.102 27.2715C328.711 27.0436 328.34 26.7669 327.988 26.4414C327.637 26.1159 327.347 25.722 327.119 25.2598C326.898 24.791 326.787 24.2311 326.787 23.5801C326.787 22.7272 326.982 21.998 327.373 21.3926C327.764 20.7871 328.32 20.3249 329.043 20.0059C329.772 19.6803 330.632 19.5176 331.621 19.5176C332.363 19.5176 333.07 19.6055 333.74 19.7812C334.417 19.9505 335.124 20.1979 335.859 20.5234L334.883 22.877C334.225 22.61 333.636 22.4049 333.115 22.2617C332.594 22.112 332.064 22.0371 331.523 22.0371C331.146 22.0371 330.824 22.099 330.557 22.2227C330.29 22.3398 330.088 22.5091 329.951 22.7305C329.814 22.9453 329.746 23.196 329.746 23.4824C329.746 23.821 329.844 24.1074 330.039 24.3418C330.241 24.5697 330.54 24.791 330.938 25.0059C331.341 25.2207 331.842 25.4714 332.441 25.7578C333.171 26.1029 333.792 26.4642 334.307 26.8418C334.827 27.2129 335.228 27.6523 335.508 28.1602C335.788 28.6615 335.928 29.2865 335.928 30.0352Z" fill="#343333"/>
</g>
<defs>
<filter id="filter0_di_17_295" x="0" y="0" width="456" height="58.9362" filterUnits="userSpaceOnUse" color-interpolation-filters="sRGB">
<feFlood flood-opacity="0" result="BackgroundImageFix"/>
<feColorMatrix in="SourceAlpha" type="matrix" values="0 0 0 0 0 0 0 0 0 0 0 0 0 0 0 0 0 0 127 0" result="hardAlpha"/>
<feOffset dy="4"/>
<feGaussianBlur stdDeviation="2"/>
<feComposite in2="hardAlpha" operator="out"/>
<feColorMatrix type="matrix" values="0 0 0 0 0 0 0 0 0 0 0 0 0 0 0 0 0 0 0.25 0"/>
<feBlend mode="normal" in2="BackgroundImageFix" result="effect1_dropShadow_17_295"/>
<feBlend mode="normal" in="SourceGraphic" in2="effect1_dropShadow_17_295" result="shape"/>
<feColorMatrix in="SourceAlpha" type="matrix" values="0 0 0 0 0 0 0 0 0 0 0 0 0 0 0 0 0 0 127 0" result="hardAlpha"/>
<feOffset dy="2"/>
<feGaussianBlur stdDeviation="0.5"/>
<feComposite in2="hardAlpha" operator="arithmetic" k2="-1" k3="1"/>
<feColorMatrix type="matrix" values="0 0 0 0 0.968627 0 0 0 0 0.984314 0 0 0 0 0.980392 0 0 0 1 0"/>
<feBlend mode="normal" in2="shape" result="effect2_innerShadow_17_295"/>
</filter>
<filter id="filter1_d_17_295" x="136" y="13" width="204" height="29" filterUnits="userSpaceOnUse" color-interpolation-filters="sRGB">
<feFlood flood-opacity="0" result="BackgroundImageFix"/>
<feColorMatrix in="SourceAlpha" type="matrix" values="0 0 0 0 0 0 0 0 0 0 0 0 0 0 0 0 0 0 127 0" result="hardAlpha"/>
<feOffset dx="2" dy="1"/>
<feGaussianBlur stdDeviation="0.5"/>
<feComposite in2="hardAlpha" operator="out"/>
<feColorMatrix type="matrix" values="0 0 0 0 0.968627 0 0 0 0 0.984314 0 0 0 0 0.980392 0 0 0 1 0"/>
<feBlend mode="normal" in2="BackgroundImageFix" result="effect1_dropShadow_17_295"/>
<feBlend mode="normal" in="SourceGraphic" in2="effect1_dropShadow_17_295" result="shape"/>
</filter>
<linearGradient id="paint0_linear_17_295" x1="228" y1="0" x2="228" y2="50.9362" gradientUnits="userSpaceOnUse">
<stop stop-color="#E8D12C"/>
<stop offset="0.75" stop-color="#E8D12C"/>
<stop offset="1" stop-color="#FFAC22"/>
</linearGradient>
</defs>
</svg>
