<svg width="456" height="59" viewBox="0 0 456 59" fill="none" xmlns="http://www.w3.org/2000/svg">
<g filter="url(#filter0_di_17_295)">
<rect x="4" width="448" height="50.9362" rx="10" fill="url(#paint0_linear_17_295)"/>
</g>
<g filter="url(#filter1_d_17_295)">
<path d="M121.863 21.9043H109.863V17.9043H121.863V21.9043ZM121.863 27.4043C122.146 27.4043 122.384 27.3083 122.576 27.1163C122.768 26.9243 122.864 26.687 122.863 26.4043C122.862 26.1216 122.766 25.8843 122.575 25.6923C122.384 25.5003 122.146 25.4043 121.863 25.4043C121.58 25.4043 121.342 25.5003 121.151 25.6923C120.96 25.8843 120.864 26.1216 120.863 26.4043C120.862 26.687 120.958 26.9246 121.151 27.1173C121.344 27.31 121.581 27.4056 121.863 27.4043ZM119.863 33.9043V29.9043H111.863V33.9043H119.863ZM121.863 35.9043H109.863V31.9043H105.863V25.9043C105.863 25.0543 106.155 24.342 106.738 23.7673C107.321 23.1926 108.03 22.905 108.863 22.9043H122.863C123.713 22.9043 124.426 23.192 125.001 23.7673C125.576 24.3426 125.864 25.055 125.863 25.9043V31.9043H121.863V35.9043Z" fill="#262525"/>
<path d="M138.611 34.4043V20.127H141.638V34.4043H138.611ZM151.277 34.4043L147.839 23.2031H147.752C147.765 23.4701 147.784 23.8737 147.81 24.4141C147.843 24.9479 147.872 25.5176 147.898 26.123C147.924 26.7285 147.937 27.2754 147.937 27.7637V34.4043H145.232V20.127H149.353L152.732 31.0449H152.791L156.375 20.127H160.496V34.4043H157.673V27.6465C157.673 27.1973 157.68 26.6797 157.693 26.0938C157.713 25.5078 157.735 24.9512 157.761 24.4238C157.787 23.89 157.807 23.4896 157.82 23.2227H157.732L154.05 34.4043H151.277ZM168.66 20.127C170.502 20.127 171.847 20.5241 172.693 21.3184C173.539 22.1061 173.963 23.1934 173.963 24.5801C173.963 25.2051 173.868 25.804 173.679 26.377C173.491 26.9434 173.181 27.4479 172.752 27.8906C172.328 28.3333 171.762 28.6849 171.052 28.9453C170.343 29.1992 169.467 29.3262 168.425 29.3262H167.127V34.4043H164.099V20.127H168.66ZM168.504 22.6074H167.127V26.8457H168.123C168.689 26.8457 169.181 26.7708 169.597 26.6211C170.014 26.4714 170.336 26.237 170.564 25.918C170.792 25.599 170.906 25.1888 170.906 24.6875C170.906 23.9844 170.711 23.4635 170.32 23.125C169.929 22.7799 169.324 22.6074 168.504 22.6074ZM180.818 20.127C182.114 20.127 183.181 20.2832 184.021 20.5957C184.867 20.9082 185.496 21.3802 185.906 22.0117C186.316 22.6432 186.521 23.4408 186.521 24.4043C186.521 25.0553 186.397 25.625 186.15 26.1133C185.903 26.6016 185.577 27.015 185.173 27.3535C184.77 27.6921 184.334 27.9688 183.865 28.1836L188.064 34.4043H184.705L181.297 28.9258H179.685V34.4043H176.658V20.127H180.818ZM180.603 22.6074H179.685V26.4648H180.662C181.664 26.4648 182.381 26.2988 182.81 25.9668C183.246 25.6283 183.464 25.1335 183.464 24.4824C183.464 23.8053 183.23 23.3236 182.761 23.0371C182.299 22.7507 181.58 22.6074 180.603 22.6074ZM189.861 34.4043V20.127H192.888V34.4043H189.861ZM202.527 34.4043L199.089 23.2031H199.002C199.015 23.4701 199.034 23.8737 199.06 24.4141C199.093 24.9479 199.122 25.5176 199.148 26.123C199.174 26.7285 199.187 27.2754 199.187 27.7637V34.4043H196.482V20.127H200.603L203.982 31.0449H204.041L207.625 20.127H211.746V34.4043H208.923V27.6465C208.923 27.1973 208.93 26.6797 208.943 26.0938C208.963 25.5078 208.985 24.9512 209.011 24.4238C209.037 23.89 209.057 23.4896 209.07 23.2227H208.982L205.3 34.4043H202.527ZM215.349 34.4043V20.127H218.377V34.4043H215.349ZM226.131 20.127C227.426 20.127 228.494 20.2832 229.334 20.5957C230.18 20.9082 230.808 21.3802 231.218 22.0117C231.629 22.6432 231.834 23.4408 231.834 24.4043C231.834 25.0553 231.71 25.625 231.463 26.1133C231.215 26.6016 230.89 27.015 230.486 27.3535C230.082 27.6921 229.646 27.9688 229.177 28.1836L233.377 34.4043H230.017L226.609 28.9258H224.998V34.4043H221.97V20.127H226.131ZM225.916 22.6074H224.998V26.4648H225.974C226.977 26.4648 227.693 26.2988 228.123 25.9668C228.559 25.6283 228.777 25.1335 228.777 24.4824C228.777 23.8053 228.543 23.3236 228.074 23.0371C227.612 22.7507 226.892 22.6074 225.916 22.6074ZM246.433 22.4414C245.854 22.4414 245.339 22.5553 244.89 22.7832C244.448 23.0046 244.073 23.3268 243.767 23.75C243.468 24.1732 243.24 24.6842 243.084 25.2832C242.927 25.8822 242.849 26.556 242.849 27.3047C242.849 28.3138 242.973 29.1764 243.22 29.8926C243.474 30.6022 243.865 31.1458 244.392 31.5234C244.92 31.8945 245.6 32.0801 246.433 32.0801C247.013 32.0801 247.592 32.015 248.172 31.8848C248.757 31.7546 249.392 31.569 250.076 31.3281V33.8672C249.444 34.1276 248.823 34.3132 248.211 34.4238C247.599 34.541 246.912 34.5996 246.15 34.5996C244.679 34.5996 243.468 34.2969 242.517 33.6914C241.573 33.0794 240.873 32.2266 240.418 31.1328C239.962 30.0326 239.734 28.75 239.734 27.2852C239.734 26.2044 239.881 25.2148 240.173 24.3164C240.466 23.418 240.896 22.64 241.463 21.9824C242.029 21.3249 242.729 20.8171 243.562 20.459C244.395 20.1009 245.353 19.9219 246.433 19.9219C247.143 19.9219 247.853 20.013 248.562 20.1953C249.278 20.3711 249.962 20.6152 250.613 20.9277L249.636 23.3887C249.103 23.1348 248.565 22.9134 248.025 22.7246C247.485 22.5358 246.954 22.4414 246.433 22.4414ZM264.744 20.127V29.3652C264.744 30.3483 264.526 31.237 264.089 32.0312C263.66 32.819 263.006 33.444 262.127 33.9062C261.254 34.3685 260.154 34.5996 258.826 34.5996C256.938 34.5996 255.499 34.1178 254.509 33.1543C253.52 32.1908 253.025 30.9147 253.025 29.3262V20.127H256.043V28.8672C256.043 30.0456 256.284 30.8724 256.765 31.3477C257.247 31.8229 257.96 32.0605 258.904 32.0605C259.568 32.0605 260.105 31.9466 260.515 31.7188C260.932 31.4909 261.238 31.1393 261.433 30.6641C261.629 30.1888 261.726 29.5833 261.726 28.8477V20.127H264.744ZM272.8 20.127C274.643 20.127 275.987 20.5241 276.834 21.3184C277.68 22.1061 278.103 23.1934 278.103 24.5801C278.103 25.2051 278.009 25.804 277.82 26.377C277.631 26.9434 277.322 27.4479 276.892 27.8906C276.469 28.3333 275.903 28.6849 275.193 28.9453C274.483 29.1992 273.608 29.3262 272.566 29.3262H271.267V34.4043H268.24V20.127H272.8ZM272.644 22.6074H271.267V26.8457H272.263C272.83 26.8457 273.321 26.7708 273.738 26.6211C274.155 26.4714 274.477 26.237 274.705 25.918C274.933 25.599 275.047 25.1888 275.047 24.6875C275.047 23.9844 274.851 23.4635 274.461 23.125C274.07 22.7799 273.464 22.6074 272.644 22.6074ZM293.757 27.2461C293.757 28.3464 293.621 29.349 293.347 30.2539C293.074 31.1523 292.657 31.9271 292.097 32.5781C291.544 33.2292 290.841 33.7305 289.988 34.082C289.135 34.4271 288.126 34.5996 286.961 34.5996C285.795 34.5996 284.786 34.4271 283.933 34.082C283.08 33.7305 282.374 33.2292 281.814 32.5781C281.261 31.9271 280.847 31.1491 280.574 30.2441C280.3 29.3392 280.164 28.3333 280.164 27.2266C280.164 25.7487 280.405 24.4629 280.886 23.3691C281.375 22.2689 282.123 21.416 283.132 20.8105C284.142 20.2051 285.424 19.9023 286.98 19.9023C288.53 19.9023 289.802 20.2051 290.798 20.8105C291.801 21.416 292.543 22.2689 293.025 23.3691C293.513 24.4694 293.757 25.7617 293.757 27.2461ZM283.338 27.2461C283.338 28.2422 283.461 29.1016 283.709 29.8242C283.963 30.5404 284.356 31.0938 284.89 31.4844C285.424 31.8685 286.114 32.0605 286.961 32.0605C287.82 32.0605 288.517 31.8685 289.05 31.4844C289.584 31.0938 289.972 30.5404 290.213 29.8242C290.46 29.1016 290.584 28.2422 290.584 27.2461C290.584 25.7487 290.304 24.5703 289.744 23.7109C289.184 22.8516 288.263 22.4219 286.98 22.4219C286.127 22.4219 285.431 22.6172 284.89 23.0078C284.356 23.3919 283.963 23.9453 283.709 24.668C283.461 25.3841 283.338 26.2435 283.338 27.2461ZM309.382 34.4043H305.535L299.324 23.6035H299.236C299.262 24.0527 299.285 24.5052 299.304 24.9609C299.324 25.4167 299.343 25.8724 299.363 26.3281C299.382 26.7773 299.402 27.2298 299.422 27.6855V34.4043H296.716V20.127H300.535L306.736 30.8203H306.804C306.791 30.3776 306.775 29.9382 306.756 29.502C306.736 29.0658 306.716 28.6296 306.697 28.1934C306.684 27.7572 306.671 27.321 306.658 26.8848V20.127H309.382V34.4043ZM321.209 34.4043H312.986V20.127H321.209V22.6074H316.013V25.7422H320.847V28.2227H316.013V31.9043H321.209V34.4043ZM332.625 30.4395C332.625 31.2858 332.42 32.0215 332.009 32.6465C331.599 33.2715 331 33.7533 330.213 34.0918C329.431 34.4303 328.481 34.5996 327.361 34.5996C326.866 34.5996 326.381 34.5671 325.906 34.502C325.437 34.4368 324.985 34.3424 324.548 34.2188C324.119 34.0885 323.709 33.929 323.318 33.7402V30.9277C323.995 31.2272 324.698 31.4974 325.427 31.7383C326.157 31.9792 326.879 32.0996 327.595 32.0996C328.09 32.0996 328.487 32.0345 328.787 31.9043C329.093 31.7741 329.314 31.5951 329.451 31.3672C329.588 31.1393 329.656 30.8789 329.656 30.5859C329.656 30.2279 329.535 29.9219 329.295 29.668C329.054 29.4141 328.722 29.1764 328.298 28.9551C327.882 28.7337 327.41 28.4961 326.882 28.2422C326.55 28.0859 326.189 27.8971 325.798 27.6758C325.408 27.4479 325.037 27.1712 324.685 26.8457C324.334 26.5202 324.044 26.1263 323.816 25.6641C323.595 25.1953 323.484 24.6354 323.484 23.9844C323.484 23.1315 323.679 22.4023 324.07 21.7969C324.461 21.1914 325.017 20.7292 325.74 20.4102C326.469 20.0846 327.328 19.9219 328.318 19.9219C329.06 19.9219 329.767 20.0098 330.437 20.1855C331.114 20.3548 331.821 20.6022 332.556 20.9277L331.58 23.2812C330.922 23.0143 330.333 22.8092 329.812 22.666C329.291 22.5163 328.761 22.4414 328.22 22.4414C327.843 22.4414 327.52 22.5033 327.254 22.627C326.987 22.7441 326.785 22.9134 326.648 23.1348C326.511 23.3496 326.443 23.6003 326.443 23.8867C326.443 24.2253 326.541 24.5117 326.736 24.7461C326.938 24.974 327.237 25.1953 327.634 25.4102C328.038 25.625 328.539 25.8757 329.138 26.1621C329.867 26.5072 330.489 26.8685 331.004 27.2461C331.524 27.6172 331.925 28.0566 332.205 28.5645C332.485 29.0658 332.625 29.6908 332.625 30.4395Z" fill="#343333"/>
</g>
<defs>
<filter id="filter0_di_17_295" x="0" y="0" width="456" height="58.9362" filterUnits="userSpaceOnUse" color-interpolation-filters="sRGB">
<feFlood flood-opacity="0" result="BackgroundImageFix"/>
<feColorMatrix in="SourceAlpha" type="matrix" values="0 0 0 0 0 0 0 0 0 0 0 0 0 0 0 0 0 0 127 0" result="hardAlpha"/>
<feOffset dy="4"/>
<feGaussianBlur stdDeviation="2"/>
<feComposite in2="hardAlpha" operator="out"/>
<feColorMatrix type="matrix" values="0 0 0 0 0 0 0 0 0 0 0 0 0 0 0 0 0 0 0.25 0"/>
<feBlend mode="normal" in2="BackgroundImageFix" result="effect1_dropShadow_17_295"/>
<feBlend mode="normal" in="SourceGraphic" in2="effect1_dropShadow_17_295" result="shape"/>
<feColorMatrix in="SourceAlpha" type="matrix" values="0 0 0 0 0 0 0 0 0 0 0 0 0 0 0 0 0 0 127 0" result="hardAlpha"/>
<feOffset dy="2"/>
<feGaussianBlur stdDeviation="0.5"/>
<feComposite in2="hardAlpha" operator="arithmetic" k2="-1" k3="1"/>
<feColorMatrix type="matrix" values="0 0 0 0 0.968627 0 0 0 0 0.984314 0 0 0 0 0.980392 0 0 0 1 0"/>
<feBlend mode="normal" in2="shape" result="effect2_innerShadow_17_295"/>
</filter>
<filter id="filter1_d_17_295" x="105.863" y="13.4043" width="238.871" height="29" filterUnits="userSpaceOnUse" color-interpolation-filters="sRGB">
<feFlood flood-opacity="0" result="BackgroundImageFix"/>
<feColorMatrix in="SourceAlpha" type="matrix" values="0 0 0 0 0 0 0 0 0 0 0 0 0 0 0 0 0 0 127 0" result="hardAlpha"/>
<feOffset dx="2" dy="1"/>
<feGaussianBlur stdDeviation="0.5"/>
<feComposite in2="hardAlpha" operator="out"/>
<feColorMatrix type="matrix" values="0 0 0 0 0.968627 0 0 0 0 0.984314 0 0 0 0 0.980392 0 0 0 1 0"/>
<feBlend mode="normal" in2="BackgroundImageFix" result="effect1_dropShadow_17_295"/>
<feBlend mode="normal" in="SourceGraphic" in2="effect1_dropShadow_17_295" result="shape"/>
</filter>
<linearGradient id="paint0_linear_17_295" x1="228" y1="0" x2="228" y2="50.9362" gradientUnits="userSpaceOnUse">
<stop stop-color="#E8D12C"/>
<stop offset="0.75" stop-color="#E8D12C"/>
<stop offset="1" stop-color="#FFAC22"/>
</linearGradient>
</defs>
</svg>
