<svg width="456" height="59" viewBox="0 0 456 59" fill="none" xmlns="http://www.w3.org/2000/svg">
<g filter="url(#filter0_di_17_295)">
<rect x="4" width="448" height="50.9362" rx="10" fill="url(#paint0_linear_17_295)"/>
</g>
<g filter="url(#filter1_d_17_295)">
<path d="M152 21.5H140V17.5H152V21.5ZM152 27C152.283 27 152.521 26.904 152.713 26.712C152.905 26.52 153.001 26.2827 153 26C152.999 25.7173 152.903 25.48 152.712 25.288C152.521 25.096 152.283 25 152 25C151.717 25 151.479 25.096 151.288 25.288C151.097 25.48 151.001 25.7173 151 26C150.999 26.2827 151.095 26.5203 151.288 26.713C151.481 26.9057 151.718 27.0013 152 27ZM150 33.5V29.5H142V33.5H150ZM152 35.5H140V31.5H136V25.5C136 24.65 136.292 23.9377 136.875 23.363C137.458 22.7883 138.167 22.5007 139 22.5H153C153.85 22.5 154.563 22.7877 155.138 23.363C155.713 23.9383 156.001 24.6507 156 25.5V31.5H152V35.5Z" fill="#262525"/>
<path d="M158.078 34V19.7227H161.105V34H158.078ZM170.744 34L167.307 22.7988H167.219C167.232 23.0658 167.251 23.4694 167.277 24.0098C167.31 24.5436 167.339 25.1133 167.365 25.7188C167.391 26.3242 167.404 26.8711 167.404 27.3594V34H164.699V19.7227H168.82L172.199 30.6406H172.258L175.842 19.7227H179.963V34H177.141V27.2422C177.141 26.793 177.147 26.2754 177.16 25.6895C177.18 25.1035 177.202 24.5469 177.229 24.0195C177.255 23.4857 177.274 23.0853 177.287 22.8184H177.199L173.518 34H170.744ZM188.127 19.7227C189.969 19.7227 191.314 20.1198 192.16 20.9141C193.007 21.7018 193.43 22.7891 193.43 24.1758C193.43 24.8008 193.335 25.3997 193.146 25.9727C192.958 26.5391 192.648 27.0436 192.219 27.4863C191.796 27.929 191.229 28.2806 190.52 28.541C189.81 28.7949 188.934 28.9219 187.893 28.9219H186.594V34H183.566V19.7227H188.127ZM187.971 22.2031H186.594V26.4414H187.59C188.156 26.4414 188.648 26.3665 189.064 26.2168C189.481 26.0671 189.803 25.8327 190.031 25.5137C190.259 25.1947 190.373 24.7845 190.373 24.2832C190.373 23.5801 190.178 23.0592 189.787 22.7207C189.396 22.3757 188.791 22.2031 187.971 22.2031ZM200.285 19.7227C201.581 19.7227 202.648 19.8789 203.488 20.1914C204.335 20.5039 204.963 20.9759 205.373 21.6074C205.783 22.2389 205.988 23.0365 205.988 24C205.988 24.651 205.865 25.2207 205.617 25.709C205.37 26.1973 205.044 26.6107 204.641 26.9492C204.237 27.2878 203.801 27.5645 203.332 27.7793L207.531 34H204.172L200.764 28.5215H199.152V34H196.125V19.7227H200.285ZM200.07 22.2031H199.152V26.0605H200.129C201.132 26.0605 201.848 25.8945 202.277 25.5625C202.714 25.224 202.932 24.7292 202.932 24.0781C202.932 23.401 202.697 22.9193 202.229 22.6328C201.766 22.3464 201.047 22.2031 200.07 22.2031ZM209.328 34V19.7227H212.355V34H209.328ZM221.994 34L218.557 22.7988H218.469C218.482 23.0658 218.501 23.4694 218.527 24.0098C218.56 24.5436 218.589 25.1133 218.615 25.7188C218.641 26.3242 218.654 26.8711 218.654 27.3594V34H215.949V19.7227H220.07L223.449 30.6406H223.508L227.092 19.7227H231.213V34H228.391V27.2422C228.391 26.793 228.397 26.2754 228.41 25.6895C228.43 25.1035 228.452 24.5469 228.479 24.0195C228.505 23.4857 228.524 23.0853 228.537 22.8184H228.449L224.768 34H221.994ZM234.816 34V19.7227H237.844V34H234.816ZM245.598 19.7227C246.893 19.7227 247.961 19.8789 248.801 20.1914C249.647 20.5039 250.275 20.9759 250.686 21.6074C251.096 22.2389 251.301 23.0365 251.301 24C251.301 24.651 251.177 25.2207 250.93 25.709C250.682 26.1973 250.357 26.6107 249.953 26.9492C249.549 27.2878 249.113 27.5645 248.645 27.7793L252.844 34H249.484L246.076 28.5215H244.465V34H241.438V19.7227H245.598ZM245.383 22.2031H244.465V26.0605H245.441C246.444 26.0605 247.16 25.8945 247.59 25.5625C248.026 25.224 248.244 24.7292 248.244 24.0781C248.244 23.401 248.01 22.9193 247.541 22.6328C247.079 22.3464 246.359 22.2031 245.383 22.2031ZM265.9 22.0371C265.321 22.0371 264.807 22.151 264.357 22.3789C263.915 22.6003 263.54 22.9225 263.234 23.3457C262.935 23.7689 262.707 24.2799 262.551 24.8789C262.395 25.4779 262.316 26.1517 262.316 26.9004C262.316 27.9095 262.44 28.7721 262.688 29.4883C262.941 30.1979 263.332 30.7415 263.859 31.1191C264.387 31.4902 265.067 31.6758 265.9 31.6758C266.48 31.6758 267.059 31.6107 267.639 31.4805C268.225 31.3503 268.859 31.1647 269.543 30.9238V33.4629C268.911 33.7233 268.29 33.9089 267.678 34.0195C267.066 34.1367 266.379 34.1953 265.617 34.1953C264.146 34.1953 262.935 33.8926 261.984 33.2871C261.04 32.6751 260.34 31.8223 259.885 30.7285C259.429 29.6283 259.201 28.3457 259.201 26.8809C259.201 25.8001 259.348 24.8105 259.641 23.9121C259.934 23.0137 260.363 22.2357 260.93 21.5781C261.496 20.9206 262.196 20.4128 263.029 20.0547C263.863 19.6966 264.82 19.5176 265.9 19.5176C266.61 19.5176 267.32 19.6087 268.029 19.791C268.745 19.9668 269.429 20.2109 270.08 20.5234L269.104 22.9844C268.57 22.7305 268.033 22.5091 267.492 22.3203C266.952 22.1315 266.421 22.0371 265.9 22.0371ZM281.33 34L280.295 30.6016H275.09L274.055 34H270.793L275.832 19.6641H279.533L284.592 34H281.33ZM279.572 28.0625L278.537 24.7422C278.472 24.5208 278.384 24.2376 278.273 23.8926C278.169 23.541 278.062 23.1862 277.951 22.8281C277.847 22.4635 277.762 22.1478 277.697 21.8809C277.632 22.1478 277.541 22.4798 277.424 22.877C277.313 23.2676 277.206 23.6387 277.102 23.9902C276.997 24.3418 276.923 24.5924 276.877 24.7422L275.852 28.0625H279.572ZM299.064 34H295.217L289.006 23.1992H288.918C288.944 23.6484 288.967 24.1009 288.986 24.5566C289.006 25.0124 289.025 25.4681 289.045 25.9238C289.064 26.373 289.084 26.8255 289.104 27.2812V34H286.398V19.7227H290.217L296.418 30.416H296.486C296.473 29.9733 296.457 29.5339 296.438 29.0977C296.418 28.6615 296.398 28.2253 296.379 27.7891C296.366 27.3529 296.353 26.9167 296.34 26.4805V19.7227H299.064V34ZM301.174 38.1992C300.783 38.1992 300.441 38.1764 300.148 38.1309C299.849 38.0918 299.595 38.043 299.387 37.9844V35.4648C299.595 35.5104 299.82 35.5527 300.061 35.5918C300.295 35.6374 300.546 35.6602 300.812 35.6602C301.164 35.6602 301.48 35.5918 301.76 35.4551C302.04 35.3249 302.261 35.0742 302.424 34.7031C302.587 34.332 302.668 33.7982 302.668 33.1016V19.7227H305.695V33.082C305.695 34.306 305.503 35.2923 305.119 36.041C304.742 36.7962 304.211 37.3431 303.527 37.6816C302.85 38.0267 302.066 38.1992 301.174 38.1992ZM317.512 34H309.289V19.7227H317.512V22.2031H312.316V25.3379H317.15V27.8184H312.316V31.5H317.512V34ZM328.928 30.0352C328.928 30.8815 328.723 31.6172 328.312 32.2422C327.902 32.8672 327.303 33.349 326.516 33.6875C325.734 34.026 324.784 34.1953 323.664 34.1953C323.169 34.1953 322.684 34.1628 322.209 34.0977C321.74 34.0326 321.288 33.9382 320.852 33.8145C320.422 33.6842 320.012 33.5247 319.621 33.3359V30.5234C320.298 30.8229 321.001 31.0931 321.73 31.334C322.46 31.5749 323.182 31.6953 323.898 31.6953C324.393 31.6953 324.79 31.6302 325.09 31.5C325.396 31.3698 325.617 31.1908 325.754 30.9629C325.891 30.735 325.959 30.4746 325.959 30.1816C325.959 29.8236 325.839 29.5176 325.598 29.2637C325.357 29.0098 325.025 28.7721 324.602 28.5508C324.185 28.3294 323.713 28.0918 323.186 27.8379C322.854 27.6816 322.492 27.4928 322.102 27.2715C321.711 27.0436 321.34 26.7669 320.988 26.4414C320.637 26.1159 320.347 25.722 320.119 25.2598C319.898 24.791 319.787 24.2311 319.787 23.5801C319.787 22.7272 319.982 21.998 320.373 21.3926C320.764 20.7871 321.32 20.3249 322.043 20.0059C322.772 19.6803 323.632 19.5176 324.621 19.5176C325.363 19.5176 326.07 19.6055 326.74 19.7812C327.417 19.9505 328.124 20.1979 328.859 20.5234L327.883 22.877C327.225 22.61 326.636 22.4049 326.115 22.2617C325.594 22.112 325.064 22.0371 324.523 22.0371C324.146 22.0371 323.824 22.099 323.557 22.2227C323.29 22.3398 323.088 22.5091 322.951 22.7305C322.814 22.9453 322.746 23.196 322.746 23.4824C322.746 23.821 322.844 24.1074 323.039 24.3418C323.241 24.5697 323.54 24.791 323.938 25.0059C324.341 25.2207 324.842 25.4714 325.441 25.7578C326.171 26.1029 326.792 26.4642 327.307 26.8418C327.827 27.2129 328.228 27.6523 328.508 28.1602C328.788 28.6615 328.928 29.2865 328.928 30.0352Z" fill="#343333"/>
</g>
<defs>
<filter id="filter0_di_17_295" x="0" y="0" width="456" height="58.9362" filterUnits="userSpaceOnUse" color-interpolation-filters="sRGB">
<feFlood flood-opacity="0" result="BackgroundImageFix"/>
<feColorMatrix in="SourceAlpha" type="matrix" values="0 0 0 0 0 0 0 0 0 0 0 0 0 0 0 0 0 0 127 0" result="hardAlpha"/>
<feOffset dy="4"/>
<feGaussianBlur stdDeviation="2"/>
<feComposite in2="hardAlpha" operator="out"/>
<feColorMatrix type="matrix" values="0 0 0 0 0 0 0 0 0 0 0 0 0 0 0 0 0 0 0.25 0"/>
<feBlend mode="normal" in2="BackgroundImageFix" result="effect1_dropShadow_17_295"/>
<feBlend mode="normal" in="SourceGraphic" in2="effect1_dropShadow_17_295" result="shape"/>
<feColorMatrix in="SourceAlpha" type="matrix" values="0 0 0 0 0 0 0 0 0 0 0 0 0 0 0 0 0 0 127 0" result="hardAlpha"/>
<feOffset dy="2"/>
<feGaussianBlur stdDeviation="0.5"/>
<feComposite in2="hardAlpha" operator="arithmetic" k2="-1" k3="1"/>
<feColorMatrix type="matrix" values="0 0 0 0 0.968627 0 0 0 0 0.984314 0 0 0 0 0.980392 0 0 0 1 0"/>
<feBlend mode="normal" in2="shape" result="effect2_innerShadow_17_295"/>
</filter>
<filter id="filter1_d_17_295" x="136" y="13" width="197" height="29" filterUnits="userSpaceOnUse" color-interpolation-filters="sRGB">
<feFlood flood-opacity="0" result="BackgroundImageFix"/>
<feColorMatrix in="SourceAlpha" type="matrix" values="0 0 0 0 0 0 0 0 0 0 0 0 0 0 0 0 0 0 127 0" result="hardAlpha"/>
<feOffset dx="2" dy="1"/>
<feGaussianBlur stdDeviation="0.5"/>
<feComposite in2="hardAlpha" operator="out"/>
<feColorMatrix type="matrix" values="0 0 0 0 0.968627 0 0 0 0 0.984314 0 0 0 0 0.980392 0 0 0 1 0"/>
<feBlend mode="normal" in2="BackgroundImageFix" result="effect1_dropShadow_17_295"/>
<feBlend mode="normal" in="SourceGraphic" in2="effect1_dropShadow_17_295" result="shape"/>
</filter>
<linearGradient id="paint0_linear_17_295" x1="228" y1="0" x2="228" y2="50.9362" gradientUnits="userSpaceOnUse">
<stop stop-color="#E8D12C"/>
<stop offset="0.75" stop-color="#E8D12C"/>
<stop offset="1" stop-color="#FFAC22"/>
</linearGradient>
</defs>
</svg>
