<svg width="290" height="59" viewBox="0 0 290 59" fill="none" xmlns="http://www.w3.org/2000/svg">
<g filter="url(#filter0_di_61_16)">
<rect x="4" width="281.525" height="50.9362" rx="10" fill="url(#paint0_linear_61_16)"/>
</g>
<g filter="url(#filter1_d_61_16)">
<path d="M26.4795 16.8125C26.9795 16.8125 28.9795 21.3125 28.9795 21.8125C28.9795 22.8125 27.4795 23.8125 26.9795 24.8125C26.4795 25.8125 27.4795 26.8125 28.4795 27.8125C28.8695 28.2025 30.4795 29.8125 31.4795 29.3125C32.4795 28.8125 33.4795 27.3125 34.4795 27.3125C34.9795 27.3125 39.4795 29.3125 39.4795 29.8125C39.4795 31.8125 37.9795 33.3125 36.4795 33.8125C34.9795 34.3125 33.9795 34.3125 31.9795 33.8125C29.9795 33.3125 28.4795 32.8125 25.9795 30.3125C23.4795 27.8125 22.9795 26.3125 22.4795 24.3125C21.9795 22.3125 21.9795 21.3125 22.4795 19.8125C22.9795 18.3125 24.4795 16.8125 26.4795 16.8125Z" stroke="black" stroke-width="2" stroke-linecap="round" stroke-linejoin="round"/>
<path d="M53.7393 33L50.3018 21.7988H50.2139C50.2269 22.0658 50.2464 22.4694 50.2725 23.0098C50.305 23.5436 50.3343 24.1133 50.3604 24.7188C50.3864 25.3242 50.3994 25.8711 50.3994 26.3594V33H47.6943V18.7227H51.8154L55.1943 29.6406H55.2529L58.8369 18.7227H62.958V33H60.1357V26.2422C60.1357 25.793 60.1423 25.2754 60.1553 24.6895C60.1748 24.1035 60.1976 23.5469 60.2236 23.0195C60.2497 22.4857 60.2692 22.0853 60.2822 21.8184H60.1943L56.5127 33H53.7393ZM79.5205 25.8418C79.5205 26.9421 79.3838 27.9447 79.1104 28.8496C78.8369 29.748 78.4202 30.5228 77.8604 31.1738C77.307 31.8249 76.6038 32.3262 75.751 32.6777C74.8981 33.0228 73.889 33.1953 72.7236 33.1953C71.5583 33.1953 70.5492 33.0228 69.6963 32.6777C68.8434 32.3262 68.137 31.8249 67.5771 31.1738C67.0238 30.5228 66.6104 29.7448 66.3369 28.8398C66.0635 27.9349 65.9268 26.929 65.9268 25.8223C65.9268 24.3444 66.1676 23.0586 66.6494 21.9648C67.1377 20.8646 67.8864 20.0117 68.8955 19.4062C69.9046 18.8008 71.1872 18.498 72.7432 18.498C74.2926 18.498 75.5654 18.8008 76.5615 19.4062C77.5641 20.0117 78.3063 20.8646 78.7881 21.9648C79.2764 23.0651 79.5205 24.3574 79.5205 25.8418ZM69.1006 25.8418C69.1006 26.8379 69.2243 27.6973 69.4717 28.4199C69.7256 29.1361 70.1195 29.6895 70.6533 30.0801C71.1872 30.4642 71.8773 30.6562 72.7236 30.6562C73.583 30.6562 74.2796 30.4642 74.8135 30.0801C75.3473 29.6895 75.7347 29.1361 75.9756 28.4199C76.223 27.6973 76.3467 26.8379 76.3467 25.8418C76.3467 24.3444 76.0667 23.166 75.5068 22.3066C74.9469 21.4473 74.0257 21.0176 72.7432 21.0176C71.8903 21.0176 71.1937 21.2129 70.6533 21.6035C70.1195 21.9876 69.7256 22.541 69.4717 23.2637C69.2243 23.9798 69.1006 24.8392 69.1006 25.8418ZM94.3252 25.7246C94.3252 27.3327 94.016 28.6771 93.3975 29.7578C92.7855 30.832 91.8968 31.6426 90.7314 32.1895C89.5661 32.7298 88.1631 33 86.5225 33H82.4795V18.7227H86.9619C88.4593 18.7227 89.7581 18.9896 90.8584 19.5234C91.9587 20.0508 92.8115 20.8353 93.417 21.877C94.0225 22.9121 94.3252 24.1947 94.3252 25.7246ZM91.1807 25.8027C91.1807 24.748 91.0244 23.8822 90.7119 23.2051C90.4059 22.5215 89.9502 22.0169 89.3447 21.6914C88.7458 21.3659 88.0036 21.2031 87.1182 21.2031H85.5068V30.5H86.8057C88.2835 30.5 89.3805 30.1061 90.0967 29.3184C90.8193 28.5306 91.1807 27.3587 91.1807 25.8027ZM97.2842 33V18.7227H100.312V33H97.2842ZM106.884 33H103.905V18.7227H112.089V21.2031H106.884V24.8848H111.728V27.3555H106.884V33ZM114.882 33V18.7227H117.909V33H114.882ZM127.567 21.0371C126.988 21.0371 126.474 21.151 126.024 21.3789C125.582 21.6003 125.207 21.9225 124.901 22.3457C124.602 22.7689 124.374 23.2799 124.218 23.8789C124.062 24.4779 123.983 25.1517 123.983 25.9004C123.983 26.9095 124.107 27.7721 124.354 28.4883C124.608 29.1979 124.999 29.7415 125.526 30.1191C126.054 30.4902 126.734 30.6758 127.567 30.6758C128.147 30.6758 128.726 30.6107 129.306 30.4805C129.892 30.3503 130.526 30.1647 131.21 29.9238V32.4629C130.578 32.7233 129.957 32.9089 129.345 33.0195C128.733 33.1367 128.046 33.1953 127.284 33.1953C125.813 33.1953 124.602 32.8926 123.651 32.2871C122.707 31.6751 122.007 30.8223 121.552 29.7285C121.096 28.6283 120.868 27.3457 120.868 25.8809C120.868 24.8001 121.015 23.8105 121.308 22.9121C121.601 22.0137 122.03 21.2357 122.597 20.5781C123.163 19.9206 123.863 19.4128 124.696 19.0547C125.53 18.6966 126.487 18.5176 127.567 18.5176C128.277 18.5176 128.987 18.6087 129.696 18.791C130.412 18.9668 131.096 19.2109 131.747 19.5234L130.771 21.9844C130.237 21.7305 129.7 21.5091 129.159 21.3203C128.619 21.1315 128.088 21.0371 127.567 21.0371ZM142.997 33L141.962 29.6016H136.757L135.722 33H132.46L137.499 18.6641H141.2L146.259 33H142.997ZM141.239 27.0625L140.204 23.7422C140.139 23.5208 140.051 23.2376 139.94 22.8926C139.836 22.541 139.729 22.1862 139.618 21.8281C139.514 21.4635 139.429 21.1478 139.364 20.8809C139.299 21.1478 139.208 21.4798 139.091 21.877C138.98 22.2676 138.873 22.6387 138.769 22.9902C138.664 23.3418 138.59 23.5924 138.544 23.7422L137.519 27.0625H141.239ZM152.226 18.7227C153.521 18.7227 154.589 18.8789 155.429 19.1914C156.275 19.5039 156.903 19.9759 157.313 20.6074C157.724 21.2389 157.929 22.0365 157.929 23C157.929 23.651 157.805 24.2207 157.558 24.709C157.31 25.1973 156.985 25.6107 156.581 25.9492C156.177 26.2878 155.741 26.5645 155.272 26.7793L159.472 33H156.112L152.704 27.5215H151.093V33H148.065V18.7227H152.226ZM152.011 21.2031H151.093V25.0605H152.069C153.072 25.0605 153.788 24.8945 154.218 24.5625C154.654 24.224 154.872 23.7292 154.872 23.0781C154.872 22.401 154.638 21.9193 154.169 21.6328C153.707 21.3464 152.987 21.2031 152.011 21.2031ZM171.972 33H168.944V21.2422H165.067V18.7227H175.849V21.2422H171.972V33ZM186.269 33H178.046V18.7227H186.269V21.2031H181.073V24.3379H185.907V26.8184H181.073V30.5H186.269V33ZM189.257 33V18.7227H192.284V30.5H198.075V33H189.257ZM208.788 33H200.565V18.7227H208.788V21.2031H203.593V24.3379H208.427V26.8184H203.593V30.5H208.788V33ZM208.622 14.3184V14.5234C208.433 14.7057 208.186 14.9303 207.88 15.1973C207.574 15.4642 207.245 15.7441 206.894 16.0371C206.542 16.3236 206.197 16.6003 205.858 16.8672C205.52 17.1276 205.224 17.3457 204.97 17.5215H202.987V17.2578C203.202 17.0104 203.45 16.7174 203.729 16.3789C204.016 16.0339 204.299 15.679 204.579 15.3145C204.859 14.9499 205.093 14.6178 205.282 14.3184H208.622ZM214.755 33H211.776V18.7227H219.96V21.2031H214.755V24.8848H219.599V27.3555H214.755V33ZM235.712 25.8418C235.712 26.9421 235.575 27.9447 235.302 28.8496C235.028 29.748 234.612 30.5228 234.052 31.1738C233.498 31.8249 232.795 32.3262 231.942 32.6777C231.09 33.0228 230.08 33.1953 228.915 33.1953C227.75 33.1953 226.741 33.0228 225.888 32.6777C225.035 32.3262 224.328 31.8249 223.769 31.1738C223.215 30.5228 222.802 29.7448 222.528 28.8398C222.255 27.9349 222.118 26.929 222.118 25.8223C222.118 24.3444 222.359 23.0586 222.841 21.9648C223.329 20.8646 224.078 20.0117 225.087 19.4062C226.096 18.8008 227.379 18.498 228.935 18.498C230.484 18.498 231.757 18.8008 232.753 19.4062C233.756 20.0117 234.498 20.8646 234.979 21.9648C235.468 23.0651 235.712 24.3574 235.712 25.8418ZM225.292 25.8418C225.292 26.8379 225.416 27.6973 225.663 28.4199C225.917 29.1361 226.311 29.6895 226.845 30.0801C227.379 30.4642 228.069 30.6562 228.915 30.6562C229.774 30.6562 230.471 30.4642 231.005 30.0801C231.539 29.6895 231.926 29.1361 232.167 28.4199C232.414 27.6973 232.538 26.8379 232.538 25.8418C232.538 24.3444 232.258 23.166 231.698 22.3066C231.138 21.4473 230.217 21.0176 228.935 21.0176C228.082 21.0176 227.385 21.2129 226.845 21.6035C226.311 21.9876 225.917 22.541 225.663 23.2637C225.416 23.9798 225.292 24.8392 225.292 25.8418ZM251.337 33H247.489L241.278 22.1992H241.19C241.216 22.6484 241.239 23.1009 241.259 23.5566C241.278 24.0124 241.298 24.4681 241.317 24.9238C241.337 25.373 241.356 25.8255 241.376 26.2812V33H238.671V18.7227H242.489L248.69 29.416H248.759C248.746 28.9733 248.729 28.5339 248.71 28.0977C248.69 27.6615 248.671 27.2253 248.651 26.7891C248.638 26.3529 248.625 25.9167 248.612 25.4805V18.7227H251.337V33ZM267.899 25.8418C267.899 26.9421 267.763 27.9447 267.489 28.8496C267.216 29.748 266.799 30.5228 266.239 31.1738C265.686 31.8249 264.983 32.3262 264.13 32.6777C263.277 33.0228 262.268 33.1953 261.103 33.1953C259.937 33.1953 258.928 33.0228 258.075 32.6777C257.222 32.3262 256.516 31.8249 255.956 31.1738C255.403 30.5228 254.989 29.7448 254.716 28.8398C254.442 27.9349 254.306 26.929 254.306 25.8223C254.306 24.3444 254.547 23.0586 255.028 21.9648C255.517 20.8646 256.265 20.0117 257.274 19.4062C258.284 18.8008 259.566 18.498 261.122 18.498C262.672 18.498 263.944 18.8008 264.94 19.4062C265.943 20.0117 266.685 20.8646 267.167 21.9648C267.655 23.0651 267.899 24.3574 267.899 25.8418ZM257.479 25.8418C257.479 26.8379 257.603 27.6973 257.851 28.4199C258.104 29.1361 258.498 29.6895 259.032 30.0801C259.566 30.4642 260.256 30.6562 261.103 30.6562C261.962 30.6562 262.659 30.4642 263.192 30.0801C263.726 29.6895 264.114 29.1361 264.354 28.4199C264.602 27.6973 264.726 26.8379 264.726 25.8418C264.726 24.3444 264.446 23.166 263.886 22.3066C263.326 21.4473 262.405 21.0176 261.122 21.0176C260.269 21.0176 259.573 21.2129 259.032 21.6035C258.498 21.9876 258.104 22.541 257.851 23.2637C257.603 23.9798 257.479 24.8392 257.479 25.8418Z" fill="#343333"/>
</g>
<defs>
<filter id="filter0_di_61_16" x="0" y="0" width="289.525" height="58.9363" filterUnits="userSpaceOnUse" color-interpolation-filters="sRGB">
<feFlood flood-opacity="0" result="BackgroundImageFix"/>
<feColorMatrix in="SourceAlpha" type="matrix" values="0 0 0 0 0 0 0 0 0 0 0 0 0 0 0 0 0 0 127 0" result="hardAlpha"/>
<feOffset dy="4"/>
<feGaussianBlur stdDeviation="2"/>
<feComposite in2="hardAlpha" operator="out"/>
<feColorMatrix type="matrix" values="0 0 0 0 0 0 0 0 0 0 0 0 0 0 0 0 0 0 0.25 0"/>
<feBlend mode="normal" in2="BackgroundImageFix" result="effect1_dropShadow_61_16"/>
<feBlend mode="normal" in="SourceGraphic" in2="effect1_dropShadow_61_16" result="shape"/>
<feColorMatrix in="SourceAlpha" type="matrix" values="0 0 0 0 0 0 0 0 0 0 0 0 0 0 0 0 0 0 127 0" result="hardAlpha"/>
<feOffset dy="2"/>
<feGaussianBlur stdDeviation="0.5"/>
<feComposite in2="hardAlpha" operator="arithmetic" k2="-1" k3="1"/>
<feColorMatrix type="matrix" values="0 0 0 0 0.968627 0 0 0 0 0.984314 0 0 0 0 0.980392 0 0 0 1 0"/>
<feBlend mode="normal" in2="shape" result="effect2_innerShadow_61_16"/>
</filter>
<filter id="filter1_d_61_16" x="21.1045" y="12" width="251.375" height="29" filterUnits="userSpaceOnUse" color-interpolation-filters="sRGB">
<feFlood flood-opacity="0" result="BackgroundImageFix"/>
<feColorMatrix in="SourceAlpha" type="matrix" values="0 0 0 0 0 0 0 0 0 0 0 0 0 0 0 0 0 0 127 0" result="hardAlpha"/>
<feOffset dx="2" dy="1"/>
<feGaussianBlur stdDeviation="0.5"/>
<feComposite in2="hardAlpha" operator="out"/>
<feColorMatrix type="matrix" values="0 0 0 0 0.968627 0 0 0 0 0.984314 0 0 0 0 0.980392 0 0 0 1 0"/>
<feBlend mode="normal" in2="BackgroundImageFix" result="effect1_dropShadow_61_16"/>
<feBlend mode="normal" in="SourceGraphic" in2="effect1_dropShadow_61_16" result="shape"/>
</filter>
<linearGradient id="paint0_linear_61_16" x1="144.762" y1="0" x2="144.762" y2="50.9362" gradientUnits="userSpaceOnUse">
<stop stop-color="#E8D12C"/>
<stop offset="0.75" stop-color="#E8D12C"/>
<stop offset="1" stop-color="#FFAC22"/>
</linearGradient>
</defs>
</svg>
