<svg width="290" height="59" viewBox="0 0 290 59" fill="none" xmlns="http://www.w3.org/2000/svg">
<g filter="url(#filter0_di_61_16)">
<rect x="4" width="281.525" height="50.9362" rx="10" fill="url(#paint0_linear_61_16)"/>
</g>
<g filter="url(#filter1_d_61_16)">
<path d="M43.1045 25.0129H45.5245C45.6561 25.0136 45.7866 24.9884 45.9084 24.9386C46.0302 24.8889 46.1411 24.8156 46.2345 24.7229L50.8145 20.1429C50.9082 20.0499 50.9826 19.9393 51.0334 19.8175C51.0842 19.6956 51.1103 19.5649 51.1103 19.4329C51.1103 19.3009 51.0842 19.1702 51.0334 19.0483C50.9826 18.9264 50.9082 18.8158 50.8145 18.7229L48.3945 16.3029C48.3015 16.2091 48.1909 16.1348 48.0691 16.084C47.9472 16.0332 47.8165 16.0071 47.6845 16.0071C47.5525 16.0071 47.4218 16.0332 47.2999 16.084C47.1781 16.1348 47.0675 16.2091 46.9745 16.3029L42.3945 20.8829C42.2118 21.0745 42.1082 21.3281 42.1045 21.5929V24.0129C42.1045 24.2781 42.2098 24.5324 42.3974 24.72C42.5849 24.9075 42.8393 25.0129 43.1045 25.0129ZM44.1045 22.0129L47.6845 18.4329L48.6845 19.4329L45.1045 23.0129H44.1045V22.0129ZM50.1045 24.0129C49.8393 24.0129 49.5849 24.1182 49.3974 24.3058C49.2098 24.4933 49.1045 24.7477 49.1045 25.0129V32.0129C49.1045 32.2781 48.9991 32.5324 48.8116 32.72C48.6241 32.9075 48.3697 33.0129 48.1045 33.0129H34.1045C33.8393 33.0129 33.5849 32.9075 33.3974 32.72C33.2098 32.5324 33.1045 32.2781 33.1045 32.0129V22.4029L38.9845 28.2929C39.2636 28.5756 39.596 28.8 39.9625 28.9532C40.329 29.1064 40.7223 29.1853 41.1195 29.1853C41.5167 29.1853 41.91 29.1064 42.2765 28.9532C42.643 28.8 42.9754 28.5756 43.2545 28.2929C43.4377 28.1059 43.5403 27.8546 43.5403 27.5929C43.5403 27.3311 43.4377 27.0798 43.2545 26.8929C43.1614 26.7976 43.0501 26.722 42.9274 26.6703C42.8046 26.6186 42.6727 26.592 42.5395 26.592C42.4063 26.592 42.2744 26.6186 42.1516 26.6703C42.0288 26.722 41.9176 26.7976 41.8245 26.8929C41.6376 27.0761 41.3862 27.1787 41.1245 27.1787C40.8627 27.1787 40.6114 27.0761 40.4245 26.8929L34.5145 20.9929H39.1045C39.3697 20.9929 39.6241 20.8875 39.8116 20.7C39.9991 20.5124 40.1045 20.2581 40.1045 19.9929C40.1045 19.7277 39.9991 19.4733 39.8116 19.2858C39.6241 19.0982 39.3697 18.9929 39.1045 18.9929H34.1045C33.3088 18.9929 32.5458 19.3089 31.9832 19.8716C31.4206 20.4342 31.1045 21.1972 31.1045 21.9929V31.9929C31.1045 32.7885 31.4206 33.5516 31.9832 34.1142C32.5458 34.6768 33.3088 34.9929 34.1045 34.9929H48.1045C48.9001 34.9929 49.6632 34.6768 50.2258 34.1142C50.7884 33.5516 51.1045 32.7885 51.1045 31.9929V24.9929C51.1045 24.7277 50.9991 24.4733 50.8116 24.2858C50.6241 24.0982 50.3697 23.9929 50.1045 23.9929V24.0129Z" fill="black"/>
<path d="M64.9639 33L61.5264 21.7988H61.4385C61.4515 22.0658 61.471 22.4694 61.4971 23.0098C61.5296 23.5436 61.5589 24.1133 61.585 24.7188C61.611 25.3242 61.624 25.8711 61.624 26.3594V33H58.9189V18.7227H63.04L66.4189 29.6406H66.4775L70.0615 18.7227H74.1826V33H71.3604V26.2422C71.3604 25.793 71.3669 25.2754 71.3799 24.6895C71.3994 24.1035 71.4222 23.5469 71.4482 23.0195C71.4743 22.4857 71.4938 22.0853 71.5068 21.8184H71.4189L67.7373 33H64.9639ZM90.7451 25.8418C90.7451 26.9421 90.6084 27.9447 90.335 28.8496C90.0615 29.748 89.6449 30.5228 89.085 31.1738C88.5316 31.8249 87.8285 32.3262 86.9756 32.6777C86.1227 33.0228 85.1136 33.1953 83.9482 33.1953C82.7829 33.1953 81.7738 33.0228 80.9209 32.6777C80.068 32.3262 79.3617 31.8249 78.8018 31.1738C78.2484 30.5228 77.835 29.7448 77.5615 28.8398C77.2881 27.9349 77.1514 26.929 77.1514 25.8223C77.1514 24.3444 77.3923 23.0586 77.874 21.9648C78.3623 20.8646 79.111 20.0117 80.1201 19.4062C81.1292 18.8008 82.4118 18.498 83.9678 18.498C85.5173 18.498 86.79 18.8008 87.7861 19.4062C88.7887 20.0117 89.5309 20.8646 90.0127 21.9648C90.501 23.0651 90.7451 24.3574 90.7451 25.8418ZM80.3252 25.8418C80.3252 26.8379 80.4489 27.6973 80.6963 28.4199C80.9502 29.1361 81.3441 29.6895 81.8779 30.0801C82.4118 30.4642 83.1019 30.6562 83.9482 30.6562C84.8076 30.6562 85.5042 30.4642 86.0381 30.0801C86.5719 29.6895 86.9593 29.1361 87.2002 28.4199C87.4476 27.6973 87.5713 26.8379 87.5713 25.8418C87.5713 24.3444 87.2913 23.166 86.7314 22.3066C86.1715 21.4473 85.2503 21.0176 83.9678 21.0176C83.1149 21.0176 82.4183 21.2129 81.8779 21.6035C81.3441 21.9876 80.9502 22.541 80.6963 23.2637C80.4489 23.9798 80.3252 24.8392 80.3252 25.8418ZM105.55 25.7246C105.55 27.3327 105.241 28.6771 104.622 29.7578C104.01 30.832 103.121 31.6426 101.956 32.1895C100.791 32.7298 99.3877 33 97.7471 33H93.7041V18.7227H98.1865C99.6839 18.7227 100.983 18.9896 102.083 19.5234C103.183 20.0508 104.036 20.8353 104.642 21.877C105.247 22.9121 105.55 24.1947 105.55 25.7246ZM102.405 25.8027C102.405 24.748 102.249 23.8822 101.937 23.2051C101.631 22.5215 101.175 22.0169 100.569 21.6914C99.9704 21.3659 99.2282 21.2031 98.3428 21.2031H96.7314V30.5H98.0303C99.5081 30.5 100.605 30.1061 101.321 29.3184C102.044 28.5306 102.405 27.3587 102.405 25.8027ZM108.509 33V18.7227H111.536V33H108.509ZM118.108 33H115.13V18.7227H123.313V21.2031H118.108V24.8848H122.952V27.3555H118.108V33ZM126.106 33V18.7227H129.134V33H126.106ZM138.792 21.0371C138.213 21.0371 137.698 21.151 137.249 21.3789C136.806 21.6003 136.432 21.9225 136.126 22.3457C135.826 22.7689 135.599 23.2799 135.442 23.8789C135.286 24.4779 135.208 25.1517 135.208 25.9004C135.208 26.9095 135.332 27.7721 135.579 28.4883C135.833 29.1979 136.224 29.7415 136.751 30.1191C137.278 30.4902 137.959 30.6758 138.792 30.6758C139.371 30.6758 139.951 30.6107 140.53 30.4805C141.116 30.3503 141.751 30.1647 142.435 29.9238V32.4629C141.803 32.7233 141.181 32.9089 140.569 33.0195C139.957 33.1367 139.271 33.1953 138.509 33.1953C137.037 33.1953 135.826 32.8926 134.876 32.2871C133.932 31.6751 133.232 30.8223 132.776 29.7285C132.321 28.6283 132.093 27.3457 132.093 25.8809C132.093 24.8001 132.239 23.8105 132.532 22.9121C132.825 22.0137 133.255 21.2357 133.821 20.5781C134.388 19.9206 135.088 19.4128 135.921 19.0547C136.754 18.6966 137.711 18.5176 138.792 18.5176C139.502 18.5176 140.211 18.6087 140.921 18.791C141.637 18.9668 142.321 19.2109 142.972 19.5234L141.995 21.9844C141.461 21.7305 140.924 21.5091 140.384 21.3203C139.843 21.1315 139.313 21.0371 138.792 21.0371ZM154.222 33L153.187 29.6016H147.981L146.946 33H143.685L148.724 18.6641H152.425L157.483 33H154.222ZM152.464 27.0625L151.429 23.7422C151.364 23.5208 151.276 23.2376 151.165 22.8926C151.061 22.541 150.953 22.1862 150.843 21.8281C150.739 21.4635 150.654 21.1478 150.589 20.8809C150.524 21.1478 150.433 21.4798 150.315 21.877C150.205 22.2676 150.097 22.6387 149.993 22.9902C149.889 23.3418 149.814 23.5924 149.769 23.7422L148.743 27.0625H152.464ZM163.45 18.7227C164.746 18.7227 165.813 18.8789 166.653 19.1914C167.5 19.5039 168.128 19.9759 168.538 20.6074C168.948 21.2389 169.153 22.0365 169.153 23C169.153 23.651 169.03 24.2207 168.782 24.709C168.535 25.1973 168.209 25.6107 167.806 25.9492C167.402 26.2878 166.966 26.5645 166.497 26.7793L170.696 33H167.337L163.929 27.5215H162.317V33H159.29V18.7227H163.45ZM163.235 21.2031H162.317V25.0605H163.294C164.297 25.0605 165.013 24.8945 165.442 24.5625C165.879 24.224 166.097 23.7292 166.097 23.0781C166.097 22.401 165.862 21.9193 165.394 21.6328C164.931 21.3464 164.212 21.2031 163.235 21.2031ZM183.753 21.0371C183.174 21.0371 182.659 21.151 182.21 21.3789C181.767 21.6003 181.393 21.9225 181.087 22.3457C180.787 22.7689 180.56 23.2799 180.403 23.8789C180.247 24.4779 180.169 25.1517 180.169 25.9004C180.169 26.9095 180.293 27.7721 180.54 28.4883C180.794 29.1979 181.185 29.7415 181.712 30.1191C182.239 30.4902 182.92 30.6758 183.753 30.6758C184.332 30.6758 184.912 30.6107 185.491 30.4805C186.077 30.3503 186.712 30.1647 187.396 29.9238V32.4629C186.764 32.7233 186.142 32.9089 185.53 33.0195C184.918 33.1367 184.231 33.1953 183.47 33.1953C181.998 33.1953 180.787 32.8926 179.837 32.2871C178.893 31.6751 178.193 30.8223 177.737 29.7285C177.282 28.6283 177.054 27.3457 177.054 25.8809C177.054 24.8001 177.2 23.8105 177.493 22.9121C177.786 22.0137 178.216 21.2357 178.782 20.5781C179.349 19.9206 180.049 19.4128 180.882 19.0547C181.715 18.6966 182.672 18.5176 183.753 18.5176C184.463 18.5176 185.172 18.6087 185.882 18.791C186.598 18.9668 187.282 19.2109 187.933 19.5234L186.956 21.9844C186.422 21.7305 185.885 21.5091 185.345 21.3203C184.804 21.1315 184.274 21.0371 183.753 21.0371ZM203.401 25.8418C203.401 26.9421 203.265 27.9447 202.991 28.8496C202.718 29.748 202.301 30.5228 201.741 31.1738C201.188 31.8249 200.485 32.3262 199.632 32.6777C198.779 33.0228 197.77 33.1953 196.604 33.1953C195.439 33.1953 194.43 33.0228 193.577 32.6777C192.724 32.3262 192.018 31.8249 191.458 31.1738C190.905 30.5228 190.491 29.7448 190.218 28.8398C189.944 27.9349 189.808 26.929 189.808 25.8223C189.808 24.3444 190.049 23.0586 190.53 21.9648C191.019 20.8646 191.767 20.0117 192.776 19.4062C193.785 18.8008 195.068 18.498 196.624 18.498C198.174 18.498 199.446 18.8008 200.442 19.4062C201.445 20.0117 202.187 20.8646 202.669 21.9648C203.157 23.0651 203.401 24.3574 203.401 25.8418ZM192.981 25.8418C192.981 26.8379 193.105 27.6973 193.353 28.4199C193.606 29.1361 194 29.6895 194.534 30.0801C195.068 30.4642 195.758 30.6562 196.604 30.6562C197.464 30.6562 198.16 30.4642 198.694 30.0801C199.228 29.6895 199.616 29.1361 199.856 28.4199C200.104 27.6973 200.228 26.8379 200.228 25.8418C200.228 24.3444 199.948 23.166 199.388 22.3066C198.828 21.4473 197.907 21.0176 196.624 21.0176C195.771 21.0176 195.075 21.2129 194.534 21.6035C194 21.9876 193.606 22.541 193.353 23.2637C193.105 23.9798 192.981 24.8392 192.981 25.8418ZM210.521 18.7227C211.816 18.7227 212.884 18.8789 213.724 19.1914C214.57 19.5039 215.198 19.9759 215.608 20.6074C216.019 21.2389 216.224 22.0365 216.224 23C216.224 23.651 216.1 24.2207 215.853 24.709C215.605 25.1973 215.28 25.6107 214.876 25.9492C214.472 26.2878 214.036 26.5645 213.567 26.7793L217.767 33H214.407L210.999 27.5215H209.388V33H206.36V18.7227H210.521ZM210.306 21.2031H209.388V25.0605H210.364C211.367 25.0605 212.083 24.8945 212.513 24.5625C212.949 24.224 213.167 23.7292 213.167 23.0781C213.167 22.401 212.933 21.9193 212.464 21.6328C212.002 21.3464 211.282 21.2031 210.306 21.2031ZM223.724 18.7227C225.019 18.7227 226.087 18.8789 226.927 19.1914C227.773 19.5039 228.401 19.9759 228.812 20.6074C229.222 21.2389 229.427 22.0365 229.427 23C229.427 23.651 229.303 24.2207 229.056 24.709C228.808 25.1973 228.483 25.6107 228.079 25.9492C227.675 26.2878 227.239 26.5645 226.771 26.7793L230.97 33H227.61L224.202 27.5215H222.591V33H219.563V18.7227H223.724ZM223.509 21.2031H222.591V25.0605H223.567C224.57 25.0605 225.286 24.8945 225.716 24.5625C226.152 24.224 226.37 23.7292 226.37 23.0781C226.37 22.401 226.136 21.9193 225.667 21.6328C225.205 21.3464 224.485 21.2031 223.509 21.2031ZM240.989 33H232.767V18.7227H240.989V21.2031H235.794V24.3379H240.628V26.8184H235.794V30.5H240.989V33ZM256.937 25.8418C256.937 26.9421 256.8 27.9447 256.526 28.8496C256.253 29.748 255.836 30.5228 255.276 31.1738C254.723 31.8249 254.02 32.3262 253.167 32.6777C252.314 33.0228 251.305 33.1953 250.14 33.1953C248.974 33.1953 247.965 33.0228 247.112 32.6777C246.259 32.3262 245.553 31.8249 244.993 31.1738C244.44 30.5228 244.026 29.7448 243.753 28.8398C243.479 27.9349 243.343 26.929 243.343 25.8223C243.343 24.3444 243.584 23.0586 244.065 21.9648C244.554 20.8646 245.302 20.0117 246.312 19.4062C247.321 18.8008 248.603 18.498 250.159 18.498C251.709 18.498 252.981 18.8008 253.978 19.4062C254.98 20.0117 255.722 20.8646 256.204 21.9648C256.692 23.0651 256.937 24.3574 256.937 25.8418ZM246.517 25.8418C246.517 26.8379 246.64 27.6973 246.888 28.4199C247.142 29.1361 247.535 29.6895 248.069 30.0801C248.603 30.4642 249.293 30.6562 250.14 30.6562C250.999 30.6562 251.696 30.4642 252.229 30.0801C252.763 29.6895 253.151 29.1361 253.392 28.4199C253.639 27.6973 253.763 26.8379 253.763 25.8418C253.763 24.3444 253.483 23.166 252.923 22.3066C252.363 21.4473 251.442 21.0176 250.159 21.0176C249.306 21.0176 248.61 21.2129 248.069 21.6035C247.535 21.9876 247.142 22.541 246.888 23.2637C246.64 23.9798 246.517 24.8392 246.517 25.8418Z" fill="#343333"/>
</g>
<defs>
<filter id="filter0_di_61_16" x="0" y="0" width="289.525" height="58.9363" filterUnits="userSpaceOnUse" color-interpolation-filters="sRGB">
<feFlood flood-opacity="0" result="BackgroundImageFix"/>
<feColorMatrix in="SourceAlpha" type="matrix" values="0 0 0 0 0 0 0 0 0 0 0 0 0 0 0 0 0 0 127 0" result="hardAlpha"/>
<feOffset dy="4"/>
<feGaussianBlur stdDeviation="2"/>
<feComposite in2="hardAlpha" operator="out"/>
<feColorMatrix type="matrix" values="0 0 0 0 0 0 0 0 0 0 0 0 0 0 0 0 0 0 0.25 0"/>
<feBlend mode="normal" in2="BackgroundImageFix" result="effect1_dropShadow_61_16"/>
<feBlend mode="normal" in="SourceGraphic" in2="effect1_dropShadow_61_16" result="shape"/>
<feColorMatrix in="SourceAlpha" type="matrix" values="0 0 0 0 0 0 0 0 0 0 0 0 0 0 0 0 0 0 127 0" result="hardAlpha"/>
<feOffset dy="2"/>
<feGaussianBlur stdDeviation="0.5"/>
<feComposite in2="hardAlpha" operator="arithmetic" k2="-1" k3="1"/>
<feColorMatrix type="matrix" values="0 0 0 0 0.968627 0 0 0 0 0.984314 0 0 0 0 0.980392 0 0 0 1 0"/>
<feBlend mode="normal" in2="shape" result="effect2_innerShadow_61_16"/>
</filter>
<filter id="filter1_d_61_16" x="31.1045" y="12" width="230.006" height="29" filterUnits="userSpaceOnUse" color-interpolation-filters="sRGB">
<feFlood flood-opacity="0" result="BackgroundImageFix"/>
<feColorMatrix in="SourceAlpha" type="matrix" values="0 0 0 0 0 0 0 0 0 0 0 0 0 0 0 0 0 0 127 0" result="hardAlpha"/>
<feOffset dx="2" dy="1"/>
<feGaussianBlur stdDeviation="0.5"/>
<feComposite in2="hardAlpha" operator="out"/>
<feColorMatrix type="matrix" values="0 0 0 0 0.968627 0 0 0 0 0.984314 0 0 0 0 0.980392 0 0 0 1 0"/>
<feBlend mode="normal" in2="BackgroundImageFix" result="effect1_dropShadow_61_16"/>
<feBlend mode="normal" in="SourceGraphic" in2="effect1_dropShadow_61_16" result="shape"/>
</filter>
<linearGradient id="paint0_linear_61_16" x1="144.762" y1="0" x2="144.762" y2="50.9362" gradientUnits="userSpaceOnUse">
<stop stop-color="#E8D12C"/>
<stop offset="0.75" stop-color="#E8D12C"/>
<stop offset="1" stop-color="#FFAC22"/>
</linearGradient>
</defs>
</svg>
