<svg width="113" height="104" viewBox="0 0 113 104" fill="none" xmlns="http://www.w3.org/2000/svg">
<path d="M105.428 0.0307617H7.57196C3.39699 0.0307617 0 3.43695 0 7.62295V40.7836C0 44.9696 3.39699 48.3758 7.57196 48.3758H39.629L41.0112 51.2541C41.0857 51.4748 41.1795 51.7066 41.2761 51.9089L52.8087 75.9011L47.6673 72.2025C45.6745 70.8268 43.0748 70.6263 40.8761 71.6839C39.562 72.3166 38.4658 73.3539 37.7936 74.599C36.3241 77.3008 36.8501 80.6886 39.0893 82.8514L55.3781 98.1958C56.7492 99.4759 58.284 100.484 59.9779 101.207L64.5842 102.869C66.2965 103.471 67.9664 103.772 69.5739 103.772C70.316 103.772 71.0443 103.708 71.757 103.579C73.0169 103.351 74.2363 102.956 75.3775 102.406L91.3628 94.7216C94.7892 93.0755 97.3687 90.1935 98.6267 86.6052C99.8856 83.0188 99.6714 79.1565 98.0244 75.7301L87.4104 53.6487C87.0076 52.8119 86.4724 52.1075 85.8526 51.5833C83.8994 49.8471 81.1029 49.4646 78.7331 50.6067C77.6139 51.1438 76.698 51.9788 76.0589 52.9866C74.1746 51.5374 71.551 51.1787 69.2548 52.2804C68.0373 52.8652 67.0845 53.7812 66.4528 54.8681C64.9336 53.818 63.0245 53.4225 61.1927 53.8989C59.8243 54.2575 58.6325 55.0263 57.7635 56.0857L54.058 48.3758H105.428C109.603 48.3758 113 44.9696 113 40.7836V7.62295C113 3.43695 109.603 0.0307617 105.428 0.0307617ZM60.3053 59.0652C60.6584 58.3019 61.3113 57.7612 62.1445 57.5442C63.3666 57.2223 64.7377 57.9285 65.3382 59.1792L66.5374 61.6731C66.5487 61.6966 66.5704 61.7104 66.5826 61.7331L69.4093 67.6137C69.7339 68.2869 70.4071 68.6805 71.1078 68.6805C71.3818 68.6805 71.6595 68.6216 71.9225 68.4947C72.8605 68.0441 73.255 66.9185 72.8044 65.9805L69.9427 60.0271L69.9407 60.0243L69.5996 59.3135C68.9495 57.9617 69.527 56.3284 70.8862 55.6755C72.2527 55.0189 73.8951 55.5854 74.5434 56.9372L74.8901 57.6582C74.925 57.7299 74.9637 57.798 75.006 57.8642L75.6804 59.2638C75.6835 59.2705 75.6824 59.2776 75.6855 59.284L77.7611 63.6006C78.0857 64.2738 78.7588 64.6674 79.4596 64.6674C79.7336 64.6674 80.0113 64.6085 80.2743 64.4816C81.2123 64.031 81.6068 62.9054 81.1562 61.9674L79.0885 57.6669C79.0861 57.6619 79.0869 57.6561 79.0844 57.6508C78.9152 57.2995 78.8204 56.9427 78.8103 56.6098C78.7689 55.499 79.3796 54.4745 80.3663 54.0019C81.3668 53.5145 82.5365 53.6763 83.3835 54.4267C83.6272 54.6346 83.846 54.9288 84.0152 55.2819L94.6292 77.3633C95.8403 79.8811 95.9976 82.7227 95.0725 85.3601C94.1474 87.9975 92.2511 90.1163 89.7315 91.3264L73.7443 99.0124C72.9065 99.4152 72.0127 99.704 71.0876 99.8713C69.4856 100.164 67.7136 99.9762 65.8302 99.3159L62.2935 98.0781L61.4198 97.7268C60.1674 97.1916 58.9995 96.4229 57.9539 95.4481L41.689 80.1276C40.6802 79.151 40.4393 77.6189 41.105 76.394C41.4057 75.8368 41.906 75.3678 42.5093 75.0772C42.9396 74.8712 43.3957 74.77 43.8445 74.77C44.4321 74.77 45.0069 74.9429 45.4979 75.2813L56.6076 83.2726C57.3074 83.7766 58.2583 83.7416 58.9176 83.188C59.577 82.6344 59.7774 81.7038 59.405 80.9277L44.6731 50.2812C44.6354 50.2021 44.5967 50.1083 44.5719 50.0255C44.5434 49.9281 44.5075 49.8324 44.4634 49.7423L43.0206 46.7371C42.3364 45.3154 42.81 43.6049 44.0772 42.9244C44.7476 42.5621 45.5117 42.494 46.2253 42.7239C46.9417 42.9575 47.5165 43.4615 47.8448 44.1456L49.3221 47.2194C49.3245 47.2249 49.3275 47.23 49.3299 47.2355L56.9221 63.0305C56.9246 63.0355 56.9296 63.0383 56.9321 63.0436L61.0584 71.6287C61.3831 72.3018 62.0562 72.6954 62.7569 72.6954C63.031 72.6954 63.3087 72.6366 63.5717 72.5097C64.5097 72.0591 64.9042 70.9335 64.4536 69.9955L60.32 61.3954C60.3184 61.3922 60.3153 61.3904 60.3137 61.3871C59.9645 60.6538 59.961 59.8087 60.3053 59.0652ZM109.233 40.7836C109.233 42.8931 107.527 44.6091 105.428 44.6091H52.2477L51.2399 42.5124C50.461 40.8939 49.0945 39.6966 47.3914 39.143C45.6883 38.5876 43.8795 38.755 42.2941 39.6065C40.4098 40.6188 39.236 42.5324 38.9965 44.6091H7.57196C5.47344 44.6091 3.76667 42.8931 3.76667 40.7836V7.62295C3.76667 5.5134 5.47344 3.79743 7.57196 3.79743H105.428C107.527 3.79743 109.233 5.5134 109.233 7.62295V40.7836Z" fill="#E8D12C"/>
<path d="M29.2607 19.5501C28.7301 18.6544 27.5741 18.3601 26.6803 18.8898L23.2925 20.8977V16.9587C23.2925 15.9177 22.4492 15.0753 21.4091 15.0753C20.3691 15.0753 19.5258 15.9177 19.5258 16.9587V20.8977L16.138 18.8898C15.2433 18.3601 14.0882 18.6544 13.5576 19.5501C13.027 20.4439 13.3231 21.6008 14.2179 22.1305L17.7152 24.2032L14.2179 26.276C13.3231 26.8057 13.027 27.9625 13.5576 28.8564C13.9098 29.4504 14.5361 29.7797 15.1798 29.7797C15.5063 29.7797 15.8373 29.6951 16.138 29.5167L19.5258 27.5087V31.446C19.5258 32.487 20.3691 33.3293 21.4091 33.3293C22.4492 33.3293 23.2925 32.487 23.2925 31.446V27.5087L26.6803 29.5167C26.981 29.6951 27.312 29.7797 27.6385 29.7797C28.2822 29.7797 28.9085 29.4504 29.2607 28.8564C29.7913 27.9625 29.4952 26.8057 28.6004 26.276L25.103 24.2032L28.6004 22.1305C29.4952 21.6008 29.7913 20.4439 29.2607 19.5501Z" fill="#E8D12C"/>
<path d="M52.6552 19.5501C52.1246 18.6544 50.9677 18.3601 50.0748 18.8898L46.6861 20.8982V16.9587C46.6861 15.9177 45.8428 15.0753 44.8028 15.0753C43.7627 15.0753 42.9194 15.9177 42.9194 16.9587V20.8975L39.5316 18.8898C38.6369 18.3601 37.4828 18.6544 36.9512 19.5501C36.4206 20.4439 36.7168 21.6008 37.6115 22.1305L41.1091 24.2032L37.6115 26.276C36.7168 26.8057 36.4206 27.9625 36.9512 28.8564C37.3035 29.4504 37.9297 29.7797 38.5734 29.7797C38.8999 29.7797 39.2309 29.6951 39.5316 29.5167L42.9194 27.509V31.446C42.9194 32.487 43.7627 33.3293 44.8028 33.3293C45.8428 33.3293 46.6861 32.487 46.6861 31.446V27.5083L50.0748 29.5167C50.3755 29.6951 50.7066 29.7797 51.033 29.7797C51.6767 29.7797 52.303 29.4504 52.6552 28.8564C53.1858 27.9625 52.8897 26.8057 51.9949 26.276L48.4974 24.2032L51.9949 22.1305C52.8897 21.6008 53.1858 20.4439 52.6552 19.5501Z" fill="#E8D12C"/>
<path d="M76.0488 19.5501C75.5173 18.6544 74.3614 18.3601 73.4684 18.8898L70.0806 20.8975V16.9587C70.0806 15.9177 69.2374 15.0753 68.1973 15.0753C67.1572 15.0753 66.314 15.9177 66.314 16.9587V20.8982L62.9253 18.8898C62.0305 18.3601 60.8764 18.6544 60.3449 19.5501C59.8143 20.4439 60.1104 21.6008 61.0051 22.1305L64.5027 24.2032L61.0051 26.276C60.1104 26.8057 59.8143 27.9625 60.3449 28.8564C60.6971 29.4504 61.3233 29.7797 61.967 29.7797C62.2935 29.7797 62.6245 29.6951 62.9253 29.5167L66.314 27.5083V31.446C66.314 32.487 67.1572 33.3293 68.1973 33.3293C69.2374 33.3293 70.0806 32.487 70.0806 31.446V27.509L73.4684 29.5167C73.7691 29.6951 74.1002 29.7797 74.4266 29.7797C75.0704 29.7797 75.6966 29.4504 76.0488 28.8564C76.5794 27.9625 76.2833 26.8057 75.3885 26.276L71.891 24.2032L75.3885 22.1305C76.2833 21.6008 76.5794 20.4439 76.0488 19.5501Z" fill="#E8D12C"/>
<path d="M99.4424 19.5501C98.9127 18.6544 97.755 18.3601 96.862 18.8898L93.4742 20.8977V16.9587C93.4742 15.9177 92.631 15.0753 91.5909 15.0753C90.5508 15.0753 89.7076 15.9177 89.7076 16.9587V20.8977L86.3198 18.8898C85.4269 18.3601 84.2709 18.6544 83.7394 19.5501C83.2088 20.4439 83.5049 21.6008 84.3997 22.1305L87.897 24.2032L84.3997 26.276C83.5049 26.8057 83.2088 27.9625 83.7394 28.8564C84.0916 29.4504 84.7178 29.7797 85.3616 29.7797C85.688 29.7797 86.0191 29.6951 86.3198 29.5167L89.7076 27.5087V31.446C89.7076 32.487 90.5508 33.3293 91.5909 33.3293C92.631 33.3293 93.4742 32.487 93.4742 31.446V27.5087L96.862 29.5167C97.1627 29.6951 97.4938 29.7797 97.8203 29.7797C98.464 29.7797 99.0902 29.4504 99.4424 28.8564C99.973 27.9625 99.6769 26.8057 98.7822 26.276L95.2848 24.2032L98.7822 22.1305C99.6769 21.6008 99.973 20.4439 99.4424 19.5501Z" fill="#E8D12C"/>
</svg>
