<svg width="63" height="66" viewBox="0 0 63 66" fill="none" xmlns="http://www.w3.org/2000/svg">
<path d="M40.7556 54.5463C40.7556 59.5106 36.5488 63.5351 31.3595 63.5351C26.1697 63.5351 21.9629 59.5106 21.9629 54.5463C21.9629 49.5814 26.1697 45.5569 31.3595 45.5569C36.5488 45.5569 40.7556 49.5814 40.7556 54.5463Z" fill="#FFA000"/>
<path d="M58.0977 48.8512C53.787 45.3661 51.3153 40.2744 51.3153 34.8771V27.273C51.3153 16.746 42.3608 8.18213 31.3595 8.18213C20.3577 8.18213 11.4033 16.746 11.4033 27.273V34.8771C11.4033 40.2744 8.93155 45.3686 4.59577 48.8762C3.48651 49.7816 2.85071 51.104 2.85071 52.5007C2.85071 55.1325 5.08855 57.2733 7.84004 57.2733H54.879C57.63 57.2733 59.8678 55.1325 59.8678 52.5007C59.8678 51.104 59.232 49.7816 58.0977 48.8512Z" fill="#FFC107"/>
<path d="M60.5802 29.3181C59.3999 29.3181 58.442 28.4017 58.442 27.2726C58.442 19.4398 55.2552 12.0789 49.4677 6.53979C48.6325 5.74078 48.6325 4.44539 49.4677 3.64638C50.3029 2.84737 51.657 2.84737 52.4927 3.64638C59.0867 9.95706 62.7183 18.3492 62.7183 27.2726C62.7183 28.4017 61.7604 29.3181 60.5802 29.3181Z" fill="#2A2A2A"/>
<path d="M2.13826 29.3183C0.958003 29.3183 0.00012207 28.4019 0.00012207 27.2728C0.00012207 18.3494 3.63224 9.95725 10.2288 3.64906C11.064 2.85005 12.4186 2.85005 13.2539 3.64906C14.0891 4.44807 14.0891 5.74397 13.2539 6.54298C7.46376 12.0791 4.27639 19.44 4.27639 27.2728C4.27639 28.4019 3.31851 29.3183 2.13826 29.3183Z" fill="#2A2A2A"/>
<path d="M31.3594 65.4549C25.4638 65.4549 20.6687 60.8676 20.6687 55.2276C20.6687 54.0985 21.6266 53.1821 22.8068 53.1821C23.9871 53.1821 24.945 54.0985 24.945 55.2276C24.945 58.6124 27.8212 61.364 31.3594 61.364C34.897 61.364 37.7738 58.6124 37.7738 55.2276C37.7738 54.0985 38.7317 53.1821 39.9119 53.1821C41.0922 53.1821 42.0501 54.0985 42.0501 55.2276C42.0501 60.8676 37.2549 65.4549 31.3594 65.4549Z" fill="#2A2A2A"/>
<path d="M54.879 57.2733H7.84004C5.08855 57.2733 2.85071 55.1325 2.85071 52.5007C2.85071 51.104 3.48651 49.7816 4.59577 48.8732C8.93155 45.3686 11.4033 40.2744 11.4033 34.8771V27.273C11.4033 16.746 20.3551 8.18213 31.3595 8.18213C42.3634 8.18213 51.3153 16.746 51.3153 27.273V34.8771C51.3153 40.2744 53.787 45.3686 58.0946 48.8542C59.232 49.7816 59.8678 51.104 59.8678 52.5007C59.8678 55.1325 57.63 57.2733 54.879 57.2733ZM31.3595 12.2731C22.7125 12.2731 15.6795 19.0012 15.6795 27.273V34.8771C15.6795 41.4794 12.655 47.7142 7.38381 51.9769C7.2841 52.0588 7.12698 52.2281 7.12698 52.5007C7.12698 52.8713 7.45219 53.1824 7.84004 53.1824H54.879C55.2664 53.1824 55.5916 52.8713 55.5916 52.5007C55.5916 52.2281 55.435 52.0588 55.3405 51.9824C50.0635 47.7142 47.039 41.4794 47.039 34.8771V27.273C47.039 19.0012 40.006 12.2731 31.3595 12.2731Z" fill="#2A2A2A"/>
<path d="M31.3596 12.2728C30.1793 12.2728 29.2214 11.3564 29.2214 10.2273V2.04547C29.2214 0.916365 30.1793 0 31.3596 0C32.5398 0 33.4977 0.916365 33.4977 2.04547V10.2273C33.4977 11.3564 32.5398 12.2728 31.3596 12.2728Z" fill="#2A2A2A"/>
</svg>
