<svg width="112" height="84" viewBox="0 0 112 84" fill="none" xmlns="http://www.w3.org/2000/svg">
<path d="M65.3601 54.6204C62.5737 56.478 59.337 57.46 56 57.46C52.6632 57.46 49.4266 56.478 46.6401 54.6204L0.745719 24.0232C0.491094 23.8535 0.243031 23.6765 0 23.4945V73.6313C0 79.3796 4.66484 83.9417 10.3103 83.9417H101.689C107.438 83.9417 112 79.2768 112 73.6313V23.4943C111.756 23.6767 111.508 23.8541 111.253 24.0241L65.3601 54.6204Z" fill="#E8D12C"/>
<path d="M4.38594 18.5627L50.2803 49.1602C52.0177 50.3185 54.0087 50.8975 55.9998 50.8975C57.9911 50.8975 59.9823 50.3182 61.7197 49.1602L107.614 18.5627C110.36 16.7329 112 13.6704 112 10.3651C112 4.68173 107.376 0.0582275 101.693 0.0582275H10.3068C4.62372 0.0584463 0 4.68195 0 10.3705C0 13.6704 1.63975 16.7329 4.38594 18.5627Z" fill="#E8D12C"/>
</svg>
