<svg width="76" height="78" viewBox="0 0 76 78" fill="none" xmlns="http://www.w3.org/2000/svg">
<path fill-rule="evenodd" clip-rule="evenodd" d="M17.6146 0.179352H73.7283C75.5734 0.179352 75.5734 3.00142 73.7283 3.00142H17.6146C15.7333 3.00142 15.7333 0.179352 17.6146 0.179352Z" fill="#E8D12C"/>
<path fill-rule="evenodd" clip-rule="evenodd" d="M17.2155 8.57288H74.1251C74.8848 8.57288 75.4999 9.18794 75.4999 9.98391V23.3703C75.4999 24.1301 74.8848 24.7814 74.1251 24.7814H68.9515V18.8116H70.9776C72.8228 18.8116 72.8228 15.9897 70.9776 15.9897H68.9515H22.389H20.3629C18.5178 15.9897 18.5178 18.8116 20.3629 18.8116H22.389V24.7812H17.2155C16.4557 24.7812 15.8044 24.1301 15.8044 23.3702V9.98391C15.8044 9.18794 16.4557 8.57288 17.2155 8.57288Z" fill="#E8D12C"/>
<path fill-rule="evenodd" clip-rule="evenodd" d="M55.2016 77.8206C31.5767 77.8206 19.7461 77.8206 19.7461 77.8206C23.183 75.2157 25.173 71.1636 25.173 66.8944V18.8118H66.1276V66.8943C66.1278 72.9002 61.2436 77.8206 55.2016 77.8206ZM31.215 27.893H36.3885C38.1975 27.893 39.6808 29.3763 39.6808 31.1853V36.3589C39.6808 38.1678 38.1975 39.6149 36.3885 39.6149H31.215C29.4061 39.6149 27.9227 38.1678 27.9227 36.3589V31.1853C27.9227 29.3763 29.4059 27.893 31.215 27.893ZM31.215 42.437H36.3885C38.1975 42.437 39.6808 43.9204 39.6808 45.7293V50.9029C39.6808 52.7119 38.1975 54.1952 36.3885 54.1952H31.215C29.4061 54.1952 27.9227 52.7119 27.9227 50.9029V45.7293C27.9227 43.9204 29.4059 42.437 31.215 42.437ZM31.215 56.9812H36.3885C38.1975 56.9812 39.6808 58.4646 39.6808 60.2735V65.4471C39.6808 67.2561 38.1975 68.7394 36.3885 68.7394H31.215C29.4061 68.7394 27.9227 67.2561 27.9227 65.4471V60.2735C27.9227 58.4646 29.4059 56.9812 31.215 56.9812ZM43.8776 29.5572H62.0033C63.8484 29.5572 63.8484 32.3431 62.0033 32.3431H43.8776C42.0325 32.3431 42.0325 29.5572 43.8776 29.5572ZM43.8776 35.165H50.1004C51.9816 35.165 51.9816 37.9869 50.1004 37.9869H43.8776C42.0325 37.9871 42.0325 35.165 43.8776 35.165ZM43.8776 44.1013H62.0033C63.8484 44.1013 63.8484 46.9232 62.0033 46.9232H43.8776C42.0325 46.9234 42.0325 44.1013 43.8776 44.1013ZM43.8776 58.6455H62.0033C63.8484 58.6455 63.8484 61.4676 62.0033 61.4676H43.8776C42.0325 61.4674 42.0325 58.6455 43.8776 58.6455ZM43.8776 49.7092H50.1004C51.9816 49.7092 51.9816 52.5313 50.1004 52.5313H43.8776C42.0325 52.5311 42.0325 49.7092 43.8776 49.7092ZM43.8776 64.2533H50.1004C51.9816 64.2533 51.9816 67.0753 50.1004 67.0753H43.8776C42.0325 67.0753 42.0325 64.2533 43.8776 64.2533Z" fill="#E8D12C"/>
<path fill-rule="evenodd" clip-rule="evenodd" d="M11.4258 77.8204C5.42005 77.8204 0.499756 72.9 0.499756 66.8942V56.4022C0.499756 55.353 1.36805 54.5209 2.38101 54.5209H22.3881V66.8943C22.3881 72.9 17.4678 77.8204 11.4258 77.8204Z" fill="#E8D12C"/>
<path fill-rule="evenodd" clip-rule="evenodd" d="M31.2167 30.7147H36.3903C36.65 30.7147 36.8607 30.9253 36.8607 31.1851V36.3587C36.8607 36.6184 36.65 36.8291 36.3903 36.8291H31.2167C30.957 36.8291 30.7463 36.6184 30.7463 36.3587V31.1851C30.7463 30.9253 30.957 30.7147 31.2167 30.7147Z" fill="#E8D12C"/>
<path fill-rule="evenodd" clip-rule="evenodd" d="M31.2167 45.2592H36.3903C36.65 45.2592 36.8607 45.4698 36.8607 45.7296V50.9031C36.8607 51.1629 36.65 51.3735 36.3903 51.3735H31.2167C30.957 51.3735 30.7463 51.1629 30.7463 50.9031V45.7296C30.7463 45.4698 30.957 45.2592 31.2167 45.2592Z" fill="#E8D12C"/>
<path fill-rule="evenodd" clip-rule="evenodd" d="M31.2167 59.803H36.3903C36.65 59.803 36.8607 60.0137 36.8607 60.2734V65.447C36.8607 65.7068 36.65 65.9174 36.3903 65.9174H31.2167C30.957 65.9174 30.7463 65.7068 30.7463 65.447V60.2734C30.7463 60.0137 30.957 59.803 31.2167 59.803Z" fill="#E8D12C"/>
</svg>
