<svg width="15" height="16" viewBox="0 0 15 16" fill="none" xmlns="http://www.w3.org/2000/svg">
<path fill-rule="evenodd" clip-rule="evenodd" d="M7.34121 2.80151H1.76471C0.789709 2.80151 0 3.63887 0 4.67034V14.0127C0 15.0451 0.789709 15.8816 1.76471 15.8816H11.4706C12.4456 15.8816 13.2353 15.0451 13.2353 14.0127V7.17447L9.7818 10.831C9.48022 11.1535 9.08745 11.3763 8.65592 11.4698L6.29032 11.971C4.74619 12.2974 3.3856 10.8565 3.69443 9.22242L4.16737 6.71741C4.25296 6.26564 4.46296 5.85005 4.7709 5.52447L7.34121 2.80151Z" fill="#E8D12C"/>
<path fill-rule="evenodd" clip-rule="evenodd" d="M14.8642 1.1621C14.775 0.936244 14.6442 0.72913 14.4786 0.55151C14.3158 0.377799 14.1195 0.238834 13.9015 0.142979C13.6868 0.048687 13.4549 0 13.2203 0C12.9858 0 12.7539 0.048687 12.5392 0.142979C12.3212 0.238834 12.1249 0.377799 11.9621 0.55151L11.4803 1.06151L13.9968 3.72623L14.4786 3.21534C14.6459 3.03907 14.7769 2.8316 14.8642 2.60475C15.0459 2.14105 15.0459 1.62581 14.8642 1.1621ZM12.7501 5.04712L10.2327 2.38152L6.01767 6.84624C5.95548 6.9125 5.91354 6.99516 5.89679 7.08448L5.42385 9.59037C5.36208 9.91684 5.63473 10.2045 5.94267 10.1392L8.30915 9.6389C8.39526 9.61971 8.47363 9.57514 8.53415 9.51096L12.7501 5.04712Z" fill="#E8D12C"/>
</svg>
