<svg width="86" height="86" viewBox="0 0 86 86" fill="none" xmlns="http://www.w3.org/2000/svg">
<path d="M51.5748 65.6758C51.5748 68.2625 49.4584 70.3789 46.8717 70.3789H10.4896C7.90291 70.3789 5.7865 68.2625 5.7865 65.6758V9.74219C5.7865 7.15547 7.90291 5.03906 10.4896 5.03906H44.8393C45.6455 4.77031 46.4854 4.61914 47.342 4.61914C50.0799 4.61914 52.2635 6.19805 53.5064 9.05352C54.6654 11.7074 55.5221 14.6133 56.1268 17.9223C56.6979 21.0633 55.5725 23.398 52.7842 24.8762C52.3811 25.0945 51.9779 25.2793 51.5748 25.4641V32.2668C53.0025 35.0215 54.699 37.625 56.6139 40.0605V9.74219C56.6139 4.36719 52.2467 0 46.8717 0H10.4896C5.11463 0 0.747437 4.36719 0.747437 9.74219V76.2578C0.747437 81.6328 5.11463 86 10.4896 86H46.8549C52.2299 86 56.5971 81.6328 56.5971 76.2578V58.8227C54.8334 57.7141 53.1537 56.4879 51.558 55.1441L51.5748 65.6758ZM32.5943 80.9609H24.7838C23.2385 80.9273 22.0291 79.6508 22.0627 78.1055C22.0963 76.6273 23.2889 75.418 24.7838 75.3844H32.5943C34.1396 75.3508 35.4162 76.5602 35.4498 78.1055C35.4834 79.6508 34.274 80.9273 32.7287 80.9609C32.6783 80.9609 32.6279 80.9609 32.5943 80.9609Z" fill="#E8D12C"/>
<path d="M76.468 49.1985C74.6036 47.1157 72.3864 45.4528 70.0852 43.8739C68.204 42.5973 66.6419 42.7653 65.0294 43.9915C63.8872 44.8481 62.913 45.9231 61.9387 46.9813C61.0149 47.9891 60.5614 48.0731 59.5872 47.1325C53.6075 41.4216 49.0555 34.3669 46.3176 26.5563C45.9313 25.4645 46.1329 25.0446 47.1743 24.5911C48.6524 23.9528 50.1641 23.3817 51.5919 22.6259C53.4227 21.6684 53.9938 20.3919 53.6243 18.3594C53.1372 15.504 52.3141 12.7157 51.1719 10.045C50.0465 7.47507 48.0309 6.53444 45.377 7.50866C41.1442 9.07077 38.2551 12.0102 36.9786 16.3774C36.1555 19.1993 36.4579 22.0548 36.9282 24.8766C37.9024 30.8227 40.1364 36.2985 43.2942 41.4048C47.3254 47.9387 52.3645 53.4649 59.1001 57.345C61.7204 58.8567 64.4751 59.8813 67.5321 59.8981C69.363 59.9149 71.177 59.5118 72.8399 58.7391C74.7212 57.8825 76.3672 56.6899 77.5262 54.9262C78.4333 53.5489 78.4837 52.1212 77.6102 50.7102C77.2911 50.1727 76.9048 49.6688 76.468 49.1985Z" fill="#E8D12C"/>
<path d="M81.6076 19.0645C77.9795 13.2864 72.806 9.6415 66.1377 8.16337C65.0963 7.91142 64.0212 8.36494 63.4837 9.28876C62.9798 10.179 63.0302 11.338 63.7861 12.0267C64.2732 12.4298 64.8443 12.7153 65.449 12.8665C71.4623 14.3614 75.8463 17.872 78.5338 23.4317C80.3982 27.2614 80.7845 31.3095 79.9783 35.4751C79.7095 36.7516 80.5326 38.0114 81.8091 38.2802C83.0857 38.5489 84.3455 37.7259 84.6142 36.4493C84.6142 36.4157 84.631 36.3821 84.631 36.3317C84.883 34.7528 85.0509 33.1403 85.2525 31.5446C85.1349 27.0599 83.9759 22.8606 81.6076 19.0645Z" fill="#E8D12C"/>
<path d="M62.3416 20.1391C62.6439 20.2399 62.9462 20.2903 63.2486 20.3743C67.3134 21.4997 70.1017 24.0528 71.6638 27.9497C72.5373 30.1501 72.6716 32.4344 72.2349 34.7692C71.983 36.1969 72.806 37.4231 74.133 37.6415C75.4095 37.8934 76.6357 37.0536 76.8877 35.777C76.8877 35.7434 76.9045 35.7098 76.9045 35.6762C77.106 34.5508 77.2068 33.4087 77.3244 32.3505C77.2068 31.2755 77.1396 30.318 76.9884 29.3606C75.8966 22.5747 70.1689 16.6958 63.5173 15.5368C62.224 15.2848 60.981 16.1415 60.7459 17.4348C60.5275 18.6106 61.2162 19.7696 62.3416 20.1391Z" fill="#E8D12C"/>
<path d="M60.2588 27.7147C62.3752 28.269 63.7861 29.596 64.3068 31.7124C64.5084 32.5522 64.4076 33.476 64.3572 34.3663C64.2732 35.6764 65.0795 36.785 66.3896 36.9866C67.6494 37.1881 68.8252 36.3483 69.0603 35.1053C69.1947 34.4334 69.2451 33.7616 69.3291 33.0897C69.2955 28.2186 65.7345 23.8682 61.0482 23.0116C59.822 22.7764 58.6295 23.5323 58.3271 24.7249C57.9408 26.0854 58.747 27.3116 60.2588 27.7147Z" fill="#E8D12C"/>
</svg>
