<svg width="113" height="103" viewBox="0 0 113 103" fill="none" xmlns="http://www.w3.org/2000/svg">
<path d="M41.0538 11.3441C41.1738 11.5404 41.3316 11.7108 41.518 11.8457C41.7044 11.9805 41.9157 12.0769 42.1396 12.1295C42.3636 12.1821 42.5958 12.1896 42.8227 12.1518C43.0496 12.114 43.2667 12.0315 43.4615 11.9091L50.4762 7.56297C50.7278 7.40706 50.9354 7.1895 51.0794 6.93091C51.2233 6.67232 51.2989 6.38125 51.2989 6.08528C51.2989 5.78931 51.2233 5.49824 51.0794 5.23965C50.9354 4.98105 50.7278 4.7635 50.4762 4.60759L43.4615 0.261432C43.0696 0.0182187 42.5971 -0.0593487 42.148 0.0457943C41.6989 0.150937 41.31 0.430178 41.0668 0.822086C40.8236 1.21399 40.746 1.68647 40.8512 2.13557C40.9563 2.58467 41.2355 2.9736 41.6275 3.21682L43.4615 4.34682H16.5154C16.0543 4.34682 15.6121 4.52998 15.2861 4.856C14.9601 5.18203 14.7769 5.62421 14.7769 6.08528C14.7769 6.54635 14.9601 6.98853 15.2861 7.31456C15.6121 7.64058 16.0543 7.82374 16.5154 7.82374H43.4615L41.6361 8.95374C41.4408 9.07234 41.2708 9.22828 41.1358 9.41265C41.0008 9.59701 40.9035 9.80618 40.8494 10.0282C40.7953 10.2502 40.7855 10.4807 40.8206 10.7065C40.8556 10.9323 40.9349 11.149 41.0538 11.3441Z" fill="#E8D12C"/>
<path d="M111.305 95.0076L104.29 90.6614C104.096 90.541 103.88 90.46 103.655 90.423C103.43 90.386 103.199 90.3937 102.977 90.4458C102.754 90.4978 102.545 90.5932 102.359 90.7264C102.173 90.8596 102.016 91.028 101.896 91.2221C101.775 91.4161 101.694 91.632 101.657 91.8574C101.62 92.0827 101.628 92.3132 101.68 92.5356C101.732 92.7579 101.827 92.9679 101.961 93.1534C102.094 93.3389 102.262 93.4964 102.456 93.6168L104.308 94.7468H90.4C89.939 94.7468 89.4968 94.93 89.1707 95.256C88.8447 95.582 88.6616 96.0242 88.6616 96.4853C88.6616 96.9463 88.8447 97.3885 89.1707 97.7145C89.4968 98.0406 89.939 98.2237 90.4 98.2237H104.308L102.482 99.3537C102.288 99.4742 102.12 99.6316 101.987 99.8172C101.853 100.003 101.758 100.213 101.706 100.435C101.654 100.657 101.646 100.888 101.683 101.113C101.72 101.339 101.801 101.554 101.922 101.748C102.042 101.943 102.2 102.111 102.385 102.244C102.571 102.377 102.781 102.473 103.003 102.525C103.225 102.577 103.456 102.585 103.681 102.548C103.906 102.511 104.122 102.43 104.316 102.309L111.331 97.963C111.583 97.807 111.79 97.5895 111.934 97.3309C112.078 97.0723 112.154 96.7812 112.154 96.4853C112.154 96.1893 112.078 95.8982 111.934 95.6396C111.79 95.381 111.583 95.1635 111.331 95.0076H111.305Z" fill="#E8D12C"/>
<path d="M6.08465 86.9237H86.0539C87.4371 86.9237 88.7636 86.3742 89.7417 85.3962C90.7198 84.4181 91.2693 83.0915 91.2693 81.7083V62.5853C91.2693 61.2021 90.7198 59.8755 89.7417 58.8974C88.7636 57.9194 87.4371 57.3699 86.0539 57.3699H6.08465C4.70144 57.3699 3.37489 57.9194 2.39681 58.8974C1.41874 59.8755 0.869263 61.2021 0.869263 62.5853L0.869263 81.7083C0.869263 83.0915 1.41874 84.4181 2.39681 85.3962C3.37489 86.3742 4.70144 86.9237 6.08465 86.9237ZM4.34619 62.5853C4.34619 62.1242 4.52934 61.682 4.85537 61.356C5.18139 61.03 5.62358 60.8468 6.08465 60.8468H86.0539C86.5149 60.8468 86.9571 61.03 87.2831 61.356C87.6092 61.682 87.7923 62.1242 87.7923 62.5853V81.7083C87.7923 82.1694 87.6092 82.6116 87.2831 82.9376C86.9571 83.2636 86.5149 83.4468 86.0539 83.4468H6.08465C5.62358 83.4468 5.18139 83.2636 4.85537 82.9376C4.52934 82.6116 4.34619 82.1694 4.34619 81.7083V62.5853Z" fill="#E8D12C"/>
<path d="M105.177 15.6468H26.9462C25.1019 15.6468 23.3331 16.3795 22.029 17.6836C20.7249 18.9877 19.9923 20.7564 19.9923 22.6007V50.416H50.4154C50.8765 50.416 51.3186 50.5992 51.6447 50.9252C51.9707 51.2513 52.1538 51.6934 52.1538 52.1545C52.1538 52.6156 51.9707 53.0578 51.6447 53.3838C51.3186 53.7098 50.8765 53.893 50.4154 53.893H86.2277C86.1122 53.3207 86.054 52.7383 86.0538 52.1545C86.0538 50.4353 86.5636 48.7548 87.5188 47.3253C88.4739 45.8959 89.8314 44.7818 91.4198 44.1239C93.0081 43.466 94.7558 43.2938 96.4419 43.6292C98.1281 43.9646 99.6769 44.7925 100.893 46.0081C102.108 47.2238 102.936 48.7726 103.271 50.4587C103.607 52.1449 103.435 53.8926 102.777 55.4809C102.119 57.0692 101.005 58.4268 99.5753 59.3819C98.1459 60.337 96.4653 60.8468 94.7462 60.8468H94.5723C94.6872 61.4192 94.7454 62.0015 94.7462 62.5853V71.2776H105.177C107.021 71.2776 108.79 70.545 110.094 69.2409C111.398 67.9368 112.131 66.168 112.131 64.3237V31.293H35.6385C35.1774 31.293 34.7352 31.1098 34.4092 30.7838C34.0832 30.4578 33.9 30.0156 33.9 29.5545C33.9 29.0934 34.0832 28.6513 34.4092 28.3252C34.7352 27.9992 35.1774 27.8161 35.6385 27.8161H112.131V22.6007C112.131 20.7564 111.398 18.9877 110.094 17.6836C108.79 16.3795 107.021 15.6468 105.177 15.6468Z" fill="#E8D12C"/>
</svg>
