<svg width="62" height="63" viewBox="0 0 62 63" fill="none" xmlns="http://www.w3.org/2000/svg">
<mask id="mask0_43_30" style="mask-type:luminance" maskUnits="userSpaceOnUse" x="0" y="0" width="62" height="63">
<path d="M0 0.666748H62V62.6667H0V0.666748Z" fill="white"/>
</mask>
<g mask="url(#mask0_43_30)">
<path d="M52.0641 52.7308C40.4307 64.3641 21.5693 64.3641 9.93595 52.7308C-1.6974 41.0974 -1.6974 22.236 9.93595 10.6026C21.5693 -1.03071 40.4307 -1.03071 52.0641 10.6026C63.6975 22.236 63.6975 41.0974 52.0641 52.7308Z" fill="#FF6977"/>
<path d="M47.0978 22.419L40.2478 15.5688L31.0001 24.8165L21.7524 15.5688L14.9023 22.419L24.1499 31.6666L14.9023 40.9143L21.7524 47.7644L31.0001 38.5167L40.2478 47.7644L47.0978 40.9143L37.8502 31.6666L47.0978 22.419Z" fill="white"/>
<path d="M47.0978 22.419L40.2478 15.5688L31.0001 24.8165L21.7524 15.5688L14.9023 22.419L24.1499 31.6666L14.9023 40.9143L21.7524 47.7644L31.0001 38.5167L40.2478 47.7644L47.0978 40.9143L37.8502 31.6666L47.0978 22.419Z" stroke="black" stroke-width="2" stroke-miterlimit="10" stroke-linecap="round" stroke-linejoin="round"/>
<path d="M48.3619 55.8788C36.7215 64.2473 20.4031 63.1979 9.93595 52.7308C-1.6974 41.0974 -1.6974 22.2361 9.93595 10.6027C21.5693 -1.03063 40.4308 -1.03063 52.0641 10.6027C62.5311 21.0698 63.5805 37.3884 55.2121 49.0287" stroke="black" stroke-width="2" stroke-miterlimit="10" stroke-linecap="round" stroke-linejoin="round"/>
</g>
</svg>
