<svg width="92" height="80" viewBox="0 0 92 80" fill="none" xmlns="http://www.w3.org/2000/svg">
<path d="M63.6993 16.4036C64.78 16.3245 65.9034 16.3888 66.9881 16.3899L73.493 16.3924L80.6013 16.3882C81.8755 16.3894 83.1887 16.3207 84.4581 16.427C85.3547 16.5009 86.2331 16.7241 87.0561 17.0874C89.0113 17.9429 90.4075 19.5371 91.0623 21.567C91.2225 22.0631 91.2021 22.6624 91.3991 23.1307C91.4093 23.1548 91.4199 23.1785 91.4306 23.2024V73.7497C91.2358 74.1202 91.1711 74.6353 91.0451 75.0403C90.5309 76.6939 89.1107 78.2458 87.5952 79.0435C86.5038 79.6185 85.4785 79.9148 84.2447 79.9689C82.0658 80.0639 79.8693 79.9126 77.6892 79.8944L65.5773 79.8873L24.8303 79.8842L14.1024 79.8882L9.93621 79.9082C8.55111 79.9068 7.03171 80.0195 5.69865 79.5967C3.46677 78.8891 1.9065 77.3065 1.00522 75.1659C0.818962 74.7231 0.832001 74.1415 0.602298 73.7324C0.591717 73.7134 0.580323 73.6952 0.569336 73.6765V22.6138C0.754084 22.2893 0.800893 21.8244 0.91546 21.4652C1.27715 20.3312 2.00171 19.2598 2.85235 18.4362C3.8658 17.4551 5.15929 16.8249 6.53743 16.5517C7.64564 16.332 8.80648 16.4068 9.93097 16.4082L14.1862 16.4103C18.4351 16.4117 22.6937 16.3232 26.9411 16.3947C27.2612 16.4714 27.5926 16.4581 27.9182 16.4959C27.9965 17.2448 27.9743 18.0002 27.9725 18.7522L27.9695 21.7304L27.978 24.636C27.9795 25.2711 28.0121 25.9285 27.9269 26.5582C27.9182 26.6223 27.9118 26.6869 27.9041 26.7512C26.7183 27.0018 25.532 26.8101 24.3444 26.9519C23.3412 26.8849 22.2977 26.9358 21.2906 26.9325L14.3209 26.9313C13.4363 26.9301 12.5463 26.9737 11.6631 26.9432C11.6761 28.8961 11.7074 30.8607 11.6474 32.8126C15.3389 32.7093 19.0504 32.7796 22.7434 32.7884L40.4476 32.7875L66.9074 32.7983C71.3573 32.8063 75.82 32.7128 80.2681 32.8188C80.2761 32.3455 80.3227 31.8725 80.3289 31.3982C80.3418 29.9189 80.3347 28.4397 80.3067 26.9606C78.1381 26.9334 75.9691 26.9247 73.8 26.9345L63.7117 26.9494C63.7951 25.8611 63.7046 24.7187 63.6948 23.6238C63.6829 22.2205 63.7055 20.8177 63.7042 19.4144C63.7033 18.41 63.6722 17.4082 63.6993 16.4036ZM13.8795 69.4152L29.4035 69.4272L44.4687 69.4263L44.4626 69.3722C44.3675 68.448 44.4206 67.531 44.2857 66.6028C43.7622 62.9977 41.9114 59.7177 39.0957 57.4058C36.967 55.6791 34.4305 54.5282 31.7293 54.0633C33.5622 53.4772 35.3825 51.8561 36.2595 50.152C37.2845 48.2074 37.4759 45.9301 36.79 43.8418C36.1637 41.9412 34.6365 40.132 32.845 39.2362C31.6091 38.6183 30.1322 38.2193 28.7416 38.3754C26.323 38.6555 24.3636 39.5015 22.8153 41.4581C21.5282 43.0734 20.9361 45.1347 21.1692 47.187C21.405 49.357 22.5034 51.3414 24.2172 52.6933C24.9784 53.2847 25.8283 53.7518 26.7354 54.0775C25.9717 54.1303 25.2138 54.329 24.4815 54.5464C23.681 54.7842 22.8718 55.0535 22.1153 55.4085C20.417 56.2053 18.6542 57.5318 17.4281 58.9426C15.4812 61.1831 14.218 63.9342 13.9318 66.9032C13.8515 67.7355 13.8756 68.5798 13.8795 69.4152ZM75.7677 58.3601C76.6226 58.1232 77.3041 57.7496 77.7544 56.9502C78.1687 56.2141 78.3231 55.4391 78.0809 54.6165C77.856 53.8539 77.3391 53.2421 76.639 52.8716C76.2442 52.6627 75.8413 52.5642 75.3977 52.5282C74.4092 52.4479 73.3803 52.5007 72.387 52.5003L66.7379 52.4985L59.5009 52.4963C58.0914 52.4963 56.6673 52.4555 55.2604 52.5282C54.4162 52.6977 53.7569 53.0495 53.2711 53.7807C52.8283 54.4479 52.7138 55.2944 52.8784 56.0708C53.0373 56.8228 53.4707 57.4901 54.1189 57.9107C54.5257 58.1751 55.0005 58.3189 55.4818 58.3588C55.9934 58.4014 56.5173 58.3774 57.0306 58.3765L59.5271 58.3774L67.7002 58.3832L72.9052 58.3854C73.844 58.3903 74.8391 58.4835 75.7677 58.3601ZM72.8302 47.116C73.3994 47.1103 73.9682 47.1089 74.5374 47.1125C75.6332 47.1169 76.5024 47.089 77.3236 46.2673C77.8591 45.7318 78.1785 45.0575 78.1692 44.2913C78.1634 43.4922 77.8373 42.7296 77.2637 42.1737C76.899 41.8219 76.4185 41.5357 75.9167 41.4439C75.0915 41.2935 74.2295 41.3405 73.3937 41.3409L70.1137 41.3449L58.008 41.3534C56.5852 41.3578 54.7507 41.1089 53.6619 42.199C53.1047 42.7531 52.7928 43.5073 52.7959 44.293C52.7964 45.0442 53.1464 45.8108 53.677 46.3361C54.0346 46.6901 54.5284 46.9692 55.0297 47.0482C55.78 47.1671 56.5759 47.1134 57.3337 47.1103L60.8332 47.1023L72.8191 47.116C72.8227 47.116 72.8267 47.116 72.8302 47.116ZM75.3533 69.4245C76.2526 69.3291 76.958 69.0168 77.537 68.3029C78.037 67.6863 78.2411 66.9591 78.1537 66.1712C78.0716 65.4303 77.6878 64.7918 77.1097 64.3291C76.6616 63.9706 76.1359 63.7847 75.5698 63.7217C74.604 63.6139 73.5658 63.6889 72.5915 63.6898L66.8271 63.6907H59.4211C58.1225 63.6902 56.7826 63.6192 55.4898 63.7164C54.6362 63.8105 53.9406 64.1055 53.3913 64.7852C52.9139 65.3766 52.6908 66.1339 52.772 66.8899C52.8571 67.6534 53.2467 68.3504 53.8523 68.8238C54.2924 69.165 54.8203 69.3478 55.3705 69.4085C56.2041 69.5004 57.0959 69.4347 57.937 69.4365L63.0799 69.4405L70.5693 69.4374C72.1585 69.4418 73.7654 69.4946 75.3533 69.4245Z" fill="#E8D12C"/>
<path d="M36.017 0.0402243C36.8787 -0.0336892 37.7763 0.0169768 38.6426 0.0164888L43.576 0.0142704L51.9065 0.0252731C53.0933 0.0298872 54.2872 -0.010619 55.4731 0.0274469C56.202 0.0508277 56.7934 0.239161 57.3018 0.791471C57.6536 1.17364 57.8391 1.611 57.8994 2.1232C57.9882 2.88044 57.9434 3.67206 57.9429 4.43395C57.9363 5.83995 57.9376 7.24599 57.9478 8.65195C57.9868 12.2946 57.9953 15.9376 57.9735 19.5805C57.9744 22.031 58.0325 24.4964 57.9505 26.9453L55.9491 26.9428C48.6509 26.8561 41.3521 26.8499 34.0539 26.9242C34.1165 26.3179 34.0861 25.6927 34.0839 25.0841C34.079 23.7191 34.0342 22.3546 34.0378 20.9899C34.0809 16.4247 34.096 11.8592 34.0832 7.29386L34.0721 3.88444C34.0696 3.24623 34.0286 2.57959 34.1037 1.94623C34.1484 1.56983 34.2601 1.21366 34.4811 0.901854C34.8636 0.362276 35.3867 0.141201 36.017 0.0402243ZM46.4233 18.339C49.505 18.0761 51.7907 15.3661 51.5307 12.2842C51.2703 9.20222 48.5622 6.91387 45.4801 7.17146C42.3943 7.42936 40.1026 10.1414 40.3631 13.2271C40.6236 16.3128 43.3377 18.6022 46.4233 18.339Z" fill="#E8D12C"/>
</svg>
