<svg width="76" height="59" viewBox="0 0 76 59" fill="none" xmlns="http://www.w3.org/2000/svg">
<path d="M27.3626 58.9722C24.5612 58.9722 21.863 57.8664 19.8873 55.8759L3.27069 39.2593C-0.946123 35.2342 -1.10831 28.5404 2.91683 24.3236C6.94197 20.1067 13.6358 19.9446 17.8526 23.9697C17.9706 24.0876 18.0885 24.2056 18.2065 24.3236L27.3626 33.4796L57.6322 3.20999C61.6868 -0.977332 68.3807 -1.08054 72.568 2.97409C76.7553 7.02872 76.8585 13.7225 72.8039 17.9099C72.7302 17.9836 72.6417 18.0721 72.568 18.1458L34.8231 55.8907C32.8474 57.8664 30.1639 58.987 27.3626 58.9722Z" fill="url(#paint0_linear_69_65)"/>
<path d="M69.9581 5.80505C67.2746 3.12162 62.9251 3.12162 60.227 5.80505L27.3476 38.6844L15.5818 26.9186C12.8984 24.2352 8.53413 24.2352 5.85071 26.9186C3.16728 29.602 3.16728 33.9663 5.85071 36.6497L22.4968 53.2811C25.1802 55.9645 29.5445 55.9645 32.2279 53.2811L69.9728 15.5362C72.6562 12.838 72.6415 8.48848 69.9581 5.80505Z" fill="url(#paint1_linear_69_65)"/>
<defs>
<linearGradient id="paint0_linear_69_65" x1="64.2871" y1="-5.31284" x2="11.6079" y2="47.3679" gradientUnits="userSpaceOnUse">
<stop stop-color="#2A2A2A"/>
<stop offset="1"/>
</linearGradient>
<linearGradient id="paint1_linear_69_65" x1="61.798" y1="-2.65217" x2="14.3219" y2="44.8239" gradientUnits="userSpaceOnUse">
<stop stop-color="#70F64A"/>
<stop offset="1" stop-color="#19B931"/>
</linearGradient>
</defs>
</svg>
