<svg width="71" height="76" viewBox="0 0 71 76" fill="none" xmlns="http://www.w3.org/2000/svg">
<path d="M58.2763 18.3822L55.1488 14.8079C52.5319 17.0973 48.5544 16.8322 46.2647 14.2152C43.9752 11.5981 44.2403 7.6206 46.8572 5.33077L43.73 1.75653C43.1751 1.12216 42.2107 1.05797 41.5762 1.61306L1.75479 36.4547C1.12027 37.01 1.05594 37.9742 1.61103 38.6084L1.9447 38.9896C2.08538 38.8825 2.24394 38.7945 2.41964 38.7331L16.7203 33.7316L57.2785 19.5463L58.6214 19.0765C58.5698 18.8272 58.4562 18.5875 58.2763 18.3822Z" fill="#1584B5"/>
<path d="M57.8881 44.3376H66.9597C67.7236 44.3376 68.3735 44.8173 68.6296 45.4913C69.1624 45.0445 69.3932 44.3003 69.1498 43.6051L67.3817 38.5501C63.6811 39.8445 59.6315 37.8938 58.3371 34.1929C57.043 30.4921 58.9938 26.4427 62.6946 25.1484L60.9266 20.0936C60.613 19.1966 59.6312 18.7236 58.7338 19.0374L51.8853 21.4325L47.968 22.8028L2.41954 38.7333C1.52257 39.0472 1.04954 40.029 1.36329 40.9261L3.13128 45.9808C3.15224 45.9732 3.17378 45.9675 3.19503 45.9602C3.27841 45.0503 4.04276 44.3373 4.97475 44.3373H10.6077" fill="#F99A1E"/>
<path d="M14.0674 44.3375H4.9746C3.98722 44.3375 3.18652 45.1382 3.18652 46.1256V51.6894C7.26003 51.6894 10.5623 54.9916 10.5623 59.0651C10.5623 63.1386 7.26003 66.4407 3.18652 66.4407V72.0047C3.18652 72.9923 3.98707 73.7927 4.9746 73.7927H53.0555H57.174H66.9597C67.947 73.7927 68.7477 72.9925 68.7477 72.0047V66.4407C64.6742 66.4407 61.3721 63.1386 61.3721 59.0651C61.3721 54.9914 64.6744 51.6894 68.7477 51.6894V46.1255C68.7477 45.1382 67.9472 44.3374 66.9597 44.3374H18.3506" fill="#F94743"/>
<path d="M54.9201 15.2242C52.3032 17.5136 48.3257 17.2485 46.036 14.6314C43.7465 12.0144 44.0116 8.03686 46.6285 5.74703L43.5013 2.17278C42.9464 1.53842 41.9819 1.47423 41.3475 2.02932L19.0515 21.5373C19.1094 25.3975 19.7473 29.1167 20.8819 32.6124L57.0495 19.9628L58.3924 19.493C58.3408 19.2436 58.2274 19.0037 58.0474 18.7984L54.9201 15.2242Z" fill="#29ABE2"/>
<path d="M67.1531 38.6368C63.4525 39.9312 59.4029 37.9804 58.1085 34.2796C56.8144 30.5787 58.7652 26.5294 62.466 25.235L60.698 20.1803C60.3844 19.2833 59.4026 18.8103 58.5052 19.124L51.6567 21.5192L47.7394 22.8895L20.7864 32.3164C22.1901 36.7659 24.3978 40.8582 27.2379 44.4244H57.6595H66.7311C67.495 44.4244 68.1449 44.9041 68.401 45.5781C68.9338 45.1313 69.1646 44.3871 68.9212 43.692L67.1531 38.6368Z" fill="#FBB03B"/>
<path d="M66.7312 44.0947H26.9778C33.8742 52.9533 44.6381 58.6527 56.7342 58.6527C58.2307 58.6527 59.7059 58.5626 61.1568 58.393C61.3793 54.5193 64.5896 51.4466 68.5188 51.4466V45.8828C68.5191 44.8954 67.7186 44.0947 66.7312 44.0947Z" fill="#FF6561"/>
<path d="M70.3161 43.1972L68.5481 38.142C68.4401 37.8328 68.2134 37.5792 67.9181 37.4369C67.6227 37.2946 67.2831 37.2754 66.9739 37.3838C65.4959 37.901 63.9045 37.8114 62.4936 37.1316C61.0826 36.4517 60.0205 35.2633 59.5038 33.7851C58.4364 30.7333 60.0511 27.3821 63.1031 26.3145C63.4123 26.2065 63.6659 25.9798 63.8082 25.6846C63.9504 25.3893 63.9696 25.0498 63.8613 24.7404L62.0933 19.6858C61.6702 18.4761 60.535 17.7174 59.321 17.7086C59.2844 17.6608 59.2463 17.6141 59.2066 17.5688L56.0791 13.9945C55.6296 13.4809 54.8492 13.4286 54.3358 13.8782C53.4129 14.6855 52.2306 15.1302 51.0061 15.1302C49.5452 15.1302 48.156 14.5004 47.1952 13.4019C45.3579 11.3019 45.5715 8.09851 47.6713 6.2609C48.1848 5.81146 48.2371 5.03099 47.7876 4.51752L44.6599 0.943128C44.1354 0.343635 43.3778 0 42.581 0C41.9121 0 41.2665 0.242669 40.7627 0.683167L0.941305 35.5248C-0.0686454 36.4085 -0.27805 37.8704 0.371999 38.9896C0.00623625 39.6895 -0.083446 40.5317 0.197031 41.3343L1.95096 46.349V51.6895C1.95096 52.3721 2.504 52.9251 3.18658 52.9251C6.57238 52.9251 9.32659 55.6796 9.32659 59.0651C9.32659 62.4506 6.57209 65.2051 3.18658 65.2051C2.504 65.2051 1.95096 65.7581 1.95096 66.4407V72.0047C1.95096 73.6719 3.30733 75.0284 4.97466 75.0284H53.0556C53.7382 75.0284 54.2912 74.4753 54.2912 73.7928C54.2912 73.1102 53.7382 72.5571 53.0556 72.5571H4.97451C4.66971 72.5571 4.42191 72.3093 4.42191 72.0045V67.5878C8.58701 66.987 11.7975 63.3939 11.7975 59.0652C11.7975 54.7363 8.58715 51.1432 4.42191 50.5424V46.1257C4.42191 46.0996 4.42602 46.0745 4.42968 46.0496C4.43246 46.0288 4.43613 46.0084 4.4414 45.9886C4.44507 45.9744 4.44961 45.9608 4.4543 45.9472C4.46118 45.9274 4.46851 45.9079 4.4773 45.8891C4.48273 45.878 4.48903 45.8672 4.49504 45.8563C4.50617 45.8365 4.51775 45.817 4.53123 45.799C4.53695 45.7913 4.54354 45.7842 4.54969 45.7768C4.56552 45.7577 4.58193 45.7388 4.6001 45.7219C4.60553 45.7168 4.61183 45.7126 4.6174 45.7076C4.63747 45.6904 4.65813 45.674 4.68055 45.6597C4.687 45.6556 4.69404 45.6526 4.70063 45.6488C4.7232 45.6358 4.74606 45.6233 4.77038 45.6134C4.78196 45.6088 4.79427 45.6062 4.80614 45.6024C4.8268 45.5956 4.84702 45.5883 4.86842 45.5841C4.90285 45.5773 4.93832 45.5734 4.97451 45.5734H10.6075H14.067C14.7496 45.5734 15.3026 45.0202 15.3026 44.3377C15.3026 43.6552 14.7496 43.1021 14.067 43.1021H10.6075H4.97451C4.87868 43.1021 4.7843 43.1078 4.69081 43.1165C4.67674 43.1178 4.66282 43.1188 4.6489 43.1203C4.25735 43.1616 3.88763 43.2755 3.55513 43.4509L2.52935 40.5183C2.45535 40.3069 2.53815 40.0794 2.71473 39.9585C2.7263 39.9505 2.73803 39.9426 2.74975 39.9357C2.77437 39.9219 2.79972 39.909 2.82712 39.8995L59.1417 20.2037C59.3946 20.1153 59.6722 20.2488 59.7607 20.5018L61.1507 24.4764C57.5614 26.3661 55.7927 30.659 57.1712 34.6011C57.9061 36.7024 59.4154 38.3919 61.4211 39.358C63.0509 40.1432 64.8497 40.3743 66.5938 40.0393L67.6975 43.195C67.6785 43.1902 67.659 43.1867 67.6399 43.1821C67.604 43.1739 67.5684 43.1651 67.5322 43.1581C67.4553 43.143 67.3773 43.1314 67.2988 43.1223C67.2754 43.1197 67.2521 43.1178 67.2286 43.1156C67.1397 43.1075 67.0503 43.102 66.9597 43.102H57.8882H53.8057L49.8039 31.9748C49.5731 31.3326 48.865 30.9996 48.223 31.2302C47.581 31.4612 47.2477 32.1689 47.4785 32.8111L51.1796 43.1021H48.0281L44.688 33.8147C44.4571 33.1726 43.7489 32.8394 43.1072 33.0702C42.4652 33.3011 42.1318 34.0089 42.3626 34.651L45.4018 43.1023H42.2505L39.5722 35.6547C39.3413 35.0125 38.6341 34.6793 37.9913 34.9101C37.3493 35.1409 37.016 35.8488 37.2468 36.491L39.6242 43.1023H18.3505C17.6679 43.1023 17.1149 43.6553 17.1149 44.3379C17.1149 45.0202 17.6679 45.5735 18.3505 45.5735H57.8882H66.9597C66.9943 45.5735 67.0281 45.5776 67.0608 45.5838C67.0698 45.5854 67.0784 45.5879 67.0873 45.5899C67.1123 45.5958 67.1366 45.6032 67.16 45.6125C67.1678 45.6154 67.1757 45.6183 67.1832 45.6217C67.2115 45.6345 67.2389 45.6488 67.2644 45.6658C67.2658 45.6668 67.2674 45.6674 67.2688 45.6685C67.2953 45.6865 67.3196 45.7071 67.3426 45.7294C67.3514 45.7379 67.3593 45.7474 67.3674 45.7567C67.3794 45.7699 67.3905 45.7835 67.4014 45.7978C67.4119 45.8122 67.422 45.827 67.4311 45.8425C67.4366 45.8516 67.4414 45.861 67.4462 45.8704C67.4565 45.89 67.4664 45.9097 67.4744 45.9306V45.9309C67.4977 45.9919 67.5117 46.0571 67.5117 46.1261V50.5428C63.3466 51.1436 60.1361 54.7368 60.1361 59.0657C60.1361 63.3945 63.3465 66.9876 67.5117 67.5884V72.0053C67.5117 72.3101 67.2638 72.5579 66.9591 72.5579H57.1735C56.4909 72.5579 55.9379 73.1109 55.9379 73.7935C55.9379 74.4761 56.4909 75.0291 57.1735 75.0291H66.9591C68.6263 75.0291 69.9828 73.6727 69.9828 72.0054V66.4415C69.9828 65.7589 69.4298 65.2058 68.7472 65.2058C65.3614 65.2058 62.6072 62.4513 62.6072 59.0658C62.6072 55.68 65.3617 52.9258 68.7472 52.9258C69.4298 52.9258 69.9828 52.3728 69.9828 51.6902V46.1262C69.9828 46.0265 69.9774 45.9278 69.9679 45.8305C70.4827 45.0678 70.628 44.088 70.3161 43.1972ZM42.3897 2.54319C42.4579 2.48355 42.5313 2.4711 42.581 2.4711C42.6303 2.4711 42.7247 2.48399 42.8002 2.5703L45.1806 5.29096C42.8855 8.08488 42.8777 12.2202 45.335 15.0289C46.7652 16.6639 48.8323 17.6012 51.0058 17.6012C52.4127 17.6012 53.7823 17.2071 54.9654 16.4747L56.6885 18.4439L44.5874 22.6763L38.5055 15.5103C38.0639 14.99 37.2841 14.9259 36.7641 15.368C36.244 15.8096 36.1801 16.5893 36.6218 17.1095L42.0883 23.5504L39.0894 24.5993L34.3608 19.0283C33.9192 18.5081 33.1394 18.4439 32.6193 18.886C32.0991 19.3277 32.0354 20.1073 32.4771 20.6275L36.5903 25.4733L33.5912 26.5222L30.2165 22.546C29.7749 22.0258 28.9953 21.9619 28.4751 22.4037C27.955 22.8452 27.8911 23.625 28.3328 24.1452L31.0921 27.3963L2.59193 37.3642L42.3897 2.54319Z" fill="#231F20"/>
<path d="M53.9344 52.3738C53.2518 52.3738 52.6987 52.927 52.6987 53.6094V65.4707C52.6987 66.1533 53.2518 66.7064 53.9344 66.7064C54.6169 66.7064 55.17 66.1533 55.17 65.4707V53.6094C55.1698 52.9268 54.6166 52.3738 53.9344 52.3738Z" fill="#231F20"/>
<path d="M47.2625 53.6094V65.4707C47.2625 66.1533 47.8155 66.7064 48.4981 66.7064C49.1807 66.7064 49.7337 66.1533 49.7337 65.4707V53.6094C49.7337 52.9271 49.1807 52.3738 48.4981 52.3738C47.8153 52.3738 47.2625 52.9268 47.2625 53.6094Z" fill="#231F20"/>
<path d="M41.8259 53.6094V65.4707C41.8259 66.1533 42.379 66.7064 43.0615 66.7064C43.7441 66.7064 44.2972 66.1533 44.2972 65.4707V53.6094C44.2972 52.9271 43.7441 52.3738 43.0615 52.3738C42.379 52.3738 41.8259 52.9268 41.8259 53.6094Z" fill="#231F20"/>
</svg>
