<svg width="114" height="67" viewBox="0 0 114 67" fill="none" xmlns="http://www.w3.org/2000/svg">
<path d="M18.0391 16.9615H95.3467C95.9355 16.9616 96.4238 17.4499 96.4238 18.0387V18.4908C96.2509 18.8574 95.877 19.1158 95.4492 19.1158H88.7959V64.4235C88.7958 64.8347 88.5768 65.1851 88.2432 65.3571L88.2236 65.3668C88.0476 65.4607 87.8772 65.4996 87.7188 65.4996C87.5901 65.4996 87.4395 65.4698 87.2793 65.3942L87.1162 65.3024L80.8193 61.1129L79.9883 60.5602L79.1572 61.1129L72.8594 65.3024C72.5266 65.5176 72.1253 65.5449 71.7754 65.3834L71.6289 65.3024L65.332 61.1129L64.501 60.5602L63.6699 61.1129L57.3721 65.3024C57.0393 65.5176 56.638 65.5449 56.2881 65.3834L56.1416 65.3024L49.8447 61.1129L49.0137 60.5602L48.1826 61.1129L41.8848 65.3024C41.552 65.5176 41.1507 65.5449 40.8008 65.3834L40.6543 65.3024L34.3574 61.1129L33.5264 60.5602L32.6953 61.1129L26.3994 65.3014C26.0443 65.5305 25.593 65.5418 25.2617 65.3658L25.2539 65.3619L25.2451 65.3571L25.126 65.2848C24.8604 65.0969 24.6925 64.7834 24.6924 64.4235V19.1158H18.0391C17.4503 19.1158 16.962 18.6275 16.9619 18.0387C16.9619 17.4498 17.4502 16.9615 18.0391 16.9615ZM41.2568 39.7311C38.9917 39.7311 37.2063 41.5815 37.2061 43.8073C37.2061 46.0528 39.0367 47.8841 41.2822 47.8844C43.528 47.8844 45.3594 46.053 45.3594 43.8073C45.3591 41.5617 43.5278 39.7311 41.2822 39.7311H41.2568ZM51.5391 39.7311C49.2935 39.7311 47.4622 41.5617 47.4619 43.8073C47.4619 46.053 49.2933 47.8844 51.5391 47.8844H72.1543C74.4 47.8844 76.2314 46.053 76.2314 43.8073C76.2312 41.5617 74.3998 39.7311 72.1543 39.7311H51.5391ZM41.2568 26.8463C38.9916 26.8464 37.2061 28.6975 37.2061 30.9235C37.2063 33.1689 39.0368 34.9994 41.2822 34.9996C43.5278 34.9996 45.3592 33.169 45.3594 30.9235C45.3594 28.6777 43.528 26.8463 41.2822 26.8463H41.2568ZM51.5391 26.8463C49.2933 26.8463 47.4619 28.6777 47.4619 30.9235C47.4621 33.169 49.2934 34.9996 51.5391 34.9996H72.1543C74.3999 34.9996 76.2312 33.169 76.2314 30.9235C76.2314 28.6778 74.4 26.8464 72.1543 26.8463H51.5391Z" fill="#FFC107" stroke="black" stroke-width="3"/>
<path d="M108.231 0H5.15385C2.31923 0 0 2.31923 0 5.15385V28.3462C0 31.1808 2.31923 33.5 5.15385 33.5H18.0385V28.3462H5.15385V5.15385H108.231V28.3462H95.3462V33.5H108.231C111.065 33.5 113.385 31.1808 113.385 28.3462V5.15385C113.385 2.31923 111.065 0 108.231 0Z" fill="black"/>
</svg>
