<svg width="80" height="80" viewBox="0 0 80 80" fill="none" xmlns="http://www.w3.org/2000/svg">
<path d="M37.9023 0H42.2914C42.3098 0.00908789 42.3281 0.0188589 42.3469 0.0272637C42.6652 0.16893 43.2266 0.13108 43.5738 0.153336C45.6473 0.286308 48.0145 0.711633 50.0172 1.27009C52.8629 2.06368 55.6617 3.03273 58.2969 4.38344C64.8617 7.80098 70.3625 12.9554 74.1988 19.2846C74.932 20.4843 75.6637 21.722 76.232 23.01C76.5816 23.8021 76.9465 24.594 77.2637 25.3994C78.2535 27.9308 78.9793 30.5575 79.4305 33.2378C79.5574 34.0092 79.6797 34.7759 79.7582 35.5541C79.8238 36.1994 79.8141 37.1173 80 37.7184V41.7395C79.9961 41.7527 79.9918 41.766 79.9883 41.7793C79.7922 42.4914 79.7953 43.9355 79.7105 44.7375C79.5402 46.3516 79.2266 48.0645 78.8348 49.6395C76.2328 60.1418 69.4914 69.1445 60.1457 74.5973C56.9773 76.434 53.4844 77.9004 49.9281 78.7887C48.6867 79.0984 47.4328 79.3203 46.1727 79.5371C45.3852 79.6723 44.5969 79.7461 43.8004 79.8066C43.1914 79.8527 42.443 79.8117 41.8687 80H38.0266C37.5339 79.8051 36.097 79.7984 35.4861 79.7301C34.632 79.6352 33.7798 79.4973 32.9304 79.368C29.4024 78.8301 25.6505 77.5414 22.4409 75.9848C12.151 70.8926 4.50492 61.6738 1.40345 50.6195C0.916656 48.8152 0.549148 46.9805 0.303314 45.1277C0.207984 44.4121 0.214823 42.7609 0.0119202 42.2043C0.00818746 42.1941 0.0039734 42.184 0 42.1738V37.6641C0.204613 37.2135 0.203451 35.6577 0.269807 35.0642C0.3497 34.3887 0.448008 33.7155 0.564625 33.0454C1.22661 29.3266 2.40256 25.718 4.05867 22.3232C9.13348 12.0463 18.3709 4.43832 29.43 1.42735C31.3158 0.910906 33.2107 0.566363 35.1462 0.302415C35.5015 0.253968 35.855 0.20737 36.2126 0.17976C36.6854 0.143255 37.4354 0.166065 37.872 0.011583C37.8822 0.0079832 37.8922 0.00386099 37.9023 0ZM41.232 70.4773C58.0691 69.7918 71.1602 55.5832 70.4676 38.7463C69.775 21.9095 55.5609 8.82414 38.7245 9.52371C21.8978 10.2229 8.82172 24.4268 9.51395 41.2539C10.2062 58.0809 24.4047 71.1629 41.232 70.4773Z" fill="#E8D12C"/>
<path d="M38.7444 22.4548C48.4368 21.7568 56.8622 29.0429 57.5696 38.7345C58.2774 48.4262 51.0001 56.8586 41.3091 57.5762C31.6044 58.2945 23.1571 51.0043 22.4484 41.2992C21.7397 31.5937 29.0383 23.1538 38.7444 22.4548ZM38.9005 31.713C38.8693 32.7881 38.9517 33.8656 38.8982 34.9413C38.5059 35.1021 38.0934 35.2172 37.7105 35.3983C36.6448 35.9025 35.7103 36.8159 35.2647 37.9173C35.1646 38.1648 35.0721 38.7091 34.8783 38.8859C34.3774 39.0047 32.4336 38.9306 31.8212 38.9041C31.4047 38.1337 30.9487 37.476 30.0711 37.2106C29.3196 36.9832 28.4148 37.0248 27.721 37.409C27.0503 37.7805 26.5067 38.451 26.3033 39.1914C26.0871 39.9598 26.1939 40.7828 26.5992 41.4699C26.9889 42.1344 27.6015 42.6594 28.3547 42.8543C29.1025 43.0477 29.9161 42.9727 30.5831 42.5707C31.1956 42.2016 31.5442 41.6625 31.8478 41.0316C32.8418 40.9879 33.8878 40.9594 34.8806 41.0277C35.3009 42.4672 36.0827 43.732 37.4241 44.4668C37.8936 44.7238 38.4084 44.8773 38.9092 45.0609C38.9105 45.6023 39.0027 47.8969 38.8615 48.241C38.6228 48.4652 38.3474 48.6363 38.0983 48.8465C37.4664 49.3793 37.1446 50.1496 37.1228 50.9688C37.1027 51.7238 37.3899 52.4258 37.9121 52.968C38.4567 53.5422 39.2106 53.8711 40.0021 53.8793C40.1978 53.8816 40.3911 53.8566 40.5833 53.8215C41.411 53.6195 42.095 53.1109 42.5368 52.3777C42.9204 51.7418 42.9923 50.9504 42.8146 50.2348C42.5302 49.0891 41.9064 48.9121 41.0696 48.2863C41.0325 47.6566 41.0321 47.0387 41.0458 46.4086C41.0556 45.9559 41.0907 45.4832 41.0458 45.0328C42.622 44.5441 43.8095 43.8254 44.6056 42.3172C44.8239 41.9043 44.9478 41.4684 45.0821 41.0238C46.0767 40.9945 47.0915 40.9973 48.0853 41.0469C48.6052 41.9051 49.0958 42.6457 50.1329 42.8941C50.9017 43.0781 51.813 42.9703 52.4872 42.5445C53.1442 42.1305 53.6056 41.4688 53.7669 40.7094C53.9364 39.9258 53.8286 39.1102 53.3825 38.4363C52.9579 37.7948 52.3169 37.2852 51.5521 37.1351C50.7505 36.9777 49.8958 37.1198 49.2149 37.5777C48.695 37.9271 48.4079 38.3883 48.1103 38.9249C47.4384 38.9312 46.7665 38.9334 46.0946 38.9318C45.7454 38.9309 45.3817 38.9046 45.0341 38.9327C44.5962 37.4337 43.9528 36.2886 42.5399 35.5075C42.0817 35.2541 41.5989 35.1018 41.0927 34.9798C41.1005 34.2799 41.1017 33.5799 41.0958 32.88C41.0927 32.5197 41.0446 32.1173 41.1024 31.7635C41.3438 31.5465 41.6251 31.3855 41.8782 31.1833C42.4927 30.6921 42.8333 29.9722 42.8739 29.1914C42.9146 28.4073 42.6634 27.6623 42.1345 27.0789C41.6126 26.5038 40.911 26.2026 40.1403 26.17C39.9747 26.163 39.8099 26.1734 39.6446 26.1852C38.8135 26.3112 38.1149 26.672 37.6035 27.3579C37.1513 27.9643 37.0004 28.713 37.1201 29.4539C37.2378 30.2141 37.6559 30.8952 38.2806 31.3441C38.4761 31.4843 38.6888 31.5994 38.9005 31.713Z" fill="#E8D12C"/>
<path d="M39.6036 37.2422C41.1348 37.0254 42.5508 38.0935 42.7633 39.6254C42.9758 41.157 41.904 42.5703 40.3715 42.7785C38.8452 42.9855 37.4389 41.9187 37.2273 40.393C37.0157 38.8674 38.0785 37.4581 39.6036 37.2422Z" fill="#E8D12C"/>
<path d="M42.3012 59.7801C42.4023 59.7605 42.4496 59.7515 42.5449 59.7945C42.7586 60.0722 43.7387 67.2492 43.8582 68.2578C43.2945 68.3015 42.7328 68.373 42.168 68.4062C40.7078 68.4925 39.2785 68.4754 37.8192 68.3968C37.3176 68.3472 36.8157 68.2894 36.3115 68.2765C36.4882 67.7168 36.5705 66.589 36.6602 65.9472C36.841 64.6508 37.031 63.3562 37.2302 62.0625C37.3434 61.3125 37.4312 60.5492 37.5884 59.807C39.1371 59.8523 40.7625 60.0527 42.3012 59.7801Z" fill="#E8D12C"/>
<path d="M51.9817 55.9605L52.1075 55.984C52.3809 56.1812 52.6141 56.516 52.8372 56.7711C53.5075 57.5387 54.1477 58.3273 54.7993 59.1105C55.6024 60.0762 56.4638 61.018 57.2337 62.0094C57.345 62.1527 57.4532 62.2953 57.5255 62.4629C57.1899 63.0262 53.5028 65.1695 52.6669 65.5695C52.386 65.7148 51.5509 66.1734 51.2673 66.159C50.7872 65.4691 50.5075 64.5555 50.1552 63.7906C49.7333 62.875 49.3341 61.9488 48.9091 61.0352C48.5837 60.3352 48.2243 59.6523 47.913 58.9457C47.8571 58.8191 47.7556 58.6293 47.7634 58.4918C47.7641 58.4785 47.7645 58.4641 47.7708 58.4523C47.8802 58.2488 49.3356 57.6102 49.6372 57.4422C50.4415 56.9855 51.2239 56.491 51.9817 55.9605Z" fill="#E8D12C"/>
<path d="M21.4831 47.691C21.5389 47.6953 21.5628 47.7098 21.6116 47.7355C22.0275 48.5031 22.3834 49.2957 22.8236 50.0523C23.1991 50.698 23.6425 51.2887 24.0459 51.9148C24.0819 51.9707 24.181 52.0891 24.1646 52.1519C24.1424 52.2371 24.0797 52.3 24.0135 52.3547C23.6551 52.6496 23.2657 52.9207 22.8987 53.2078C21.8154 54.0664 20.7202 54.9098 19.6133 55.7375C18.9062 56.2703 18.201 56.9101 17.4389 57.3562C17.2865 57.1941 17.1613 57.0004 17.03 56.8203C15.7175 55.0594 14.7235 53.0644 13.7722 51.0926L18.9227 48.8418C19.7761 48.4629 20.6448 48.1016 21.4831 47.691Z" fill="#E8D12C"/>
<path d="M28.957 13.8431C29.0867 13.8912 29.1249 14.0255 29.1789 14.1419C29.9373 15.7773 30.5788 17.4801 31.2422 19.156C31.5123 19.8383 31.9689 20.786 32.1278 21.4812C32.1365 21.5193 32.1427 21.5195 32.1238 21.5542C32.0353 21.717 30.7809 22.2608 30.5025 22.4242C30.0721 22.6767 29.6405 22.9328 29.2239 23.2077C28.8593 23.4484 28.4291 23.846 28.0277 23.993C27.6389 23.7527 27.3121 23.2589 27.0205 22.9078C25.9691 21.6769 24.9566 20.4037 23.9333 19.1493C23.4747 18.5871 22.9566 18.0523 22.5322 17.4658C24.4895 15.9886 26.6369 14.6661 28.957 13.8431Z" fill="#E8D12C"/>
<path d="M51.1324 13.8882C52.841 14.3065 55.8976 16.3577 57.3347 17.3971C57.0347 17.8728 56.6496 18.3156 56.3187 18.7728C55.2144 20.3021 54.0648 21.7981 52.8714 23.2589C52.6351 23.5777 52.3734 23.8741 52.1835 24.2243C51.1773 23.4271 48.8351 21.934 47.6277 21.6693C48.2367 20.2597 48.9371 18.885 49.5535 17.4762C50.0722 16.2909 50.5015 15.0148 51.1324 13.8882Z" fill="#E8D12C"/>
<path d="M58.3789 47.8793C58.7285 47.882 59.4394 48.2609 59.7839 48.3996C60.9656 48.8711 62.1418 49.3555 63.3128 49.852C64.2468 50.2473 65.2105 50.6941 66.1789 50.9906C65.4472 53.0621 64.2511 54.9223 63.0429 56.741C62.8964 56.9324 62.7675 57.1371 62.6343 57.3379C62.0902 56.8383 61.398 56.4379 60.805 55.9875C59.8847 55.2891 58.9507 54.6133 58.0234 53.925C57.264 53.3609 56.5199 52.7785 55.7312 52.2551C56.8828 50.9789 57.5593 49.3637 58.3789 47.8793Z" fill="#E8D12C"/>
<path d="M27.867 55.8906C28.4055 56.143 29.0368 56.6707 29.581 56.9988C30.4397 57.5164 31.3609 57.9394 32.2619 58.3773C31.9714 59.2504 31.546 60.1016 31.1658 60.9395C30.7268 61.9117 30.2995 62.8887 29.884 63.8711C29.7451 64.1953 29.0734 65.9398 28.9571 66.0734C28.6201 66.0773 27.9178 65.659 27.5953 65.5051C25.808 64.6902 24.1991 63.6785 22.6257 62.5109C22.9037 62.1125 23.2257 61.7449 23.528 61.3648L25.0192 59.4633C25.9407 58.2734 26.7935 56.9496 27.867 55.8906Z" fill="#E8D12C"/>
<path d="M62.4459 22.6779C62.4673 22.6882 62.4892 22.698 62.5107 22.7092C62.722 22.8208 62.9435 23.2114 63.0892 23.4129C63.972 24.6326 64.763 25.9161 65.4556 27.2529C65.7267 27.7669 66.0123 28.288 66.1978 28.84C65.6951 29.1776 64.6408 29.5546 64.0525 29.8075L59.2021 31.872L58.3412 32.2401C57.7103 30.6709 56.8302 29.271 55.8474 27.9019C57.0166 27.0227 58.1209 26.0663 59.2681 25.1599C60.3197 24.3288 61.4232 23.5442 62.4459 22.6779Z" fill="#E8D12C"/>
<path d="M39.4863 11.5812C40.8894 11.5653 42.2422 11.6172 43.634 11.7967C43.4562 13.2706 43.2137 14.7284 42.989 16.1951C42.7855 17.5216 42.6043 18.8559 42.3578 20.175C41.6965 20.1109 41.034 20.0609 40.3703 20.0251C39.5746 20.0029 38.2741 20.0447 37.4983 20.2239C37.3104 18.9776 37.174 17.7242 36.9747 16.4787C36.7258 14.9229 36.4136 13.3659 36.2339 11.8005C37.3277 11.675 38.3837 11.6032 39.4863 11.5812Z" fill="#E8D12C"/>
<path d="M11.801 36.445C13.1267 36.5262 14.4617 36.7812 15.7814 36.9385L18.4894 37.2556C19.0647 37.3265 19.6535 37.3816 20.2177 37.5178C19.9237 38.8675 20.0074 41.109 20.1765 42.4988C19.8204 42.6059 19.4567 42.6371 19.0879 42.6687C17.416 42.8727 15.746 43.0918 14.0782 43.327C13.3356 43.432 12.4984 43.4816 11.7823 43.6918C11.4922 41.3398 11.4006 38.7869 11.801 36.445Z" fill="#E8D12C"/>
<path d="M17.4515 22.6959C17.5915 22.744 23.8151 27.6082 24.0638 27.9128C24.1061 28.1398 23.7219 28.5525 23.5883 28.7398C22.8381 29.7915 22.1476 31.013 21.6693 32.2134C21.4113 32.0831 21.1392 31.9776 20.8724 31.8663C20.4137 31.7818 19.4997 31.2838 19.0436 31.0791C17.9726 30.5986 16.8883 30.1433 15.8124 29.6732C15.1808 29.3972 14.5444 29.0681 13.8928 28.8478C14.4315 27.3157 16.3357 23.7614 17.4515 22.6959Z" fill="#E8D12C"/>
<path d="M68.0966 36.2967C68.1482 36.3167 68.1595 36.3097 68.1861 36.3498C68.2818 36.4933 68.288 36.8981 68.3095 37.073C68.5736 39.2418 68.4915 41.4668 68.2072 43.6289C67.5622 43.5832 66.9079 43.459 66.2654 43.3781C64.547 43.1621 62.8322 42.9172 61.1119 42.716C60.7443 42.6531 60.3451 42.6739 59.9951 42.5344C59.8466 42.3664 59.979 41.8266 60.0044 41.6035C60.1486 40.3414 60.0747 38.9624 59.9517 37.6996C61.0072 37.4185 62.1302 37.2797 63.2099 37.1098L66.074 36.6302C66.7443 36.5242 67.438 36.4588 68.0966 36.2967Z" fill="#E8D12C"/>
</svg>
