<svg width="19" height="16" viewBox="0 0 19 16" fill="none" xmlns="http://www.w3.org/2000/svg">
<path d="M1.414 6.35348L0.707 7.06048L0 6.35348L0.707 5.64648L1.414 6.35348ZM18.414 14.3535C18.414 14.6187 18.3086 14.8731 18.1211 15.0606C17.9336 15.2481 17.6792 15.3535 17.414 15.3535C17.1488 15.3535 16.8944 15.2481 16.7069 15.0606C16.5194 14.8731 16.414 14.6187 16.414 14.3535H18.414ZM5.707 12.0605L0.707 7.06048L2.121 5.64648L7.121 10.6465L5.707 12.0605ZM0.707 5.64648L5.707 0.646484L7.121 2.06048L2.121 7.06048L0.707 5.64648ZM1.414 5.35348H11.414V7.35348H1.414V5.35348ZM18.414 12.3535V14.3535H16.414V12.3535H18.414ZM11.414 5.35348C13.2705 5.35348 15.051 6.09098 16.3637 7.40374C17.6765 8.71649 18.414 10.497 18.414 12.3535H16.414C16.414 11.0274 15.8872 9.75563 14.9495 8.81795C14.0119 7.88027 12.7401 7.35348 11.414 7.35348V5.35348Z" fill="#E8D12C"/>
</svg>
