<svg width="44" height="40" viewBox="0 0 44 40" fill="none" xmlns="http://www.w3.org/2000/svg">
<path d="M40.3876 0H2.90068C1.30133 0 0 1.30485 0 2.90843V15.6117C0 17.2153 1.30133 18.5201 2.90068 18.5201H15.1811L15.7107 19.6227C15.7392 19.7073 15.7751 19.7961 15.8121 19.8736L20.2301 29.0646L18.2605 27.6477C17.4971 27.1207 16.5012 27.0439 15.6589 27.449C15.1555 27.6914 14.7356 28.0888 14.478 28.5657C13.9151 29.6007 14.1166 30.8986 14.9744 31.7271L21.2144 37.6053C21.7396 38.0956 22.3276 38.4817 22.9765 38.7586L24.741 39.3956C25.397 39.626 26.0367 39.7415 26.6525 39.7415C26.9368 39.7415 27.2158 39.7168 27.4888 39.6675C27.9714 39.5802 28.4386 39.4287 28.8758 39.218L34.9995 36.2744C36.312 35.6438 37.3002 34.5397 37.7821 33.1651C38.2644 31.7912 38.1823 30.3117 37.5514 28.9991L33.4853 20.5401C33.3311 20.2195 33.126 19.9497 32.8886 19.7489C32.1403 19.0838 31.0691 18.9372 30.1612 19.3747C29.7325 19.5805 29.3816 19.9003 29.1368 20.2864C28.415 19.7312 27.4099 19.5939 26.5303 20.0159C26.0638 20.2399 25.6989 20.5908 25.4569 21.0072C24.8749 20.6049 24.1436 20.4534 23.4418 20.6359C22.9176 20.7733 22.4611 21.0678 22.1282 21.4736L20.7087 18.5201H40.3876C41.9869 18.5201 43.2883 17.2153 43.2883 15.6117V2.90843C43.2883 1.30485 41.9869 0 40.3876 0ZM23.1019 22.615C23.2371 22.3226 23.4873 22.1155 23.8064 22.0323C24.2746 21.909 24.7999 22.1796 25.0299 22.6587L25.4893 23.6141C25.4936 23.6231 25.5019 23.6284 25.5066 23.6371L26.5895 25.8898C26.7138 26.1477 26.9717 26.2985 27.2401 26.2985C27.3451 26.2985 27.4515 26.2759 27.5522 26.2273C27.9116 26.0547 28.0627 25.6235 27.8901 25.2642L26.7938 22.9835L26.793 22.9824L26.6624 22.7101C26.4133 22.1923 26.6345 21.5666 27.1552 21.3165C27.6787 21.065 28.3079 21.282 28.5562 21.7998L28.689 22.076C28.7024 22.1035 28.7172 22.1296 28.7334 22.1549L28.9918 22.6911C28.993 22.6937 28.9926 22.6964 28.9938 22.6989L29.7889 24.3525C29.9132 24.6103 30.1711 24.7611 30.4395 24.7611C30.5445 24.7611 30.6509 24.7386 30.7516 24.69C31.111 24.5173 31.2621 24.0861 31.0895 23.7268L30.2974 22.0794C30.2965 22.0774 30.2968 22.0752 30.2958 22.0732C30.231 21.9386 30.1947 21.802 30.1908 21.6744C30.175 21.2489 30.4089 20.8564 30.7869 20.6754C31.1702 20.4887 31.6183 20.5507 31.9427 20.8381C32.0361 20.9177 32.1199 21.0305 32.1847 21.1657L36.2508 29.6247C36.7147 30.5892 36.7749 31.6778 36.4206 32.6881C36.0662 33.6985 35.3398 34.5101 34.3745 34.9737L28.2501 37.9181C27.9292 38.0724 27.5868 38.183 27.2324 38.2471C26.6187 38.3592 25.9398 38.2873 25.2184 38.0344L23.8635 37.5602L23.5288 37.4256C23.049 37.2206 22.6016 36.9261 22.2011 36.5527L15.9703 30.6837C15.5838 30.3095 15.4915 29.7226 15.7466 29.2534C15.8618 29.0399 16.0534 28.8603 16.2845 28.7489C16.4494 28.67 16.6241 28.6313 16.796 28.6313C17.0212 28.6313 17.2413 28.6975 17.4294 28.8271L21.6854 31.8885C21.9534 32.0815 22.3177 32.0681 22.5703 31.856C22.8229 31.644 22.8997 31.2875 22.757 30.9901L17.1135 19.25C17.099 19.2197 17.0842 19.1838 17.0747 19.1521C17.0638 19.1148 17.05 19.0781 17.0331 19.0436L16.4804 17.8923C16.2183 17.3477 16.3997 16.6925 16.8852 16.4318C17.142 16.293 17.4347 16.2669 17.7081 16.355C17.9825 16.4445 18.2027 16.6375 18.3285 16.8996L18.8944 18.0771C18.8953 18.0792 18.8965 18.0812 18.8974 18.0833L21.8058 24.1341C21.8068 24.136 21.8087 24.137 21.8097 24.1391L23.3904 27.4279C23.5147 27.6857 23.7726 27.8365 24.0411 27.8365C24.146 27.8365 24.2524 27.814 24.3532 27.7654C24.7125 27.5927 24.8636 27.1616 24.691 26.8022L23.1075 23.5077C23.1069 23.5065 23.1057 23.5058 23.1051 23.5045C22.9713 23.2236 22.97 22.8998 23.1019 22.615ZM41.8453 15.6117C41.8453 16.4198 41.1915 17.0772 40.3876 17.0772H20.0151L19.6291 16.274C19.3307 15.654 18.8072 15.1953 18.1548 14.9832C17.5024 14.7704 16.8094 14.8345 16.2021 15.1608C15.4803 15.5485 15.0306 16.2816 14.9389 17.0772H2.90068C2.09678 17.0772 1.44294 16.4198 1.44294 15.6117V2.90843C1.44294 2.1003 2.09678 1.44294 2.90068 1.44294H40.3876C41.1915 1.44294 41.8453 2.1003 41.8453 2.90843V15.6117Z" fill="#E8D12C"/>
<path d="M11.2091 7.4775C11.0059 7.13438 10.5631 7.02165 10.2206 7.22457L8.92284 7.99377V6.48478C8.92284 6.08599 8.5998 5.76331 8.20137 5.76331C7.80294 5.76331 7.4799 6.08599 7.4799 6.48478V7.99377L6.1821 7.22457C5.83933 7.02165 5.39686 7.13438 5.1936 7.4775C4.99033 7.81992 5.10376 8.26309 5.44653 8.466L6.7863 9.26005L5.44653 10.0541C5.10376 10.257 4.99033 10.7002 5.1936 11.0426C5.32852 11.2702 5.56842 11.3963 5.81502 11.3963C5.94008 11.3963 6.0669 11.3639 6.1821 11.2955L7.4799 10.5263V12.0346C7.4799 12.4334 7.80294 12.7561 8.20137 12.7561C8.5998 12.7561 8.92284 12.4334 8.92284 12.0346V10.5263L10.2206 11.2955C10.3358 11.3639 10.4627 11.3963 10.5877 11.3963C10.8343 11.3963 11.0742 11.2702 11.2091 11.0426C11.4124 10.7002 11.299 10.257 10.9562 10.0541L9.61644 9.26005L10.9562 8.466C11.299 8.26309 11.4124 7.81992 11.2091 7.4775Z" fill="#E8D12C"/>
<path d="M20.1713 7.4775C19.968 7.13438 19.5249 7.02165 19.1828 7.22457L17.8846 7.99395V6.48478C17.8846 6.08599 17.5616 5.76331 17.1632 5.76331C16.7647 5.76331 16.4417 6.08599 16.4417 6.48478V7.99368L15.1439 7.22457C14.8011 7.02165 14.359 7.13438 14.1554 7.4775C13.9521 7.81992 14.0656 8.26309 14.4083 8.466L15.7482 9.26005L14.4083 10.0541C14.0656 10.257 13.9521 10.7002 14.1554 11.0426C14.2903 11.2702 14.5302 11.3963 14.7768 11.3963C14.9019 11.3963 15.0287 11.3639 15.1439 11.2955L16.4417 10.5264V12.0346C16.4417 12.4334 16.7647 12.7561 17.1632 12.7561C17.5616 12.7561 17.8846 12.4334 17.8846 12.0346V10.5261L19.1828 11.2955C19.298 11.3639 19.4248 11.3963 19.5499 11.3963C19.7965 11.3963 20.0364 11.2702 20.1713 11.0426C20.3746 10.7002 20.2611 10.257 19.9183 10.0541L18.5785 9.26005L19.9183 8.466C20.2611 8.26309 20.3746 7.81992 20.1713 7.4775Z" fill="#E8D12C"/>
<path d="M29.133 7.4775C28.9293 7.13438 28.4865 7.02165 28.1445 7.22457L26.8467 7.99368V6.48478C26.8467 6.08599 26.5236 5.76331 26.1252 5.76331C25.7268 5.76331 25.4037 6.08599 25.4037 6.48478V7.99395L24.1056 7.22457C23.7628 7.02165 23.3207 7.13438 23.1171 7.4775C22.9138 7.81992 23.0272 8.26309 23.37 8.466L24.7099 9.26005L23.37 10.0541C23.0272 10.257 22.9138 10.7002 23.1171 11.0426C23.252 11.2702 23.4919 11.3963 23.7385 11.3963C23.8635 11.3963 23.9904 11.3639 24.1056 11.2955L25.4037 10.5261V12.0346C25.4037 12.4334 25.7268 12.7561 26.1252 12.7561C26.5236 12.7561 26.8467 12.4334 26.8467 12.0346V10.5264L28.1445 11.2955C28.2597 11.3639 28.3865 11.3963 28.5115 11.3963C28.7581 11.3963 28.998 11.2702 29.133 11.0426C29.3362 10.7002 29.2228 10.257 28.88 10.0541L27.5402 9.26005L28.88 8.466C29.2228 8.26309 29.3362 7.81992 29.133 7.4775Z" fill="#E8D12C"/>
<path d="M38.0946 7.4775C37.8917 7.13438 37.4482 7.02165 37.1061 7.22457L35.8083 7.99377V6.48478C35.8083 6.08599 35.4853 5.76331 35.0869 5.76331C34.6884 5.76331 34.3654 6.08599 34.3654 6.48478V7.99377L33.0676 7.22457C32.7255 7.02165 32.2827 7.13438 32.0791 7.4775C31.8758 7.81992 31.9893 8.26309 32.332 8.466L33.6718 9.26005L32.332 10.0541C31.9893 10.257 31.8758 10.7002 32.0791 11.0426C32.214 11.2702 32.4539 11.3963 32.7005 11.3963C32.8256 11.3963 32.9524 11.3639 33.0676 11.2955L34.3654 10.5263V12.0346C34.3654 12.4334 34.6884 12.7561 35.0869 12.7561C35.4853 12.7561 35.8083 12.4334 35.8083 12.0346V10.5263L37.1061 11.2955C37.2213 11.3639 37.3482 11.3963 37.4732 11.3963C37.7198 11.3963 37.9597 11.2702 38.0946 11.0426C38.2979 10.7002 38.1845 10.257 37.8417 10.0541L36.5019 9.26005L37.8417 8.466C38.1845 8.26309 38.2979 7.81992 38.0946 7.4775Z" fill="#E8D12C"/>
</svg>
