<svg width="315" height="377" viewBox="0 0 315 377" fill="none" xmlns="http://www.w3.org/2000/svg">
<path d="M102.104 314.167C100.329 314.167 98.5538 313.57 97.0929 312.344C93.7628 309.564 93.3072 304.616 96.0876 301.286L112.864 281.148C124.535 267.152 126.797 247.579 118.66 231.289C117.152 228.273 117.734 224.613 120.137 222.226L148.773 193.589C160.225 182.138 160.225 163.477 148.773 152.025L60.3197 233.567C57.1309 236.505 52.1514 236.316 49.2139 233.112C46.2765 229.923 46.4807 224.943 49.6695 222.006L138.123 140.48C144.344 134.746 153.894 134.919 159.879 140.919C177.472 158.513 177.472 187.118 159.879 204.711L135.044 229.546C143.087 250.265 139.364 273.922 124.944 291.232L108.136 311.339C106.581 313.208 104.35 314.167 102.104 314.167Z" fill="#666666"/>
<path d="M133.521 377H23.5625C10.5717 377 0 366.428 0 353.437V249.825C0 213.178 17.4362 178.085 46.638 155.937L79.2957 131.18C82.7672 128.541 87.6839 129.232 90.3072 132.688C92.9305 136.144 92.255 141.077 88.7992 143.7L56.1416 168.456C30.8197 187.652 15.7083 218.063 15.7083 249.825V353.437C15.7083 357.773 19.227 361.292 23.5625 361.292H133.521C137.856 361.292 141.375 357.773 141.375 353.437V337.761C141.375 333.425 144.894 329.906 149.229 329.906C166.555 329.906 180.646 315.816 180.646 298.49V263.115C180.646 258.779 184.165 255.26 188.5 255.26C192.836 255.26 196.354 258.779 196.354 263.115V298.49C196.354 321.801 179.342 341.216 157.083 344.955V353.437C157.083 366.428 146.512 377 133.521 377Z" fill="#666666"/>
<path d="M274.896 298.458H243.479C240.511 298.458 237.777 296.778 236.458 294.107L234.808 290.793C227.473 276.152 212.738 267.042 196.354 267.042C179.971 267.042 165.236 276.152 157.916 290.808L156.267 294.123C154.916 296.778 152.198 298.458 149.229 298.458H117.813C113.477 298.458 109.959 294.94 109.959 290.604C109.959 286.269 113.477 282.75 117.813 282.75H144.391C154.555 263.334 174.363 251.333 196.354 251.333C218.346 251.333 238.154 263.334 248.333 282.75H274.896C287.887 282.75 298.459 272.178 298.459 259.187V39.2708C298.459 26.28 287.887 15.7083 274.896 15.7083H248.318C238.154 35.1081 218.346 47.125 196.354 47.125C174.363 47.125 154.555 35.1081 144.376 15.7083H117.813C104.822 15.7083 94.2503 26.28 94.2503 39.2708V198.805C94.2503 203.14 90.7317 206.659 86.3962 206.659C82.0607 206.659 78.542 203.156 78.542 198.805V39.2708C78.542 17.6247 96.1667 0 117.813 0H149.229C152.198 0 154.916 1.68079 156.251 4.3355L157.916 7.64996C165.236 22.3058 179.971 31.4167 196.354 31.4167C212.738 31.4167 227.473 22.3058 234.808 7.64996L236.474 4.3355C237.793 1.68079 240.511 0 243.479 0H274.896C296.542 0 314.167 17.6247 314.167 39.2708V259.187C314.167 280.834 296.542 298.458 274.896 298.458Z" fill="#666666"/>
<path d="M102.104 109.958H86.3962C82.0607 109.958 78.542 106.44 78.542 102.104C78.542 97.7687 82.0607 94.25 86.3962 94.25H102.104C106.44 94.25 109.959 97.7687 109.959 102.104C109.959 106.44 106.44 109.958 102.104 109.958Z" fill="#666666"/>
<path d="M247.092 109.958H218.095C213.759 109.958 210.241 106.44 210.241 102.104C210.241 97.7687 213.759 94.25 218.095 94.25H247.092C251.428 94.25 254.946 97.7687 254.946 102.104C254.946 106.44 251.443 109.958 247.092 109.958ZM174.598 109.958H145.601C141.265 109.958 137.747 106.44 137.747 102.104C137.747 97.7687 141.265 94.25 145.601 94.25H174.598C178.934 94.25 182.452 97.7687 182.452 102.104C182.452 106.44 178.95 109.958 174.598 109.958Z" fill="#666666"/>
<path d="M306.312 109.958H290.604C286.269 109.958 282.75 106.44 282.75 102.104C282.75 97.7687 286.269 94.25 290.604 94.25H306.312C310.648 94.25 314.167 97.7687 314.167 102.104C314.167 106.44 310.648 109.958 306.312 109.958Z" fill="#666666"/>
</svg>
