<svg width="297" height="262" viewBox="0 0 297 262" fill="none" xmlns="http://www.w3.org/2000/svg">
<path d="M235.848 130.707C237.566 114.757 236.01 98.6249 231.277 83.2948C226.545 67.9648 218.733 53.7585 208.32 41.5428C197.906 29.3272 185.109 19.3583 170.71 12.2447C156.31 5.13103 140.61 1.02172 124.568 0.167525C108.525 -0.686669 92.4765 1.73217 77.4011 7.27643C62.3257 12.8207 48.5397 21.3741 36.8844 32.4147C25.2291 43.4553 15.9489 56.7516 9.61017 71.4921C3.27142 86.2326 0.00703694 102.108 0.0162199 118.15C-1.4386 204.555 95.2663 263.903 171.673 223.553C176.914 235.007 185.338 244.718 195.943 251.533C206.548 258.348 218.889 261.981 231.5 262C316.184 258.919 319.936 139.2 235.848 130.707ZM118.339 226.038C-24.9832 220.12 -24.9745 16.1717 118.34 10.2592C133.579 10.3001 148.638 13.5556 162.529 19.8123C176.42 26.0691 188.83 35.186 198.947 46.5657C209.064 57.9454 216.659 71.3311 221.234 85.8459C225.81 100.361 227.262 115.677 225.496 130.791C215.884 131.636 206.577 134.588 198.238 139.437C189.9 144.286 182.735 150.911 177.255 158.842C171.774 166.772 168.114 175.813 166.533 185.318C164.953 194.823 165.492 204.559 168.112 213.833C152.749 221.848 135.673 226.036 118.339 226.038ZM231.5 251.739C216.765 251.723 202.638 245.871 192.219 235.467C181.8 225.063 175.94 210.957 175.923 196.243C178.975 122.62 284.036 122.642 287.077 196.244C287.06 210.957 281.199 225.063 270.78 235.467C260.361 245.871 246.235 251.723 231.5 251.739Z" fill="#666666"/>
<path d="M257.504 170.496C257.03 170.021 256.467 169.645 255.848 169.389C255.228 169.132 254.564 169 253.894 169C253.223 169 252.559 169.132 251.94 169.389C251.321 169.645 250.758 170.021 250.284 170.496L231.495 189.281L212.706 170.496C211.748 169.542 210.451 169.008 209.099 169.01C207.747 169.012 206.451 169.549 205.495 170.505C204.54 171.461 204.002 172.756 204 174.108C203.998 175.46 204.533 176.757 205.486 177.715L224.275 196.5L205.486 215.286C204.533 216.244 203.998 217.541 204 218.893C204.002 220.244 204.54 221.54 205.495 222.496C206.451 223.451 207.747 223.989 209.099 223.991C210.451 223.992 211.748 223.458 212.706 222.505L231.495 203.719L250.284 222.505C251.241 223.462 252.54 224 253.894 224C255.248 224 256.547 223.462 257.504 222.505C258.461 221.547 258.999 220.249 258.999 218.895C258.999 217.541 258.461 216.243 257.504 215.286L238.715 196.5L257.504 177.715C257.978 177.241 258.355 176.678 258.611 176.059C258.868 175.439 259 174.776 259 174.105C259 173.435 258.868 172.771 258.611 172.152C258.355 171.532 257.978 170.97 257.504 170.496Z" fill="white" fill-opacity="0.3"/>
<path d="M150.558 131.558C169.438 112.677 169.438 82.0663 150.558 63.1859C131.677 44.3056 101.066 44.3056 82.1859 63.1859C63.3055 82.0663 63.3055 112.677 82.1859 131.558C101.066 150.438 131.677 150.438 150.558 131.558Z" stroke="#666666" stroke-width="5" stroke-miterlimit="10" stroke-linecap="round" stroke-linejoin="round"/>
<path d="M140.54 118.312C154.995 114.133 164.719 106.318 164.719 97.3715C164.719 97.2656 164.719 97.1635 164.716 97.0606C164.441 86.2067 149.861 77.0783 129.97 74.1713" stroke="#666666" stroke-width="5" stroke-miterlimit="10" stroke-linecap="round" stroke-linejoin="round"/>
<path d="M120.25 73.2738C118.971 73.2253 117.678 73.1982 116.373 73.1982C89.8788 73.1982 68.3647 83.8527 68.0289 97.0605C68.0259 97.1634 68.0259 97.2658 68.0259 97.3714C68.0259 113.639 98.9879 124.734 128.876 120.726" stroke="#666666" stroke-width="5" stroke-miterlimit="10" stroke-linecap="round" stroke-linejoin="round"/>
<path d="M176.806 133.632H197.957C201.295 133.632 204.001 136.337 204.001 139.675C204.001 143.013 201.295 145.718 197.957 145.718H176.806V97.3715C175.372 97.3715 112.831 97.3715 109.516 97.3715" stroke="#666666" stroke-width="5" stroke-miterlimit="10" stroke-linecap="round" stroke-linejoin="round"/>
<path d="M99.0558 97.3715C94.8065 97.3715 60.0403 97.3715 55.9395 97.3715C55.9395 130.749 82.9953 157.805 116.373 157.805C149.75 157.805 176.806 130.749 176.806 97.3715" stroke="#666666" stroke-width="5" stroke-miterlimit="10" stroke-linecap="round" stroke-linejoin="round"/>
<path d="M134.502 185L128.459 157.506" stroke="#666666" stroke-width="5" stroke-miterlimit="10" stroke-linecap="round" stroke-linejoin="round"/>
<path d="M98.2422 185L104.285 157.506" stroke="#666666" stroke-width="5" stroke-miterlimit="10" stroke-linecap="round" stroke-linejoin="round"/>
<path d="M149.612 185H83.1348" stroke="#666666" stroke-width="5" stroke-miterlimit="10" stroke-linecap="round" stroke-linejoin="round"/>
<path d="M119.395 70.1766C119.395 66.8389 122.1 64.1332 125.438 64.1332C128.776 64.1332 131.481 66.8389 131.481 70.1766C131.481 73.5146 128.776 76.2201 125.438 76.2201C122.101 76.2201 119.395 73.5146 119.395 70.1766Z" stroke="#666666" stroke-width="5" stroke-miterlimit="10" stroke-linecap="round" stroke-linejoin="round"/>
<path d="M98.2422 94.3498C98.2422 91.0124 100.948 88.3066 104.285 88.3066C107.623 88.3066 110.329 91.0124 110.329 94.3498C110.329 97.6878 107.623 100.393 104.285 100.393C100.948 100.393 98.2422 97.6878 98.2422 94.3498Z" stroke="#666666" stroke-width="5" stroke-miterlimit="10" stroke-linecap="round" stroke-linejoin="round"/>
<path d="M128.459 118.523C128.459 115.186 131.165 112.48 134.503 112.48C137.841 112.48 140.546 115.186 140.546 118.523C140.546 121.861 137.841 124.567 134.503 124.567C131.165 124.567 128.459 121.861 128.459 118.523Z" stroke="#666666" stroke-width="5" stroke-miterlimit="10" stroke-linecap="round" stroke-linejoin="round"/>
<path d="M110.329 139.675C110.329 136.337 113.035 133.632 116.373 133.632C119.71 133.632 122.416 136.337 122.416 139.675C122.416 143.013 119.71 145.718 116.373 145.718C113.035 145.718 110.329 143.013 110.329 139.675Z" stroke="#666666" stroke-width="5" stroke-miterlimit="10" stroke-linecap="round" stroke-linejoin="round"/>
</svg>
