<svg width="297" height="262" viewBox="0 0 297 262" fill="none" xmlns="http://www.w3.org/2000/svg">
<path d="M235.848 130.707C237.566 114.757 236.01 98.6249 231.277 83.2948C226.545 67.9648 218.733 53.7585 208.32 41.5428C197.906 29.3272 185.109 19.3583 170.71 12.2447C156.31 5.13103 140.61 1.02172 124.568 0.167525C108.525 -0.686669 92.4765 1.73217 77.4011 7.27643C62.3257 12.8207 48.5397 21.3741 36.8844 32.4147C25.2291 43.4553 15.9489 56.7516 9.61017 71.4921C3.27142 86.2326 0.00703694 102.108 0.0162199 118.15C-1.4386 204.555 95.2663 263.903 171.673 223.553C176.914 235.007 185.338 244.718 195.943 251.533C206.548 258.348 218.889 261.981 231.5 262C316.184 258.919 319.936 139.2 235.848 130.707ZM118.339 226.038C-24.9832 220.12 -24.9745 16.1717 118.34 10.2592C133.579 10.3001 148.638 13.5556 162.529 19.8123C176.42 26.0691 188.83 35.186 198.947 46.5657C209.064 57.9454 216.659 71.3311 221.234 85.8459C225.81 100.361 227.262 115.677 225.496 130.791C215.884 131.636 206.577 134.588 198.238 139.437C189.9 144.286 182.735 150.911 177.255 158.842C171.774 166.772 168.114 175.813 166.533 185.318C164.953 194.823 165.492 204.559 168.112 213.833C152.749 221.848 135.673 226.036 118.339 226.038ZM231.5 251.739C216.765 251.723 202.638 245.871 192.219 235.467C181.8 225.063 175.94 210.957 175.923 196.243C178.975 122.62 284.036 122.642 287.077 196.244C287.06 210.957 281.199 225.063 270.78 235.467C260.361 245.871 246.235 251.723 231.5 251.739Z" fill="#666666"/>
<path d="M257.504 170.496C257.03 170.021 256.467 169.645 255.848 169.389C255.228 169.132 254.564 169 253.894 169C253.223 169 252.559 169.132 251.94 169.389C251.321 169.645 250.758 170.021 250.284 170.496L231.495 189.281L212.706 170.496C211.748 169.542 210.451 169.008 209.099 169.01C207.747 169.012 206.451 169.549 205.495 170.505C204.54 171.461 204.002 172.756 204 174.108C203.998 175.46 204.533 176.757 205.486 177.715L224.275 196.5L205.486 215.286C204.533 216.244 203.998 217.541 204 218.893C204.002 220.244 204.54 221.54 205.495 222.496C206.451 223.451 207.747 223.989 209.099 223.991C210.451 223.992 211.748 223.458 212.706 222.505L231.495 203.719L250.284 222.505C251.241 223.462 252.54 224 253.894 224C255.248 224 256.547 223.462 257.504 222.505C258.461 221.547 258.999 220.249 258.999 218.895C258.999 217.541 258.461 216.243 257.504 215.286L238.715 196.5L257.504 177.715C257.978 177.241 258.355 176.678 258.611 176.059C258.868 175.439 259 174.776 259 174.105C259 173.435 258.868 172.771 258.611 172.152C258.355 171.532 257.978 170.97 257.504 170.496Z" fill="white" fill-opacity="0.3"/>
<path d="M61 147.07C61.0003 147.842 61.3073 148.582 61.8531 149.128L75.5687 162.842C76.7032 163.978 78.5437 163.979 79.6801 162.845L79.6834 162.842C83.916 158.526 90.8455 158.459 95.161 162.692C99.4764 166.925 99.5434 173.854 95.3105 178.17C95.2609 178.22 95.2106 178.27 95.16 178.32C94.024 179.455 94.0225 181.295 95.1567 182.431C95.1579 182.433 95.1588 182.434 95.16 182.435L108.874 196.15C110.011 197.285 111.853 197.285 112.99 196.15L199.195 109.946C200.331 108.811 200.333 106.969 199.197 105.832C199.196 105.831 199.195 105.83 199.195 105.83L185.479 92.1142C184.325 91.0224 182.519 91.0224 181.365 92.1142C177.091 96.3879 170.162 96.3879 165.888 92.1142C161.614 87.8405 161.614 80.9113 165.888 76.6376C167.024 75.5031 167.026 73.6626 165.891 72.5262C165.89 72.525 165.889 72.5241 165.888 72.5229L152.168 58.8039C151.032 57.6673 149.191 57.6661 148.054 58.8015C148.053 58.8024 148.052 58.8033 148.052 58.8039L61.8467 145.013C61.303 145.56 60.9988 146.3 61 147.07ZM83.5033 131.594L84.3847 132.475C85.501 133.632 87.3436 133.664 88.5001 132.548C89.6565 131.432 89.6888 129.589 88.5725 128.432C88.5491 128.408 88.5253 128.384 88.501 128.361L87.6196 127.478L150.108 64.9803L159.886 74.756C154.578 82.3452 156.427 92.8004 164.016 98.1084C169.787 102.145 177.466 102.145 183.237 98.109L193.013 107.886L130.517 170.384L129.634 169.5C128.443 168.421 126.602 168.512 125.523 169.704C124.517 170.815 124.519 172.508 125.528 173.616L126.411 174.5L110.935 189.976L101.155 180.199C106.474 172.619 104.642 162.164 97.0624 156.845C91.2811 152.788 83.5773 152.789 77.7972 156.847L68.02 147.07L83.5033 131.594Z" fill="#666666"/>
<path d="M117.878 157.748C116.762 156.591 114.919 156.559 113.762 157.675C112.606 158.792 112.574 160.634 113.69 161.791C113.713 161.815 113.737 161.839 113.762 161.862L119.642 167.736C120.779 168.873 122.622 168.873 123.758 167.736C124.895 166.6 124.895 164.757 123.758 163.62L117.878 157.748Z" fill="#666666"/>
<path d="M106.126 145.993C105.01 144.837 103.167 144.804 102.011 145.92C100.855 147.037 100.822 148.879 101.939 150.036C101.962 150.06 101.986 150.084 102.01 150.107L107.889 155.983C109.025 157.119 110.868 157.119 112.004 155.983C113.14 154.847 113.14 153.005 112.004 151.869L106.126 145.993Z" fill="#666666"/>
<path d="M96.1346 144.232C97.2515 145.387 99.0941 145.419 100.25 144.302C101.406 143.185 101.437 141.342 100.32 140.187C100.297 140.163 100.273 140.139 100.249 140.115L94.3718 134.238C93.2153 133.122 91.373 133.154 90.2564 134.311C89.1673 135.439 89.1679 137.227 90.2574 138.354L96.1346 144.232Z" fill="#666666"/>
<path d="M104.074 137.247C104.846 137.248 105.587 136.941 106.131 136.394L129.636 112.882C130.811 111.787 130.876 109.946 129.78 108.771C128.685 107.596 126.844 107.531 125.669 108.627C125.621 108.672 125.573 108.719 125.528 108.768L102.01 132.277C100.874 133.415 100.876 135.259 102.014 136.395C102.561 136.941 103.302 137.247 104.074 137.247Z" fill="#666666"/>
<path d="M111.807 146.191C112.944 147.327 114.785 147.327 115.922 146.191L149.227 112.882C150.363 111.746 150.363 109.904 149.227 108.768C148.091 107.632 146.249 107.632 145.112 108.768L111.807 142.075C110.671 143.21 110.669 145.052 111.805 146.188C111.806 146.189 111.806 146.19 111.807 146.191Z" fill="#666666"/>
<path d="M121.604 155.985C122.738 157.121 124.579 157.122 125.715 155.988C125.716 155.987 125.717 155.986 125.718 155.985L159.025 122.679C160.142 121.524 160.11 119.681 158.954 118.564C157.826 117.475 156.038 117.474 154.91 118.563L121.604 151.87C120.467 153.005 120.466 154.845 121.6 155.982C121.601 155.982 121.602 155.984 121.604 155.985Z" fill="#666666"/>
<path d="M145.152 56.9744C146.76 56.9744 148.063 55.6715 148.063 54.0639V47.9105C148.063 46.3029 146.76 45 145.152 45H125.756C124.148 45 122.845 46.3029 122.845 47.9105C122.92 53.9528 118.082 58.9114 112.04 58.9861C105.997 59.0607 101.039 54.2229 100.964 48.1806C100.963 48.0905 100.963 48.0006 100.964 47.9105C100.964 46.3029 99.6613 45 98.0538 45H78.657C77.0495 45 75.7466 46.3029 75.7466 47.9105V120.563C75.7466 122.17 77.0495 123.473 78.657 123.473C80.2645 123.473 81.5675 122.17 81.5675 120.563V50.8209H95.3961C97.0057 59.9385 105.702 66.0246 114.819 64.415C121.757 63.1903 127.189 57.7584 128.413 50.8209H142.242V54.0621C142.24 55.6687 143.541 56.9723 145.147 56.9741C145.149 56.9744 145.151 56.9744 145.152 56.9744Z" fill="#666666"/>
</svg>
