<svg width="63" height="63" viewBox="0 0 63 63" fill="none" xmlns="http://www.w3.org/2000/svg">
<g clip-path="url(#clip0_52_27)">
<path d="M7.38544 0H55.1727C59.2471 0 62.5581 3.3019 62.5581 7.36501V55.0201C62.5581 59.0832 59.2471 62.3851 55.1727 62.3851H7.38544C3.31106 62.3802 0 59.0832 0 55.0201V7.36501C0 3.3019 3.31106 0 7.38544 0Z" fill="url(#paint0_radial_52_27)"/>
<path d="M55.2223 61.1691H7.33092C3.30114 61.1691 0 57.8771 0 53.8535V55.2425C0 59.2661 3.30114 62.5531 7.33092 62.5531H55.2223C59.257 62.5531 62.5532 59.2611 62.5532 55.2425V53.8535C62.5532 57.8771 59.2521 61.1642 55.2223 61.1642V61.1691Z" fill="#747F88"/>
<path d="M55.1182 0H7.43501C3.34575 0 0 3.3365 0 7.41444V8.28935C0 4.2114 3.34575 0.874904 7.43501 0.874904H55.1182C59.2074 0.874904 62.5532 4.2114 62.5532 8.28935V7.41444C62.5532 3.3365 59.2074 0 55.1182 0Z" fill="white"/>
<path opacity="0.08" d="M60.303 36.1825C60.303 52.5981 47.3859 61.5695 31.2768 61.5695C15.1676 61.5695 2.25049 52.5981 2.25049 36.1825C2.25049 19.7669 15.1676 6.4209 31.2768 6.4209C47.3859 6.4209 60.303 19.7669 60.303 36.1825Z" fill="#747F88"/>
<path opacity="0.15" d="M59.6389 35.7822C59.6389 51.7726 47.1034 60.7589 31.2818 60.7589C15.4601 60.7589 2.91968 51.7726 2.91968 35.7822C2.91968 19.7917 15.4551 6.75708 31.2768 6.75708C47.0985 6.75708 59.6339 19.7917 59.6339 35.7822H59.6389Z" fill="#747F88"/>
<path opacity="0.23" d="M58.9696 35.3816C58.9696 50.947 46.8109 59.9481 31.2767 59.9481C15.7425 59.9481 3.58374 50.942 3.58374 35.3816C3.58374 19.8211 15.7425 7.09302 31.2767 7.09302C46.8109 7.09302 58.9696 19.8162 58.9696 35.3816Z" fill="#747F88"/>
<path opacity="0.31" d="M58.3005 34.9813C58.3005 50.1166 46.5185 59.1375 31.2767 59.1375C16.0349 59.1375 4.25293 50.1166 4.25293 34.9813C4.25293 19.8459 16.0349 7.4292 31.2767 7.4292C46.5185 7.4292 58.3005 19.8459 58.3005 34.9813Z" fill="#747F88"/>
<path opacity="0.38" d="M57.6363 34.581C57.6363 49.2912 46.236 58.3269 31.2817 58.3269C16.3274 58.3269 4.92212 49.2912 4.92212 34.581C4.92212 19.8707 16.3225 7.76538 31.2767 7.76538C46.231 7.76538 57.6314 19.8707 57.6314 34.581H57.6363Z" fill="#747F88"/>
<path opacity="0.46" d="M56.967 34.1755C56.967 48.4607 45.9434 57.5063 31.2766 57.5063C16.6098 57.5063 5.58618 48.4607 5.58618 34.1755C5.58618 19.8903 16.6098 8.09644 31.2766 8.09644C45.9434 8.09644 56.967 19.8903 56.967 34.1755Z" fill="#747F88"/>
<path opacity="0.54" d="M56.2979 33.7752C56.2979 47.6303 45.656 56.6957 31.2766 56.6957C16.8973 56.6957 6.25537 47.6353 6.25537 33.7752C6.25537 19.9151 16.8973 8.43262 31.2766 8.43262C45.656 8.43262 56.2979 19.9201 56.2979 33.7752Z" fill="#747F88"/>
<path opacity="0.62" d="M55.6338 33.3749C55.6338 46.8049 45.3685 55.8851 31.2816 55.8851C17.1948 55.8851 6.92456 46.8049 6.92456 33.3749C6.92456 19.9448 17.1898 8.7688 31.2767 8.7688C45.3635 8.7688 55.6288 19.9448 55.6288 33.3749H55.6338Z" fill="#747F88"/>
<path opacity="0.69" d="M54.9647 32.9745C54.9647 45.9795 45.0762 55.0745 31.2768 55.0745C17.4774 55.0745 7.58887 45.9795 7.58887 32.9745C7.58887 19.9696 17.4774 9.10498 31.2768 9.10498C45.0762 9.10498 54.9647 19.9696 54.9647 32.9745Z" fill="#747F88"/>
<path opacity="0.77" d="M54.2956 32.574C54.2956 45.1538 44.7887 54.2637 31.2768 54.2637C17.765 54.2637 8.25806 45.1538 8.25806 32.574C8.25806 19.9941 17.765 9.44092 31.2768 9.44092C44.7887 9.44092 54.2956 19.9991 54.2956 32.574Z" fill="#747F88"/>
<path opacity="0.85" d="M53.6314 32.1737C53.6314 44.3235 44.5012 53.4531 31.2818 53.4531C18.0623 53.4531 8.93213 44.3235 8.93213 32.1737C8.93213 20.0239 18.0574 9.7771 31.2768 9.7771C44.4962 9.7771 53.6264 20.0239 53.6264 32.1737H53.6314Z" fill="#747F88"/>
<path opacity="0.92" d="M52.9622 31.7734C52.9622 43.4981 44.2137 52.6426 31.2767 52.6426C18.3398 52.6426 9.59131 43.4981 9.59131 31.7734C9.59131 20.0487 18.3448 10.1084 31.2767 10.1084C44.2087 10.1084 52.9622 20.0438 52.9622 31.7685V31.7734Z" fill="#747F88"/>
<path d="M52.2931 31.3728C52.2931 42.6725 43.9213 51.8318 31.2768 51.8318C18.6323 51.8318 10.2605 42.6725 10.2605 31.3728C10.2605 20.0732 18.6323 10.4443 31.2768 10.4443C43.9213 10.4443 52.2931 20.0732 52.2931 31.3679V31.3728Z" fill="#747F88"/>
<path d="M31.2766 55.722C44.6329 55.722 55.4602 44.9245 55.4602 31.6052C55.4602 18.2859 44.6329 7.48853 31.2766 7.48853C17.9204 7.48853 7.09302 18.2859 7.09302 31.6052C7.09302 44.9245 17.9204 55.722 31.2766 55.722Z" fill="url(#paint1_linear_52_27)"/>
<g opacity="0.45">
<path opacity="0.1" d="M31.2767 48.2383C21.6756 48.2383 13.8936 40.4778 13.8936 30.9033C13.8936 21.3288 21.6756 13.5683 31.2767 13.5683C40.8777 13.5683 48.6597 21.3288 48.6597 30.9033C48.6597 40.4778 40.8777 48.2383 31.2767 48.2383ZM31.2767 5.32349C17.1105 5.32349 5.63086 16.7763 5.63086 30.8984C5.63086 45.0204 17.1155 56.4733 31.2767 56.4733C45.4379 56.4733 56.9225 45.0204 56.9225 30.8984C56.9225 16.7763 45.4428 5.32349 31.2767 5.32349Z" fill="#F7FBFA"/>
<path opacity="0.2" d="M31.2767 49.0687C21.2146 49.0687 13.0609 40.9375 13.0609 30.9033C13.0609 20.8691 21.2196 12.7379 31.2767 12.7379C41.3338 12.7379 49.4924 20.8691 49.4924 30.9033C49.4924 40.9375 41.3387 49.0687 31.2767 49.0687ZM31.2767 5.32349C17.1105 5.32349 5.63086 16.7763 5.63086 30.8984C5.63086 45.0204 17.1155 56.4733 31.2767 56.4733C45.4379 56.4733 56.9225 45.0204 56.9225 30.8984C56.9225 16.7763 45.4428 5.32349 31.2767 5.32349Z" fill="#F7FBFA"/>
<path opacity="0.3" d="M31.2767 49.8942C20.7586 49.8942 12.2282 41.3923 12.2282 30.8984C12.2282 20.4045 20.7586 11.9075 31.2767 11.9075C41.7947 11.9075 50.3252 20.4094 50.3252 30.9033C50.3252 41.3972 41.7997 49.8991 31.2767 49.8991V49.8942ZM31.2767 5.32349C17.1105 5.32349 5.63086 16.7763 5.63086 30.8984C5.63086 45.0204 17.1155 56.4733 31.2767 56.4733C45.4379 56.4733 56.9225 45.0204 56.9225 30.8984C56.9225 16.7763 45.4428 5.32349 31.2767 5.32349Z" fill="#F7FBFA"/>
<path opacity="0.4" d="M31.2767 50.7246C20.2976 50.7246 11.4004 41.847 11.4004 30.9033C11.4004 19.9596 20.2976 11.0771 31.2767 11.0771C42.2557 11.0771 51.1529 19.9547 51.1529 30.8984C51.1529 41.8421 42.2507 50.7197 31.2767 50.7197V50.7246ZM31.2767 5.32349C17.1105 5.32349 5.63086 16.7763 5.63086 30.8984C5.63086 45.0204 17.1155 56.4733 31.2767 56.4733C45.4379 56.4733 56.9225 45.0204 56.9225 30.8984C56.9225 16.7763 45.4428 5.32349 31.2767 5.32349Z" fill="#F7FBFA"/>
<path opacity="0.5" d="M31.2767 51.555C19.8367 51.555 10.5677 42.3067 10.5677 30.9033C10.5677 19.4999 19.8416 10.2516 31.2767 10.2516C42.7117 10.2516 51.9856 19.4999 51.9856 30.9033C51.9856 42.3067 42.7117 51.555 31.2767 51.555ZM31.2767 5.32349C17.1105 5.32349 5.63086 16.7763 5.63086 30.8984C5.63086 45.0204 17.1155 56.4733 31.2767 56.4733C45.4379 56.4733 56.9225 45.0204 56.9225 30.8984C56.9225 16.7763 45.4428 5.32349 31.2767 5.32349Z" fill="#F7FBFA"/>
<path opacity="0.6" d="M31.2767 52.3854C19.3807 52.3854 9.73498 42.7664 9.73498 30.9033C9.73498 19.0402 19.3807 9.4212 31.2767 9.4212C43.1727 9.4212 52.8184 19.0402 52.8184 30.9033C52.8184 42.7664 43.1727 52.3854 31.2767 52.3854ZM31.2767 5.32349C17.1105 5.32349 5.63086 16.7763 5.63086 30.8984C5.63086 45.0204 17.1155 56.4733 31.2767 56.4733C45.4379 56.4733 56.9225 45.0204 56.9225 30.8984C56.9225 16.7763 45.4428 5.32349 31.2767 5.32349Z" fill="#F7FBFA"/>
<path opacity="0.7" d="M31.2767 53.2109C18.9197 53.2109 8.90226 43.2212 8.90226 30.8984C8.90226 18.5756 18.9197 8.59078 31.2767 8.59078C43.6337 8.59078 53.6511 18.5805 53.6511 30.9033C53.6511 43.2261 43.6337 53.2159 31.2767 53.2159V53.2109ZM31.2767 5.32349C17.1105 5.32349 5.63086 16.7763 5.63086 30.8984C5.63086 45.0204 17.1155 56.4733 31.2767 56.4733C45.4379 56.4733 56.9225 45.0204 56.9225 30.8984C56.9225 16.7763 45.4428 5.32349 31.2767 5.32349Z" fill="#F7FBFA"/>
<path opacity="0.8" d="M31.2767 54.0413C18.4587 54.0413 8.0745 43.6809 8.0745 30.9033C8.0745 18.1258 18.4637 7.76037 31.2767 7.76037C44.0897 7.76037 54.4789 18.1208 54.4789 30.8984C54.4789 43.6759 44.0897 54.0364 31.2767 54.0364V54.0413ZM31.2767 5.32349C17.1105 5.32349 5.63086 16.7763 5.63086 30.8984C5.63086 45.0204 17.1155 56.4733 31.2767 56.4733C45.4379 56.4733 56.9225 45.0204 56.9225 30.8984C56.9225 16.7763 45.4428 5.32349 31.2767 5.32349Z" fill="#F7FBFA"/>
<path opacity="0.9" d="M31.2767 54.8717C18.0027 54.8717 7.24178 44.1406 7.24178 30.9033C7.24178 17.6661 18.0027 6.92995 31.2767 6.92995C44.5506 6.92995 55.3116 17.6611 55.3116 30.8984C55.3116 44.1356 44.5506 54.8668 31.2767 54.8668V54.8717ZM31.2767 5.32349C17.1105 5.32349 5.63086 16.7763 5.63086 30.8984C5.63086 45.0204 17.1155 56.4733 31.2767 56.4733C45.4379 56.4733 56.9225 45.0204 56.9225 30.8984C56.9225 16.7763 45.4428 5.32349 31.2767 5.32349Z" fill="#F7FBFA"/>
<path d="M31.2767 55.7022C17.5417 55.7022 6.40906 44.6003 6.40906 30.9033C6.40906 17.2064 17.5417 6.10447 31.2767 6.10447C45.0116 6.10447 56.1443 17.2064 56.1443 30.9033C56.1443 44.6003 45.0116 55.7022 31.2767 55.7022ZM31.2767 5.32349C17.1105 5.32349 5.63086 16.7763 5.63086 30.8984C5.63086 45.0204 17.1155 56.4733 31.2767 56.4733C45.4379 56.4733 56.9225 45.0204 56.9225 30.8984C56.9225 16.7763 45.4428 5.32349 31.2767 5.32349Z" fill="#F7FBFA"/>
</g>
<path d="M31.3907 8.98132C44.6052 8.98132 55.3364 19.5741 55.5198 32.7075C55.5198 32.5939 55.5297 32.4752 55.5297 32.3615C55.5297 19.065 44.7241 8.28931 31.3907 8.28931C18.0573 8.28931 7.25171 19.065 7.25171 32.3615C7.25171 32.4802 7.25667 32.5939 7.26162 32.7075C7.44998 19.5741 18.1762 8.98132 31.3907 8.98132Z" fill="white"/>
<g filter="url(#filter0_d_52_27)">
<path d="M40.5734 40.7234H35.7609L30.5245 32.3015L28.7335 33.5867V40.7234H24.4953V20.7351H28.7335V29.8816C29.0161 29.4897 29.2941 29.0977 29.5675 28.7058C29.841 28.3139 30.119 27.922 30.4015 27.53L35.8156 20.7351H40.5187L33.546 29.5808L40.5734 40.7234Z" fill="#343333"/>
</g>
</g>
<defs>
<filter id="filter0_d_52_27" x="24.4954" y="20.7351" width="19.0781" height="21.9883" filterUnits="userSpaceOnUse" color-interpolation-filters="sRGB">
<feFlood flood-opacity="0" result="BackgroundImageFix"/>
<feColorMatrix in="SourceAlpha" type="matrix" values="0 0 0 0 0 0 0 0 0 0 0 0 0 0 0 0 0 0 127 0" result="hardAlpha"/>
<feOffset dx="2" dy="1"/>
<feGaussianBlur stdDeviation="0.5"/>
<feComposite in2="hardAlpha" operator="out"/>
<feColorMatrix type="matrix" values="0 0 0 0 0.968627 0 0 0 0 0.984314 0 0 0 0 0.980392 0 0 0 1 0"/>
<feBlend mode="normal" in2="BackgroundImageFix" result="effect1_dropShadow_52_27"/>
<feBlend mode="normal" in="SourceGraphic" in2="effect1_dropShadow_52_27" result="shape"/>
</filter>
<radialGradient id="paint0_radial_52_27" cx="0" cy="0" r="1" gradientUnits="userSpaceOnUse" gradientTransform="translate(31.2766 31.1901) scale(31.2766 31.1901)">
<stop offset="0.3" stop-color="#E6E7E8"/>
<stop offset="0.5" stop-color="#DFE0E2"/>
<stop offset="0.78" stop-color="#CCD0D2"/>
<stop offset="1" stop-color="#BABFC3"/>
</radialGradient>
<linearGradient id="paint1_linear_52_27" x1="7.09302" y1="31.6052" x2="55.4602" y2="31.6052" gradientUnits="userSpaceOnUse">
<stop stop-color="#CFD1D6"/>
<stop offset="0.72" stop-color="#C8CBCF"/>
<stop offset="1" stop-color="#C4C8CC"/>
</linearGradient>
<clipPath id="clip0_52_27">
<rect width="62.5532" height="62.5532" fill="white"/>
</clipPath>
</defs>
</svg>
