<svg width="48" height="48" viewBox="0 0 48 48" fill="none" xmlns="http://www.w3.org/2000/svg">
<g clip-path="url(#clip0_14_493)">
<path d="M5.6672 0H42.3366C45.4631 0 48.0038 2.5337 48.0038 5.65152V42.2195C48.0038 45.3373 45.4631 47.871 42.3366 47.871H5.6672C2.54073 47.8672 0 45.3373 0 42.2195V5.65152C0 2.5337 2.54073 0 5.6672 0Z" fill="url(#paint0_radial_14_493)"/>
<path d="M42.3746 46.9379H5.62536C2.53312 46.9379 0 44.4118 0 41.3243V42.3902C0 45.4776 2.53312 48 5.62536 48H42.3746C45.4707 48 48 45.4738 48 42.3902V41.3243C48 44.4118 45.4669 46.9341 42.3746 46.9341V46.9379Z" fill="#747F88"/>
<path d="M42.2948 0H5.70523C2.56735 0 0 2.56025 0 5.68945V6.36081C0 3.23161 2.56735 0.671355 5.70523 0.671355H42.2948C45.4326 0.671355 48 3.23161 48 6.36081V5.68945C48 2.56025 45.4326 0 42.2948 0Z" fill="white"/>
<path opacity="0.08" d="M46.2732 27.7646C46.2732 40.361 36.3614 47.2453 24 47.2453C11.6387 47.2453 1.72681 40.361 1.72681 27.7646C1.72681 15.1681 11.6387 4.92712 24 4.92712C36.3614 4.92712 46.2732 15.1681 46.2732 27.7646Z" fill="#747F88"/>
<path opacity="0.15" d="M45.7635 27.4574C45.7635 39.7276 36.1445 46.6232 24.0038 46.6232C11.8631 46.6232 2.24023 39.7276 2.24023 27.4574C2.24023 15.1871 11.8593 5.18506 24 5.18506C36.1407 5.18506 45.7597 15.1871 45.7597 27.4574H45.7635Z" fill="#747F88"/>
<path opacity="0.23" d="M45.2502 27.1501C45.2502 39.0942 35.9202 46.0012 24.0001 46.0012C12.08 46.0012 2.75 39.0904 2.75 27.1501C2.75 15.2099 12.08 5.44299 24.0001 5.44299C35.9202 5.44299 45.2502 15.2061 45.2502 27.1501Z" fill="#747F88"/>
<path opacity="0.31" d="M44.7366 26.8429C44.7366 38.457 35.6958 45.3792 24 45.3792C12.3043 45.3792 3.26343 38.457 3.26343 26.8429C3.26343 15.2289 12.3043 5.70093 24 5.70093C35.6958 5.70093 44.7366 15.2289 44.7366 26.8429Z" fill="#747F88"/>
<path opacity="0.38" d="M44.2269 26.5356C44.2269 37.8235 35.4789 44.757 24.0038 44.757C12.5287 44.757 3.77686 37.8235 3.77686 26.5356C3.77686 15.2477 12.5249 5.95874 24 5.95874C35.4751 5.95874 44.2231 15.2477 44.2231 26.5356H44.2269Z" fill="#747F88"/>
<path opacity="0.46" d="M43.7136 26.2246C43.7136 37.1863 35.2546 44.1274 24.0001 44.1274C12.7456 44.1274 4.28662 37.1863 4.28662 26.2246C4.28662 15.2629 12.7456 6.21289 24.0001 6.21289C35.2546 6.21289 43.7136 15.2629 43.7136 26.2246Z" fill="#747F88"/>
<path opacity="0.54" d="M43.2001 25.9174C43.2001 36.5491 35.034 43.5054 24 43.5054C12.9661 43.5054 4.80005 36.5529 4.80005 25.9174C4.80005 15.2819 12.9661 6.47083 24 6.47083C35.034 6.47083 43.2001 15.2857 43.2001 25.9174Z" fill="#747F88"/>
<path opacity="0.62" d="M42.6903 25.6101C42.6903 35.9156 34.8133 42.8833 24.0038 42.8833C13.1943 42.8833 5.31348 35.9156 5.31348 25.6101C5.31348 15.3047 13.1905 6.72876 24 6.72876C34.8095 6.72876 42.6865 15.3047 42.6865 25.6101H42.6903Z" fill="#747F88"/>
<path opacity="0.69" d="M42.177 25.3029C42.177 35.2822 34.589 42.2613 24.0001 42.2613C13.4112 42.2613 5.82324 35.2822 5.82324 25.3029C5.82324 15.3236 13.4112 6.98669 24.0001 6.98669C34.589 6.98669 42.177 15.3236 42.177 25.3029Z" fill="#747F88"/>
<path opacity="0.77" d="M41.6635 24.9957C41.6635 34.6488 34.3684 41.6393 24.0001 41.6393C13.6318 41.6393 6.33667 34.6488 6.33667 24.9957C6.33667 15.3426 13.6318 7.24463 24.0001 7.24463C34.3684 7.24463 41.6635 15.3464 41.6635 24.9957Z" fill="#747F88"/>
<path opacity="0.85" d="M41.1538 24.6885C41.1538 34.0116 34.1478 41.0172 24.0039 41.0172C13.86 41.0172 6.854 34.0116 6.854 24.6885C6.854 15.3654 13.8562 7.50256 24.0001 7.50256C34.144 7.50256 41.15 15.3654 41.15 24.6885H41.1538Z" fill="#747F88"/>
<path opacity="0.92" d="M40.6404 24.3813C40.6404 33.3782 33.9272 40.3952 24.0001 40.3952C14.073 40.3952 7.35986 33.3782 7.35986 24.3813C7.35986 15.3844 14.0768 7.75671 24.0001 7.75671C33.9234 7.75671 40.6404 15.3806 40.6404 24.3775V24.3813Z" fill="#747F88"/>
<path d="M40.1269 24.074C40.1269 32.7447 33.7028 39.773 24.0001 39.773C14.2974 39.773 7.87329 32.7447 7.87329 24.074C7.87329 15.4032 14.2974 8.01453 24.0001 8.01453C33.7028 8.01453 40.1269 15.4032 40.1269 24.0702V24.074Z" fill="#747F88"/>
<path d="M24.0001 42.7581C34.2489 42.7581 42.5573 34.4727 42.5573 24.2522C42.5573 14.0317 34.2489 5.74634 24.0001 5.74634C13.7512 5.74634 5.44287 14.0317 5.44287 24.2522C5.44287 34.4727 13.7512 42.7581 24.0001 42.7581Z" fill="url(#paint1_linear_14_493)"/>
<g opacity="0.45">
<path opacity="0.1" d="M24 37.0156C16.6327 37.0156 10.6612 31.0607 10.6612 23.7137C10.6612 16.3667 16.6327 10.4118 24 10.4118C31.3674 10.4118 37.3389 16.3667 37.3389 23.7137C37.3389 31.0607 31.3674 37.0156 24 37.0156ZM24 4.08508C13.1297 4.08508 4.3208 12.8734 4.3208 23.7099C4.3208 34.5464 13.1335 43.3347 24 43.3347C34.8666 43.3347 43.6793 34.5464 43.6793 23.7099C43.6793 12.8734 34.8704 4.08508 24 4.08508Z" fill="#F7FBFA"/>
<path opacity="0.2" d="M24 37.6528C16.279 37.6528 10.0222 31.4134 10.0222 23.7137C10.0222 16.014 16.2828 9.77453 24 9.77453C31.7173 9.77453 37.9779 16.014 37.9779 23.7137C37.9779 31.4134 31.7211 37.6528 24 37.6528ZM24 4.08508C13.1297 4.08508 4.3208 12.8734 4.3208 23.7099C4.3208 34.5464 13.1335 43.3347 24 43.3347C34.8666 43.3347 43.6793 34.5464 43.6793 23.7099C43.6793 12.8734 34.8704 4.08508 24 4.08508Z" fill="#F7FBFA"/>
<path opacity="0.3" d="M24 38.2863C15.929 38.2863 9.38324 31.7624 9.38324 23.7099C9.38324 15.6574 15.929 9.13732 24 9.13732C32.071 9.13732 38.6168 15.6612 38.6168 23.7137C38.6168 31.7662 32.0748 38.2901 24 38.2901V38.2863ZM24 4.08508C13.1297 4.08508 4.3208 12.8734 4.3208 23.7099C4.3208 34.5464 13.1335 43.3347 24 43.3347C34.8666 43.3347 43.6793 34.5464 43.6793 23.7099C43.6793 12.8734 34.8704 4.08508 24 4.08508Z" fill="#F7FBFA"/>
<path opacity="0.4" d="M24 38.9235C15.5753 38.9235 8.74806 32.1113 8.74806 23.7137C8.74806 15.3161 15.5753 8.5001 24 8.5001C32.4248 8.5001 39.252 15.3123 39.252 23.7099C39.252 32.1075 32.421 38.9197 24 38.9197V38.9235ZM24 4.08508C13.1297 4.08508 4.3208 12.8734 4.3208 23.7099C4.3208 34.5464 13.1335 43.3347 24 43.3347C34.8666 43.3347 43.6793 34.5464 43.6793 23.7099C43.6793 12.8734 34.8704 4.08508 24 4.08508Z" fill="#F7FBFA"/>
<path opacity="0.5" d="M24 39.5607C15.2216 39.5607 8.10907 32.4641 8.10907 23.7137C8.10907 14.9633 15.2254 7.86667 24 7.86667C32.7747 7.86667 39.891 14.9633 39.891 23.7137C39.891 32.4641 32.7747 39.5607 24 39.5607ZM24 4.08508C13.1297 4.08508 4.3208 12.8734 4.3208 23.7099C4.3208 34.5464 13.1335 43.3347 24 43.3347C34.8666 43.3347 43.6793 34.5464 43.6793 23.7099C43.6793 12.8734 34.8704 4.08508 24 4.08508Z" fill="#F7FBFA"/>
<path opacity="0.6" d="M24 40.1979C14.8717 40.1979 7.47009 32.8168 7.47009 23.7137C7.47009 14.6106 14.8717 7.22945 24 7.22945C33.1284 7.22945 40.53 14.6106 40.53 23.7137C40.53 32.8168 33.1284 40.1979 24 40.1979ZM24 4.08508C13.1297 4.08508 4.3208 12.8734 4.3208 23.7099C4.3208 34.5464 13.1335 43.3347 24 43.3347C34.8666 43.3347 43.6793 34.5464 43.6793 23.7099C43.6793 12.8734 34.8704 4.08508 24 4.08508Z" fill="#F7FBFA"/>
<path opacity="0.7" d="M24 40.8314C14.5179 40.8314 6.8311 33.1658 6.8311 23.7099C6.8311 14.254 14.5179 6.59223 24 6.59223C33.4821 6.59223 41.169 14.2578 41.169 23.7137C41.169 33.1696 33.4821 40.8351 24 40.8351V40.8314ZM24 4.08508C13.1297 4.08508 4.3208 12.8734 4.3208 23.7099C4.3208 34.5464 13.1335 43.3347 24 43.3347C34.8666 43.3347 43.6793 34.5464 43.6793 23.7099C43.6793 12.8734 34.8704 4.08508 24 4.08508Z" fill="#F7FBFA"/>
<path opacity="0.8" d="M24 41.4686C14.1642 41.4686 6.19592 33.5185 6.19592 23.7137C6.19592 13.9089 14.168 5.95502 24 5.95502C33.8321 5.95502 41.8042 13.9051 41.8042 23.7099C41.8042 33.5147 33.8321 41.4648 24 41.4648V41.4686ZM24 4.08508C13.1297 4.08508 4.3208 12.8734 4.3208 23.7099C4.3208 34.5464 13.1335 43.3347 24 43.3347C34.8666 43.3347 43.6793 34.5464 43.6793 23.7099C43.6793 12.8734 34.8704 4.08508 24 4.08508Z" fill="#F7FBFA"/>
<path opacity="0.9" d="M24 42.1058C13.8143 42.1058 5.55693 33.8713 5.55693 23.7137C5.55693 13.5561 13.8143 5.3178 24 5.3178C34.1858 5.3178 42.4431 13.5523 42.4431 23.7099C42.4431 33.8675 34.1858 42.102 24 42.102V42.1058ZM24 4.08508C13.1297 4.08508 4.3208 12.8734 4.3208 23.7099C4.3208 34.5464 13.1335 43.3347 24 43.3347C34.8666 43.3347 43.6793 34.5464 43.6793 23.7099C43.6793 12.8734 34.8704 4.08508 24 4.08508Z" fill="#F7FBFA"/>
<path d="M24 42.743C13.4606 42.743 4.91795 34.224 4.91795 23.7137C4.91795 13.2034 13.4606 4.68437 24 4.68437C34.5395 4.68437 43.0821 13.2034 43.0821 23.7137C43.0821 34.224 34.5395 42.743 24 42.743ZM24 4.08508C13.1297 4.08508 4.3208 12.8734 4.3208 23.7099C4.3208 34.5464 13.1335 43.3347 24 43.3347C34.8666 43.3347 43.6793 34.5464 43.6793 23.7099C43.6793 12.8734 34.8704 4.08508 24 4.08508Z" fill="#F7FBFA"/>
</g>
<path d="M24.0874 6.89186C34.2275 6.89186 42.4621 15.0202 42.6028 25.0981C42.6028 25.0109 42.6104 24.9198 42.6104 24.8326C42.6104 14.6295 34.3188 6.36084 24.0874 6.36084C13.8561 6.36084 5.56445 14.6295 5.56445 24.8326C5.56445 24.9236 5.56826 25.0109 5.57206 25.0981C5.71659 15.0202 13.9473 6.89186 24.0874 6.89186Z" fill="white"/>
<g filter="url(#filter0_d_14_493)">
<path d="M17.3532 26.6568V23.7448H30.2332V26.6568H17.3532Z" fill="#343333"/>
</g>
</g>
<defs>
<filter id="filter0_d_14_493" x="17.3533" y="23.7448" width="15.8799" height="4.91199" filterUnits="userSpaceOnUse" color-interpolation-filters="sRGB">
<feFlood flood-opacity="0" result="BackgroundImageFix"/>
<feColorMatrix in="SourceAlpha" type="matrix" values="0 0 0 0 0 0 0 0 0 0 0 0 0 0 0 0 0 0 127 0" result="hardAlpha"/>
<feOffset dx="2" dy="1"/>
<feGaussianBlur stdDeviation="0.5"/>
<feComposite in2="hardAlpha" operator="out"/>
<feColorMatrix type="matrix" values="0 0 0 0 0.968627 0 0 0 0 0.984314 0 0 0 0 0.980392 0 0 0 1 0"/>
<feBlend mode="normal" in2="BackgroundImageFix" result="effect1_dropShadow_14_493"/>
<feBlend mode="normal" in="SourceGraphic" in2="effect1_dropShadow_14_493" result="shape"/>
</filter>
<radialGradient id="paint0_radial_14_493" cx="0" cy="0" r="1" gradientUnits="userSpaceOnUse" gradientTransform="translate(24 23.9336) scale(24 23.9336)">
<stop offset="0.3" stop-color="#E6E7E8"/>
<stop offset="0.5" stop-color="#DFE0E2"/>
<stop offset="0.78" stop-color="#CCD0D2"/>
<stop offset="1" stop-color="#BABFC3"/>
</radialGradient>
<linearGradient id="paint1_linear_14_493" x1="5.44287" y1="24.2522" x2="42.5573" y2="24.2522" gradientUnits="userSpaceOnUse">
<stop stop-color="#CFD1D6"/>
<stop offset="0.72" stop-color="#C8CBCF"/>
<stop offset="1" stop-color="#C4C8CC"/>
</linearGradient>
<clipPath id="clip0_14_493">
<rect width="48" height="48" fill="white"/>
</clipPath>
</defs>
</svg>
