<svg width="63" height="63" viewBox="0 0 63 63" fill="none" xmlns="http://www.w3.org/2000/svg">
<g clip-path="url(#clip0_7_1094)">
<path d="M7.38544 0.404266H55.1727C59.2471 0.404266 62.5581 3.70617 62.5581 7.76928V55.4244C62.5581 59.4875 59.2471 62.7894 55.1727 62.7894H7.38544C3.31106 62.7845 0 59.4875 0 55.4244V7.76928C0 3.70617 3.31106 0.404266 7.38544 0.404266Z" fill="url(#paint0_radial_7_1094)"/>
<path d="M55.2223 61.5734H7.33092C3.30114 61.5734 0 58.2814 0 54.2578V55.6468C0 59.6704 3.30114 62.9574 7.33092 62.9574H55.2223C59.257 62.9574 62.5532 59.6654 62.5532 55.6468V54.2578C62.5532 58.2814 59.2521 61.5685 55.2223 61.5685V61.5734Z" fill="#747F88"/>
<path d="M55.1182 0.404266H7.43501C3.34575 0.404266 0 3.74077 0 7.81871V8.69361C0 4.61567 3.34575 1.27917 7.43501 1.27917H55.1182C59.2074 1.27917 62.5532 4.61567 62.5532 8.69361V7.81871C62.5532 3.74077 59.2074 0.404266 55.1182 0.404266Z" fill="white"/>
<path opacity="0.08" d="M60.3029 36.5867C60.3029 53.0023 47.3858 61.9738 31.2766 61.9738C15.1675 61.9738 2.25037 53.0023 2.25037 36.5867C2.25037 20.1712 15.1675 6.82516 31.2766 6.82516C47.3858 6.82516 60.3029 20.1712 60.3029 36.5867Z" fill="#747F88"/>
<path opacity="0.15" d="M59.6386 36.1864C59.6386 52.1768 47.1032 61.1632 31.2815 61.1632C15.4598 61.1632 2.91943 52.1768 2.91943 36.1864C2.91943 20.1959 15.4549 7.16129 31.2766 7.16129C47.0982 7.16129 59.6337 20.1959 59.6337 36.1864H59.6386Z" fill="#747F88"/>
<path opacity="0.23" d="M58.9695 35.786C58.9695 51.3514 46.8107 60.3525 31.2765 60.3525C15.7423 60.3525 3.58362 51.3464 3.58362 35.786C3.58362 20.2255 15.7423 7.49741 31.2765 7.49741C46.8107 7.49741 58.9695 20.2206 58.9695 35.786Z" fill="#747F88"/>
<path opacity="0.31" d="M58.3004 35.3856C58.3004 50.521 46.5183 59.5419 31.2766 59.5419C16.0348 59.5419 4.25281 50.521 4.25281 35.3856C4.25281 20.2502 16.0348 7.83353 31.2766 7.83353C46.5183 7.83353 58.3004 20.2502 58.3004 35.3856Z" fill="#747F88"/>
<path opacity="0.38" d="M57.6362 34.9852C57.6362 49.6955 46.2359 58.7312 31.2816 58.7312C16.3273 58.7312 4.922 49.6955 4.922 34.9852C4.922 20.275 16.3223 8.16965 31.2766 8.16965C46.2309 8.16965 57.6312 20.275 57.6312 34.9852H57.6362Z" fill="#747F88"/>
<path opacity="0.46" d="M56.967 34.5799C56.967 48.8651 45.9434 57.9107 31.2766 57.9107C16.6098 57.9107 5.58618 48.8651 5.58618 34.5799C5.58618 20.2947 16.6098 8.50082 31.2766 8.50082C45.9434 8.50082 56.967 20.2947 56.967 34.5799Z" fill="#747F88"/>
<path opacity="0.54" d="M56.2979 34.1795C56.2979 48.0346 45.656 57.1 31.2766 57.1C16.8973 57.1 6.25537 48.0396 6.25537 34.1795C6.25537 20.3194 16.8973 8.83694 31.2766 8.83694C45.656 8.83694 56.2979 20.3244 56.2979 34.1795Z" fill="#747F88"/>
<path opacity="0.62" d="M55.6336 33.7791C55.6336 47.2092 45.3684 56.2894 31.2815 56.2894C17.1947 56.2894 6.92444 47.2092 6.92444 33.7791C6.92444 20.3491 17.1897 9.17307 31.2766 9.17307C45.3634 9.17307 55.6287 20.3491 55.6287 33.7791H55.6336Z" fill="#747F88"/>
<path opacity="0.69" d="M54.9645 33.3788C54.9645 46.3837 45.0759 55.4787 31.2766 55.4787C17.4772 55.4787 7.58862 46.3837 7.58862 33.3788C7.58862 20.3738 17.4772 9.50919 31.2766 9.50919C45.0759 9.50919 54.9645 20.3738 54.9645 33.3788Z" fill="#747F88"/>
<path opacity="0.77" d="M54.2954 32.9784C54.2954 45.5582 44.7885 54.6681 31.2766 54.6681C17.7647 54.6681 8.25781 45.5582 8.25781 32.9784C8.25781 20.3985 17.7647 9.84531 31.2766 9.84531C44.7885 9.84531 54.2954 20.4035 54.2954 32.9784Z" fill="#747F88"/>
<path opacity="0.85" d="M53.6311 32.578C53.6311 44.7278 44.501 53.8574 31.2815 53.8574C18.0621 53.8574 8.93188 44.7278 8.93188 32.578C8.93188 20.4282 18.0571 10.1814 31.2766 10.1814C44.496 10.1814 53.6262 20.4282 53.6262 32.578H53.6311Z" fill="#747F88"/>
<path opacity="0.92" d="M52.9621 32.1776C52.9621 43.9023 44.2135 53.0468 31.2766 53.0468C18.3397 53.0468 9.59119 43.9023 9.59119 32.1776C9.59119 20.4529 18.3447 10.5126 31.2766 10.5126C44.2086 10.5126 52.9621 20.448 52.9621 32.1727V32.1776Z" fill="#747F88"/>
<path d="M52.2928 31.7772C52.2928 43.0768 43.921 52.2362 31.2765 52.2362C18.6321 52.2362 10.2603 43.0768 10.2603 31.7772C10.2603 20.4776 18.6321 10.8487 31.2765 10.8487C43.921 10.8487 52.2928 20.4776 52.2928 31.7723V31.7772Z" fill="#747F88"/>
<path d="M31.2766 56.1263C44.6329 56.1263 55.4602 45.3289 55.4602 32.0096C55.4602 18.6903 44.6329 7.89285 31.2766 7.89285C17.9204 7.89285 7.09302 18.6903 7.09302 32.0096C7.09302 45.3289 17.9204 56.1263 31.2766 56.1263Z" fill="url(#paint1_linear_7_1094)"/>
<g opacity="0.45">
<path opacity="0.1" d="M31.2766 48.6426C21.6755 48.6426 13.8935 40.8822 13.8935 31.3077C13.8935 21.7332 21.6755 13.9727 31.2766 13.9727C40.8776 13.9727 48.6596 21.7332 48.6596 31.3077C48.6596 40.8822 40.8776 48.6426 31.2766 48.6426ZM31.2766 5.72784C17.1104 5.72784 5.63074 17.1807 5.63074 31.3027C5.63074 45.4248 17.1153 56.8776 31.2766 56.8776C45.4378 56.8776 56.9224 45.4248 56.9224 31.3027C56.9224 17.1807 45.4427 5.72784 31.2766 5.72784Z" fill="#F7FBFA"/>
<path opacity="0.2" d="M31.2766 49.4731C21.2145 49.4731 13.0608 41.3419 13.0608 31.3077C13.0608 21.2735 21.2195 13.1423 31.2766 13.1423C41.3336 13.1423 49.4923 21.2735 49.4923 31.3077C49.4923 41.3419 41.3386 49.4731 31.2766 49.4731ZM31.2766 5.72784C17.1104 5.72784 5.63074 17.1807 5.63074 31.3027C5.63074 45.4248 17.1153 56.8776 31.2766 56.8776C45.4378 56.8776 56.9224 45.4248 56.9224 31.3027C56.9224 17.1807 45.4427 5.72784 31.2766 5.72784Z" fill="#F7FBFA"/>
<path opacity="0.3" d="M31.2766 50.2985C20.7585 50.2985 12.2281 41.7966 12.2281 31.3027C12.2281 20.8088 20.7585 12.3119 31.2766 12.3119C41.7946 12.3119 50.325 20.8138 50.325 31.3077C50.325 41.8016 41.7996 50.3035 31.2766 50.3035V50.2985ZM31.2766 5.72784C17.1104 5.72784 5.63074 17.1807 5.63074 31.3027C5.63074 45.4248 17.1153 56.8776 31.2766 56.8776C45.4378 56.8776 56.9224 45.4248 56.9224 31.3027C56.9224 17.1807 45.4427 5.72784 31.2766 5.72784Z" fill="#F7FBFA"/>
<path opacity="0.4" d="M31.2766 51.129C20.2975 51.129 11.4003 42.2514 11.4003 31.3077C11.4003 20.364 20.2975 11.4815 31.2766 11.4815C42.2556 11.4815 51.1528 20.359 51.1528 31.3027C51.1528 42.2464 42.2506 51.124 31.2766 51.124V51.129ZM31.2766 5.72784C17.1104 5.72784 5.63074 17.1807 5.63074 31.3027C5.63074 45.4248 17.1153 56.8776 31.2766 56.8776C45.4378 56.8776 56.9224 45.4248 56.9224 31.3027C56.9224 17.1807 45.4427 5.72784 31.2766 5.72784Z" fill="#F7FBFA"/>
<path opacity="0.5" d="M31.2766 51.9594C19.8366 51.9594 10.5676 42.7111 10.5676 31.3077C10.5676 19.9043 19.8415 10.656 31.2766 10.656C42.7116 10.656 51.9855 19.9043 51.9855 31.3077C51.9855 42.7111 42.7116 51.9594 31.2766 51.9594ZM31.2766 5.72784C17.1104 5.72784 5.63074 17.1807 5.63074 31.3027C5.63074 45.4248 17.1153 56.8776 31.2766 56.8776C45.4378 56.8776 56.9224 45.4248 56.9224 31.3027C56.9224 17.1807 45.4427 5.72784 31.2766 5.72784Z" fill="#F7FBFA"/>
<path opacity="0.6" d="M31.2766 52.7898C19.3805 52.7898 9.73486 43.1708 9.73486 31.3077C9.73486 19.4446 19.3805 9.82556 31.2766 9.82556C43.1726 9.82556 52.8182 19.4446 52.8182 31.3077C52.8182 43.1708 43.1726 52.7898 31.2766 52.7898ZM31.2766 5.72784C17.1104 5.72784 5.63074 17.1807 5.63074 31.3027C5.63074 45.4248 17.1153 56.8776 31.2766 56.8776C45.4378 56.8776 56.9224 45.4248 56.9224 31.3027C56.9224 17.1807 45.4427 5.72784 31.2766 5.72784Z" fill="#F7FBFA"/>
<path opacity="0.7" d="M31.2766 53.6153C18.9196 53.6153 8.90214 43.6255 8.90214 31.3027C8.90214 18.9799 18.9196 8.99514 31.2766 8.99514C43.6335 8.99514 53.651 18.9849 53.651 31.3077C53.651 43.6305 43.6335 53.6202 31.2766 53.6202V53.6153ZM31.2766 5.72784C17.1104 5.72784 5.63074 17.1807 5.63074 31.3027C5.63074 45.4248 17.1153 56.8776 31.2766 56.8776C45.4378 56.8776 56.9224 45.4248 56.9224 31.3027C56.9224 17.1807 45.4427 5.72784 31.2766 5.72784Z" fill="#F7FBFA"/>
<path opacity="0.8" d="M31.2766 54.4457C18.4586 54.4457 8.07438 44.0852 8.07438 31.3077C8.07438 18.5301 18.4636 8.16472 31.2766 8.16472C44.0896 8.16472 54.4787 18.5252 54.4787 31.3027C54.4787 44.0803 44.0896 54.4407 31.2766 54.4407V54.4457ZM31.2766 5.72784C17.1104 5.72784 5.63074 17.1807 5.63074 31.3027C5.63074 45.4248 17.1153 56.8776 31.2766 56.8776C45.4378 56.8776 56.9224 45.4248 56.9224 31.3027C56.9224 17.1807 45.4427 5.72784 31.2766 5.72784Z" fill="#F7FBFA"/>
<path opacity="0.9" d="M31.2766 55.2761C18.0026 55.2761 7.24166 44.5449 7.24166 31.3077C7.24166 18.0704 18.0026 7.33431 31.2766 7.33431C44.5505 7.33431 55.3115 18.0655 55.3115 31.3027C55.3115 44.54 44.5505 55.2712 31.2766 55.2712V55.2761ZM31.2766 5.72784C17.1104 5.72784 5.63074 17.1807 5.63074 31.3027C5.63074 45.4248 17.1153 56.8776 31.2766 56.8776C45.4378 56.8776 56.9224 45.4248 56.9224 31.3027C56.9224 17.1807 45.4427 5.72784 31.2766 5.72784Z" fill="#F7FBFA"/>
<path d="M31.2766 56.1065C17.5416 56.1065 6.40894 45.0046 6.40894 31.3077C6.40894 17.6107 17.5416 6.50883 31.2766 6.50883C45.0115 6.50883 56.1442 17.6107 56.1442 31.3077C56.1442 45.0046 45.0115 56.1065 31.2766 56.1065ZM31.2766 5.72784C17.1104 5.72784 5.63074 17.1807 5.63074 31.3027C5.63074 45.4248 17.1153 56.8776 31.2766 56.8776C45.4378 56.8776 56.9224 45.4248 56.9224 31.3027C56.9224 17.1807 45.4427 5.72784 31.2766 5.72784Z" fill="#F7FBFA"/>
</g>
<path d="M31.3906 9.38562C44.6051 9.38562 55.3363 19.9784 55.5197 33.1118C55.5197 32.9981 55.5296 32.8795 55.5296 32.7658C55.5296 19.4693 44.724 8.6936 31.3906 8.6936C18.0571 8.6936 7.25159 19.4693 7.25159 32.7658C7.25159 32.8845 7.25654 32.9981 7.2615 33.1118C7.44985 19.9784 18.1761 9.38562 31.3906 9.38562Z" fill="white"/>
<g filter="url(#filter0_d_7_1094)">
<path d="M26.3684 41.1277L33.8743 24.6941H24.0169V21.1394H38.3587V23.7917L30.7981 41.1277H26.3684Z" fill="#343333"/>
</g>
</g>
<defs>
<filter id="filter0_d_7_1094" x="24.0168" y="21.1394" width="17.3418" height="21.9883" filterUnits="userSpaceOnUse" color-interpolation-filters="sRGB">
<feFlood flood-opacity="0" result="BackgroundImageFix"/>
<feColorMatrix in="SourceAlpha" type="matrix" values="0 0 0 0 0 0 0 0 0 0 0 0 0 0 0 0 0 0 127 0" result="hardAlpha"/>
<feOffset dx="2" dy="1"/>
<feGaussianBlur stdDeviation="0.5"/>
<feComposite in2="hardAlpha" operator="out"/>
<feColorMatrix type="matrix" values="0 0 0 0 0.968627 0 0 0 0 0.984314 0 0 0 0 0.980392 0 0 0 1 0"/>
<feBlend mode="normal" in2="BackgroundImageFix" result="effect1_dropShadow_7_1094"/>
<feBlend mode="normal" in="SourceGraphic" in2="effect1_dropShadow_7_1094" result="shape"/>
</filter>
<radialGradient id="paint0_radial_7_1094" cx="0" cy="0" r="1" gradientUnits="userSpaceOnUse" gradientTransform="translate(31.2766 31.5944) scale(31.2766 31.1901)">
<stop offset="0.3" stop-color="#E6E7E8"/>
<stop offset="0.5" stop-color="#DFE0E2"/>
<stop offset="0.78" stop-color="#CCD0D2"/>
<stop offset="1" stop-color="#BABFC3"/>
</radialGradient>
<linearGradient id="paint1_linear_7_1094" x1="7.09302" y1="32.0096" x2="55.4602" y2="32.0096" gradientUnits="userSpaceOnUse">
<stop stop-color="#CFD1D6"/>
<stop offset="0.72" stop-color="#C8CBCF"/>
<stop offset="1" stop-color="#C4C8CC"/>
</linearGradient>
<clipPath id="clip0_7_1094">
<rect width="62.5532" height="62.5532" fill="white" transform="translate(0 0.404266)"/>
</clipPath>
</defs>
</svg>
