<svg width="63" height="63" viewBox="0 0 63 63" fill="none" xmlns="http://www.w3.org/2000/svg">
<path d="M7.76837 0H55.5556C59.63 0 62.9411 3.3019 62.9411 7.36501V55.0201C62.9411 59.0832 59.63 62.3851 55.5556 62.3851H7.76837C3.69399 62.3802 0.382935 59.0832 0.382935 55.0201V7.36501C0.382935 3.3019 3.69399 0 7.76837 0Z" fill="url(#paint0_radial_7_1096)"/>
<path d="M55.6052 61.1692H7.71385C3.68408 61.1692 0.382935 57.8771 0.382935 53.8536V55.2426C0.382935 59.2661 3.68408 62.5532 7.71385 62.5532H55.6052C59.6399 62.5532 62.9361 59.2612 62.9361 55.2426V53.8536C62.9361 57.8771 59.635 61.1642 55.6052 61.1642V61.1692Z" fill="#747F88"/>
<path d="M55.5011 0H7.81794C3.72869 0 0.382935 3.3365 0.382935 7.41444V8.28935C0.382935 4.2114 3.72869 0.874904 7.81794 0.874904H55.5011C59.5904 0.874904 62.9361 4.2114 62.9361 8.28935V7.41444C62.9361 3.3365 59.5904 0 55.5011 0Z" fill="white"/>
<path opacity="0.08" d="M60.6858 36.1825C60.6858 52.5981 47.7687 61.5695 31.6596 61.5695C15.5504 61.5695 2.6333 52.5981 2.6333 36.1825C2.6333 19.7669 15.5504 6.4209 31.6596 6.4209C47.7687 6.4209 60.6858 19.7669 60.6858 36.1825Z" fill="#747F88"/>
<path opacity="0.15" d="M60.0217 35.7821C60.0217 51.7726 47.4863 60.7589 31.6646 60.7589C15.8429 60.7589 3.30249 51.7726 3.30249 35.7821C3.30249 19.7916 15.8379 6.75702 31.6596 6.75702C47.4813 6.75702 60.0167 19.7916 60.0167 35.7821H60.0217Z" fill="#747F88"/>
<path opacity="0.23" d="M59.3524 35.3817C59.3524 50.9471 47.1937 59.9483 31.6595 59.9483C16.1253 59.9483 3.96655 50.9422 3.96655 35.3817C3.96655 19.8213 16.1253 7.09317 31.6595 7.09317C47.1937 7.09317 59.3524 19.8164 59.3524 35.3817Z" fill="#747F88"/>
<path opacity="0.31" d="M58.6834 34.9814C58.6834 50.1167 46.9014 59.1376 31.6596 59.1376C16.4179 59.1376 4.63586 50.1167 4.63586 34.9814C4.63586 19.846 16.4179 7.42929 31.6596 7.42929C46.9014 7.42929 58.6834 19.846 58.6834 34.9814Z" fill="#747F88"/>
<path opacity="0.38" d="M58.0191 34.581C58.0191 49.2912 46.6188 58.327 31.6645 58.327C16.7102 58.327 5.30493 49.2912 5.30493 34.581C5.30493 19.8707 16.7053 7.76541 31.6596 7.76541C46.6138 7.76541 58.0142 19.8707 58.0142 34.581H58.0191Z" fill="#747F88"/>
<path opacity="0.46" d="M57.35 34.1757C57.35 48.4608 46.3263 57.5064 31.6595 57.5064C16.9928 57.5064 5.96912 48.4608 5.96912 34.1757C5.96912 19.8905 16.9928 8.09659 31.6595 8.09659C46.3263 8.09659 57.35 19.8905 57.35 34.1757Z" fill="#747F88"/>
<path opacity="0.54" d="M56.6809 33.7752C56.6809 47.6304 46.0389 56.6958 31.6596 56.6958C17.2803 56.6958 6.63831 47.6353 6.63831 33.7752C6.63831 19.9152 17.2803 8.43268 31.6596 8.43268C46.0389 8.43268 56.6809 19.9201 56.6809 33.7752Z" fill="#747F88"/>
<path opacity="0.62" d="M56.0166 33.3749C56.0166 46.8049 45.7513 55.8851 31.6645 55.8851C17.5776 55.8851 7.30737 46.8049 7.30737 33.3749C7.30737 19.9449 17.5726 8.76883 31.6595 8.76883C45.7464 8.76883 56.0116 19.9449 56.0116 33.3749H56.0166Z" fill="#747F88"/>
<path opacity="0.69" d="M55.3475 32.9745C55.3475 45.9795 45.459 55.0745 31.6596 55.0745C17.8602 55.0745 7.97168 45.9795 7.97168 32.9745C7.97168 19.9696 17.8602 9.10495 31.6596 9.10495C45.459 9.10495 55.3475 19.9696 55.3475 32.9745Z" fill="#747F88"/>
<path opacity="0.77" d="M54.6783 32.5741C54.6783 45.154 45.1714 54.2639 31.6595 54.2639C18.1476 54.2639 8.64075 45.154 8.64075 32.5741C8.64075 19.9943 18.1476 9.44107 31.6595 9.44107C45.1714 9.44107 54.6783 19.9992 54.6783 32.5741Z" fill="#747F88"/>
<path opacity="0.85" d="M54.0142 32.1738C54.0142 44.3236 44.884 53.4532 31.6646 53.4532C18.4451 53.4532 9.31494 44.3236 9.31494 32.1738C9.31494 20.024 18.4402 9.77719 31.6596 9.77719C44.8791 9.77719 54.0092 20.024 54.0092 32.1738H54.0142Z" fill="#747F88"/>
<path opacity="0.92" d="M53.345 31.7734C53.345 43.4981 44.5965 52.6426 31.6596 52.6426C18.7226 52.6426 9.97412 43.4981 9.97412 31.7734C9.97412 20.0487 18.7276 10.1084 31.6596 10.1084C44.5915 10.1084 53.345 20.0437 53.345 31.7684V31.7734Z" fill="#747F88"/>
<path d="M52.6759 31.373C52.6759 42.6726 44.3041 51.8319 31.6596 51.8319C19.0151 51.8319 10.6433 42.6726 10.6433 31.373C10.6433 20.0734 19.0151 10.4445 31.6596 10.4445C44.3041 10.4445 52.6759 20.0734 52.6759 31.3681V31.373Z" fill="#747F88"/>
<path d="M31.6596 55.722C45.0158 55.722 55.8432 44.9246 55.8432 31.6053C55.8432 18.286 45.0158 7.48859 31.6596 7.48859C18.3033 7.48859 7.47595 18.286 7.47595 31.6053C7.47595 44.9246 18.3033 55.722 31.6596 55.722Z" fill="url(#paint1_linear_7_1096)"/>
<g opacity="0.45">
<path opacity="0.1" d="M31.6596 48.2384C22.0585 48.2384 14.2766 40.4779 14.2766 30.9034C14.2766 21.3289 22.0585 13.5684 31.6596 13.5684C41.2607 13.5684 49.0427 21.3289 49.0427 30.9034C49.0427 40.4779 41.2607 48.2384 31.6596 48.2384ZM31.6596 5.32358C17.4934 5.32358 6.01379 16.7764 6.01379 30.8985C6.01379 45.0205 17.4984 56.4734 31.6596 56.4734C45.8208 56.4734 57.3054 45.0205 57.3054 30.8985C57.3054 16.7764 45.8258 5.32358 31.6596 5.32358Z" fill="#F7FBFA"/>
<path opacity="0.2" d="M31.6596 49.0688C21.5976 49.0688 13.4438 40.9376 13.4438 30.9034C13.4438 20.8692 21.6025 12.738 31.6596 12.738C41.7167 12.738 49.8754 20.8692 49.8754 30.9034C49.8754 40.9376 41.7217 49.0688 31.6596 49.0688ZM31.6596 5.32358C17.4934 5.32358 6.01379 16.7764 6.01379 30.8985C6.01379 45.0205 17.4984 56.4734 31.6596 56.4734C45.8208 56.4734 57.3054 45.0205 57.3054 30.8985C57.3054 16.7764 45.8258 5.32358 31.6596 5.32358Z" fill="#F7FBFA"/>
<path opacity="0.3" d="M31.6596 49.8943C21.1416 49.8943 12.6111 41.3924 12.6111 30.8985C12.6111 20.4046 21.1416 11.9076 31.6596 11.9076C42.1777 11.9076 50.7081 20.4095 50.7081 30.9034C50.7081 41.3973 42.1826 49.8992 31.6596 49.8992V49.8943ZM31.6596 5.32358C17.4934 5.32358 6.01379 16.7764 6.01379 30.8985C6.01379 45.0205 17.4984 56.4734 31.6596 56.4734C45.8208 56.4734 57.3054 45.0205 57.3054 30.8985C57.3054 16.7764 45.8258 5.32358 31.6596 5.32358Z" fill="#F7FBFA"/>
<path opacity="0.4" d="M31.6596 50.7247C20.6806 50.7247 11.7834 41.8471 11.7834 30.9034C11.7834 19.9597 20.6806 11.0772 31.6596 11.0772C42.6386 11.0772 51.5359 19.9547 51.5359 30.8985C51.5359 41.8422 42.6337 50.7197 31.6596 50.7197V50.7247ZM31.6596 5.32358C17.4934 5.32358 6.01379 16.7764 6.01379 30.8985C6.01379 45.0205 17.4984 56.4734 31.6596 56.4734C45.8208 56.4734 57.3054 45.0205 57.3054 30.8985C57.3054 16.7764 45.8258 5.32358 31.6596 5.32358Z" fill="#F7FBFA"/>
<path opacity="0.5" d="M31.6596 51.5551C20.2196 51.5551 10.9506 42.3068 10.9506 30.9034C10.9506 19.5 20.2246 10.2517 31.6596 10.2517C43.0947 10.2517 52.3686 19.5 52.3686 30.9034C52.3686 42.3068 43.0947 51.5551 31.6596 51.5551ZM31.6596 5.32358C17.4934 5.32358 6.01379 16.7764 6.01379 30.8985C6.01379 45.0205 17.4984 56.4734 31.6596 56.4734C45.8208 56.4734 57.3054 45.0205 57.3054 30.8985C57.3054 16.7764 45.8258 5.32358 31.6596 5.32358Z" fill="#F7FBFA"/>
<path opacity="0.6" d="M31.6596 52.3855C19.7636 52.3855 10.1179 42.7665 10.1179 30.9034C10.1179 19.0403 19.7636 9.42129 31.6596 9.42129C43.5556 9.42129 53.2013 19.0403 53.2013 30.9034C53.2013 42.7665 43.5556 52.3855 31.6596 52.3855ZM31.6596 5.32358C17.4934 5.32358 6.01379 16.7764 6.01379 30.8985C6.01379 45.0205 17.4984 56.4734 31.6596 56.4734C45.8208 56.4734 57.3054 45.0205 57.3054 30.8985C57.3054 16.7764 45.8258 5.32358 31.6596 5.32358Z" fill="#F7FBFA"/>
<path opacity="0.7" d="M31.6596 53.211C19.3026 53.211 9.2852 43.2213 9.2852 30.8985C9.2852 18.5757 19.3026 8.59088 31.6596 8.59088C44.0166 8.59088 54.034 18.5806 54.034 30.9034C54.034 43.2262 44.0166 53.2159 31.6596 53.2159V53.211ZM31.6596 5.32358C17.4934 5.32358 6.01379 16.7764 6.01379 30.8985C6.01379 45.0205 17.4984 56.4734 31.6596 56.4734C45.8208 56.4734 57.3054 45.0205 57.3054 30.8985C57.3054 16.7764 45.8258 5.32358 31.6596 5.32358Z" fill="#F7FBFA"/>
<path opacity="0.8" d="M31.6596 54.0414C18.8417 54.0414 8.45743 43.681 8.45743 30.9034C8.45743 18.1259 18.8466 7.76046 31.6596 7.76046C44.4726 7.76046 54.8618 18.1209 54.8618 30.8985C54.8618 43.676 44.4726 54.0365 31.6596 54.0365V54.0414ZM31.6596 5.32358C17.4934 5.32358 6.01379 16.7764 6.01379 30.8985C6.01379 45.0205 17.4984 56.4734 31.6596 56.4734C45.8208 56.4734 57.3054 45.0205 57.3054 30.8985C57.3054 16.7764 45.8258 5.32358 31.6596 5.32358Z" fill="#F7FBFA"/>
<path opacity="0.9" d="M31.6596 54.8718C18.3856 54.8718 7.62471 44.1407 7.62471 30.9034C7.62471 17.6662 18.3856 6.93004 31.6596 6.93004C44.9336 6.93004 55.6945 17.6612 55.6945 30.8985C55.6945 44.1357 44.9336 54.8669 31.6596 54.8669V54.8718ZM31.6596 5.32358C17.4934 5.32358 6.01379 16.7764 6.01379 30.8985C6.01379 45.0205 17.4984 56.4734 31.6596 56.4734C45.8208 56.4734 57.3054 45.0205 57.3054 30.8985C57.3054 16.7764 45.8258 5.32358 31.6596 5.32358Z" fill="#F7FBFA"/>
<path d="M31.6596 55.7023C17.9247 55.7023 6.79199 44.6004 6.79199 30.9034C6.79199 17.2065 17.9247 6.10457 31.6596 6.10457C45.3945 6.10457 56.5272 17.2065 56.5272 30.9034C56.5272 44.6004 45.3945 55.7023 31.6596 55.7023ZM31.6596 5.32358C17.4934 5.32358 6.01379 16.7764 6.01379 30.8985C6.01379 45.0205 17.4984 56.4734 31.6596 56.4734C45.8208 56.4734 57.3054 45.0205 57.3054 30.8985C57.3054 16.7764 45.8258 5.32358 31.6596 5.32358Z" fill="#F7FBFA"/>
</g>
<path d="M31.7735 8.98138C44.988 8.98138 55.7192 19.5742 55.9026 32.7076C55.9026 32.5939 55.9125 32.4753 55.9125 32.3616C55.9125 19.065 45.107 8.28937 31.7735 8.28937C18.4401 8.28937 7.63452 19.065 7.63452 32.3616C7.63452 32.4802 7.63948 32.5939 7.64443 32.7076C7.83279 19.5742 18.559 8.98138 31.7735 8.98138Z" fill="white"/>
<g filter="url(#filter0_d_7_1096)">
<path d="M38.7416 40.7234H24.7689V37.7839L29.7865 32.7117C30.7982 31.6726 31.6094 30.8067 32.2201 30.114C32.8399 29.4122 33.2865 28.7742 33.5599 28.2C33.8425 27.6257 33.9838 27.0105 33.9838 26.3542C33.9838 25.5613 33.7605 24.9688 33.3139 24.5769C32.8764 24.1759 32.2885 23.9753 31.5502 23.9753C30.7754 23.9753 30.0235 24.1531 29.2943 24.5085C28.5652 24.864 27.8041 25.3699 27.0111 26.0261L24.7142 23.3054C25.2885 22.8132 25.8946 22.3484 26.5326 21.9109C27.1797 21.4734 27.9271 21.1225 28.7748 20.8582C29.6316 20.5847 30.657 20.448 31.851 20.448C33.1635 20.448 34.2891 20.685 35.2279 21.1589C36.1758 21.6329 36.905 22.28 37.4154 23.1003C37.9258 23.9115 38.181 24.8321 38.181 25.8621C38.181 26.9649 37.9623 27.9721 37.5248 28.8835C37.0873 29.795 36.4493 30.6973 35.6107 31.5906C34.7813 32.4838 33.7787 33.4727 32.6029 34.5574L30.0326 36.9773V37.1687H38.7416V40.7234Z" fill="#343333"/>
</g>
<defs>
<filter id="filter0_d_7_1096" x="24.7142" y="20.448" width="17.0273" height="22.2754" filterUnits="userSpaceOnUse" color-interpolation-filters="sRGB">
<feFlood flood-opacity="0" result="BackgroundImageFix"/>
<feColorMatrix in="SourceAlpha" type="matrix" values="0 0 0 0 0 0 0 0 0 0 0 0 0 0 0 0 0 0 127 0" result="hardAlpha"/>
<feOffset dx="2" dy="1"/>
<feGaussianBlur stdDeviation="0.5"/>
<feComposite in2="hardAlpha" operator="out"/>
<feColorMatrix type="matrix" values="0 0 0 0 0.968627 0 0 0 0 0.984314 0 0 0 0 0.980392 0 0 0 1 0"/>
<feBlend mode="normal" in2="BackgroundImageFix" result="effect1_dropShadow_7_1096"/>
<feBlend mode="normal" in="SourceGraphic" in2="effect1_dropShadow_7_1096" result="shape"/>
</filter>
<radialGradient id="paint0_radial_7_1096" cx="0" cy="0" r="1" gradientUnits="userSpaceOnUse" gradientTransform="translate(31.6595 31.1901) scale(31.2766 31.1901)">
<stop offset="0.3" stop-color="#E6E7E8"/>
<stop offset="0.5" stop-color="#DFE0E2"/>
<stop offset="0.78" stop-color="#CCD0D2"/>
<stop offset="1" stop-color="#BABFC3"/>
</radialGradient>
<linearGradient id="paint1_linear_7_1096" x1="7.47595" y1="31.6053" x2="55.8432" y2="31.6053" gradientUnits="userSpaceOnUse">
<stop stop-color="#CFD1D6"/>
<stop offset="0.72" stop-color="#C8CBCF"/>
<stop offset="1" stop-color="#C4C8CC"/>
</linearGradient>
</defs>
</svg>
