<svg width="63" height="63" viewBox="0 0 63 63" fill="none" xmlns="http://www.w3.org/2000/svg">
<g clip-path="url(#clip0_7_1092)">
<path d="M7.38544 0H55.1727C59.2471 0 62.5581 3.3019 62.5581 7.36501V55.0201C62.5581 59.0832 59.2471 62.3851 55.1727 62.3851H7.38544C3.31106 62.3802 0 59.0832 0 55.0201V7.36501C0 3.3019 3.31106 0 7.38544 0Z" fill="url(#paint0_radial_7_1092)"/>
<path d="M55.2223 61.1692H7.33092C3.30114 61.1692 0 57.8771 0 53.8536V55.2426C0 59.2661 3.30114 62.5532 7.33092 62.5532H55.2223C59.257 62.5532 62.5532 59.2612 62.5532 55.2426V53.8536C62.5532 57.8771 59.2521 61.1642 55.2223 61.1642V61.1692Z" fill="#747F88"/>
<path d="M55.1182 0H7.43501C3.34575 0 0 3.3365 0 7.41444V8.28935C0 4.2114 3.34575 0.874904 7.43501 0.874904H55.1182C59.2074 0.874904 62.5532 4.2114 62.5532 8.28935V7.41444C62.5532 3.3365 59.2074 0 55.1182 0Z" fill="white"/>
<path opacity="0.08" d="M60.3029 36.1825C60.3029 52.5981 47.3858 61.5695 31.2766 61.5695C15.1675 61.5695 2.25037 52.5981 2.25037 36.1825C2.25037 19.7669 15.1675 6.4209 31.2766 6.4209C47.3858 6.4209 60.3029 19.7669 60.3029 36.1825Z" fill="#747F88"/>
<path opacity="0.15" d="M59.6386 35.7821C59.6386 51.7726 47.1032 60.7589 31.2815 60.7589C15.4598 60.7589 2.91943 51.7726 2.91943 35.7821C2.91943 19.7916 15.4549 6.75702 31.2766 6.75702C47.0982 6.75702 59.6337 19.7916 59.6337 35.7821H59.6386Z" fill="#747F88"/>
<path opacity="0.23" d="M58.9695 35.3817C58.9695 50.9471 46.8107 59.9482 31.2765 59.9482C15.7423 59.9482 3.58362 50.9422 3.58362 35.3817C3.58362 19.8213 15.7423 7.09314 31.2765 7.09314C46.8107 7.09314 58.9695 19.8163 58.9695 35.3817Z" fill="#747F88"/>
<path opacity="0.31" d="M58.3004 34.9813C58.3004 50.1167 46.5183 59.1376 31.2766 59.1376C16.0348 59.1376 4.25281 50.1167 4.25281 34.9813C4.25281 19.846 16.0348 7.42926 31.2766 7.42926C46.5183 7.42926 58.3004 19.846 58.3004 34.9813Z" fill="#747F88"/>
<path opacity="0.38" d="M57.6362 34.581C57.6362 49.2912 46.2359 58.3269 31.2816 58.3269C16.3273 58.3269 4.922 49.2912 4.922 34.581C4.922 19.8707 16.3223 7.76538 31.2766 7.76538C46.2309 7.76538 57.6312 19.8707 57.6312 34.581H57.6362Z" fill="#747F88"/>
<path opacity="0.46" d="M56.967 34.1756C56.967 48.4608 45.9434 57.5064 31.2766 57.5064C16.6098 57.5064 5.58618 48.4608 5.58618 34.1756C5.58618 19.8905 16.6098 8.09656 31.2766 8.09656C45.9434 8.09656 56.967 19.8905 56.967 34.1756Z" fill="#747F88"/>
<path opacity="0.54" d="M56.2979 33.7752C56.2979 47.6304 45.656 56.6958 31.2766 56.6958C16.8973 56.6958 6.25537 47.6353 6.25537 33.7752C6.25537 19.9152 16.8973 8.43268 31.2766 8.43268C45.656 8.43268 56.2979 19.9201 56.2979 33.7752Z" fill="#747F88"/>
<path opacity="0.62" d="M55.6336 33.3749C55.6336 46.8049 45.3684 55.8851 31.2815 55.8851C17.1947 55.8851 6.92444 46.8049 6.92444 33.3749C6.92444 19.9448 17.1897 8.7688 31.2766 8.7688C45.3634 8.7688 55.6287 19.9448 55.6287 33.3749H55.6336Z" fill="#747F88"/>
<path opacity="0.69" d="M54.9645 32.9745C54.9645 45.9794 45.0759 55.0745 31.2766 55.0745C17.4772 55.0745 7.58862 45.9794 7.58862 32.9745C7.58862 19.9696 17.4772 9.10492 31.2766 9.10492C45.0759 9.10492 54.9645 19.9696 54.9645 32.9745Z" fill="#747F88"/>
<path opacity="0.77" d="M54.2954 32.5741C54.2954 45.1539 44.7885 54.2638 31.2766 54.2638C17.7647 54.2638 8.25781 45.1539 8.25781 32.5741C8.25781 19.9943 17.7647 9.44104 31.2766 9.44104C44.7885 9.44104 54.2954 19.9992 54.2954 32.5741Z" fill="#747F88"/>
<path opacity="0.85" d="M53.6311 32.1737C53.6311 44.3235 44.501 53.4532 31.2815 53.4532C18.0621 53.4532 8.93188 44.3235 8.93188 32.1737C8.93188 20.0239 18.0571 9.77716 31.2766 9.77716C44.496 9.77716 53.6262 20.0239 53.6262 32.1737H53.6311Z" fill="#747F88"/>
<path opacity="0.92" d="M52.9621 31.7733C52.9621 43.498 44.2135 52.6425 31.2766 52.6425C18.3397 52.6425 9.59119 43.498 9.59119 31.7733C9.59119 20.0486 18.3447 10.1083 31.2766 10.1083C44.2086 10.1083 52.9621 20.0437 52.9621 31.7684V31.7733Z" fill="#747F88"/>
<path d="M52.2928 31.373C52.2928 42.6726 43.921 51.8319 31.2765 51.8319C18.6321 51.8319 10.2603 42.6726 10.2603 31.373C10.2603 20.0734 18.6321 10.4445 31.2765 10.4445C43.921 10.4445 52.2928 20.0733 52.2928 31.368V31.373Z" fill="#747F88"/>
<path d="M31.2766 55.722C44.6329 55.722 55.4602 44.9246 55.4602 31.6053C55.4602 18.286 44.6329 7.48859 31.2766 7.48859C17.9204 7.48859 7.09302 18.286 7.09302 31.6053C7.09302 44.9246 17.9204 55.722 31.2766 55.722Z" fill="url(#paint1_linear_7_1092)"/>
<g opacity="0.45">
<path opacity="0.1" d="M31.2766 48.2384C21.6755 48.2384 13.8935 40.4779 13.8935 30.9034C13.8935 21.3289 21.6755 13.5684 31.2766 13.5684C40.8776 13.5684 48.6596 21.3289 48.6596 30.9034C48.6596 40.4779 40.8776 48.2384 31.2766 48.2384ZM31.2766 5.32358C17.1104 5.32358 5.63074 16.7764 5.63074 30.8985C5.63074 45.0205 17.1153 56.4734 31.2766 56.4734C45.4378 56.4734 56.9224 45.0205 56.9224 30.8985C56.9224 16.7764 45.4427 5.32358 31.2766 5.32358Z" fill="#F7FBFA"/>
<path opacity="0.2" d="M31.2766 49.0688C21.2145 49.0688 13.0608 40.9376 13.0608 30.9034C13.0608 20.8692 21.2195 12.738 31.2766 12.738C41.3336 12.738 49.4923 20.8692 49.4923 30.9034C49.4923 40.9376 41.3386 49.0688 31.2766 49.0688ZM31.2766 5.32358C17.1104 5.32358 5.63074 16.7764 5.63074 30.8985C5.63074 45.0205 17.1153 56.4734 31.2766 56.4734C45.4378 56.4734 56.9224 45.0205 56.9224 30.8985C56.9224 16.7764 45.4427 5.32358 31.2766 5.32358Z" fill="#F7FBFA"/>
<path opacity="0.3" d="M31.2766 49.8943C20.7585 49.8943 12.2281 41.3924 12.2281 30.8985C12.2281 20.4046 20.7585 11.9076 31.2766 11.9076C41.7946 11.9076 50.325 20.4095 50.325 30.9034C50.325 41.3973 41.7996 49.8992 31.2766 49.8992V49.8943ZM31.2766 5.32358C17.1104 5.32358 5.63074 16.7764 5.63074 30.8985C5.63074 45.0205 17.1153 56.4734 31.2766 56.4734C45.4378 56.4734 56.9224 45.0205 56.9224 30.8985C56.9224 16.7764 45.4427 5.32358 31.2766 5.32358Z" fill="#F7FBFA"/>
<path opacity="0.4" d="M31.2766 50.7247C20.2975 50.7247 11.4003 41.8471 11.4003 30.9034C11.4003 19.9597 20.2975 11.0772 31.2766 11.0772C42.2556 11.0772 51.1528 19.9547 51.1528 30.8985C51.1528 41.8422 42.2506 50.7197 31.2766 50.7197V50.7247ZM31.2766 5.32358C17.1104 5.32358 5.63074 16.7764 5.63074 30.8985C5.63074 45.0205 17.1153 56.4734 31.2766 56.4734C45.4378 56.4734 56.9224 45.0205 56.9224 30.8985C56.9224 16.7764 45.4427 5.32358 31.2766 5.32358Z" fill="#F7FBFA"/>
<path opacity="0.5" d="M31.2766 51.5551C19.8366 51.5551 10.5676 42.3068 10.5676 30.9034C10.5676 19.5 19.8415 10.2517 31.2766 10.2517C42.7116 10.2517 51.9855 19.5 51.9855 30.9034C51.9855 42.3068 42.7116 51.5551 31.2766 51.5551ZM31.2766 5.32358C17.1104 5.32358 5.63074 16.7764 5.63074 30.8985C5.63074 45.0205 17.1153 56.4734 31.2766 56.4734C45.4378 56.4734 56.9224 45.0205 56.9224 30.8985C56.9224 16.7764 45.4427 5.32358 31.2766 5.32358Z" fill="#F7FBFA"/>
<path opacity="0.6" d="M31.2766 52.3855C19.3805 52.3855 9.73486 42.7665 9.73486 30.9034C9.73486 19.0403 19.3805 9.42129 31.2766 9.42129C43.1726 9.42129 52.8182 19.0403 52.8182 30.9034C52.8182 42.7665 43.1726 52.3855 31.2766 52.3855ZM31.2766 5.32358C17.1104 5.32358 5.63074 16.7764 5.63074 30.8985C5.63074 45.0205 17.1153 56.4734 31.2766 56.4734C45.4378 56.4734 56.9224 45.0205 56.9224 30.8985C56.9224 16.7764 45.4427 5.32358 31.2766 5.32358Z" fill="#F7FBFA"/>
<path opacity="0.7" d="M31.2766 53.211C18.9196 53.211 8.90214 43.2213 8.90214 30.8985C8.90214 18.5757 18.9196 8.59088 31.2766 8.59088C43.6335 8.59088 53.651 18.5806 53.651 30.9034C53.651 43.2262 43.6335 53.2159 31.2766 53.2159V53.211ZM31.2766 5.32358C17.1104 5.32358 5.63074 16.7764 5.63074 30.8985C5.63074 45.0205 17.1153 56.4734 31.2766 56.4734C45.4378 56.4734 56.9224 45.0205 56.9224 30.8985C56.9224 16.7764 45.4427 5.32358 31.2766 5.32358Z" fill="#F7FBFA"/>
<path opacity="0.8" d="M31.2766 54.0414C18.4586 54.0414 8.07438 43.681 8.07438 30.9034C8.07438 18.1259 18.4636 7.76046 31.2766 7.76046C44.0896 7.76046 54.4787 18.1209 54.4787 30.8985C54.4787 43.676 44.0896 54.0365 31.2766 54.0365V54.0414ZM31.2766 5.32358C17.1104 5.32358 5.63074 16.7764 5.63074 30.8985C5.63074 45.0205 17.1153 56.4734 31.2766 56.4734C45.4378 56.4734 56.9224 45.0205 56.9224 30.8985C56.9224 16.7764 45.4427 5.32358 31.2766 5.32358Z" fill="#F7FBFA"/>
<path opacity="0.9" d="M31.2766 54.8718C18.0026 54.8718 7.24166 44.1407 7.24166 30.9034C7.24166 17.6662 18.0026 6.93004 31.2766 6.93004C44.5505 6.93004 55.3115 17.6612 55.3115 30.8985C55.3115 44.1357 44.5505 54.8669 31.2766 54.8669V54.8718ZM31.2766 5.32358C17.1104 5.32358 5.63074 16.7764 5.63074 30.8985C5.63074 45.0205 17.1153 56.4734 31.2766 56.4734C45.4378 56.4734 56.9224 45.0205 56.9224 30.8985C56.9224 16.7764 45.4427 5.32358 31.2766 5.32358Z" fill="#F7FBFA"/>
<path d="M31.2766 55.7023C17.5416 55.7023 6.40894 44.6004 6.40894 30.9034C6.40894 17.2065 17.5416 6.10457 31.2766 6.10457C45.0115 6.10457 56.1442 17.2065 56.1442 30.9034C56.1442 44.6004 45.0115 55.7023 31.2766 55.7023ZM31.2766 5.32358C17.1104 5.32358 5.63074 16.7764 5.63074 30.8985C5.63074 45.0205 17.1153 56.4734 31.2766 56.4734C45.4378 56.4734 56.9224 45.0205 56.9224 30.8985C56.9224 16.7764 45.4427 5.32358 31.2766 5.32358Z" fill="#F7FBFA"/>
</g>
<path d="M31.3906 8.98135C44.6051 8.98135 55.3363 19.5741 55.5197 32.7076C55.5197 32.5939 55.5296 32.4753 55.5296 32.3616C55.5296 19.065 44.724 8.28934 31.3906 8.28934C18.0571 8.28934 7.25159 19.065 7.25159 32.3616C7.25159 32.4802 7.25654 32.5939 7.2615 32.7076C7.44985 19.5741 18.1761 8.98135 31.3906 8.98135Z" fill="white"/>
<g filter="url(#filter0_d_7_1092)">
<path d="M34.8313 40.7234H30.6067V29.157C30.6067 28.838 30.6113 28.446 30.6204 27.9812C30.6295 27.5072 30.6432 27.0242 30.6614 26.532C30.6796 26.0307 30.6978 25.5795 30.7161 25.1785C30.6158 25.297 30.4107 25.502 30.1008 25.7937C29.8001 26.0763 29.5175 26.3315 29.2532 26.5593L26.9563 28.405L24.9192 25.8621L31.3587 20.7351H34.8313V40.7234Z" fill="#343333"/>
</g>
</g>
<defs>
<filter id="filter0_d_7_1092" x="24.9192" y="20.7351" width="12.9121" height="21.9883" filterUnits="userSpaceOnUse" color-interpolation-filters="sRGB">
<feFlood flood-opacity="0" result="BackgroundImageFix"/>
<feColorMatrix in="SourceAlpha" type="matrix" values="0 0 0 0 0 0 0 0 0 0 0 0 0 0 0 0 0 0 127 0" result="hardAlpha"/>
<feOffset dx="2" dy="1"/>
<feGaussianBlur stdDeviation="0.5"/>
<feComposite in2="hardAlpha" operator="out"/>
<feColorMatrix type="matrix" values="0 0 0 0 0.968627 0 0 0 0 0.984314 0 0 0 0 0.980392 0 0 0 1 0"/>
<feBlend mode="normal" in2="BackgroundImageFix" result="effect1_dropShadow_7_1092"/>
<feBlend mode="normal" in="SourceGraphic" in2="effect1_dropShadow_7_1092" result="shape"/>
</filter>
<radialGradient id="paint0_radial_7_1092" cx="0" cy="0" r="1" gradientUnits="userSpaceOnUse" gradientTransform="translate(31.2766 31.1901) scale(31.2766 31.1901)">
<stop offset="0.3" stop-color="#E6E7E8"/>
<stop offset="0.5" stop-color="#DFE0E2"/>
<stop offset="0.78" stop-color="#CCD0D2"/>
<stop offset="1" stop-color="#BABFC3"/>
</radialGradient>
<linearGradient id="paint1_linear_7_1092" x1="7.09302" y1="31.6053" x2="55.4602" y2="31.6053" gradientUnits="userSpaceOnUse">
<stop stop-color="#CFD1D6"/>
<stop offset="0.72" stop-color="#C8CBCF"/>
<stop offset="1" stop-color="#C4C8CC"/>
</linearGradient>
<clipPath id="clip0_7_1092">
<rect width="62.5532" height="62.5532" fill="white"/>
</clipPath>
</defs>
</svg>
