<svg width="63" height="63" viewBox="0 0 63 63" fill="none" xmlns="http://www.w3.org/2000/svg">
<path d="M7.76837 0.106384H55.5556C59.63 0.106384 62.9411 3.40828 62.9411 7.4714V55.1265C62.9411 59.1896 59.63 62.4915 55.5556 62.4915H7.76837C3.69399 62.4866 0.382935 59.1896 0.382935 55.1265V7.4714C0.382935 3.40828 3.69399 0.106384 7.76837 0.106384Z" fill="url(#paint0_radial_7_1099)"/>
<path d="M55.6052 61.2755H7.71385C3.68408 61.2755 0.382935 57.9835 0.382935 53.96V55.3489C0.382935 59.3725 3.68408 62.6596 7.71385 62.6596H55.6052C59.6399 62.6596 62.9361 59.3676 62.9361 55.3489V53.96C62.9361 57.9835 59.635 61.2706 55.6052 61.2706V61.2755Z" fill="#747F88"/>
<path d="M55.5011 0.106384H7.81794C3.72869 0.106384 0.382935 3.44288 0.382935 7.52083V8.39573C0.382935 4.31779 3.72869 0.981289 7.81794 0.981289H55.5011C59.5904 0.981289 62.9361 4.31779 62.9361 8.39573V7.52083C62.9361 3.44288 59.5904 0.106384 55.5011 0.106384Z" fill="white"/>
<path opacity="0.08" d="M60.6858 36.2889C60.6858 52.7044 47.7687 61.6759 31.6596 61.6759C15.5504 61.6759 2.6333 52.7044 2.6333 36.2889C2.6333 19.8733 15.5504 6.52728 31.6596 6.52728C47.7687 6.52728 60.6858 19.8733 60.6858 36.2889Z" fill="#747F88"/>
<path opacity="0.15" d="M60.0217 35.8885C60.0217 51.879 47.4863 60.8653 31.6646 60.8653C15.8429 60.8653 3.30249 51.879 3.30249 35.8885C3.30249 19.898 15.8379 6.8634 31.6596 6.8634C47.4813 6.8634 60.0167 19.898 60.0167 35.8885H60.0217Z" fill="#747F88"/>
<path opacity="0.23" d="M59.3524 35.4881C59.3524 51.0535 47.1937 60.0546 31.6595 60.0546C16.1253 60.0546 3.96655 51.0485 3.96655 35.4881C3.96655 19.9277 16.1253 7.19952 31.6595 7.19952C47.1937 7.19952 59.3524 19.9227 59.3524 35.4881Z" fill="#747F88"/>
<path opacity="0.31" d="M58.6834 35.0877C58.6834 50.223 46.9014 59.2439 31.6596 59.2439C16.4179 59.2439 4.63586 50.223 4.63586 35.0877C4.63586 19.9523 16.4179 7.53558 31.6596 7.53558C46.9014 7.53558 58.6834 19.9523 58.6834 35.0877Z" fill="#747F88"/>
<path opacity="0.38" d="M58.0191 34.6873C58.0191 49.3976 46.6188 58.4333 31.6645 58.4333C16.7102 58.4333 5.30493 49.3976 5.30493 34.6873C5.30493 19.9771 16.7053 7.87177 31.6596 7.87177C46.6138 7.87177 58.0142 19.9771 58.0142 34.6873H58.0191Z" fill="#747F88"/>
<path opacity="0.46" d="M57.35 34.282C57.35 48.5672 46.3263 57.6128 31.6595 57.6128C16.9928 57.6128 5.96912 48.5672 5.96912 34.282C5.96912 19.9969 16.9928 8.20294 31.6595 8.20294C46.3263 8.20294 57.35 19.9969 57.35 34.282Z" fill="#747F88"/>
<path opacity="0.54" d="M56.6809 33.8816C56.6809 47.7368 46.0389 56.8021 31.6596 56.8021C17.2803 56.8021 6.63831 47.7417 6.63831 33.8816C6.63831 20.0216 17.2803 8.53906 31.6596 8.53906C46.0389 8.53906 56.6809 20.0265 56.6809 33.8816Z" fill="#747F88"/>
<path opacity="0.62" d="M56.0166 33.4813C56.0166 46.9113 45.7513 55.9915 31.6645 55.9915C17.5776 55.9915 7.30737 46.9113 7.30737 33.4813C7.30737 20.0512 17.5726 8.87518 31.6595 8.87518C45.7464 8.87518 56.0116 20.0512 56.0116 33.4813H56.0166Z" fill="#747F88"/>
<path opacity="0.69" d="M55.3475 33.0809C55.3475 46.0858 45.459 55.1809 31.6596 55.1809C17.8602 55.1809 7.97168 46.0858 7.97168 33.0809C7.97168 20.0759 17.8602 9.2113 31.6596 9.2113C45.459 9.2113 55.3475 20.0759 55.3475 33.0809Z" fill="#747F88"/>
<path opacity="0.77" d="M54.6783 32.6805C54.6783 45.2603 45.1714 54.3702 31.6595 54.3702C18.1476 54.3702 8.64075 45.2603 8.64075 32.6805C8.64075 20.1007 18.1476 9.54742 31.6595 9.54742C45.1714 9.54742 54.6783 20.1056 54.6783 32.6805Z" fill="#747F88"/>
<path opacity="0.85" d="M54.0142 32.2801C54.0142 44.4299 44.884 53.5596 31.6646 53.5596C18.4451 53.5596 9.31494 44.4299 9.31494 32.2801C9.31494 20.1303 18.4402 9.88354 31.6596 9.88354C44.8791 9.88354 54.0092 20.1303 54.0092 32.2801H54.0142Z" fill="#747F88"/>
<path opacity="0.92" d="M53.345 31.8797C53.345 43.6044 44.5965 52.7489 31.6596 52.7489C18.7226 52.7489 9.97412 43.6044 9.97412 31.8797C9.97412 20.155 18.7276 10.2147 31.6596 10.2147C44.5915 10.2147 53.345 20.1501 53.345 31.8748V31.8797Z" fill="#747F88"/>
<path d="M52.6759 31.4793C52.6759 42.779 44.3041 51.9383 31.6596 51.9383C19.0151 51.9383 10.6433 42.779 10.6433 31.4793C10.6433 20.1797 19.0151 10.5508 31.6596 10.5508C44.3041 10.5508 52.6759 20.1797 52.6759 31.4744V31.4793Z" fill="#747F88"/>
<path d="M31.6596 55.8284C45.0158 55.8284 55.8432 45.031 55.8432 31.7117C55.8432 18.3924 45.0158 7.59497 31.6596 7.59497C18.3033 7.59497 7.47595 18.3924 7.47595 31.7117C7.47595 45.031 18.3033 55.8284 31.6596 55.8284Z" fill="url(#paint1_linear_7_1099)"/>
<g opacity="0.45">
<path opacity="0.1" d="M31.6596 48.3447C22.0585 48.3447 14.2766 40.5843 14.2766 31.0098C14.2766 21.4352 22.0585 13.6748 31.6596 13.6748C41.2607 13.6748 49.0427 21.4352 49.0427 31.0098C49.0427 40.5843 41.2607 48.3447 31.6596 48.3447ZM31.6596 5.42993C17.4934 5.42993 6.01379 16.8828 6.01379 31.0048C6.01379 45.1269 17.4984 56.5797 31.6596 56.5797C45.8208 56.5797 57.3054 45.1269 57.3054 31.0048C57.3054 16.8828 45.8258 5.42993 31.6596 5.42993Z" fill="#F7FBFA"/>
<path opacity="0.2" d="M31.6596 49.1752C21.5976 49.1752 13.4438 41.044 13.4438 31.0098C13.4438 20.9755 21.6025 12.8444 31.6596 12.8444C41.7167 12.8444 49.8754 20.9755 49.8754 31.0098C49.8754 41.044 41.7217 49.1752 31.6596 49.1752ZM31.6596 5.42993C17.4934 5.42993 6.01379 16.8828 6.01379 31.0048C6.01379 45.1269 17.4984 56.5797 31.6596 56.5797C45.8208 56.5797 57.3054 45.1269 57.3054 31.0048C57.3054 16.8828 45.8258 5.42993 31.6596 5.42993Z" fill="#F7FBFA"/>
<path opacity="0.3" d="M31.6596 50.0006C21.1416 50.0006 12.6111 41.4987 12.6111 31.0048C12.6111 20.5109 21.1416 12.014 31.6596 12.014C42.1777 12.014 50.7081 20.5159 50.7081 31.0098C50.7081 41.5037 42.1826 50.0056 31.6596 50.0056V50.0006ZM31.6596 5.42993C17.4934 5.42993 6.01379 16.8828 6.01379 31.0048C6.01379 45.1269 17.4984 56.5797 31.6596 56.5797C45.8208 56.5797 57.3054 45.1269 57.3054 31.0048C57.3054 16.8828 45.8258 5.42993 31.6596 5.42993Z" fill="#F7FBFA"/>
<path opacity="0.4" d="M31.6596 50.831C20.6806 50.831 11.7834 41.9535 11.7834 31.0098C11.7834 20.066 20.6806 11.1835 31.6596 11.1835C42.6386 11.1835 51.5359 20.0611 51.5359 31.0048C51.5359 41.9485 42.6337 50.8261 31.6596 50.8261V50.831ZM31.6596 5.42993C17.4934 5.42993 6.01379 16.8828 6.01379 31.0048C6.01379 45.1269 17.4984 56.5797 31.6596 56.5797C45.8208 56.5797 57.3054 45.1269 57.3054 31.0048C57.3054 16.8828 45.8258 5.42993 31.6596 5.42993Z" fill="#F7FBFA"/>
<path opacity="0.5" d="M31.6596 51.6615C20.2196 51.6615 10.9506 42.4132 10.9506 31.0098C10.9506 19.6063 20.2246 10.3581 31.6596 10.3581C43.0947 10.3581 52.3686 19.6063 52.3686 31.0098C52.3686 42.4132 43.0947 51.6615 31.6596 51.6615ZM31.6596 5.42993C17.4934 5.42993 6.01379 16.8828 6.01379 31.0048C6.01379 45.1269 17.4984 56.5797 31.6596 56.5797C45.8208 56.5797 57.3054 45.1269 57.3054 31.0048C57.3054 16.8828 45.8258 5.42993 31.6596 5.42993Z" fill="#F7FBFA"/>
<path opacity="0.6" d="M31.6596 52.4919C19.7636 52.4919 10.1179 42.8729 10.1179 31.0098C10.1179 19.1467 19.7636 9.52765 31.6596 9.52765C43.5556 9.52765 53.2013 19.1467 53.2013 31.0098C53.2013 42.8729 43.5556 52.4919 31.6596 52.4919ZM31.6596 5.42993C17.4934 5.42993 6.01379 16.8828 6.01379 31.0048C6.01379 45.1269 17.4984 56.5797 31.6596 56.5797C45.8208 56.5797 57.3054 45.1269 57.3054 31.0048C57.3054 16.8828 45.8258 5.42993 31.6596 5.42993Z" fill="#F7FBFA"/>
<path opacity="0.7" d="M31.6596 53.3174C19.3026 53.3174 9.2852 43.3276 9.2852 31.0048C9.2852 18.682 19.3026 8.69723 31.6596 8.69723C44.0166 8.69723 54.034 18.687 54.034 31.0098C54.034 43.3326 44.0166 53.3223 31.6596 53.3223V53.3174ZM31.6596 5.42993C17.4934 5.42993 6.01379 16.8828 6.01379 31.0048C6.01379 45.1269 17.4984 56.5797 31.6596 56.5797C45.8208 56.5797 57.3054 45.1269 57.3054 31.0048C57.3054 16.8828 45.8258 5.42993 31.6596 5.42993Z" fill="#F7FBFA"/>
<path opacity="0.8" d="M31.6596 54.1478C18.8417 54.1478 8.45743 43.7873 8.45743 31.0098C8.45743 18.2322 18.8466 7.86681 31.6596 7.86681C44.4726 7.86681 54.8618 18.2273 54.8618 31.0048C54.8618 43.7824 44.4726 54.1428 31.6596 54.1428V54.1478ZM31.6596 5.42993C17.4934 5.42993 6.01379 16.8828 6.01379 31.0048C6.01379 45.1269 17.4984 56.5797 31.6596 56.5797C45.8208 56.5797 57.3054 45.1269 57.3054 31.0048C57.3054 16.8828 45.8258 5.42993 31.6596 5.42993Z" fill="#F7FBFA"/>
<path opacity="0.9" d="M31.6596 54.9782C18.3856 54.9782 7.62471 44.247 7.62471 31.0098C7.62471 17.7725 18.3856 7.03639 31.6596 7.03639C44.9336 7.03639 55.6945 17.7676 55.6945 31.0048C55.6945 44.2421 44.9336 54.9732 31.6596 54.9732V54.9782ZM31.6596 5.42993C17.4934 5.42993 6.01379 16.8828 6.01379 31.0048C6.01379 45.1269 17.4984 56.5797 31.6596 56.5797C45.8208 56.5797 57.3054 45.1269 57.3054 31.0048C57.3054 16.8828 45.8258 5.42993 31.6596 5.42993Z" fill="#F7FBFA"/>
<path d="M31.6596 55.8086C17.9247 55.8086 6.79199 44.7067 6.79199 31.0098C6.79199 17.3128 17.9247 6.21092 31.6596 6.21092C45.3945 6.21092 56.5272 17.3128 56.5272 31.0098C56.5272 44.7067 45.3945 55.8086 31.6596 55.8086ZM31.6596 5.42993C17.4934 5.42993 6.01379 16.8828 6.01379 31.0048C6.01379 45.1269 17.4984 56.5797 31.6596 56.5797C45.8208 56.5797 57.3054 45.1269 57.3054 31.0048C57.3054 16.8828 45.8258 5.42993 31.6596 5.42993Z" fill="#F7FBFA"/>
</g>
<path d="M31.7735 9.08777C44.988 9.08777 55.7192 19.6805 55.9026 32.814C55.9026 32.7003 55.9125 32.5817 55.9125 32.468C55.9125 19.1714 45.107 8.39575 31.7735 8.39575C18.4401 8.39575 7.63452 19.1714 7.63452 32.468C7.63452 32.5866 7.63948 32.7003 7.64443 32.814C7.83279 19.6805 18.559 9.08777 31.7735 9.08777Z" fill="white"/>
<g filter="url(#filter0_d_7_1099)">
<path d="M38.6322 30.8356C38.6322 32.4489 38.5046 33.889 38.2494 35.1559C38.0033 36.4229 37.6023 37.4984 37.0463 38.3825C36.4994 39.2666 35.7794 39.9411 34.8861 40.4059C33.9929 40.8708 32.9083 41.1032 31.6322 41.1032C30.028 41.1032 28.711 40.6976 27.681 39.8864C26.6511 39.0661 25.89 37.8903 25.3978 36.3591C24.9057 34.8187 24.6596 32.9776 24.6596 30.8356C24.6596 28.6755 24.8829 26.8298 25.3295 25.2985C25.7852 23.7582 26.5235 22.5778 27.5443 21.7575C28.5652 20.9372 29.9278 20.527 31.6322 20.527C33.2273 20.527 34.5398 20.9372 35.5697 21.7575C36.6088 22.5687 37.379 23.7445 37.8803 25.2849C38.3816 26.8161 38.6322 28.6664 38.6322 30.8356ZM28.8568 30.8356C28.8568 32.3578 28.9389 33.6293 29.1029 34.6501C29.2761 35.6618 29.5632 36.4229 29.9642 36.9333C30.3653 37.4437 30.9213 37.6989 31.6322 37.6989C32.334 37.6989 32.8855 37.4483 33.2865 36.947C33.6967 36.4365 33.9883 35.6755 34.1615 34.6638C34.3347 33.6429 34.4213 32.3669 34.4213 30.8356C34.4213 29.3135 34.3347 28.042 34.1615 27.0212C33.9883 26.0003 33.6967 25.2347 33.2865 24.7243C32.8855 24.2048 32.334 23.945 31.6322 23.945C30.9213 23.945 30.3653 24.2048 29.9642 24.7243C29.5632 25.2347 29.2761 26.0003 29.1029 27.0212C28.9389 28.042 28.8568 29.3135 28.8568 30.8356Z" fill="#343333"/>
</g>
<defs>
<filter id="filter0_d_7_1099" x="24.6595" y="20.527" width="16.9727" height="22.5762" filterUnits="userSpaceOnUse" color-interpolation-filters="sRGB">
<feFlood flood-opacity="0" result="BackgroundImageFix"/>
<feColorMatrix in="SourceAlpha" type="matrix" values="0 0 0 0 0 0 0 0 0 0 0 0 0 0 0 0 0 0 127 0" result="hardAlpha"/>
<feOffset dx="2" dy="1"/>
<feGaussianBlur stdDeviation="0.5"/>
<feComposite in2="hardAlpha" operator="out"/>
<feColorMatrix type="matrix" values="0 0 0 0 0.968627 0 0 0 0 0.984314 0 0 0 0 0.980392 0 0 0 1 0"/>
<feBlend mode="normal" in2="BackgroundImageFix" result="effect1_dropShadow_7_1099"/>
<feBlend mode="normal" in="SourceGraphic" in2="effect1_dropShadow_7_1099" result="shape"/>
</filter>
<radialGradient id="paint0_radial_7_1099" cx="0" cy="0" r="1" gradientUnits="userSpaceOnUse" gradientTransform="translate(31.6595 31.2965) scale(31.2766 31.1901)">
<stop offset="0.3" stop-color="#E6E7E8"/>
<stop offset="0.5" stop-color="#DFE0E2"/>
<stop offset="0.78" stop-color="#CCD0D2"/>
<stop offset="1" stop-color="#BABFC3"/>
</radialGradient>
<linearGradient id="paint1_linear_7_1099" x1="7.47595" y1="31.7117" x2="55.8432" y2="31.7117" gradientUnits="userSpaceOnUse">
<stop stop-color="#CFD1D6"/>
<stop offset="0.72" stop-color="#C8CBCF"/>
<stop offset="1" stop-color="#C4C8CC"/>
</linearGradient>
</defs>
</svg>
