<svg width="63" height="64" viewBox="0 0 63 64" fill="none" xmlns="http://www.w3.org/2000/svg">
<g clip-path="url(#clip0_7_1093)">
<path d="M7.38544 0.702118H55.1727C59.2471 0.702118 62.5581 4.00402 62.5581 8.06713V55.7222C62.5581 59.7853 59.2471 63.0872 55.1727 63.0872H7.38544C3.31106 63.0823 0 59.7853 0 55.7222V8.06713C0 4.00402 3.31106 0.702118 7.38544 0.702118Z" fill="url(#paint0_radial_7_1093)"/>
<path d="M55.2223 61.8713H7.33092C3.30114 61.8713 0 58.5793 0 54.5557V55.9447C0 59.9682 3.30114 63.2553 7.33092 63.2553H55.2223C59.257 63.2553 62.5532 59.9633 62.5532 55.9447V54.5557C62.5532 58.5793 59.2521 61.8663 55.2223 61.8663V61.8713Z" fill="#747F88"/>
<path d="M55.1182 0.702118H7.43501C3.34575 0.702118 0 4.03862 0 8.11656V8.99147C0 4.91352 3.34575 1.57702 7.43501 1.57702H55.1182C59.2074 1.57702 62.5532 4.91352 62.5532 8.99147V8.11656C62.5532 4.03862 59.2074 0.702118 55.1182 0.702118Z" fill="white"/>
<path opacity="0.08" d="M60.3029 36.8846C60.3029 53.3002 47.3858 62.2717 31.2766 62.2717C15.1675 62.2717 2.25037 53.3002 2.25037 36.8846C2.25037 20.469 15.1675 7.12302 31.2766 7.12302C47.3858 7.12302 60.3029 20.469 60.3029 36.8846Z" fill="#747F88"/>
<path opacity="0.15" d="M59.6386 36.4842C59.6386 52.4747 47.1032 61.461 31.2815 61.461C15.4598 61.461 2.91943 52.4747 2.91943 36.4842C2.91943 20.4937 15.4549 7.45914 31.2766 7.45914C47.0982 7.45914 59.6337 20.4937 59.6337 36.4842H59.6386Z" fill="#747F88"/>
<path opacity="0.23" d="M58.9695 36.0838C58.9695 51.6492 46.8107 60.6504 31.2765 60.6504C15.7423 60.6504 3.58362 51.6443 3.58362 36.0838C3.58362 20.5234 15.7423 7.79526 31.2765 7.79526C46.8107 7.79526 58.9695 20.5184 58.9695 36.0838Z" fill="#747F88"/>
<path opacity="0.31" d="M58.3004 35.6835C58.3004 50.8188 46.5183 59.8397 31.2766 59.8397C16.0348 59.8397 4.25281 50.8188 4.25281 35.6835C4.25281 20.5481 16.0348 8.13138 31.2766 8.13138C46.5183 8.13138 58.3004 20.5481 58.3004 35.6835Z" fill="#747F88"/>
<path opacity="0.38" d="M57.6362 35.2831C57.6362 49.9933 46.2359 59.0291 31.2816 59.0291C16.3273 59.0291 4.922 49.9933 4.922 35.2831C4.922 20.5728 16.3223 8.4675 31.2766 8.4675C46.2309 8.4675 57.6312 20.5728 57.6312 35.2831H57.6362Z" fill="#747F88"/>
<path opacity="0.46" d="M56.967 34.8777C56.967 49.1629 45.9434 58.2085 31.2766 58.2085C16.6098 58.2085 5.58618 49.1629 5.58618 34.8777C5.58618 20.5926 16.6098 8.79868 31.2766 8.79868C45.9434 8.79868 56.967 20.5926 56.967 34.8777Z" fill="#747F88"/>
<path opacity="0.54" d="M56.2979 34.4774C56.2979 48.3325 45.656 57.3979 31.2766 57.3979C16.8973 57.3979 6.25537 48.3374 6.25537 34.4774C6.25537 20.6173 16.8973 9.1348 31.2766 9.1348C45.656 9.1348 56.2979 20.6222 56.2979 34.4774Z" fill="#747F88"/>
<path opacity="0.62" d="M55.6336 34.077C55.6336 47.507 45.3684 56.5872 31.2815 56.5872C17.1947 56.5872 6.92444 47.507 6.92444 34.077C6.92444 20.647 17.1897 9.47092 31.2766 9.47092C45.3634 9.47092 55.6287 20.647 55.6287 34.077H55.6336Z" fill="#747F88"/>
<path opacity="0.69" d="M54.9645 33.6766C54.9645 46.6815 45.0759 55.7766 31.2766 55.7766C17.4772 55.7766 7.58862 46.6815 7.58862 33.6766C7.58862 20.6717 17.4772 9.80704 31.2766 9.80704C45.0759 9.80704 54.9645 20.6717 54.9645 33.6766Z" fill="#747F88"/>
<path opacity="0.77" d="M54.2954 33.2762C54.2954 45.8561 44.7885 54.9659 31.2766 54.9659C17.7647 54.9659 8.25781 45.8561 8.25781 33.2762C8.25781 20.6964 17.7647 10.1432 31.2766 10.1432C44.7885 10.1432 54.2954 20.7013 54.2954 33.2762Z" fill="#747F88"/>
<path opacity="0.85" d="M53.6311 32.8758C53.6311 45.0256 44.501 54.1553 31.2815 54.1553C18.0621 54.1553 8.93188 45.0256 8.93188 32.8758C8.93188 20.726 18.0571 10.4793 31.2766 10.4793C44.496 10.4793 53.6262 20.726 53.6262 32.8758H53.6311Z" fill="#747F88"/>
<path opacity="0.92" d="M52.9621 32.4755C52.9621 44.2002 44.2135 53.3447 31.2766 53.3447C18.3397 53.3447 9.59119 44.2002 9.59119 32.4755C9.59119 20.7508 18.3447 10.8105 31.2766 10.8105C44.2086 10.8105 52.9621 20.7458 52.9621 32.4705V32.4755Z" fill="#747F88"/>
<path d="M52.2928 32.0751C52.2928 43.3747 43.921 52.534 31.2765 52.534C18.6321 52.534 10.2603 43.3747 10.2603 32.0751C10.2603 20.7755 18.6321 11.1466 31.2765 11.1466C43.921 11.1466 52.2928 20.7755 52.2928 32.0701V32.0751Z" fill="#747F88"/>
<path d="M31.2766 56.4241C44.6329 56.4241 55.4602 45.6267 55.4602 32.3074C55.4602 18.9881 44.6329 8.1907 31.2766 8.1907C17.9204 8.1907 7.09302 18.9881 7.09302 32.3074C7.09302 45.6267 17.9204 56.4241 31.2766 56.4241Z" fill="url(#paint1_linear_7_1093)"/>
<g opacity="0.45">
<path opacity="0.1" d="M31.2766 48.9405C21.6755 48.9405 13.8935 41.18 13.8935 31.6055C13.8935 22.031 21.6755 14.2706 31.2766 14.2706C40.8776 14.2706 48.6596 22.031 48.6596 31.6055C48.6596 41.18 40.8776 48.9405 31.2766 48.9405ZM31.2766 6.0257C17.1104 6.0257 5.63074 17.4785 5.63074 31.6006C5.63074 45.7226 17.1153 57.1755 31.2766 57.1755C45.4378 57.1755 56.9224 45.7226 56.9224 31.6006C56.9224 17.4785 45.4427 6.0257 31.2766 6.0257Z" fill="#F7FBFA"/>
<path opacity="0.2" d="M31.2766 49.7709C21.2145 49.7709 13.0608 41.6397 13.0608 31.6055C13.0608 21.5713 21.2195 13.4401 31.2766 13.4401C41.3336 13.4401 49.4923 21.5713 49.4923 31.6055C49.4923 41.6397 41.3386 49.7709 31.2766 49.7709ZM31.2766 6.0257C17.1104 6.0257 5.63074 17.4785 5.63074 31.6006C5.63074 45.7226 17.1153 57.1755 31.2766 57.1755C45.4378 57.1755 56.9224 45.7226 56.9224 31.6006C56.9224 17.4785 45.4427 6.0257 31.2766 6.0257Z" fill="#F7FBFA"/>
<path opacity="0.3" d="M31.2766 50.5964C20.7585 50.5964 12.2281 42.0945 12.2281 31.6006C12.2281 21.1067 20.7585 12.6097 31.2766 12.6097C41.7946 12.6097 50.325 21.1116 50.325 31.6055C50.325 42.0994 41.7996 50.6013 31.2766 50.6013V50.5964ZM31.2766 6.0257C17.1104 6.0257 5.63074 17.4785 5.63074 31.6006C5.63074 45.7226 17.1153 57.1755 31.2766 57.1755C45.4378 57.1755 56.9224 45.7226 56.9224 31.6006C56.9224 17.4785 45.4427 6.0257 31.2766 6.0257Z" fill="#F7FBFA"/>
<path opacity="0.4" d="M31.2766 51.4268C20.2975 51.4268 11.4003 42.5492 11.4003 31.6055C11.4003 20.6618 20.2975 11.7793 31.2766 11.7793C42.2556 11.7793 51.1528 20.6569 51.1528 31.6006C51.1528 42.5443 42.2506 51.4219 31.2766 51.4219V51.4268ZM31.2766 6.0257C17.1104 6.0257 5.63074 17.4785 5.63074 31.6006C5.63074 45.7226 17.1153 57.1755 31.2766 57.1755C45.4378 57.1755 56.9224 45.7226 56.9224 31.6006C56.9224 17.4785 45.4427 6.0257 31.2766 6.0257Z" fill="#F7FBFA"/>
<path opacity="0.5" d="M31.2766 52.2572C19.8366 52.2572 10.5676 43.0089 10.5676 31.6055C10.5676 20.2021 19.8415 10.9538 31.2766 10.9538C42.7116 10.9538 51.9855 20.2021 51.9855 31.6055C51.9855 43.0089 42.7116 52.2572 31.2766 52.2572ZM31.2766 6.0257C17.1104 6.0257 5.63074 17.4785 5.63074 31.6006C5.63074 45.7226 17.1153 57.1755 31.2766 57.1755C45.4378 57.1755 56.9224 45.7226 56.9224 31.6006C56.9224 17.4785 45.4427 6.0257 31.2766 6.0257Z" fill="#F7FBFA"/>
<path opacity="0.6" d="M31.2766 53.0876C19.3805 53.0876 9.73486 43.4686 9.73486 31.6055C9.73486 19.7424 19.3805 10.1234 31.2766 10.1234C43.1726 10.1234 52.8182 19.7424 52.8182 31.6055C52.8182 43.4686 43.1726 53.0876 31.2766 53.0876ZM31.2766 6.0257C17.1104 6.0257 5.63074 17.4785 5.63074 31.6006C5.63074 45.7226 17.1153 57.1755 31.2766 57.1755C45.4378 57.1755 56.9224 45.7226 56.9224 31.6006C56.9224 17.4785 45.4427 6.0257 31.2766 6.0257Z" fill="#F7FBFA"/>
<path opacity="0.7" d="M31.2766 53.9131C18.9196 53.9131 8.90214 43.9234 8.90214 31.6006C8.90214 19.2778 18.9196 9.29299 31.2766 9.29299C43.6335 9.29299 53.651 19.2827 53.651 31.6055C53.651 43.9283 43.6335 53.9181 31.2766 53.9181V53.9131ZM31.2766 6.0257C17.1104 6.0257 5.63074 17.4785 5.63074 31.6006C5.63074 45.7226 17.1153 57.1755 31.2766 57.1755C45.4378 57.1755 56.9224 45.7226 56.9224 31.6006C56.9224 17.4785 45.4427 6.0257 31.2766 6.0257Z" fill="#F7FBFA"/>
<path opacity="0.8" d="M31.2766 54.7435C18.4586 54.7435 8.07438 44.3831 8.07438 31.6055C8.07438 18.828 18.4636 8.46258 31.2766 8.46258C44.0896 8.46258 54.4787 18.823 54.4787 31.6006C54.4787 44.3781 44.0896 54.7386 31.2766 54.7386V54.7435ZM31.2766 6.0257C17.1104 6.0257 5.63074 17.4785 5.63074 31.6006C5.63074 45.7226 17.1153 57.1755 31.2766 57.1755C45.4378 57.1755 56.9224 45.7226 56.9224 31.6006C56.9224 17.4785 45.4427 6.0257 31.2766 6.0257Z" fill="#F7FBFA"/>
<path opacity="0.9" d="M31.2766 55.574C18.0026 55.574 7.24166 44.8428 7.24166 31.6055C7.24166 18.3683 18.0026 7.63216 31.2766 7.63216C44.5505 7.63216 55.3115 18.3633 55.3115 31.6006C55.3115 44.8378 44.5505 55.569 31.2766 55.569V55.574ZM31.2766 6.0257C17.1104 6.0257 5.63074 17.4785 5.63074 31.6006C5.63074 45.7226 17.1153 57.1755 31.2766 57.1755C45.4378 57.1755 56.9224 45.7226 56.9224 31.6006C56.9224 17.4785 45.4427 6.0257 31.2766 6.0257Z" fill="#F7FBFA"/>
<path d="M31.2766 56.4044C17.5416 56.4044 6.40894 45.3025 6.40894 31.6055C6.40894 17.9086 17.5416 6.80668 31.2766 6.80668C45.0115 6.80668 56.1442 17.9086 56.1442 31.6055C56.1442 45.3025 45.0115 56.4044 31.2766 56.4044ZM31.2766 6.0257C17.1104 6.0257 5.63074 17.4785 5.63074 31.6006C5.63074 45.7226 17.1153 57.1755 31.2766 57.1755C45.4378 57.1755 56.9224 45.7226 56.9224 31.6006C56.9224 17.4785 45.4427 6.0257 31.2766 6.0257Z" fill="#F7FBFA"/>
</g>
<path d="M31.3906 9.68347C44.6051 9.68347 55.3363 20.2762 55.5197 33.4097C55.5197 33.296 55.5296 33.1774 55.5296 33.0637C55.5296 19.7671 44.724 8.99146 31.3906 8.99146C18.0571 8.99146 7.25159 19.7671 7.25159 33.0637C7.25159 33.1823 7.25654 33.296 7.2615 33.4097C7.44985 20.2762 18.1761 9.68347 31.3906 9.68347Z" fill="white"/>
<g filter="url(#filter0_d_7_1093)">
<path d="M38.8098 37.283H36.4036V41.4255H32.2747V37.283H23.7434V34.3435L32.5071 21.4373H36.4036V34.0017H38.8098V37.283ZM32.2747 34.0017V30.6111C32.2747 30.2921 32.2792 29.9138 32.2883 29.4763C32.3066 29.0388 32.3248 28.6013 32.343 28.1638C32.3613 27.7263 32.3795 27.3389 32.3977 27.0017C32.4251 26.6554 32.4433 26.4138 32.4524 26.2771H32.343C32.1699 26.6508 31.9876 27.0154 31.7962 27.3708C31.6047 27.7172 31.3814 28.0818 31.1262 28.4646L27.4622 34.0017H32.2747Z" fill="#343333"/>
</g>
</g>
<defs>
<filter id="filter0_d_7_1093" x="23.7434" y="21.4373" width="18.0664" height="21.9883" filterUnits="userSpaceOnUse" color-interpolation-filters="sRGB">
<feFlood flood-opacity="0" result="BackgroundImageFix"/>
<feColorMatrix in="SourceAlpha" type="matrix" values="0 0 0 0 0 0 0 0 0 0 0 0 0 0 0 0 0 0 127 0" result="hardAlpha"/>
<feOffset dx="2" dy="1"/>
<feGaussianBlur stdDeviation="0.5"/>
<feComposite in2="hardAlpha" operator="out"/>
<feColorMatrix type="matrix" values="0 0 0 0 0.968627 0 0 0 0 0.984314 0 0 0 0 0.980392 0 0 0 1 0"/>
<feBlend mode="normal" in2="BackgroundImageFix" result="effect1_dropShadow_7_1093"/>
<feBlend mode="normal" in="SourceGraphic" in2="effect1_dropShadow_7_1093" result="shape"/>
</filter>
<radialGradient id="paint0_radial_7_1093" cx="0" cy="0" r="1" gradientUnits="userSpaceOnUse" gradientTransform="translate(31.2766 31.8922) scale(31.2766 31.1901)">
<stop offset="0.3" stop-color="#E6E7E8"/>
<stop offset="0.5" stop-color="#DFE0E2"/>
<stop offset="0.78" stop-color="#CCD0D2"/>
<stop offset="1" stop-color="#BABFC3"/>
</radialGradient>
<linearGradient id="paint1_linear_7_1093" x1="7.09302" y1="32.3074" x2="55.4602" y2="32.3074" gradientUnits="userSpaceOnUse">
<stop stop-color="#CFD1D6"/>
<stop offset="0.72" stop-color="#C8CBCF"/>
<stop offset="1" stop-color="#C4C8CC"/>
</linearGradient>
<clipPath id="clip0_7_1093">
<rect width="62.5532" height="62.5532" fill="white" transform="translate(0 0.702118)"/>
</clipPath>
</defs>
</svg>
