<svg width="63" height="64" viewBox="0 0 63 64" fill="none" xmlns="http://www.w3.org/2000/svg">
<path d="M7.76837 0.702118H55.5556C59.63 0.702118 62.9411 4.00402 62.9411 8.06713V55.7222C62.9411 59.7853 59.63 63.0872 55.5556 63.0872H7.76837C3.69399 63.0823 0.382935 59.7853 0.382935 55.7222V8.06713C0.382935 4.00402 3.69399 0.702118 7.76837 0.702118Z" fill="url(#paint0_radial_7_1097)"/>
<path d="M55.6052 61.8713H7.71385C3.68408 61.8713 0.382935 58.5793 0.382935 54.5557V55.9447C0.382935 59.9682 3.68408 63.2553 7.71385 63.2553H55.6052C59.6399 63.2553 62.9361 59.9633 62.9361 55.9447V54.5557C62.9361 58.5793 59.635 61.8663 55.6052 61.8663V61.8713Z" fill="#747F88"/>
<path d="M55.5011 0.702118H7.81794C3.72869 0.702118 0.382935 4.03862 0.382935 8.11656V8.99147C0.382935 4.91352 3.72869 1.57702 7.81794 1.57702H55.5011C59.5904 1.57702 62.9361 4.91352 62.9361 8.99147V8.11656C62.9361 4.03862 59.5904 0.702118 55.5011 0.702118Z" fill="white"/>
<path opacity="0.08" d="M60.6858 36.8846C60.6858 53.3002 47.7687 62.2717 31.6596 62.2717C15.5504 62.2717 2.6333 53.3002 2.6333 36.8846C2.6333 20.469 15.5504 7.12305 31.6596 7.12305C47.7687 7.12305 60.6858 20.469 60.6858 36.8846Z" fill="#747F88"/>
<path opacity="0.15" d="M60.0217 36.4842C60.0217 52.4747 47.4863 61.461 31.6646 61.461C15.8429 61.461 3.30249 52.4747 3.30249 36.4842C3.30249 20.4937 15.8379 7.45914 31.6596 7.45914C47.4813 7.45914 60.0167 20.4937 60.0167 36.4842H60.0217Z" fill="#747F88"/>
<path opacity="0.23" d="M59.3524 36.0839C59.3524 51.6493 47.1937 60.6504 31.6595 60.6504C16.1253 60.6504 3.96655 51.6443 3.96655 36.0839C3.96655 20.5234 16.1253 7.79529 31.6595 7.79529C47.1937 7.79529 59.3524 20.5185 59.3524 36.0839Z" fill="#747F88"/>
<path opacity="0.31" d="M58.6834 35.6835C58.6834 50.8188 46.9014 59.8397 31.6596 59.8397C16.4179 59.8397 4.63586 50.8188 4.63586 35.6835C4.63586 20.5481 16.4179 8.13141 31.6596 8.13141C46.9014 8.13141 58.6834 20.5481 58.6834 35.6835Z" fill="#747F88"/>
<path opacity="0.38" d="M58.0191 35.2831C58.0191 49.9934 46.6188 59.0291 31.6645 59.0291C16.7102 59.0291 5.30493 49.9934 5.30493 35.2831C5.30493 20.5728 16.7053 8.46753 31.6596 8.46753C46.6138 8.46753 58.0142 20.5728 58.0142 35.2831H58.0191Z" fill="#747F88"/>
<path opacity="0.46" d="M57.35 34.8778C57.35 49.1629 46.3263 58.2086 31.6595 58.2086C16.9928 58.2086 5.96912 49.1629 5.96912 34.8778C5.96912 20.5926 16.9928 8.79871 31.6595 8.79871C46.3263 8.79871 57.35 20.5926 57.35 34.8778Z" fill="#747F88"/>
<path opacity="0.54" d="M56.6809 34.4774C56.6809 48.3325 46.0389 57.3979 31.6596 57.3979C17.2803 57.3979 6.63831 48.3375 6.63831 34.4774C6.63831 20.6173 17.2803 9.13483 31.6596 9.13483C46.0389 9.13483 56.6809 20.6223 56.6809 34.4774Z" fill="#747F88"/>
<path opacity="0.62" d="M56.0166 34.077C56.0166 47.5071 45.7513 56.5873 31.6645 56.5873C17.5776 56.5873 7.30737 47.5071 7.30737 34.077C7.30737 20.647 17.5726 9.47098 31.6595 9.47098C45.7464 9.47098 56.0116 20.647 56.0116 34.077H56.0166Z" fill="#747F88"/>
<path opacity="0.69" d="M55.3475 33.6766C55.3475 46.6816 45.459 55.7766 31.6596 55.7766C17.8602 55.7766 7.97168 46.6816 7.97168 33.6766C7.97168 20.6717 17.8602 9.80707 31.6596 9.80707C45.459 9.80707 55.3475 20.6717 55.3475 33.6766Z" fill="#747F88"/>
<path opacity="0.77" d="M54.6783 33.2763C54.6783 45.8561 45.1714 54.966 31.6595 54.966C18.1476 54.966 8.64075 45.8561 8.64075 33.2763C8.64075 20.6964 18.1476 10.1432 31.6595 10.1432C45.1714 10.1432 54.6783 20.7014 54.6783 33.2763Z" fill="#747F88"/>
<path opacity="0.85" d="M54.0142 32.8759C54.0142 45.0257 44.884 54.1553 31.6646 54.1553C18.4451 54.1553 9.31494 45.0257 9.31494 32.8759C9.31494 20.7261 18.4402 10.4793 31.6596 10.4793C44.8791 10.4793 54.0092 20.7261 54.0092 32.8759H54.0142Z" fill="#747F88"/>
<path opacity="0.92" d="M53.345 32.4755C53.345 44.2002 44.5965 53.3447 31.6596 53.3447C18.7226 53.3447 9.97412 44.2002 9.97412 32.4755C9.97412 20.7508 18.7276 10.8105 31.6596 10.8105C44.5915 10.8105 53.345 20.7458 53.345 32.4705V32.4755Z" fill="#747F88"/>
<path d="M52.6759 32.0751C52.6759 43.3747 44.3041 52.534 31.6596 52.534C19.0151 52.534 10.6433 43.3747 10.6433 32.0751C10.6433 20.7755 19.0151 11.1466 31.6596 11.1466C44.3041 11.1466 52.6759 20.7755 52.6759 32.0702V32.0751Z" fill="#747F88"/>
<path d="M31.6596 56.4242C45.0158 56.4242 55.8432 45.6267 55.8432 32.3074C55.8432 18.9882 45.0158 8.19073 31.6596 8.19073C18.3033 8.19073 7.47595 18.9882 7.47595 32.3074C7.47595 45.6267 18.3033 56.4242 31.6596 56.4242Z" fill="url(#paint1_linear_7_1097)"/>
<g opacity="0.45">
<path opacity="0.1" d="M31.6596 48.9405C22.0585 48.9405 14.2766 41.18 14.2766 31.6055C14.2766 22.031 22.0585 14.2706 31.6596 14.2706C41.2607 14.2706 49.0427 22.031 49.0427 31.6055C49.0427 41.18 41.2607 48.9405 31.6596 48.9405ZM31.6596 6.0257C17.4934 6.0257 6.01379 17.4785 6.01379 31.6006C6.01379 45.7226 17.4984 57.1755 31.6596 57.1755C45.8208 57.1755 57.3054 45.7226 57.3054 31.6006C57.3054 17.4785 45.8258 6.0257 31.6596 6.0257Z" fill="#F7FBFA"/>
<path opacity="0.2" d="M31.6596 49.7709C21.5976 49.7709 13.4438 41.6397 13.4438 31.6055C13.4438 21.5713 21.6025 13.4401 31.6596 13.4401C41.7167 13.4401 49.8754 21.5713 49.8754 31.6055C49.8754 41.6397 41.7217 49.7709 31.6596 49.7709ZM31.6596 6.0257C17.4934 6.0257 6.01379 17.4785 6.01379 31.6006C6.01379 45.7226 17.4984 57.1755 31.6596 57.1755C45.8208 57.1755 57.3054 45.7226 57.3054 31.6006C57.3054 17.4785 45.8258 6.0257 31.6596 6.0257Z" fill="#F7FBFA"/>
<path opacity="0.3" d="M31.6596 50.5964C21.1416 50.5964 12.6111 42.0945 12.6111 31.6006C12.6111 21.1067 21.1416 12.6097 31.6596 12.6097C42.1777 12.6097 50.7081 21.1116 50.7081 31.6055C50.7081 42.0994 42.1826 50.6013 31.6596 50.6013V50.5964ZM31.6596 6.0257C17.4934 6.0257 6.01379 17.4785 6.01379 31.6006C6.01379 45.7226 17.4984 57.1755 31.6596 57.1755C45.8208 57.1755 57.3054 45.7226 57.3054 31.6006C57.3054 17.4785 45.8258 6.0257 31.6596 6.0257Z" fill="#F7FBFA"/>
<path opacity="0.4" d="M31.6596 51.4268C20.6806 51.4268 11.7834 42.5492 11.7834 31.6055C11.7834 20.6618 20.6806 11.7793 31.6596 11.7793C42.6386 11.7793 51.5359 20.6569 51.5359 31.6006C51.5359 42.5443 42.6337 51.4219 31.6596 51.4219V51.4268ZM31.6596 6.0257C17.4934 6.0257 6.01379 17.4785 6.01379 31.6006C6.01379 45.7226 17.4984 57.1755 31.6596 57.1755C45.8208 57.1755 57.3054 45.7226 57.3054 31.6006C57.3054 17.4785 45.8258 6.0257 31.6596 6.0257Z" fill="#F7FBFA"/>
<path opacity="0.5" d="M31.6596 52.2572C20.2196 52.2572 10.9506 43.0089 10.9506 31.6055C10.9506 20.2021 20.2246 10.9538 31.6596 10.9538C43.0947 10.9538 52.3686 20.2021 52.3686 31.6055C52.3686 43.0089 43.0947 52.2572 31.6596 52.2572ZM31.6596 6.0257C17.4934 6.0257 6.01379 17.4785 6.01379 31.6006C6.01379 45.7226 17.4984 57.1755 31.6596 57.1755C45.8208 57.1755 57.3054 45.7226 57.3054 31.6006C57.3054 17.4785 45.8258 6.0257 31.6596 6.0257Z" fill="#F7FBFA"/>
<path opacity="0.6" d="M31.6596 53.0876C19.7636 53.0876 10.1179 43.4686 10.1179 31.6055C10.1179 19.7424 19.7636 10.1234 31.6596 10.1234C43.5556 10.1234 53.2013 19.7424 53.2013 31.6055C53.2013 43.4686 43.5556 53.0876 31.6596 53.0876ZM31.6596 6.0257C17.4934 6.0257 6.01379 17.4785 6.01379 31.6006C6.01379 45.7226 17.4984 57.1755 31.6596 57.1755C45.8208 57.1755 57.3054 45.7226 57.3054 31.6006C57.3054 17.4785 45.8258 6.0257 31.6596 6.0257Z" fill="#F7FBFA"/>
<path opacity="0.7" d="M31.6596 53.9131C19.3026 53.9131 9.2852 43.9234 9.2852 31.6006C9.2852 19.2778 19.3026 9.29299 31.6596 9.29299C44.0166 9.29299 54.034 19.2827 54.034 31.6055C54.034 43.9283 44.0166 53.9181 31.6596 53.9181V53.9131ZM31.6596 6.0257C17.4934 6.0257 6.01379 17.4785 6.01379 31.6006C6.01379 45.7226 17.4984 57.1755 31.6596 57.1755C45.8208 57.1755 57.3054 45.7226 57.3054 31.6006C57.3054 17.4785 45.8258 6.0257 31.6596 6.0257Z" fill="#F7FBFA"/>
<path opacity="0.8" d="M31.6596 54.7435C18.8417 54.7435 8.45743 44.3831 8.45743 31.6055C8.45743 18.828 18.8466 8.46258 31.6596 8.46258C44.4726 8.46258 54.8618 18.823 54.8618 31.6006C54.8618 44.3781 44.4726 54.7386 31.6596 54.7386V54.7435ZM31.6596 6.0257C17.4934 6.0257 6.01379 17.4785 6.01379 31.6006C6.01379 45.7226 17.4984 57.1755 31.6596 57.1755C45.8208 57.1755 57.3054 45.7226 57.3054 31.6006C57.3054 17.4785 45.8258 6.0257 31.6596 6.0257Z" fill="#F7FBFA"/>
<path opacity="0.9" d="M31.6596 55.574C18.3856 55.574 7.62471 44.8428 7.62471 31.6055C7.62471 18.3683 18.3856 7.63216 31.6596 7.63216C44.9336 7.63216 55.6945 18.3633 55.6945 31.6006C55.6945 44.8378 44.9336 55.569 31.6596 55.569V55.574ZM31.6596 6.0257C17.4934 6.0257 6.01379 17.4785 6.01379 31.6006C6.01379 45.7226 17.4984 57.1755 31.6596 57.1755C45.8208 57.1755 57.3054 45.7226 57.3054 31.6006C57.3054 17.4785 45.8258 6.0257 31.6596 6.0257Z" fill="#F7FBFA"/>
<path d="M31.6596 56.4044C17.9247 56.4044 6.79199 45.3025 6.79199 31.6055C6.79199 17.9086 17.9247 6.80668 31.6596 6.80668C45.3945 6.80668 56.5272 17.9086 56.5272 31.6055C56.5272 45.3025 45.3945 56.4044 31.6596 56.4044ZM31.6596 6.0257C17.4934 6.0257 6.01379 17.4785 6.01379 31.6006C6.01379 45.7226 17.4984 57.1755 31.6596 57.1755C45.8208 57.1755 57.3054 45.7226 57.3054 31.6006C57.3054 17.4785 45.8258 6.0257 31.6596 6.0257Z" fill="#F7FBFA"/>
</g>
<path d="M31.7735 9.6835C44.988 9.6835 55.7192 20.2763 55.9026 33.4097C55.9026 33.296 55.9125 33.1774 55.9125 33.0637C55.9125 19.7671 45.107 8.99149 31.7735 8.99149C18.4401 8.99149 7.63452 19.7671 7.63452 33.0637C7.63452 33.1823 7.63948 33.296 7.64443 33.4097C7.83279 20.2763 18.559 9.6835 31.7735 9.6835Z" fill="white"/>
<g filter="url(#filter0_d_7_1097)">
<path d="M32.0424 28.656C33.2637 28.656 34.3484 28.8884 35.2963 29.3533C36.2533 29.8181 37.0053 30.5017 37.5521 31.4041C38.099 32.3064 38.3724 33.4184 38.3724 34.74C38.3724 36.1801 38.0717 37.4242 37.4701 38.4724C36.8777 39.5115 35.989 40.309 34.8041 40.865C33.6283 41.421 32.1609 41.699 30.4017 41.699C29.3536 41.699 28.3646 41.6078 27.4349 41.4255C26.5144 41.2524 25.7077 40.9835 25.015 40.6189V36.9685C25.7077 37.3331 26.5372 37.643 27.5033 37.8982C28.4786 38.1443 29.3946 38.2673 30.2514 38.2673C31.0899 38.2673 31.7963 38.158 32.3705 37.9392C32.9447 37.7113 33.3777 37.365 33.6693 36.9001C33.9701 36.4262 34.1205 35.8246 34.1205 35.0955C34.1205 34.1202 33.7924 33.3728 33.1361 32.8533C32.4799 32.3337 31.4727 32.074 30.1146 32.074C29.5951 32.074 29.0528 32.1241 28.4877 32.2244C27.9317 32.3246 27.4669 32.4249 27.0932 32.5251L25.4115 31.6228L26.1635 21.4373H37.0053V25.0193H29.8685L29.4994 28.9431C29.8093 28.8793 30.1465 28.8155 30.5111 28.7517C30.8757 28.6879 31.3861 28.656 32.0424 28.656Z" fill="#343333"/>
</g>
<defs>
<filter id="filter0_d_7_1097" x="25.015" y="21.4373" width="16.3574" height="22.2617" filterUnits="userSpaceOnUse" color-interpolation-filters="sRGB">
<feFlood flood-opacity="0" result="BackgroundImageFix"/>
<feColorMatrix in="SourceAlpha" type="matrix" values="0 0 0 0 0 0 0 0 0 0 0 0 0 0 0 0 0 0 127 0" result="hardAlpha"/>
<feOffset dx="2" dy="1"/>
<feGaussianBlur stdDeviation="0.5"/>
<feComposite in2="hardAlpha" operator="out"/>
<feColorMatrix type="matrix" values="0 0 0 0 0.968627 0 0 0 0 0.984314 0 0 0 0 0.980392 0 0 0 1 0"/>
<feBlend mode="normal" in2="BackgroundImageFix" result="effect1_dropShadow_7_1097"/>
<feBlend mode="normal" in="SourceGraphic" in2="effect1_dropShadow_7_1097" result="shape"/>
</filter>
<radialGradient id="paint0_radial_7_1097" cx="0" cy="0" r="1" gradientUnits="userSpaceOnUse" gradientTransform="translate(31.6595 31.8922) scale(31.2766 31.1901)">
<stop offset="0.3" stop-color="#E6E7E8"/>
<stop offset="0.5" stop-color="#DFE0E2"/>
<stop offset="0.78" stop-color="#CCD0D2"/>
<stop offset="1" stop-color="#BABFC3"/>
</radialGradient>
<linearGradient id="paint1_linear_7_1097" x1="7.47595" y1="32.3074" x2="55.8432" y2="32.3074" gradientUnits="userSpaceOnUse">
<stop stop-color="#CFD1D6"/>
<stop offset="0.72" stop-color="#C8CBCF"/>
<stop offset="1" stop-color="#C4C8CC"/>
</linearGradient>
</defs>
</svg>
