<svg width="63" height="63" viewBox="0 0 63 63" fill="none" xmlns="http://www.w3.org/2000/svg">
<g clip-path="url(#clip0_7_1095)">
<path d="M7.38544 0.106384H55.1727C59.2471 0.106384 62.5581 3.40828 62.5581 7.4714V55.1265C62.5581 59.1896 59.2471 62.4915 55.1727 62.4915H7.38544C3.31106 62.4866 0 59.1896 0 55.1265V7.4714C0 3.40828 3.31106 0.106384 7.38544 0.106384Z" fill="url(#paint0_radial_7_1095)"/>
<path d="M55.2223 61.2755H7.33092C3.30114 61.2755 0 57.9835 0 53.96V55.3489C0 59.3725 3.30114 62.6596 7.33092 62.6596H55.2223C59.257 62.6596 62.5532 59.3676 62.5532 55.3489V53.96C62.5532 57.9835 59.2521 61.2706 55.2223 61.2706V61.2755Z" fill="#747F88"/>
<path d="M55.1182 0.106384H7.43501C3.34575 0.106384 0 3.44288 0 7.52083V8.39573C0 4.31779 3.34575 0.981289 7.43501 0.981289H55.1182C59.2074 0.981289 62.5532 4.31779 62.5532 8.39573V7.52083C62.5532 3.44288 59.2074 0.106384 55.1182 0.106384Z" fill="white"/>
<path opacity="0.08" d="M60.3029 36.2889C60.3029 52.7044 47.3858 61.6759 31.2766 61.6759C15.1675 61.6759 2.25037 52.7044 2.25037 36.2889C2.25037 19.8733 15.1675 6.52728 31.2766 6.52728C47.3858 6.52728 60.3029 19.8733 60.3029 36.2889Z" fill="#747F88"/>
<path opacity="0.15" d="M59.6386 35.8885C59.6386 51.879 47.1032 60.8653 31.2815 60.8653C15.4598 60.8653 2.91943 51.879 2.91943 35.8885C2.91943 19.898 15.4549 6.8634 31.2766 6.8634C47.0982 6.8634 59.6337 19.898 59.6337 35.8885H59.6386Z" fill="#747F88"/>
<path opacity="0.23" d="M58.9695 35.4881C58.9695 51.0535 46.8107 60.0546 31.2765 60.0546C15.7423 60.0546 3.58362 51.0485 3.58362 35.4881C3.58362 19.9277 15.7423 7.19952 31.2765 7.19952C46.8107 7.19952 58.9695 19.9227 58.9695 35.4881Z" fill="#747F88"/>
<path opacity="0.31" d="M58.3004 35.0877C58.3004 50.2231 46.5183 59.244 31.2766 59.244C16.0348 59.244 4.25281 50.2231 4.25281 35.0877C4.25281 19.9524 16.0348 7.53564 31.2766 7.53564C46.5183 7.53564 58.3004 19.9524 58.3004 35.0877Z" fill="#747F88"/>
<path opacity="0.38" d="M57.6362 34.6873C57.6362 49.3976 46.2359 58.4333 31.2816 58.4333C16.3273 58.4333 4.922 49.3976 4.922 34.6873C4.922 19.9771 16.3223 7.87177 31.2766 7.87177C46.2309 7.87177 57.6312 19.9771 57.6312 34.6873H57.6362Z" fill="#747F88"/>
<path opacity="0.46" d="M56.967 34.282C56.967 48.5672 45.9434 57.6128 31.2766 57.6128C16.6098 57.6128 5.58618 48.5672 5.58618 34.282C5.58618 19.9969 16.6098 8.20294 31.2766 8.20294C45.9434 8.20294 56.967 19.9969 56.967 34.282Z" fill="#747F88"/>
<path opacity="0.54" d="M56.2979 33.8816C56.2979 47.7368 45.656 56.8021 31.2766 56.8021C16.8973 56.8021 6.25537 47.7417 6.25537 33.8816C6.25537 20.0216 16.8973 8.53906 31.2766 8.53906C45.656 8.53906 56.2979 20.0265 56.2979 33.8816Z" fill="#747F88"/>
<path opacity="0.62" d="M55.6336 33.4813C55.6336 46.9113 45.3684 55.9915 31.2815 55.9915C17.1947 55.9915 6.92444 46.9113 6.92444 33.4813C6.92444 20.0512 17.1897 8.87518 31.2766 8.87518C45.3634 8.87518 55.6287 20.0512 55.6287 33.4813H55.6336Z" fill="#747F88"/>
<path opacity="0.69" d="M54.9645 33.0809C54.9645 46.0858 45.0759 55.1809 31.2766 55.1809C17.4772 55.1809 7.58862 46.0858 7.58862 33.0809C7.58862 20.0759 17.4772 9.2113 31.2766 9.2113C45.0759 9.2113 54.9645 20.0759 54.9645 33.0809Z" fill="#747F88"/>
<path opacity="0.77" d="M54.2954 32.6805C54.2954 45.2603 44.7885 54.3702 31.2766 54.3702C17.7647 54.3702 8.25781 45.2603 8.25781 32.6805C8.25781 20.1007 17.7647 9.54742 31.2766 9.54742C44.7885 9.54742 54.2954 20.1056 54.2954 32.6805Z" fill="#747F88"/>
<path opacity="0.85" d="M53.6311 32.2801C53.6311 44.4299 44.501 53.5596 31.2815 53.5596C18.0621 53.5596 8.93188 44.4299 8.93188 32.2801C8.93188 20.1303 18.0571 9.88354 31.2766 9.88354C44.496 9.88354 53.6262 20.1303 53.6262 32.2801H53.6311Z" fill="#747F88"/>
<path opacity="0.92" d="M52.9621 31.8797C52.9621 43.6044 44.2135 52.7489 31.2766 52.7489C18.3397 52.7489 9.59119 43.6044 9.59119 31.8797C9.59119 20.155 18.3447 10.2147 31.2766 10.2147C44.2086 10.2147 52.9621 20.1501 52.9621 31.8748V31.8797Z" fill="#747F88"/>
<path d="M52.2928 31.4793C52.2928 42.779 43.921 51.9383 31.2765 51.9383C18.6321 51.9383 10.2603 42.779 10.2603 31.4793C10.2603 20.1797 18.6321 10.5508 31.2765 10.5508C43.921 10.5508 52.2928 20.1797 52.2928 31.4744V31.4793Z" fill="#747F88"/>
<path d="M31.2766 55.8284C44.6329 55.8284 55.4602 45.031 55.4602 31.7117C55.4602 18.3924 44.6329 7.59497 31.2766 7.59497C17.9204 7.59497 7.09302 18.3924 7.09302 31.7117C7.09302 45.031 17.9204 55.8284 31.2766 55.8284Z" fill="url(#paint1_linear_7_1095)"/>
<g opacity="0.45">
<path opacity="0.1" d="M31.2766 48.3447C21.6755 48.3447 13.8935 40.5843 13.8935 31.0098C13.8935 21.4352 21.6755 13.6748 31.2766 13.6748C40.8776 13.6748 48.6596 21.4352 48.6596 31.0098C48.6596 40.5843 40.8776 48.3447 31.2766 48.3447ZM31.2766 5.42993C17.1104 5.42993 5.63074 16.8828 5.63074 31.0048C5.63074 45.1269 17.1153 56.5797 31.2766 56.5797C45.4378 56.5797 56.9224 45.1269 56.9224 31.0048C56.9224 16.8828 45.4427 5.42993 31.2766 5.42993Z" fill="#F7FBFA"/>
<path opacity="0.2" d="M31.2766 49.1752C21.2145 49.1752 13.0608 41.044 13.0608 31.0098C13.0608 20.9755 21.2195 12.8444 31.2766 12.8444C41.3336 12.8444 49.4923 20.9755 49.4923 31.0098C49.4923 41.044 41.3386 49.1752 31.2766 49.1752ZM31.2766 5.42993C17.1104 5.42993 5.63074 16.8828 5.63074 31.0048C5.63074 45.1269 17.1153 56.5797 31.2766 56.5797C45.4378 56.5797 56.9224 45.1269 56.9224 31.0048C56.9224 16.8828 45.4427 5.42993 31.2766 5.42993Z" fill="#F7FBFA"/>
<path opacity="0.3" d="M31.2766 50.0006C20.7585 50.0006 12.2281 41.4987 12.2281 31.0048C12.2281 20.5109 20.7585 12.014 31.2766 12.014C41.7946 12.014 50.325 20.5159 50.325 31.0098C50.325 41.5037 41.7996 50.0056 31.2766 50.0056V50.0006ZM31.2766 5.42993C17.1104 5.42993 5.63074 16.8828 5.63074 31.0048C5.63074 45.1269 17.1153 56.5797 31.2766 56.5797C45.4378 56.5797 56.9224 45.1269 56.9224 31.0048C56.9224 16.8828 45.4427 5.42993 31.2766 5.42993Z" fill="#F7FBFA"/>
<path opacity="0.4" d="M31.2766 50.831C20.2975 50.831 11.4003 41.9535 11.4003 31.0098C11.4003 20.066 20.2975 11.1835 31.2766 11.1835C42.2556 11.1835 51.1528 20.0611 51.1528 31.0048C51.1528 41.9485 42.2506 50.8261 31.2766 50.8261V50.831ZM31.2766 5.42993C17.1104 5.42993 5.63074 16.8828 5.63074 31.0048C5.63074 45.1269 17.1153 56.5797 31.2766 56.5797C45.4378 56.5797 56.9224 45.1269 56.9224 31.0048C56.9224 16.8828 45.4427 5.42993 31.2766 5.42993Z" fill="#F7FBFA"/>
<path opacity="0.5" d="M31.2766 51.6615C19.8366 51.6615 10.5676 42.4132 10.5676 31.0098C10.5676 19.6063 19.8415 10.3581 31.2766 10.3581C42.7116 10.3581 51.9855 19.6063 51.9855 31.0098C51.9855 42.4132 42.7116 51.6615 31.2766 51.6615ZM31.2766 5.42993C17.1104 5.42993 5.63074 16.8828 5.63074 31.0048C5.63074 45.1269 17.1153 56.5797 31.2766 56.5797C45.4378 56.5797 56.9224 45.1269 56.9224 31.0048C56.9224 16.8828 45.4427 5.42993 31.2766 5.42993Z" fill="#F7FBFA"/>
<path opacity="0.6" d="M31.2766 52.4919C19.3805 52.4919 9.73486 42.8729 9.73486 31.0098C9.73486 19.1467 19.3805 9.52765 31.2766 9.52765C43.1726 9.52765 52.8182 19.1467 52.8182 31.0098C52.8182 42.8729 43.1726 52.4919 31.2766 52.4919ZM31.2766 5.42993C17.1104 5.42993 5.63074 16.8828 5.63074 31.0048C5.63074 45.1269 17.1153 56.5797 31.2766 56.5797C45.4378 56.5797 56.9224 45.1269 56.9224 31.0048C56.9224 16.8828 45.4427 5.42993 31.2766 5.42993Z" fill="#F7FBFA"/>
<path opacity="0.7" d="M31.2766 53.3174C18.9196 53.3174 8.90214 43.3276 8.90214 31.0048C8.90214 18.682 18.9196 8.69723 31.2766 8.69723C43.6335 8.69723 53.651 18.687 53.651 31.0098C53.651 43.3326 43.6335 53.3223 31.2766 53.3223V53.3174ZM31.2766 5.42993C17.1104 5.42993 5.63074 16.8828 5.63074 31.0048C5.63074 45.1269 17.1153 56.5797 31.2766 56.5797C45.4378 56.5797 56.9224 45.1269 56.9224 31.0048C56.9224 16.8828 45.4427 5.42993 31.2766 5.42993Z" fill="#F7FBFA"/>
<path opacity="0.8" d="M31.2766 54.1478C18.4586 54.1478 8.07438 43.7873 8.07438 31.0098C8.07438 18.2322 18.4636 7.86681 31.2766 7.86681C44.0896 7.86681 54.4787 18.2273 54.4787 31.0048C54.4787 43.7824 44.0896 54.1428 31.2766 54.1428V54.1478ZM31.2766 5.42993C17.1104 5.42993 5.63074 16.8828 5.63074 31.0048C5.63074 45.1269 17.1153 56.5797 31.2766 56.5797C45.4378 56.5797 56.9224 45.1269 56.9224 31.0048C56.9224 16.8828 45.4427 5.42993 31.2766 5.42993Z" fill="#F7FBFA"/>
<path opacity="0.9" d="M31.2766 54.9782C18.0026 54.9782 7.24166 44.247 7.24166 31.0098C7.24166 17.7725 18.0026 7.03639 31.2766 7.03639C44.5505 7.03639 55.3115 17.7676 55.3115 31.0048C55.3115 44.2421 44.5505 54.9732 31.2766 54.9732V54.9782ZM31.2766 5.42993C17.1104 5.42993 5.63074 16.8828 5.63074 31.0048C5.63074 45.1269 17.1153 56.5797 31.2766 56.5797C45.4378 56.5797 56.9224 45.1269 56.9224 31.0048C56.9224 16.8828 45.4427 5.42993 31.2766 5.42993Z" fill="#F7FBFA"/>
<path d="M31.2766 55.8086C17.5416 55.8086 6.40894 44.7067 6.40894 31.0098C6.40894 17.3128 17.5416 6.21092 31.2766 6.21092C45.0115 6.21092 56.1442 17.3128 56.1442 31.0098C56.1442 44.7067 45.0115 55.8086 31.2766 55.8086ZM31.2766 5.42993C17.1104 5.42993 5.63074 16.8828 5.63074 31.0048C5.63074 45.1269 17.1153 56.5797 31.2766 56.5797C45.4378 56.5797 56.9224 45.1269 56.9224 31.0048C56.9224 16.8828 45.4427 5.42993 31.2766 5.42993Z" fill="#F7FBFA"/>
</g>
<path d="M31.3906 9.08777C44.6051 9.08777 55.3363 19.6805 55.5197 32.814C55.5197 32.7003 55.5296 32.5817 55.5296 32.468C55.5296 19.1714 44.724 8.39575 31.3906 8.39575C18.0571 8.39575 7.25159 19.1714 7.25159 32.468C7.25159 32.5866 7.25654 32.7003 7.2615 32.814C7.44985 19.6805 18.1761 9.08777 31.3906 9.08777Z" fill="white"/>
</g>
<defs>
<radialGradient id="paint0_radial_7_1095" cx="0" cy="0" r="1" gradientUnits="userSpaceOnUse" gradientTransform="translate(31.2766 31.2965) scale(31.2766 31.1901)">
<stop offset="0.3" stop-color="#E6E7E8"/>
<stop offset="0.5" stop-color="#DFE0E2"/>
<stop offset="0.78" stop-color="#CCD0D2"/>
<stop offset="1" stop-color="#BABFC3"/>
</radialGradient>
<linearGradient id="paint1_linear_7_1095" x1="7.09302" y1="31.7117" x2="55.4602" y2="31.7117" gradientUnits="userSpaceOnUse">
<stop stop-color="#CFD1D6"/>
<stop offset="0.72" stop-color="#C8CBCF"/>
<stop offset="1" stop-color="#C4C8CC"/>
</linearGradient>
<clipPath id="clip0_7_1095">
<rect width="62.5532" height="62.5532" fill="white" transform="translate(0 0.106384)"/>
</clipPath>
</defs>
</svg>
