<svg width="64" height="64" viewBox="0 0 64 64" fill="none" xmlns="http://www.w3.org/2000/svg">
<path d="M8.15143 0.702118H55.9387C60.0131 0.702118 63.3241 4.00402 63.3241 8.06713V55.7222C63.3241 59.7853 60.0131 63.0872 55.9387 63.0872H8.15143C4.07705 63.0823 0.765991 59.7853 0.765991 55.7222V8.06713C0.765991 4.00402 4.07705 0.702118 8.15143 0.702118Z" fill="url(#paint0_radial_7_1101)"/>
<path d="M55.9883 61.8713H8.09691C4.06713 61.8713 0.765991 58.5793 0.765991 54.5557V55.9447C0.765991 59.9682 4.06713 63.2553 8.09691 63.2553H55.9883C60.023 63.2553 63.3192 59.9633 63.3192 55.9447V54.5557C63.3192 58.5793 60.018 61.8663 55.9883 61.8663V61.8713Z" fill="#747F88"/>
<path d="M55.8842 0.702118H8.201C4.11174 0.702118 0.765991 4.03862 0.765991 8.11656V8.99147C0.765991 4.91352 4.11174 1.57702 8.201 1.57702H55.8842C59.9734 1.57702 63.3192 4.91352 63.3192 8.99147V8.11656C63.3192 4.03862 59.9734 0.702118 55.8842 0.702118Z" fill="white"/>
<path opacity="0.08" d="M61.0688 36.8846C61.0688 53.3002 48.1517 62.2717 32.0425 62.2717C15.9333 62.2717 3.01624 53.3002 3.01624 36.8846C3.01624 20.469 15.9333 7.12305 32.0425 7.12305C48.1517 7.12305 61.0688 20.469 61.0688 36.8846Z" fill="#747F88"/>
<path opacity="0.15" d="M60.4046 36.4842C60.4046 52.4747 47.8692 61.461 32.0475 61.461C16.2258 61.461 3.68542 52.4747 3.68542 36.4842C3.68542 20.4937 16.2208 7.45914 32.0425 7.45914C47.8642 7.45914 60.3997 20.4937 60.3997 36.4842H60.4046Z" fill="#747F88"/>
<path opacity="0.23" d="M59.7355 36.0839C59.7355 51.6493 47.5767 60.6504 32.0425 60.6504C16.5083 60.6504 4.34961 51.6443 4.34961 36.0839C4.34961 20.5234 16.5083 7.79529 32.0425 7.79529C47.5767 7.79529 59.7355 20.5185 59.7355 36.0839Z" fill="#747F88"/>
<path opacity="0.31" d="M59.0663 35.6835C59.0663 50.8188 47.2843 59.8397 32.0426 59.8397C16.8008 59.8397 5.0188 50.8188 5.0188 35.6835C5.0188 20.5481 16.8008 8.13141 32.0426 8.13141C47.2843 8.13141 59.0663 20.5481 59.0663 35.6835Z" fill="#747F88"/>
<path opacity="0.38" d="M58.4022 35.2831C58.4022 49.9934 47.0018 59.0291 32.0476 59.0291C17.0933 59.0291 5.68799 49.9934 5.68799 35.2831C5.68799 20.5728 17.0883 8.46753 32.0426 8.46753C46.9969 8.46753 58.3972 20.5728 58.3972 35.2831H58.4022Z" fill="#747F88"/>
<path opacity="0.46" d="M57.733 34.8778C57.733 49.1629 46.7094 58.2086 32.0426 58.2086C17.3758 58.2086 6.35217 49.1629 6.35217 34.8778C6.35217 20.5926 17.3758 8.79871 32.0426 8.79871C46.7094 8.79871 57.733 20.5926 57.733 34.8778Z" fill="#747F88"/>
<path opacity="0.54" d="M57.0638 34.4774C57.0638 48.3325 46.4218 57.3979 32.0425 57.3979C17.6632 57.3979 7.02124 48.3375 7.02124 34.4774C7.02124 20.6173 17.6632 9.13483 32.0425 9.13483C46.4218 9.13483 57.0638 20.6223 57.0638 34.4774Z" fill="#747F88"/>
<path opacity="0.62" d="M56.3996 34.077C56.3996 47.5071 46.1344 56.5873 32.0475 56.5873C17.9607 56.5873 7.69043 47.5071 7.69043 34.077C7.69043 20.647 17.9557 9.47098 32.0426 9.47098C46.1294 9.47098 56.3947 20.647 56.3947 34.077H56.3996Z" fill="#747F88"/>
<path opacity="0.69" d="M55.7305 33.6766C55.7305 46.6816 45.8419 55.7766 32.0425 55.7766C18.2432 55.7766 8.35461 46.6816 8.35461 33.6766C8.35461 20.6717 18.2432 9.80707 32.0425 9.80707C45.8419 9.80707 55.7305 20.6717 55.7305 33.6766Z" fill="#747F88"/>
<path opacity="0.77" d="M55.0612 33.2763C55.0612 45.8561 45.5544 54.966 32.0425 54.966C18.5306 54.966 9.02368 45.8561 9.02368 33.2763C9.02368 20.6964 18.5306 10.1432 32.0425 10.1432C45.5544 10.1432 55.0612 20.7014 55.0612 33.2763Z" fill="#747F88"/>
<path opacity="0.85" d="M54.3971 32.8759C54.3971 45.0257 45.267 54.1553 32.0475 54.1553C18.8281 54.1553 9.69788 45.0257 9.69788 32.8759C9.69788 20.7261 18.8231 10.4793 32.0426 10.4793C45.262 10.4793 54.3922 20.7261 54.3922 32.8759H54.3971Z" fill="#747F88"/>
<path opacity="0.92" d="M53.7279 32.4755C53.7279 44.2002 44.9794 53.3447 32.0425 53.3447C19.1056 53.3447 10.3571 44.2002 10.3571 32.4755C10.3571 20.7508 19.1105 10.8105 32.0425 10.8105C44.9744 10.8105 53.7279 20.7458 53.7279 32.4705V32.4755Z" fill="#747F88"/>
<path d="M53.0588 32.0751C53.0588 43.3747 44.687 52.534 32.0425 52.534C19.3981 52.534 11.0262 43.3747 11.0262 32.0751C11.0262 20.7755 19.3981 11.1466 32.0425 11.1466C44.687 11.1466 53.0588 20.7755 53.0588 32.0702V32.0751Z" fill="#747F88"/>
<path d="M32.0425 56.4242C45.3987 56.4242 56.2261 45.6267 56.2261 32.3074C56.2261 18.9882 45.3987 8.19073 32.0425 8.19073C18.6863 8.19073 7.85889 18.9882 7.85889 32.3074C7.85889 45.6267 18.6863 56.4242 32.0425 56.4242Z" fill="url(#paint1_linear_7_1101)"/>
<g opacity="0.45">
<path opacity="0.1" d="M32.0425 48.9405C22.4415 48.9405 14.6595 41.18 14.6595 31.6055C14.6595 22.031 22.4415 14.2706 32.0425 14.2706C41.6436 14.2706 49.4256 22.031 49.4256 31.6055C49.4256 41.18 41.6436 48.9405 32.0425 48.9405ZM32.0425 6.0257C17.8764 6.0257 6.39673 17.4785 6.39673 31.6006C6.39673 45.7226 17.8813 57.1755 32.0425 57.1755C46.2038 57.1755 57.6884 45.7226 57.6884 31.6006C57.6884 17.4785 46.2087 6.0257 32.0425 6.0257Z" fill="#F7FBFA"/>
<path opacity="0.2" d="M32.0425 49.7709C21.9805 49.7709 13.8268 41.6397 13.8268 31.6055C13.8268 21.5713 21.9855 13.4401 32.0425 13.4401C42.0996 13.4401 50.2583 21.5713 50.2583 31.6055C50.2583 41.6397 42.1046 49.7709 32.0425 49.7709ZM32.0425 6.0257C17.8764 6.0257 6.39673 17.4785 6.39673 31.6006C6.39673 45.7226 17.8813 57.1755 32.0425 57.1755C46.2038 57.1755 57.6884 45.7226 57.6884 31.6006C57.6884 17.4785 46.2087 6.0257 32.0425 6.0257Z" fill="#F7FBFA"/>
<path opacity="0.3" d="M32.0425 50.5964C21.5245 50.5964 12.9941 42.0945 12.9941 31.6006C12.9941 21.1067 21.5245 12.6097 32.0425 12.6097C42.5606 12.6097 51.091 21.1116 51.091 31.6055C51.091 42.0994 42.5656 50.6013 32.0425 50.6013V50.5964ZM32.0425 6.0257C17.8764 6.0257 6.39673 17.4785 6.39673 31.6006C6.39673 45.7226 17.8813 57.1755 32.0425 57.1755C46.2038 57.1755 57.6884 45.7226 57.6884 31.6006C57.6884 17.4785 46.2087 6.0257 32.0425 6.0257Z" fill="#F7FBFA"/>
<path opacity="0.4" d="M32.0425 51.4268C21.0635 51.4268 12.1663 42.5492 12.1663 31.6055C12.1663 20.6618 21.0635 11.7793 32.0425 11.7793C43.0216 11.7793 51.9188 20.6569 51.9188 31.6006C51.9188 42.5443 43.0166 51.4219 32.0425 51.4219V51.4268ZM32.0425 6.0257C17.8764 6.0257 6.39673 17.4785 6.39673 31.6006C6.39673 45.7226 17.8813 57.1755 32.0425 57.1755C46.2038 57.1755 57.6884 45.7226 57.6884 31.6006C57.6884 17.4785 46.2087 6.0257 32.0425 6.0257Z" fill="#F7FBFA"/>
<path opacity="0.5" d="M32.0425 52.2572C20.6025 52.2572 11.3336 43.0089 11.3336 31.6055C11.3336 20.2021 20.6075 10.9538 32.0425 10.9538C43.4776 10.9538 52.7515 20.2021 52.7515 31.6055C52.7515 43.0089 43.4776 52.2572 32.0425 52.2572ZM32.0425 6.0257C17.8764 6.0257 6.39673 17.4785 6.39673 31.6006C6.39673 45.7226 17.8813 57.1755 32.0425 57.1755C46.2038 57.1755 57.6884 45.7226 57.6884 31.6006C57.6884 17.4785 46.2087 6.0257 32.0425 6.0257Z" fill="#F7FBFA"/>
<path opacity="0.6" d="M32.0425 53.0876C20.1465 53.0876 10.5009 43.4686 10.5009 31.6055C10.5009 19.7424 20.1465 10.1234 32.0425 10.1234C43.9386 10.1234 53.5842 19.7424 53.5842 31.6055C53.5842 43.4686 43.9386 53.0876 32.0425 53.0876ZM32.0425 6.0257C17.8764 6.0257 6.39673 17.4785 6.39673 31.6006C6.39673 45.7226 17.8813 57.1755 32.0425 57.1755C46.2038 57.1755 57.6884 45.7226 57.6884 31.6006C57.6884 17.4785 46.2087 6.0257 32.0425 6.0257Z" fill="#F7FBFA"/>
<path opacity="0.7" d="M32.0425 53.9131C19.6856 53.9131 9.66813 43.9234 9.66813 31.6006C9.66813 19.2778 19.6856 9.29299 32.0425 9.29299C44.3995 9.29299 54.417 19.2827 54.417 31.6055C54.417 43.9283 44.3995 53.9181 32.0425 53.9181V53.9131ZM32.0425 6.0257C17.8764 6.0257 6.39673 17.4785 6.39673 31.6006C6.39673 45.7226 17.8813 57.1755 32.0425 57.1755C46.2038 57.1755 57.6884 45.7226 57.6884 31.6006C57.6884 17.4785 46.2087 6.0257 32.0425 6.0257Z" fill="#F7FBFA"/>
<path opacity="0.8" d="M32.0425 54.7435C19.2246 54.7435 8.84037 44.3831 8.84037 31.6055C8.84037 18.828 19.2295 8.46258 32.0425 8.46258C44.8555 8.46258 55.2447 18.823 55.2447 31.6006C55.2447 44.3781 44.8555 54.7386 32.0425 54.7386V54.7435ZM32.0425 6.0257C17.8764 6.0257 6.39673 17.4785 6.39673 31.6006C6.39673 45.7226 17.8813 57.1755 32.0425 57.1755C46.2038 57.1755 57.6884 45.7226 57.6884 31.6006C57.6884 17.4785 46.2087 6.0257 32.0425 6.0257Z" fill="#F7FBFA"/>
<path opacity="0.9" d="M32.0425 55.574C18.7686 55.574 8.00765 44.8428 8.00765 31.6055C8.00765 18.3683 18.7686 7.63216 32.0425 7.63216C45.3165 7.63216 56.0774 18.3633 56.0774 31.6006C56.0774 44.8378 45.3165 55.569 32.0425 55.569V55.574ZM32.0425 6.0257C17.8764 6.0257 6.39673 17.4785 6.39673 31.6006C6.39673 45.7226 17.8813 57.1755 32.0425 57.1755C46.2038 57.1755 57.6884 45.7226 57.6884 31.6006C57.6884 17.4785 46.2087 6.0257 32.0425 6.0257Z" fill="#F7FBFA"/>
<path d="M32.0425 56.4044C18.3076 56.4044 7.17493 45.3025 7.17493 31.6055C7.17493 17.9086 18.3076 6.80668 32.0425 6.80668C45.7775 6.80668 56.9102 17.9086 56.9102 31.6055C56.9102 45.3025 45.7775 56.4044 32.0425 56.4044ZM32.0425 6.0257C17.8764 6.0257 6.39673 17.4785 6.39673 31.6006C6.39673 45.7226 17.8813 57.1755 32.0425 57.1755C46.2038 57.1755 57.6884 45.7226 57.6884 31.6006C57.6884 17.4785 46.2087 6.0257 32.0425 6.0257Z" fill="#F7FBFA"/>
</g>
<path d="M32.1566 9.6835C45.3711 9.6835 56.1023 20.2763 56.2856 33.4097C56.2856 33.296 56.2956 33.1774 56.2956 33.0637C56.2956 19.7671 45.49 8.99149 32.1566 8.99149C18.8231 8.99149 8.01758 19.7671 8.01758 33.0637C8.01758 33.1823 8.02253 33.296 8.02749 33.4097C8.21584 20.2763 18.9421 9.6835 32.1566 9.6835Z" fill="white"/>
<g filter="url(#filter0_d_7_1101)">
<path d="M25.0152 32.9353C25.0152 31.7869 25.0972 30.6521 25.2612 29.531C25.4344 28.4008 25.7306 27.3389 26.1499 26.3455C26.5692 25.3429 27.1571 24.4587 27.9136 23.6931C28.6701 22.9184 29.6317 22.3123 30.7984 21.8748C31.965 21.4281 33.3778 21.2048 35.0366 21.2048C35.4286 21.2048 35.8843 21.2231 36.4038 21.2595C36.9325 21.2869 37.37 21.337 37.7163 21.4099V24.7869C37.3517 24.7048 36.9598 24.641 36.5405 24.5955C36.1304 24.5408 35.7202 24.5134 35.3101 24.5134C33.6512 24.5134 32.3661 24.7778 31.4546 25.3064C30.5523 25.835 29.9142 26.5688 29.5405 27.5076C29.176 28.4373 28.9618 29.5219 28.898 30.7615H29.0757C29.3309 30.3149 29.6499 29.9184 30.0327 29.572C30.4247 29.2257 30.8986 28.9522 31.4546 28.7517C32.0106 28.5421 32.6623 28.4373 33.4097 28.4373C34.5763 28.4373 35.5881 28.6879 36.4448 29.1892C37.3016 29.6814 37.9624 30.3969 38.4273 31.3357C38.8921 32.2745 39.1245 33.4184 39.1245 34.7673C39.1245 36.2074 38.8465 37.447 38.2905 38.4861C37.7346 39.5251 36.9461 40.3227 35.9253 40.8787C34.9136 41.4255 33.7105 41.699 32.3159 41.699C31.2951 41.699 30.3426 41.5258 29.4585 41.1794C28.5744 40.824 27.7997 40.2862 27.1343 39.5662C26.4689 38.8461 25.9494 37.9392 25.5757 36.8455C25.202 35.7426 25.0152 34.4392 25.0152 32.9353ZM32.2339 38.322C33.0633 38.322 33.7378 38.0395 34.2573 37.4744C34.7769 36.9093 35.0366 36.0251 35.0366 34.822C35.0366 33.8468 34.8088 33.0811 34.353 32.5251C33.9064 31.96 33.2274 31.6775 32.3159 31.6775C31.6961 31.6775 31.1493 31.8188 30.6753 32.1013C30.2105 32.3748 29.8504 32.7257 29.5952 33.1541C29.34 33.5733 29.2124 34.0063 29.2124 34.4529C29.2124 34.9177 29.2762 35.378 29.4038 35.8337C29.5314 36.2895 29.7228 36.7042 29.978 37.0779C30.2332 37.4516 30.5477 37.7524 30.9214 37.9802C31.3042 38.2081 31.7417 38.322 32.2339 38.322Z" fill="#343333"/>
</g>
<defs>
<filter id="filter0_d_7_1101" x="25.0151" y="21.2048" width="17.1094" height="22.4941" filterUnits="userSpaceOnUse" color-interpolation-filters="sRGB">
<feFlood flood-opacity="0" result="BackgroundImageFix"/>
<feColorMatrix in="SourceAlpha" type="matrix" values="0 0 0 0 0 0 0 0 0 0 0 0 0 0 0 0 0 0 127 0" result="hardAlpha"/>
<feOffset dx="2" dy="1"/>
<feGaussianBlur stdDeviation="0.5"/>
<feComposite in2="hardAlpha" operator="out"/>
<feColorMatrix type="matrix" values="0 0 0 0 0.968627 0 0 0 0 0.984314 0 0 0 0 0.980392 0 0 0 1 0"/>
<feBlend mode="normal" in2="BackgroundImageFix" result="effect1_dropShadow_7_1101"/>
<feBlend mode="normal" in="SourceGraphic" in2="effect1_dropShadow_7_1101" result="shape"/>
</filter>
<radialGradient id="paint0_radial_7_1101" cx="0" cy="0" r="1" gradientUnits="userSpaceOnUse" gradientTransform="translate(32.0426 31.8922) scale(31.2766 31.1901)">
<stop offset="0.3" stop-color="#E6E7E8"/>
<stop offset="0.5" stop-color="#DFE0E2"/>
<stop offset="0.78" stop-color="#CCD0D2"/>
<stop offset="1" stop-color="#BABFC3"/>
</radialGradient>
<linearGradient id="paint1_linear_7_1101" x1="7.85889" y1="32.3074" x2="56.2261" y2="32.3074" gradientUnits="userSpaceOnUse">
<stop stop-color="#CFD1D6"/>
<stop offset="0.72" stop-color="#C8CBCF"/>
<stop offset="1" stop-color="#C4C8CC"/>
</linearGradient>
</defs>
</svg>
