<svg width="64" height="63" viewBox="0 0 64 63" fill="none" xmlns="http://www.w3.org/2000/svg">
<path d="M8.15143 0H55.9387C60.0131 0 63.3241 3.3019 63.3241 7.36501V55.0201C63.3241 59.0832 60.0131 62.3851 55.9387 62.3851H8.15143C4.07705 62.3802 0.765991 59.0832 0.765991 55.0201V7.36501C0.765991 3.3019 4.07705 0 8.15143 0Z" fill="url(#paint0_radial_7_1102)"/>
<path d="M55.9883 61.1692H8.09691C4.06713 61.1692 0.765991 57.8771 0.765991 53.8536V55.2426C0.765991 59.2661 4.06713 62.5532 8.09691 62.5532H55.9883C60.023 62.5532 63.3192 59.2612 63.3192 55.2426V53.8536C63.3192 57.8771 60.018 61.1642 55.9883 61.1642V61.1692Z" fill="#747F88"/>
<path d="M55.8842 0H8.201C4.11174 0 0.765991 3.3365 0.765991 7.41444V8.28935C0.765991 4.2114 4.11174 0.874904 8.201 0.874904H55.8842C59.9734 0.874904 63.3192 4.2114 63.3192 8.28935V7.41444C63.3192 3.3365 59.9734 0 55.8842 0Z" fill="white"/>
<path opacity="0.08" d="M61.0688 36.1825C61.0688 52.5981 48.1517 61.5695 32.0425 61.5695C15.9333 61.5695 3.01624 52.5981 3.01624 36.1825C3.01624 19.7669 15.9333 6.4209 32.0425 6.4209C48.1517 6.4209 61.0688 19.7669 61.0688 36.1825Z" fill="#747F88"/>
<path opacity="0.15" d="M60.4046 35.7821C60.4046 51.7726 47.8692 60.7589 32.0475 60.7589C16.2258 60.7589 3.68542 51.7726 3.68542 35.7821C3.68542 19.7916 16.2208 6.75702 32.0425 6.75702C47.8642 6.75702 60.3997 19.7916 60.3997 35.7821H60.4046Z" fill="#747F88"/>
<path opacity="0.23" d="M59.7355 35.3817C59.7355 50.9471 47.5767 59.9483 32.0425 59.9483C16.5083 59.9483 4.34961 50.9422 4.34961 35.3817C4.34961 19.8213 16.5083 7.09317 32.0425 7.09317C47.5767 7.09317 59.7355 19.8164 59.7355 35.3817Z" fill="#747F88"/>
<path opacity="0.31" d="M59.0663 34.9814C59.0663 50.1167 47.2843 59.1376 32.0426 59.1376C16.8008 59.1376 5.0188 50.1167 5.0188 34.9814C5.0188 19.846 16.8008 7.42929 32.0426 7.42929C47.2843 7.42929 59.0663 19.846 59.0663 34.9814Z" fill="#747F88"/>
<path opacity="0.38" d="M58.4022 34.581C58.4022 49.2912 47.0018 58.327 32.0476 58.327C17.0933 58.327 5.68799 49.2912 5.68799 34.581C5.68799 19.8707 17.0883 7.76541 32.0426 7.76541C46.9969 7.76541 58.3972 19.8707 58.3972 34.581H58.4022Z" fill="#747F88"/>
<path opacity="0.46" d="M57.733 34.1757C57.733 48.4608 46.7094 57.5064 32.0426 57.5064C17.3758 57.5064 6.35217 48.4608 6.35217 34.1757C6.35217 19.8905 17.3758 8.09659 32.0426 8.09659C46.7094 8.09659 57.733 19.8905 57.733 34.1757Z" fill="#747F88"/>
<path opacity="0.54" d="M57.0638 33.7752C57.0638 47.6304 46.4218 56.6958 32.0425 56.6958C17.6632 56.6958 7.02124 47.6353 7.02124 33.7752C7.02124 19.9152 17.6632 8.43268 32.0425 8.43268C46.4218 8.43268 57.0638 19.9201 57.0638 33.7752Z" fill="#747F88"/>
<path opacity="0.62" d="M56.3996 33.3749C56.3996 46.8049 46.1344 55.8851 32.0475 55.8851C17.9607 55.8851 7.69043 46.8049 7.69043 33.3749C7.69043 19.9449 17.9557 8.76883 32.0426 8.76883C46.1294 8.76883 56.3947 19.9449 56.3947 33.3749H56.3996Z" fill="#747F88"/>
<path opacity="0.69" d="M55.7305 32.9745C55.7305 45.9795 45.8419 55.0745 32.0425 55.0745C18.2432 55.0745 8.35461 45.9795 8.35461 32.9745C8.35461 19.9696 18.2432 9.10495 32.0425 9.10495C45.8419 9.10495 55.7305 19.9696 55.7305 32.9745Z" fill="#747F88"/>
<path opacity="0.77" d="M55.0612 32.5741C55.0612 45.154 45.5544 54.2639 32.0425 54.2639C18.5306 54.2639 9.02368 45.154 9.02368 32.5741C9.02368 19.9943 18.5306 9.44107 32.0425 9.44107C45.5544 9.44107 55.0612 19.9992 55.0612 32.5741Z" fill="#747F88"/>
<path opacity="0.85" d="M54.3971 32.1738C54.3971 44.3236 45.267 53.4532 32.0475 53.4532C18.8281 53.4532 9.69788 44.3236 9.69788 32.1738C9.69788 20.024 18.8231 9.77719 32.0426 9.77719C45.262 9.77719 54.3922 20.024 54.3922 32.1738H54.3971Z" fill="#747F88"/>
<path opacity="0.92" d="M53.7279 31.7734C53.7279 43.4981 44.9794 52.6426 32.0425 52.6426C19.1056 52.6426 10.3571 43.4981 10.3571 31.7734C10.3571 20.0487 19.1105 10.1084 32.0425 10.1084C44.9744 10.1084 53.7279 20.0437 53.7279 31.7684V31.7734Z" fill="#747F88"/>
<path d="M53.0588 31.373C53.0588 42.6726 44.687 51.8319 32.0425 51.8319C19.3981 51.8319 11.0262 42.6726 11.0262 31.373C11.0262 20.0734 19.3981 10.4445 32.0425 10.4445C44.687 10.4445 53.0588 20.0734 53.0588 31.3681V31.373Z" fill="#747F88"/>
<path d="M32.0425 55.722C45.3987 55.722 56.2261 44.9246 56.2261 31.6053C56.2261 18.286 45.3987 7.48859 32.0425 7.48859C18.6863 7.48859 7.85889 18.286 7.85889 31.6053C7.85889 44.9246 18.6863 55.722 32.0425 55.722Z" fill="url(#paint1_linear_7_1102)"/>
<g opacity="0.45">
<path opacity="0.1" d="M32.0425 48.2384C22.4415 48.2384 14.6595 40.4779 14.6595 30.9034C14.6595 21.3289 22.4415 13.5684 32.0425 13.5684C41.6436 13.5684 49.4256 21.3289 49.4256 30.9034C49.4256 40.4779 41.6436 48.2384 32.0425 48.2384ZM32.0425 5.32358C17.8764 5.32358 6.39673 16.7764 6.39673 30.8985C6.39673 45.0205 17.8813 56.4734 32.0425 56.4734C46.2038 56.4734 57.6884 45.0205 57.6884 30.8985C57.6884 16.7764 46.2087 5.32358 32.0425 5.32358Z" fill="#F7FBFA"/>
<path opacity="0.2" d="M32.0425 49.0688C21.9805 49.0688 13.8268 40.9376 13.8268 30.9034C13.8268 20.8692 21.9855 12.738 32.0425 12.738C42.0996 12.738 50.2583 20.8692 50.2583 30.9034C50.2583 40.9376 42.1046 49.0688 32.0425 49.0688ZM32.0425 5.32358C17.8764 5.32358 6.39673 16.7764 6.39673 30.8985C6.39673 45.0205 17.8813 56.4734 32.0425 56.4734C46.2038 56.4734 57.6884 45.0205 57.6884 30.8985C57.6884 16.7764 46.2087 5.32358 32.0425 5.32358Z" fill="#F7FBFA"/>
<path opacity="0.3" d="M32.0425 49.8943C21.5245 49.8943 12.9941 41.3924 12.9941 30.8985C12.9941 20.4046 21.5245 11.9076 32.0425 11.9076C42.5606 11.9076 51.091 20.4095 51.091 30.9034C51.091 41.3973 42.5656 49.8992 32.0425 49.8992V49.8943ZM32.0425 5.32358C17.8764 5.32358 6.39673 16.7764 6.39673 30.8985C6.39673 45.0205 17.8813 56.4734 32.0425 56.4734C46.2038 56.4734 57.6884 45.0205 57.6884 30.8985C57.6884 16.7764 46.2087 5.32358 32.0425 5.32358Z" fill="#F7FBFA"/>
<path opacity="0.4" d="M32.0425 50.7247C21.0635 50.7247 12.1663 41.8471 12.1663 30.9034C12.1663 19.9597 21.0635 11.0772 32.0425 11.0772C43.0216 11.0772 51.9188 19.9547 51.9188 30.8985C51.9188 41.8422 43.0166 50.7197 32.0425 50.7197V50.7247ZM32.0425 5.32358C17.8764 5.32358 6.39673 16.7764 6.39673 30.8985C6.39673 45.0205 17.8813 56.4734 32.0425 56.4734C46.2038 56.4734 57.6884 45.0205 57.6884 30.8985C57.6884 16.7764 46.2087 5.32358 32.0425 5.32358Z" fill="#F7FBFA"/>
<path opacity="0.5" d="M32.0425 51.5551C20.6025 51.5551 11.3336 42.3068 11.3336 30.9034C11.3336 19.5 20.6075 10.2517 32.0425 10.2517C43.4776 10.2517 52.7515 19.5 52.7515 30.9034C52.7515 42.3068 43.4776 51.5551 32.0425 51.5551ZM32.0425 5.32358C17.8764 5.32358 6.39673 16.7764 6.39673 30.8985C6.39673 45.0205 17.8813 56.4734 32.0425 56.4734C46.2038 56.4734 57.6884 45.0205 57.6884 30.8985C57.6884 16.7764 46.2087 5.32358 32.0425 5.32358Z" fill="#F7FBFA"/>
<path opacity="0.6" d="M32.0425 52.3855C20.1465 52.3855 10.5009 42.7665 10.5009 30.9034C10.5009 19.0403 20.1465 9.42129 32.0425 9.42129C43.9386 9.42129 53.5842 19.0403 53.5842 30.9034C53.5842 42.7665 43.9386 52.3855 32.0425 52.3855ZM32.0425 5.32358C17.8764 5.32358 6.39673 16.7764 6.39673 30.8985C6.39673 45.0205 17.8813 56.4734 32.0425 56.4734C46.2038 56.4734 57.6884 45.0205 57.6884 30.8985C57.6884 16.7764 46.2087 5.32358 32.0425 5.32358Z" fill="#F7FBFA"/>
<path opacity="0.7" d="M32.0425 53.211C19.6856 53.211 9.66813 43.2213 9.66813 30.8985C9.66813 18.5757 19.6856 8.59088 32.0425 8.59088C44.3995 8.59088 54.417 18.5806 54.417 30.9034C54.417 43.2262 44.3995 53.2159 32.0425 53.2159V53.211ZM32.0425 5.32358C17.8764 5.32358 6.39673 16.7764 6.39673 30.8985C6.39673 45.0205 17.8813 56.4734 32.0425 56.4734C46.2038 56.4734 57.6884 45.0205 57.6884 30.8985C57.6884 16.7764 46.2087 5.32358 32.0425 5.32358Z" fill="#F7FBFA"/>
<path opacity="0.8" d="M32.0425 54.0414C19.2246 54.0414 8.84037 43.681 8.84037 30.9034C8.84037 18.1259 19.2295 7.76046 32.0425 7.76046C44.8555 7.76046 55.2447 18.1209 55.2447 30.8985C55.2447 43.676 44.8555 54.0365 32.0425 54.0365V54.0414ZM32.0425 5.32358C17.8764 5.32358 6.39673 16.7764 6.39673 30.8985C6.39673 45.0205 17.8813 56.4734 32.0425 56.4734C46.2038 56.4734 57.6884 45.0205 57.6884 30.8985C57.6884 16.7764 46.2087 5.32358 32.0425 5.32358Z" fill="#F7FBFA"/>
<path opacity="0.9" d="M32.0425 54.8718C18.7686 54.8718 8.00765 44.1407 8.00765 30.9034C8.00765 17.6662 18.7686 6.93004 32.0425 6.93004C45.3165 6.93004 56.0774 17.6612 56.0774 30.8985C56.0774 44.1357 45.3165 54.8669 32.0425 54.8669V54.8718ZM32.0425 5.32358C17.8764 5.32358 6.39673 16.7764 6.39673 30.8985C6.39673 45.0205 17.8813 56.4734 32.0425 56.4734C46.2038 56.4734 57.6884 45.0205 57.6884 30.8985C57.6884 16.7764 46.2087 5.32358 32.0425 5.32358Z" fill="#F7FBFA"/>
<path d="M32.0425 55.7023C18.3076 55.7023 7.17493 44.6004 7.17493 30.9034C7.17493 17.2065 18.3076 6.10457 32.0425 6.10457C45.7775 6.10457 56.9102 17.2065 56.9102 30.9034C56.9102 44.6004 45.7775 55.7023 32.0425 55.7023ZM32.0425 5.32358C17.8764 5.32358 6.39673 16.7764 6.39673 30.8985C6.39673 45.0205 17.8813 56.4734 32.0425 56.4734C46.2038 56.4734 57.6884 45.0205 57.6884 30.8985C57.6884 16.7764 46.2087 5.32358 32.0425 5.32358Z" fill="#F7FBFA"/>
</g>
<path d="M32.1566 8.98138C45.3711 8.98138 56.1023 19.5742 56.2856 32.7076C56.2856 32.5939 56.2956 32.4753 56.2956 32.3616C56.2956 19.065 45.49 8.28937 32.1566 8.28937C18.8231 8.28937 8.01758 19.065 8.01758 32.3616C8.01758 32.4802 8.02253 32.5939 8.02749 32.7076C8.21584 19.5742 18.9421 8.98138 32.1566 8.98138Z" fill="white"/>
<g filter="url(#filter0_d_7_1102)">
<path d="M38.3452 25.2058C38.3452 26.1264 38.1538 26.9239 37.771 27.5984C37.3882 28.2729 36.8687 28.8243 36.2124 29.2527C35.5653 29.6811 34.8361 29.9955 34.0249 30.196V30.2781C35.6291 30.4786 36.8459 30.9708 37.6753 31.7546C38.5138 32.5385 38.9331 33.5867 38.9331 34.8992C38.9331 36.0658 38.646 37.1095 38.0718 38.03C37.5067 38.9506 36.6317 39.6752 35.4468 40.2039C34.2619 40.7325 32.7352 40.9968 30.8667 40.9968C29.7638 40.9968 28.7339 40.9057 27.7769 40.7234C26.829 40.5502 25.9357 40.2813 25.0972 39.9167V36.321C25.954 36.7585 26.8517 37.0912 27.7905 37.3191C28.7293 37.5378 29.6043 37.6472 30.4155 37.6472C31.9286 37.6472 32.9859 37.3875 33.5874 36.8679C34.1981 36.3393 34.5034 35.601 34.5034 34.6531C34.5034 34.0971 34.3622 33.6277 34.0796 33.2449C33.7971 32.8621 33.3049 32.5704 32.603 32.3699C31.9103 32.1694 30.9396 32.0691 29.6909 32.0691H28.1734V28.8289H29.7183C30.9487 28.8289 31.883 28.7149 32.521 28.4871C33.1681 28.2501 33.6056 27.9311 33.8335 27.53C34.0705 27.1199 34.189 26.655 34.189 26.1355C34.189 25.4246 33.9702 24.8686 33.5327 24.4675C33.0952 24.0665 32.3661 23.866 31.3452 23.866C30.7072 23.866 30.1239 23.948 29.5952 24.1121C29.0757 24.267 28.6063 24.4584 28.187 24.6863C27.7678 24.905 27.3986 25.1192 27.0796 25.3289L25.1245 22.4167C25.9084 21.8516 26.8244 21.3822 27.8726 21.0085C28.9299 20.6348 30.1877 20.448 31.646 20.448C33.7059 20.448 35.3374 20.8627 36.5405 21.6921C37.7437 22.5216 38.3452 23.6928 38.3452 25.2058Z" fill="#343333"/>
</g>
<defs>
<filter id="filter0_d_7_1102" x="25.0972" y="20.448" width="16.8359" height="22.5488" filterUnits="userSpaceOnUse" color-interpolation-filters="sRGB">
<feFlood flood-opacity="0" result="BackgroundImageFix"/>
<feColorMatrix in="SourceAlpha" type="matrix" values="0 0 0 0 0 0 0 0 0 0 0 0 0 0 0 0 0 0 127 0" result="hardAlpha"/>
<feOffset dx="2" dy="1"/>
<feGaussianBlur stdDeviation="0.5"/>
<feComposite in2="hardAlpha" operator="out"/>
<feColorMatrix type="matrix" values="0 0 0 0 0.968627 0 0 0 0 0.984314 0 0 0 0 0.980392 0 0 0 1 0"/>
<feBlend mode="normal" in2="BackgroundImageFix" result="effect1_dropShadow_7_1102"/>
<feBlend mode="normal" in="SourceGraphic" in2="effect1_dropShadow_7_1102" result="shape"/>
</filter>
<radialGradient id="paint0_radial_7_1102" cx="0" cy="0" r="1" gradientUnits="userSpaceOnUse" gradientTransform="translate(32.0426 31.1901) scale(31.2766 31.1901)">
<stop offset="0.3" stop-color="#E6E7E8"/>
<stop offset="0.5" stop-color="#DFE0E2"/>
<stop offset="0.78" stop-color="#CCD0D2"/>
<stop offset="1" stop-color="#BABFC3"/>
</radialGradient>
<linearGradient id="paint1_linear_7_1102" x1="7.85889" y1="31.6053" x2="56.2261" y2="31.6053" gradientUnits="userSpaceOnUse">
<stop stop-color="#CFD1D6"/>
<stop offset="0.72" stop-color="#C8CBCF"/>
<stop offset="1" stop-color="#C4C8CC"/>
</linearGradient>
</defs>
</svg>
