<svg width="64" height="63" viewBox="0 0 64 63" fill="none" xmlns="http://www.w3.org/2000/svg">
<path d="M8.15143 0.404266H55.9387C60.0131 0.404266 63.3241 3.70617 63.3241 7.76928V55.4244C63.3241 59.4875 60.0131 62.7894 55.9387 62.7894H8.15143C4.07705 62.7845 0.765991 59.4875 0.765991 55.4244V7.76928C0.765991 3.70617 4.07705 0.404266 8.15143 0.404266Z" fill="url(#paint0_radial_7_1100)"/>
<path d="M55.9883 61.5734H8.09691C4.06713 61.5734 0.765991 58.2814 0.765991 54.2578V55.6468C0.765991 59.6704 4.06713 62.9574 8.09691 62.9574H55.9883C60.023 62.9574 63.3192 59.6654 63.3192 55.6468V54.2578C63.3192 58.2814 60.018 61.5685 55.9883 61.5685V61.5734Z" fill="#747F88"/>
<path d="M55.8842 0.404266H8.201C4.11174 0.404266 0.765991 3.74077 0.765991 7.81871V8.69361C0.765991 4.61567 4.11174 1.27917 8.201 1.27917H55.8842C59.9734 1.27917 63.3192 4.61567 63.3192 8.69361V7.81871C63.3192 3.74077 59.9734 0.404266 55.8842 0.404266Z" fill="white"/>
<path opacity="0.08" d="M61.0688 36.5867C61.0688 53.0023 48.1517 61.9738 32.0425 61.9738C15.9333 61.9738 3.01624 53.0023 3.01624 36.5867C3.01624 20.1712 15.9333 6.82516 32.0425 6.82516C48.1517 6.82516 61.0688 20.1712 61.0688 36.5867Z" fill="#747F88"/>
<path opacity="0.15" d="M60.4046 36.1864C60.4046 52.1768 47.8692 61.1632 32.0475 61.1632C16.2258 61.1632 3.68542 52.1768 3.68542 36.1864C3.68542 20.1959 16.2208 7.16129 32.0425 7.16129C47.8642 7.16129 60.3997 20.1959 60.3997 36.1864H60.4046Z" fill="#747F88"/>
<path opacity="0.23" d="M59.7355 35.786C59.7355 51.3514 47.5767 60.3525 32.0425 60.3525C16.5083 60.3525 4.34961 51.3465 4.34961 35.786C4.34961 20.2256 16.5083 7.49744 32.0425 7.49744C47.5767 7.49744 59.7355 20.2206 59.7355 35.786Z" fill="#747F88"/>
<path opacity="0.31" d="M59.0663 35.3856C59.0663 50.521 47.2843 59.5419 32.0426 59.5419C16.8008 59.5419 5.0188 50.521 5.0188 35.3856C5.0188 20.2502 16.8008 7.83353 32.0426 7.83353C47.2843 7.83353 59.0663 20.2502 59.0663 35.3856Z" fill="#747F88"/>
<path opacity="0.38" d="M58.4022 34.9852C58.4022 49.6955 47.0018 58.7312 32.0476 58.7312C17.0933 58.7312 5.68799 49.6955 5.68799 34.9852C5.68799 20.275 17.0883 8.16968 32.0426 8.16968C46.9969 8.16968 58.3972 20.275 58.3972 34.9852H58.4022Z" fill="#747F88"/>
<path opacity="0.46" d="M57.733 34.5799C57.733 48.8651 46.7094 57.9107 32.0426 57.9107C17.3758 57.9107 6.35217 48.8651 6.35217 34.5799C6.35217 20.2948 17.3758 8.50085 32.0426 8.50085C46.7094 8.50085 57.733 20.2948 57.733 34.5799Z" fill="#747F88"/>
<path opacity="0.54" d="M57.0638 34.1795C57.0638 48.0346 46.4218 57.1 32.0425 57.1C17.6632 57.1 7.02124 48.0396 7.02124 34.1795C7.02124 20.3194 17.6632 8.83694 32.0425 8.83694C46.4218 8.83694 57.0638 20.3244 57.0638 34.1795Z" fill="#747F88"/>
<path opacity="0.62" d="M56.3996 33.7792C56.3996 47.2092 46.1344 56.2894 32.0475 56.2894C17.9607 56.2894 7.69043 47.2092 7.69043 33.7792C7.69043 20.3491 17.9557 9.1731 32.0426 9.1731C46.1294 9.1731 56.3947 20.3491 56.3947 33.7792H56.3996Z" fill="#747F88"/>
<path opacity="0.69" d="M55.7305 33.3788C55.7305 46.3837 45.8419 55.4787 32.0425 55.4787C18.2432 55.4787 8.35461 46.3837 8.35461 33.3788C8.35461 20.3738 18.2432 9.50919 32.0425 9.50919C45.8419 9.50919 55.7305 20.3738 55.7305 33.3788Z" fill="#747F88"/>
<path opacity="0.77" d="M55.0612 32.9784C55.0612 45.5582 45.5544 54.6681 32.0425 54.6681C18.5306 54.6681 9.02368 45.5582 9.02368 32.9784C9.02368 20.3985 18.5306 9.84531 32.0425 9.84531C45.5544 9.84531 55.0612 20.4035 55.0612 32.9784Z" fill="#747F88"/>
<path opacity="0.85" d="M54.3971 32.578C54.3971 44.7278 45.267 53.8575 32.0475 53.8575C18.8281 53.8575 9.69788 44.7278 9.69788 32.578C9.69788 20.4282 18.8231 10.1815 32.0426 10.1815C45.262 10.1815 54.3922 20.4282 54.3922 32.578H54.3971Z" fill="#747F88"/>
<path opacity="0.92" d="M53.7279 32.1776C53.7279 43.9023 44.9794 53.0468 32.0425 53.0468C19.1056 53.0468 10.3571 43.9023 10.3571 32.1776C10.3571 20.4529 19.1105 10.5126 32.0425 10.5126C44.9744 10.5126 53.7279 20.448 53.7279 32.1727V32.1776Z" fill="#747F88"/>
<path d="M53.0588 31.7772C53.0588 43.0768 44.687 52.2362 32.0425 52.2362C19.3981 52.2362 11.0262 43.0768 11.0262 31.7772C11.0262 20.4776 19.3981 10.8487 32.0425 10.8487C44.687 10.8487 53.0588 20.4776 53.0588 31.7723V31.7772Z" fill="#747F88"/>
<path d="M32.0425 56.1263C45.3987 56.1263 56.2261 45.3288 56.2261 32.0095C56.2261 18.6902 45.3987 7.89282 32.0425 7.89282C18.6863 7.89282 7.85889 18.6902 7.85889 32.0095C7.85889 45.3288 18.6863 56.1263 32.0425 56.1263Z" fill="url(#paint1_linear_7_1100)"/>
<g opacity="0.45">
<path opacity="0.1" d="M32.0425 48.6426C22.4415 48.6426 14.6595 40.8822 14.6595 31.3077C14.6595 21.7332 22.4415 13.9727 32.0425 13.9727C41.6436 13.9727 49.4256 21.7332 49.4256 31.3077C49.4256 40.8822 41.6436 48.6426 32.0425 48.6426ZM32.0425 5.72784C17.8764 5.72784 6.39673 17.1807 6.39673 31.3027C6.39673 45.4248 17.8813 56.8776 32.0425 56.8776C46.2038 56.8776 57.6884 45.4248 57.6884 31.3027C57.6884 17.1807 46.2087 5.72784 32.0425 5.72784Z" fill="#F7FBFA"/>
<path opacity="0.2" d="M32.0425 49.4731C21.9805 49.4731 13.8268 41.3419 13.8268 31.3077C13.8268 21.2735 21.9855 13.1423 32.0425 13.1423C42.0996 13.1423 50.2583 21.2735 50.2583 31.3077C50.2583 41.3419 42.1046 49.4731 32.0425 49.4731ZM32.0425 5.72784C17.8764 5.72784 6.39673 17.1807 6.39673 31.3027C6.39673 45.4248 17.8813 56.8776 32.0425 56.8776C46.2038 56.8776 57.6884 45.4248 57.6884 31.3027C57.6884 17.1807 46.2087 5.72784 32.0425 5.72784Z" fill="#F7FBFA"/>
<path opacity="0.3" d="M32.0425 50.2985C21.5245 50.2985 12.9941 41.7966 12.9941 31.3027C12.9941 20.8088 21.5245 12.3119 32.0425 12.3119C42.5606 12.3119 51.091 20.8138 51.091 31.3077C51.091 41.8016 42.5656 50.3035 32.0425 50.3035V50.2985ZM32.0425 5.72784C17.8764 5.72784 6.39673 17.1807 6.39673 31.3027C6.39673 45.4248 17.8813 56.8776 32.0425 56.8776C46.2038 56.8776 57.6884 45.4248 57.6884 31.3027C57.6884 17.1807 46.2087 5.72784 32.0425 5.72784Z" fill="#F7FBFA"/>
<path opacity="0.4" d="M32.0425 51.129C21.0635 51.129 12.1663 42.2514 12.1663 31.3077C12.1663 20.364 21.0635 11.4815 32.0425 11.4815C43.0216 11.4815 51.9188 20.359 51.9188 31.3027C51.9188 42.2464 43.0166 51.124 32.0425 51.124V51.129ZM32.0425 5.72784C17.8764 5.72784 6.39673 17.1807 6.39673 31.3027C6.39673 45.4248 17.8813 56.8776 32.0425 56.8776C46.2038 56.8776 57.6884 45.4248 57.6884 31.3027C57.6884 17.1807 46.2087 5.72784 32.0425 5.72784Z" fill="#F7FBFA"/>
<path opacity="0.5" d="M32.0425 51.9594C20.6025 51.9594 11.3336 42.7111 11.3336 31.3077C11.3336 19.9043 20.6075 10.656 32.0425 10.656C43.4776 10.656 52.7515 19.9043 52.7515 31.3077C52.7515 42.7111 43.4776 51.9594 32.0425 51.9594ZM32.0425 5.72784C17.8764 5.72784 6.39673 17.1807 6.39673 31.3027C6.39673 45.4248 17.8813 56.8776 32.0425 56.8776C46.2038 56.8776 57.6884 45.4248 57.6884 31.3027C57.6884 17.1807 46.2087 5.72784 32.0425 5.72784Z" fill="#F7FBFA"/>
<path opacity="0.6" d="M32.0425 52.7898C20.1465 52.7898 10.5009 43.1708 10.5009 31.3077C10.5009 19.4446 20.1465 9.82556 32.0425 9.82556C43.9386 9.82556 53.5842 19.4446 53.5842 31.3077C53.5842 43.1708 43.9386 52.7898 32.0425 52.7898ZM32.0425 5.72784C17.8764 5.72784 6.39673 17.1807 6.39673 31.3027C6.39673 45.4248 17.8813 56.8776 32.0425 56.8776C46.2038 56.8776 57.6884 45.4248 57.6884 31.3027C57.6884 17.1807 46.2087 5.72784 32.0425 5.72784Z" fill="#F7FBFA"/>
<path opacity="0.7" d="M32.0425 53.6153C19.6856 53.6153 9.66813 43.6255 9.66813 31.3027C9.66813 18.9799 19.6856 8.99514 32.0425 8.99514C44.3995 8.99514 54.417 18.9849 54.417 31.3077C54.417 43.6305 44.3995 53.6202 32.0425 53.6202V53.6153ZM32.0425 5.72784C17.8764 5.72784 6.39673 17.1807 6.39673 31.3027C6.39673 45.4248 17.8813 56.8776 32.0425 56.8776C46.2038 56.8776 57.6884 45.4248 57.6884 31.3027C57.6884 17.1807 46.2087 5.72784 32.0425 5.72784Z" fill="#F7FBFA"/>
<path opacity="0.8" d="M32.0425 54.4457C19.2246 54.4457 8.84037 44.0852 8.84037 31.3077C8.84037 18.5301 19.2295 8.16472 32.0425 8.16472C44.8555 8.16472 55.2447 18.5252 55.2447 31.3027C55.2447 44.0803 44.8555 54.4407 32.0425 54.4407V54.4457ZM32.0425 5.72784C17.8764 5.72784 6.39673 17.1807 6.39673 31.3027C6.39673 45.4248 17.8813 56.8776 32.0425 56.8776C46.2038 56.8776 57.6884 45.4248 57.6884 31.3027C57.6884 17.1807 46.2087 5.72784 32.0425 5.72784Z" fill="#F7FBFA"/>
<path opacity="0.9" d="M32.0425 55.2761C18.7686 55.2761 8.00765 44.5449 8.00765 31.3077C8.00765 18.0704 18.7686 7.33431 32.0425 7.33431C45.3165 7.33431 56.0774 18.0655 56.0774 31.3027C56.0774 44.54 45.3165 55.2712 32.0425 55.2712V55.2761ZM32.0425 5.72784C17.8764 5.72784 6.39673 17.1807 6.39673 31.3027C6.39673 45.4248 17.8813 56.8776 32.0425 56.8776C46.2038 56.8776 57.6884 45.4248 57.6884 31.3027C57.6884 17.1807 46.2087 5.72784 32.0425 5.72784Z" fill="#F7FBFA"/>
<path d="M32.0425 56.1065C18.3076 56.1065 7.17493 45.0046 7.17493 31.3077C7.17493 17.6107 18.3076 6.50883 32.0425 6.50883C45.7775 6.50883 56.9102 17.6107 56.9102 31.3077C56.9102 45.0046 45.7775 56.1065 32.0425 56.1065ZM32.0425 5.72784C17.8764 5.72784 6.39673 17.1807 6.39673 31.3027C6.39673 45.4248 17.8813 56.8776 32.0425 56.8776C46.2038 56.8776 57.6884 45.4248 57.6884 31.3027C57.6884 17.1807 46.2087 5.72784 32.0425 5.72784Z" fill="#F7FBFA"/>
</g>
<path d="M32.1566 9.38562C45.3711 9.38562 56.1023 19.9784 56.2856 33.1118C56.2856 32.9981 56.2956 32.8795 56.2956 32.7658C56.2956 19.4693 45.49 8.6936 32.1566 8.6936C18.8231 8.6936 8.01758 19.4693 8.01758 32.7658C8.01758 32.8845 8.02253 32.9981 8.02749 33.1118C8.21584 19.9784 18.9421 9.38562 32.1566 9.38562Z" fill="white"/>
<g filter="url(#filter0_d_7_1100)">
<path d="M39.0425 29.6706C39.0425 30.8191 38.9559 31.9584 38.7827 33.0886C38.6187 34.2188 38.327 35.2852 37.9077 36.2878C37.4885 37.2813 36.9006 38.1654 36.1441 38.9402C35.3875 39.7058 34.426 40.3073 33.2593 40.7448C32.0926 41.1823 30.6799 41.4011 29.021 41.4011C28.6291 41.4011 28.1688 41.3829 27.6402 41.3464C27.1115 41.3191 26.674 41.2735 26.3277 41.2097V37.8191C26.6922 37.9102 27.0796 37.9831 27.4898 38.0378C27.8999 38.0834 28.3146 38.1062 28.7339 38.1062C30.4019 38.1062 31.687 37.8418 32.5894 37.3132C33.5008 36.7846 34.1388 36.0508 34.5034 35.112C34.8771 34.1732 35.0913 33.0886 35.146 31.8581H34.9819C34.7176 32.2956 34.4032 32.6921 34.0386 33.0476C33.6831 33.3939 33.2274 33.6719 32.6714 33.8816C32.1154 34.0821 31.409 34.1823 30.5523 34.1823C29.4129 34.1823 28.4194 33.9362 27.5718 33.4441C26.7332 32.9428 26.0816 32.2227 25.6167 31.2839C25.161 30.336 24.9331 29.1921 24.9331 27.8523C24.9331 26.403 25.2066 25.1635 25.7534 24.1335C26.3094 23.0945 27.0978 22.2969 28.1187 21.7409C29.1395 21.1849 30.3426 20.907 31.728 20.907C32.7489 20.907 33.7013 21.0847 34.5855 21.4402C35.4696 21.7865 36.2443 22.3197 36.9097 23.0398C37.5842 23.7598 38.1082 24.6713 38.4819 25.7741C38.8556 26.877 39.0425 28.1758 39.0425 29.6706ZM31.8101 24.2976C30.9898 24.2976 30.3198 24.5801 29.8003 25.1452C29.2808 25.7103 29.021 26.5945 29.021 27.7976C29.021 28.7637 29.2443 29.5293 29.6909 30.0945C30.1375 30.6596 30.8166 30.9421 31.728 30.9421C32.3569 30.9421 32.9038 30.8054 33.3687 30.532C33.8335 30.2494 34.1935 29.8985 34.4487 29.4792C34.7131 29.0508 34.8452 28.6133 34.8452 28.1667C34.8452 27.7019 34.7814 27.2416 34.6538 26.7859C34.5262 26.3301 34.3348 25.9154 34.0796 25.5417C33.8244 25.168 33.5054 24.8672 33.1226 24.6394C32.7489 24.4115 32.3114 24.2976 31.8101 24.2976Z" fill="#343333"/>
</g>
<defs>
<filter id="filter0_d_7_1100" x="24.9331" y="20.907" width="17.1094" height="22.4942" filterUnits="userSpaceOnUse" color-interpolation-filters="sRGB">
<feFlood flood-opacity="0" result="BackgroundImageFix"/>
<feColorMatrix in="SourceAlpha" type="matrix" values="0 0 0 0 0 0 0 0 0 0 0 0 0 0 0 0 0 0 127 0" result="hardAlpha"/>
<feOffset dx="2" dy="1"/>
<feGaussianBlur stdDeviation="0.5"/>
<feComposite in2="hardAlpha" operator="out"/>
<feColorMatrix type="matrix" values="0 0 0 0 0.968627 0 0 0 0 0.984314 0 0 0 0 0.980392 0 0 0 1 0"/>
<feBlend mode="normal" in2="BackgroundImageFix" result="effect1_dropShadow_7_1100"/>
<feBlend mode="normal" in="SourceGraphic" in2="effect1_dropShadow_7_1100" result="shape"/>
</filter>
<radialGradient id="paint0_radial_7_1100" cx="0" cy="0" r="1" gradientUnits="userSpaceOnUse" gradientTransform="translate(32.0426 31.5944) scale(31.2766 31.1901)">
<stop offset="0.3" stop-color="#E6E7E8"/>
<stop offset="0.5" stop-color="#DFE0E2"/>
<stop offset="0.78" stop-color="#CCD0D2"/>
<stop offset="1" stop-color="#BABFC3"/>
</radialGradient>
<linearGradient id="paint1_linear_7_1100" x1="7.85889" y1="32.0095" x2="56.2261" y2="32.0095" gradientUnits="userSpaceOnUse">
<stop stop-color="#CFD1D6"/>
<stop offset="0.72" stop-color="#C8CBCF"/>
<stop offset="1" stop-color="#C4C8CC"/>
</linearGradient>
</defs>
</svg>
