<svg width="64" height="63" viewBox="0 0 64 63" fill="none" xmlns="http://www.w3.org/2000/svg">
<g clip-path="url(#clip0_7_1103)">
<path d="M8.15143 0.106384H55.9387C60.0131 0.106384 63.3241 3.40828 63.3241 7.4714V55.1265C63.3241 59.1896 60.0131 62.4915 55.9387 62.4915H8.15143C4.07705 62.4866 0.765991 59.1896 0.765991 55.1265V7.4714C0.765991 3.40828 4.07705 0.106384 8.15143 0.106384Z" fill="url(#paint0_radial_7_1103)"/>
<path d="M55.9883 61.2755H8.09691C4.06713 61.2755 0.765991 57.9835 0.765991 53.96V55.3489C0.765991 59.3725 4.06713 62.6596 8.09691 62.6596H55.9883C60.023 62.6596 63.3192 59.3676 63.3192 55.3489V53.96C63.3192 57.9835 60.018 61.2706 55.9883 61.2706V61.2755Z" fill="#747F88"/>
<path d="M55.8842 0.106384H8.201C4.11174 0.106384 0.765991 3.44288 0.765991 7.52083V8.39573C0.765991 4.31779 4.11174 0.981289 8.201 0.981289H55.8842C59.9734 0.981289 63.3192 4.31779 63.3192 8.39573V7.52083C63.3192 3.44288 59.9734 0.106384 55.8842 0.106384Z" fill="white"/>
<path opacity="0.08" d="M61.0689 36.2889C61.0689 52.7044 48.1518 61.6759 32.0426 61.6759C15.9334 61.6759 3.01636 52.7044 3.01636 36.2889C3.01636 19.8733 15.9334 6.52728 32.0426 6.52728C48.1518 6.52728 61.0689 19.8733 61.0689 36.2889Z" fill="#747F88"/>
<path opacity="0.15" d="M60.4046 35.8885C60.4046 51.879 47.8692 60.8653 32.0475 60.8653C16.2258 60.8653 3.68542 51.879 3.68542 35.8885C3.68542 19.898 16.2208 6.8634 32.0425 6.8634C47.8642 6.8634 60.3997 19.898 60.3997 35.8885H60.4046Z" fill="#747F88"/>
<path opacity="0.23" d="M59.7355 35.4881C59.7355 51.0535 47.5767 60.0546 32.0425 60.0546C16.5083 60.0546 4.34961 51.0485 4.34961 35.4881C4.34961 19.9277 16.5083 7.19952 32.0425 7.19952C47.5767 7.19952 59.7355 19.9227 59.7355 35.4881Z" fill="#747F88"/>
<path opacity="0.31" d="M59.0663 35.0877C59.0663 50.2231 47.2843 59.244 32.0426 59.244C16.8008 59.244 5.0188 50.2231 5.0188 35.0877C5.0188 19.9524 16.8008 7.53564 32.0426 7.53564C47.2843 7.53564 59.0663 19.9524 59.0663 35.0877Z" fill="#747F88"/>
<path opacity="0.38" d="M58.4022 34.6873C58.4022 49.3976 47.0018 58.4333 32.0476 58.4333C17.0933 58.4333 5.68799 49.3976 5.68799 34.6873C5.68799 19.9771 17.0883 7.87177 32.0426 7.87177C46.9969 7.87177 58.3972 19.9771 58.3972 34.6873H58.4022Z" fill="#747F88"/>
<path opacity="0.46" d="M57.733 34.282C57.733 48.5672 46.7094 57.6128 32.0426 57.6128C17.3758 57.6128 6.35217 48.5672 6.35217 34.282C6.35217 19.9969 17.3758 8.20294 32.0426 8.20294C46.7094 8.20294 57.733 19.9969 57.733 34.282Z" fill="#747F88"/>
<path opacity="0.54" d="M57.0639 33.8816C57.0639 47.7368 46.4219 56.8021 32.0426 56.8021C17.6633 56.8021 7.02136 47.7417 7.02136 33.8816C7.02136 20.0216 17.6633 8.53906 32.0426 8.53906C46.4219 8.53906 57.0639 20.0265 57.0639 33.8816Z" fill="#747F88"/>
<path opacity="0.62" d="M56.3996 33.4813C56.3996 46.9113 46.1344 55.9915 32.0475 55.9915C17.9607 55.9915 7.69043 46.9113 7.69043 33.4813C7.69043 20.0512 17.9557 8.87518 32.0426 8.87518C46.1294 8.87518 56.3947 20.0512 56.3947 33.4813H56.3996Z" fill="#747F88"/>
<path opacity="0.69" d="M55.7305 33.0809C55.7305 46.0858 45.8419 55.1809 32.0425 55.1809C18.2432 55.1809 8.35461 46.0858 8.35461 33.0809C8.35461 20.0759 18.2432 9.2113 32.0425 9.2113C45.8419 9.2113 55.7305 20.0759 55.7305 33.0809Z" fill="#747F88"/>
<path opacity="0.77" d="M55.0614 32.6805C55.0614 45.2603 45.5545 54.3702 32.0426 54.3702C18.5307 54.3702 9.0238 45.2603 9.0238 32.6805C9.0238 20.1007 18.5307 9.54742 32.0426 9.54742C45.5545 9.54742 55.0614 20.1056 55.0614 32.6805Z" fill="#747F88"/>
<path opacity="0.85" d="M54.3971 32.2801C54.3971 44.4299 45.267 53.5596 32.0475 53.5596C18.8281 53.5596 9.69788 44.4299 9.69788 32.2801C9.69788 20.1303 18.8231 9.88354 32.0426 9.88354C45.262 9.88354 54.3922 20.1303 54.3922 32.2801H54.3971Z" fill="#747F88"/>
<path opacity="0.92" d="M53.7281 31.8797C53.7281 43.6044 44.9795 52.7489 32.0426 52.7489C19.1057 52.7489 10.3572 43.6044 10.3572 31.8797C10.3572 20.155 19.1107 10.2147 32.0426 10.2147C44.9746 10.2147 53.7281 20.1501 53.7281 31.8748V31.8797Z" fill="#747F88"/>
<path d="M53.0588 31.4793C53.0588 42.779 44.687 51.9383 32.0425 51.9383C19.3981 51.9383 11.0262 42.779 11.0262 31.4793C11.0262 20.1797 19.3981 10.5508 32.0425 10.5508C44.687 10.5508 53.0588 20.1797 53.0588 31.4744V31.4793Z" fill="#747F88"/>
<path d="M32.0426 55.8284C45.3988 55.8284 56.2262 45.031 56.2262 31.7117C56.2262 18.3924 45.3988 7.59497 32.0426 7.59497C18.6864 7.59497 7.85901 18.3924 7.85901 31.7117C7.85901 45.031 18.6864 55.8284 32.0426 55.8284Z" fill="url(#paint1_linear_7_1103)"/>
<g opacity="0.45">
<path opacity="0.1" d="M32.0425 48.3447C22.4415 48.3447 14.6595 40.5843 14.6595 31.0098C14.6595 21.4352 22.4415 13.6748 32.0425 13.6748C41.6436 13.6748 49.4256 21.4352 49.4256 31.0098C49.4256 40.5843 41.6436 48.3447 32.0425 48.3447ZM32.0425 5.42993C17.8764 5.42993 6.39673 16.8828 6.39673 31.0048C6.39673 45.1269 17.8813 56.5797 32.0425 56.5797C46.2038 56.5797 57.6884 45.1269 57.6884 31.0048C57.6884 16.8828 46.2087 5.42993 32.0425 5.42993Z" fill="#F7FBFA"/>
<path opacity="0.2" d="M32.0425 49.1752C21.9805 49.1752 13.8268 41.044 13.8268 31.0098C13.8268 20.9755 21.9855 12.8444 32.0425 12.8444C42.0996 12.8444 50.2583 20.9755 50.2583 31.0098C50.2583 41.044 42.1046 49.1752 32.0425 49.1752ZM32.0425 5.42993C17.8764 5.42993 6.39673 16.8828 6.39673 31.0048C6.39673 45.1269 17.8813 56.5797 32.0425 56.5797C46.2038 56.5797 57.6884 45.1269 57.6884 31.0048C57.6884 16.8828 46.2087 5.42993 32.0425 5.42993Z" fill="#F7FBFA"/>
<path opacity="0.3" d="M32.0425 50.0006C21.5245 50.0006 12.9941 41.4987 12.9941 31.0048C12.9941 20.5109 21.5245 12.014 32.0425 12.014C42.5606 12.014 51.091 20.5159 51.091 31.0098C51.091 41.5037 42.5656 50.0056 32.0425 50.0056V50.0006ZM32.0425 5.42993C17.8764 5.42993 6.39673 16.8828 6.39673 31.0048C6.39673 45.1269 17.8813 56.5797 32.0425 56.5797C46.2038 56.5797 57.6884 45.1269 57.6884 31.0048C57.6884 16.8828 46.2087 5.42993 32.0425 5.42993Z" fill="#F7FBFA"/>
<path opacity="0.4" d="M32.0425 50.831C21.0635 50.831 12.1663 41.9535 12.1663 31.0098C12.1663 20.066 21.0635 11.1835 32.0425 11.1835C43.0216 11.1835 51.9188 20.0611 51.9188 31.0048C51.9188 41.9485 43.0166 50.8261 32.0425 50.8261V50.831ZM32.0425 5.42993C17.8764 5.42993 6.39673 16.8828 6.39673 31.0048C6.39673 45.1269 17.8813 56.5797 32.0425 56.5797C46.2038 56.5797 57.6884 45.1269 57.6884 31.0048C57.6884 16.8828 46.2087 5.42993 32.0425 5.42993Z" fill="#F7FBFA"/>
<path opacity="0.5" d="M32.0425 51.6615C20.6025 51.6615 11.3336 42.4132 11.3336 31.0098C11.3336 19.6063 20.6075 10.3581 32.0425 10.3581C43.4776 10.3581 52.7515 19.6063 52.7515 31.0098C52.7515 42.4132 43.4776 51.6615 32.0425 51.6615ZM32.0425 5.42993C17.8764 5.42993 6.39673 16.8828 6.39673 31.0048C6.39673 45.1269 17.8813 56.5797 32.0425 56.5797C46.2038 56.5797 57.6884 45.1269 57.6884 31.0048C57.6884 16.8828 46.2087 5.42993 32.0425 5.42993Z" fill="#F7FBFA"/>
<path opacity="0.6" d="M32.0425 52.4919C20.1465 52.4919 10.5009 42.8729 10.5009 31.0098C10.5009 19.1467 20.1465 9.52765 32.0425 9.52765C43.9386 9.52765 53.5842 19.1467 53.5842 31.0098C53.5842 42.8729 43.9386 52.4919 32.0425 52.4919ZM32.0425 5.42993C17.8764 5.42993 6.39673 16.8828 6.39673 31.0048C6.39673 45.1269 17.8813 56.5797 32.0425 56.5797C46.2038 56.5797 57.6884 45.1269 57.6884 31.0048C57.6884 16.8828 46.2087 5.42993 32.0425 5.42993Z" fill="#F7FBFA"/>
<path opacity="0.7" d="M32.0425 53.3174C19.6856 53.3174 9.66813 43.3276 9.66813 31.0048C9.66813 18.682 19.6856 8.69723 32.0425 8.69723C44.3995 8.69723 54.417 18.687 54.417 31.0098C54.417 43.3326 44.3995 53.3223 32.0425 53.3223V53.3174ZM32.0425 5.42993C17.8764 5.42993 6.39673 16.8828 6.39673 31.0048C6.39673 45.1269 17.8813 56.5797 32.0425 56.5797C46.2038 56.5797 57.6884 45.1269 57.6884 31.0048C57.6884 16.8828 46.2087 5.42993 32.0425 5.42993Z" fill="#F7FBFA"/>
<path opacity="0.8" d="M32.0425 54.1478C19.2246 54.1478 8.84037 43.7873 8.84037 31.0098C8.84037 18.2322 19.2295 7.86681 32.0425 7.86681C44.8555 7.86681 55.2447 18.2273 55.2447 31.0048C55.2447 43.7824 44.8555 54.1428 32.0425 54.1428V54.1478ZM32.0425 5.42993C17.8764 5.42993 6.39673 16.8828 6.39673 31.0048C6.39673 45.1269 17.8813 56.5797 32.0425 56.5797C46.2038 56.5797 57.6884 45.1269 57.6884 31.0048C57.6884 16.8828 46.2087 5.42993 32.0425 5.42993Z" fill="#F7FBFA"/>
<path opacity="0.9" d="M32.0425 54.9782C18.7686 54.9782 8.00765 44.247 8.00765 31.0098C8.00765 17.7725 18.7686 7.03639 32.0425 7.03639C45.3165 7.03639 56.0774 17.7676 56.0774 31.0048C56.0774 44.2421 45.3165 54.9732 32.0425 54.9732V54.9782ZM32.0425 5.42993C17.8764 5.42993 6.39673 16.8828 6.39673 31.0048C6.39673 45.1269 17.8813 56.5797 32.0425 56.5797C46.2038 56.5797 57.6884 45.1269 57.6884 31.0048C57.6884 16.8828 46.2087 5.42993 32.0425 5.42993Z" fill="#F7FBFA"/>
<path d="M32.0425 55.8086C18.3076 55.8086 7.17493 44.7067 7.17493 31.0098C7.17493 17.3128 18.3076 6.21092 32.0425 6.21092C45.7775 6.21092 56.9102 17.3128 56.9102 31.0098C56.9102 44.7067 45.7775 55.8086 32.0425 55.8086ZM32.0425 5.42993C17.8764 5.42993 6.39673 16.8828 6.39673 31.0048C6.39673 45.1269 17.8813 56.5797 32.0425 56.5797C46.2038 56.5797 57.6884 45.1269 57.6884 31.0048C57.6884 16.8828 46.2087 5.42993 32.0425 5.42993Z" fill="#F7FBFA"/>
</g>
<g filter="url(#filter0_d_7_1103)">
<path d="M43.0762 38.743H25.3115L25.0234 38.4774L17.6836 31.702L16.8877 30.9676L17.6836 30.2322L25.0234 23.4578L25.3115 23.1922H43.0762V38.743ZM19.8369 30.9666L26.0938 36.743H41.0762V25.1922H26.0928L19.8369 30.9666ZM32.8301 29.0584L34.709 27.1805L35.416 27.8875L36.124 28.5945L34.2451 30.4734L36.4844 32.7127L35.0703 34.1268L33.4648 32.5213L32.8301 31.8875L30.5908 34.1268L29.1768 32.7127L31.416 30.4725L29.2734 28.3299L30.6875 26.9158L32.8301 29.0584Z" fill="#343333"/>
</g>
<path d="M32.1566 9.08777C45.3711 9.08777 56.1023 19.6805 56.2856 32.814C56.2856 32.7003 56.2956 32.5817 56.2956 32.468C56.2956 19.1714 45.49 8.39575 32.1566 8.39575C18.8231 8.39575 8.01758 19.1714 8.01758 32.468C8.01758 32.5866 8.02253 32.7003 8.02749 32.814C8.21584 19.6805 18.9421 9.08777 32.1566 9.08777Z" fill="white"/>
</g>
<defs>
<filter id="filter0_d_7_1103" x="16.8877" y="23.1922" width="29.1885" height="17.5508" filterUnits="userSpaceOnUse" color-interpolation-filters="sRGB">
<feFlood flood-opacity="0" result="BackgroundImageFix"/>
<feColorMatrix in="SourceAlpha" type="matrix" values="0 0 0 0 0 0 0 0 0 0 0 0 0 0 0 0 0 0 127 0" result="hardAlpha"/>
<feOffset dx="2" dy="1"/>
<feGaussianBlur stdDeviation="0.5"/>
<feComposite in2="hardAlpha" operator="out"/>
<feColorMatrix type="matrix" values="0 0 0 0 0.968627 0 0 0 0 0.984314 0 0 0 0 0.980392 0 0 0 1 0"/>
<feBlend mode="normal" in2="BackgroundImageFix" result="effect1_dropShadow_7_1103"/>
<feBlend mode="normal" in="SourceGraphic" in2="effect1_dropShadow_7_1103" result="shape"/>
</filter>
<radialGradient id="paint0_radial_7_1103" cx="0" cy="0" r="1" gradientUnits="userSpaceOnUse" gradientTransform="translate(32.0426 31.2965) scale(31.2766 31.1901)">
<stop offset="0.3" stop-color="#E6E7E8"/>
<stop offset="0.5" stop-color="#DFE0E2"/>
<stop offset="0.78" stop-color="#CCD0D2"/>
<stop offset="1" stop-color="#BABFC3"/>
</radialGradient>
<linearGradient id="paint1_linear_7_1103" x1="7.85901" y1="31.7117" x2="56.2262" y2="31.7117" gradientUnits="userSpaceOnUse">
<stop stop-color="#CFD1D6"/>
<stop offset="0.72" stop-color="#C8CBCF"/>
<stop offset="1" stop-color="#C4C8CC"/>
</linearGradient>
<clipPath id="clip0_7_1103">
<rect width="62.5532" height="62.5532" fill="white" transform="translate(0.765991 0.106384)"/>
</clipPath>
</defs>
</svg>
