<svg width="63" height="63" viewBox="0 0 63 63" fill="none" xmlns="http://www.w3.org/2000/svg">
<path d="M7.76837 0.404266H55.5556C59.63 0.404266 62.9411 3.70617 62.9411 7.76928V55.4244C62.9411 59.4875 59.63 62.7894 55.5556 62.7894H7.76837C3.69399 62.7845 0.382935 59.4875 0.382935 55.4244V7.76928C0.382935 3.70617 3.69399 0.404266 7.76837 0.404266Z" fill="url(#paint0_radial_7_1098)"/>
<path d="M55.6052 61.5734H7.71385C3.68408 61.5734 0.382935 58.2814 0.382935 54.2578V55.6468C0.382935 59.6704 3.68408 62.9574 7.71385 62.9574H55.6052C59.6399 62.9574 62.9361 59.6654 62.9361 55.6468V54.2578C62.9361 58.2814 59.635 61.5685 55.6052 61.5685V61.5734Z" fill="#747F88"/>
<path d="M55.5011 0.404266H7.81794C3.72869 0.404266 0.382935 3.74077 0.382935 7.81871V8.69361C0.382935 4.61567 3.72869 1.27917 7.81794 1.27917H55.5011C59.5904 1.27917 62.9361 4.61567 62.9361 8.69361V7.81871C62.9361 3.74077 59.5904 0.404266 55.5011 0.404266Z" fill="white"/>
<path opacity="0.08" d="M60.6858 36.5867C60.6858 53.0023 47.7687 61.9738 31.6596 61.9738C15.5504 61.9738 2.6333 53.0023 2.6333 36.5867C2.6333 20.1712 15.5504 6.82516 31.6596 6.82516C47.7687 6.82516 60.6858 20.1712 60.6858 36.5867Z" fill="#747F88"/>
<path opacity="0.15" d="M60.0217 36.1864C60.0217 52.1768 47.4863 61.1632 31.6646 61.1632C15.8429 61.1632 3.30249 52.1768 3.30249 36.1864C3.30249 20.1959 15.8379 7.16129 31.6596 7.16129C47.4813 7.16129 60.0167 20.1959 60.0167 36.1864H60.0217Z" fill="#747F88"/>
<path opacity="0.23" d="M59.3524 35.786C59.3524 51.3514 47.1937 60.3525 31.6595 60.3525C16.1253 60.3525 3.96655 51.3465 3.96655 35.786C3.96655 20.2256 16.1253 7.49744 31.6595 7.49744C47.1937 7.49744 59.3524 20.2206 59.3524 35.786Z" fill="#747F88"/>
<path opacity="0.31" d="M58.6834 35.3856C58.6834 50.521 46.9014 59.5419 31.6596 59.5419C16.4179 59.5419 4.63586 50.521 4.63586 35.3856C4.63586 20.2502 16.4179 7.83353 31.6596 7.83353C46.9014 7.83353 58.6834 20.2502 58.6834 35.3856Z" fill="#747F88"/>
<path opacity="0.38" d="M58.0191 34.9852C58.0191 49.6955 46.6188 58.7312 31.6645 58.7312C16.7102 58.7312 5.30493 49.6955 5.30493 34.9852C5.30493 20.275 16.7053 8.16968 31.6596 8.16968C46.6138 8.16968 58.0142 20.275 58.0142 34.9852H58.0191Z" fill="#747F88"/>
<path opacity="0.46" d="M57.35 34.5799C57.35 48.8651 46.3263 57.9107 31.6595 57.9107C16.9928 57.9107 5.96912 48.8651 5.96912 34.5799C5.96912 20.2948 16.9928 8.50085 31.6595 8.50085C46.3263 8.50085 57.35 20.2948 57.35 34.5799Z" fill="#747F88"/>
<path opacity="0.54" d="M56.6809 34.1795C56.6809 48.0346 46.0389 57.1 31.6596 57.1C17.2803 57.1 6.63831 48.0396 6.63831 34.1795C6.63831 20.3194 17.2803 8.83694 31.6596 8.83694C46.0389 8.83694 56.6809 20.3244 56.6809 34.1795Z" fill="#747F88"/>
<path opacity="0.62" d="M56.0166 33.7792C56.0166 47.2092 45.7513 56.2894 31.6645 56.2894C17.5776 56.2894 7.30737 47.2092 7.30737 33.7792C7.30737 20.3491 17.5726 9.1731 31.6595 9.1731C45.7464 9.1731 56.0116 20.3491 56.0116 33.7792H56.0166Z" fill="#747F88"/>
<path opacity="0.69" d="M55.3475 33.3788C55.3475 46.3837 45.459 55.4787 31.6596 55.4787C17.8602 55.4787 7.97168 46.3837 7.97168 33.3788C7.97168 20.3738 17.8602 9.50919 31.6596 9.50919C45.459 9.50919 55.3475 20.3738 55.3475 33.3788Z" fill="#747F88"/>
<path opacity="0.77" d="M54.6783 32.9784C54.6783 45.5582 45.1714 54.6681 31.6595 54.6681C18.1476 54.6681 8.64075 45.5582 8.64075 32.9784C8.64075 20.3985 18.1476 9.84531 31.6595 9.84531C45.1714 9.84531 54.6783 20.4035 54.6783 32.9784Z" fill="#747F88"/>
<path opacity="0.85" d="M54.0142 32.578C54.0142 44.7278 44.884 53.8575 31.6646 53.8575C18.4451 53.8575 9.31494 44.7278 9.31494 32.578C9.31494 20.4282 18.4402 10.1815 31.6596 10.1815C44.8791 10.1815 54.0092 20.4282 54.0092 32.578H54.0142Z" fill="#747F88"/>
<path opacity="0.92" d="M53.345 32.1776C53.345 43.9023 44.5965 53.0468 31.6596 53.0468C18.7226 53.0468 9.97412 43.9023 9.97412 32.1776C9.97412 20.4529 18.7276 10.5126 31.6596 10.5126C44.5915 10.5126 53.345 20.448 53.345 32.1727V32.1776Z" fill="#747F88"/>
<path d="M52.6759 31.7772C52.6759 43.0768 44.3041 52.2362 31.6596 52.2362C19.0151 52.2362 10.6433 43.0768 10.6433 31.7772C10.6433 20.4776 19.0151 10.8487 31.6596 10.8487C44.3041 10.8487 52.6759 20.4776 52.6759 31.7723V31.7772Z" fill="#747F88"/>
<path d="M31.6596 56.1263C45.0158 56.1263 55.8432 45.3288 55.8432 32.0095C55.8432 18.6902 45.0158 7.89282 31.6596 7.89282C18.3033 7.89282 7.47595 18.6902 7.47595 32.0095C7.47595 45.3288 18.3033 56.1263 31.6596 56.1263Z" fill="url(#paint1_linear_7_1098)"/>
<g opacity="0.45">
<path opacity="0.1" d="M31.6596 48.6426C22.0585 48.6426 14.2766 40.8822 14.2766 31.3077C14.2766 21.7332 22.0585 13.9727 31.6596 13.9727C41.2607 13.9727 49.0427 21.7332 49.0427 31.3077C49.0427 40.8822 41.2607 48.6426 31.6596 48.6426ZM31.6596 5.72784C17.4934 5.72784 6.01379 17.1807 6.01379 31.3027C6.01379 45.4248 17.4984 56.8776 31.6596 56.8776C45.8208 56.8776 57.3054 45.4248 57.3054 31.3027C57.3054 17.1807 45.8258 5.72784 31.6596 5.72784Z" fill="#F7FBFA"/>
<path opacity="0.2" d="M31.6596 49.4731C21.5976 49.4731 13.4438 41.3419 13.4438 31.3077C13.4438 21.2735 21.6025 13.1423 31.6596 13.1423C41.7167 13.1423 49.8754 21.2735 49.8754 31.3077C49.8754 41.3419 41.7217 49.4731 31.6596 49.4731ZM31.6596 5.72784C17.4934 5.72784 6.01379 17.1807 6.01379 31.3027C6.01379 45.4248 17.4984 56.8776 31.6596 56.8776C45.8208 56.8776 57.3054 45.4248 57.3054 31.3027C57.3054 17.1807 45.8258 5.72784 31.6596 5.72784Z" fill="#F7FBFA"/>
<path opacity="0.3" d="M31.6596 50.2985C21.1416 50.2985 12.6111 41.7966 12.6111 31.3027C12.6111 20.8088 21.1416 12.3119 31.6596 12.3119C42.1777 12.3119 50.7081 20.8138 50.7081 31.3077C50.7081 41.8016 42.1826 50.3035 31.6596 50.3035V50.2985ZM31.6596 5.72784C17.4934 5.72784 6.01379 17.1807 6.01379 31.3027C6.01379 45.4248 17.4984 56.8776 31.6596 56.8776C45.8208 56.8776 57.3054 45.4248 57.3054 31.3027C57.3054 17.1807 45.8258 5.72784 31.6596 5.72784Z" fill="#F7FBFA"/>
<path opacity="0.4" d="M31.6596 51.129C20.6806 51.129 11.7834 42.2514 11.7834 31.3077C11.7834 20.364 20.6806 11.4815 31.6596 11.4815C42.6386 11.4815 51.5359 20.359 51.5359 31.3027C51.5359 42.2464 42.6337 51.124 31.6596 51.124V51.129ZM31.6596 5.72784C17.4934 5.72784 6.01379 17.1807 6.01379 31.3027C6.01379 45.4248 17.4984 56.8776 31.6596 56.8776C45.8208 56.8776 57.3054 45.4248 57.3054 31.3027C57.3054 17.1807 45.8258 5.72784 31.6596 5.72784Z" fill="#F7FBFA"/>
<path opacity="0.5" d="M31.6596 51.9594C20.2196 51.9594 10.9506 42.7111 10.9506 31.3077C10.9506 19.9043 20.2246 10.656 31.6596 10.656C43.0947 10.656 52.3686 19.9043 52.3686 31.3077C52.3686 42.7111 43.0947 51.9594 31.6596 51.9594ZM31.6596 5.72784C17.4934 5.72784 6.01379 17.1807 6.01379 31.3027C6.01379 45.4248 17.4984 56.8776 31.6596 56.8776C45.8208 56.8776 57.3054 45.4248 57.3054 31.3027C57.3054 17.1807 45.8258 5.72784 31.6596 5.72784Z" fill="#F7FBFA"/>
<path opacity="0.6" d="M31.6596 52.7898C19.7636 52.7898 10.1179 43.1708 10.1179 31.3077C10.1179 19.4446 19.7636 9.82556 31.6596 9.82556C43.5556 9.82556 53.2013 19.4446 53.2013 31.3077C53.2013 43.1708 43.5556 52.7898 31.6596 52.7898ZM31.6596 5.72784C17.4934 5.72784 6.01379 17.1807 6.01379 31.3027C6.01379 45.4248 17.4984 56.8776 31.6596 56.8776C45.8208 56.8776 57.3054 45.4248 57.3054 31.3027C57.3054 17.1807 45.8258 5.72784 31.6596 5.72784Z" fill="#F7FBFA"/>
<path opacity="0.7" d="M31.6596 53.6153C19.3026 53.6153 9.2852 43.6255 9.2852 31.3027C9.2852 18.9799 19.3026 8.99514 31.6596 8.99514C44.0166 8.99514 54.034 18.9849 54.034 31.3077C54.034 43.6305 44.0166 53.6202 31.6596 53.6202V53.6153ZM31.6596 5.72784C17.4934 5.72784 6.01379 17.1807 6.01379 31.3027C6.01379 45.4248 17.4984 56.8776 31.6596 56.8776C45.8208 56.8776 57.3054 45.4248 57.3054 31.3027C57.3054 17.1807 45.8258 5.72784 31.6596 5.72784Z" fill="#F7FBFA"/>
<path opacity="0.8" d="M31.6596 54.4457C18.8417 54.4457 8.45743 44.0852 8.45743 31.3077C8.45743 18.5301 18.8466 8.16472 31.6596 8.16472C44.4726 8.16472 54.8618 18.5252 54.8618 31.3027C54.8618 44.0803 44.4726 54.4407 31.6596 54.4407V54.4457ZM31.6596 5.72784C17.4934 5.72784 6.01379 17.1807 6.01379 31.3027C6.01379 45.4248 17.4984 56.8776 31.6596 56.8776C45.8208 56.8776 57.3054 45.4248 57.3054 31.3027C57.3054 17.1807 45.8258 5.72784 31.6596 5.72784Z" fill="#F7FBFA"/>
<path opacity="0.9" d="M31.6596 55.2761C18.3856 55.2761 7.62471 44.5449 7.62471 31.3077C7.62471 18.0704 18.3856 7.33431 31.6596 7.33431C44.9336 7.33431 55.6945 18.0655 55.6945 31.3027C55.6945 44.54 44.9336 55.2712 31.6596 55.2712V55.2761ZM31.6596 5.72784C17.4934 5.72784 6.01379 17.1807 6.01379 31.3027C6.01379 45.4248 17.4984 56.8776 31.6596 56.8776C45.8208 56.8776 57.3054 45.4248 57.3054 31.3027C57.3054 17.1807 45.8258 5.72784 31.6596 5.72784Z" fill="#F7FBFA"/>
<path d="M31.6596 56.1065C17.9247 56.1065 6.79199 45.0046 6.79199 31.3077C6.79199 17.6107 17.9247 6.50883 31.6596 6.50883C45.3945 6.50883 56.5272 17.6107 56.5272 31.3077C56.5272 45.0046 45.3945 56.1065 31.6596 56.1065ZM31.6596 5.72784C17.4934 5.72784 6.01379 17.1807 6.01379 31.3027C6.01379 45.4248 17.4984 56.8776 31.6596 56.8776C45.8208 56.8776 57.3054 45.4248 57.3054 31.3027C57.3054 17.1807 45.8258 5.72784 31.6596 5.72784Z" fill="#F7FBFA"/>
</g>
<path d="M31.7735 9.38562C44.988 9.38562 55.7192 19.9784 55.9026 33.1118C55.9026 32.9981 55.9125 32.8795 55.9125 32.7658C55.9125 19.4693 45.107 8.6936 31.7735 8.6936C18.4401 8.6936 7.63452 19.4693 7.63452 32.7658C7.63452 32.8845 7.63948 32.9981 7.64443 33.1118C7.83279 19.9784 18.559 9.38562 31.7735 9.38562Z" fill="white"/>
<g filter="url(#filter0_d_7_1098)">
<path d="M31.6596 20.8796C32.808 20.8796 33.8653 21.0573 34.8314 21.4128C35.8067 21.7683 36.586 22.306 37.1693 23.0261C37.7527 23.737 38.0443 24.6303 38.0443 25.7058C38.0443 26.5079 37.8848 27.2097 37.5658 27.8112C37.2559 28.4128 36.8321 28.9415 36.2943 29.3972C35.7566 29.8438 35.1459 30.2357 34.4623 30.573C35.1732 30.9467 35.8477 31.3842 36.4857 31.8855C37.1238 32.3777 37.6433 32.9564 38.0443 33.6218C38.4545 34.2872 38.6596 35.0619 38.6596 35.946C38.6596 37.058 38.3633 38.0241 37.7709 38.8445C37.1784 39.6556 36.3581 40.2846 35.3099 40.7312C34.2618 41.1778 33.045 41.4011 31.6596 41.4011C30.1648 41.4011 28.8933 41.1869 27.8451 40.7585C26.7969 40.3301 25.9994 39.7195 25.4525 38.9265C24.9057 38.1244 24.6322 37.1674 24.6322 36.0554C24.6322 35.1439 24.8008 34.351 25.1381 33.6765C25.4844 33.002 25.9493 32.4232 26.5326 31.9402C27.1159 31.448 27.7585 31.0287 28.4603 30.6823C27.8679 30.3086 27.3256 29.8848 26.8334 29.4109C26.3503 28.9369 25.9629 28.3946 25.6713 27.7839C25.3887 27.1732 25.2474 26.4714 25.2474 25.6784C25.2474 24.6211 25.5437 23.737 26.1361 23.0261C26.7377 22.3152 27.5261 21.782 28.5014 21.4265C29.4766 21.0619 30.5294 20.8796 31.6596 20.8796ZM28.5424 35.8093C28.5424 36.5293 28.7976 37.1264 29.308 37.6003C29.8275 38.0652 30.5932 38.2976 31.6049 38.2976C32.653 38.2976 33.4369 38.0743 33.9564 37.6277C34.476 37.1719 34.7357 36.5749 34.7357 35.8366C34.7357 35.3262 34.5853 34.8796 34.2846 34.4968C33.9929 34.114 33.6238 33.7722 33.1771 33.4714C32.7305 33.1615 32.2794 32.8744 31.8236 32.6101L31.4545 32.4187C30.8711 32.683 30.3607 32.9792 29.9232 33.3073C29.4948 33.6355 29.1576 34.0046 28.9115 34.4148C28.6654 34.8249 28.5424 35.2898 28.5424 35.8093ZM31.6322 23.9695C30.9395 23.9695 30.3653 24.1472 29.9096 24.5027C29.4538 24.8581 29.226 25.3594 29.226 26.0066C29.226 26.4623 29.3353 26.8633 29.5541 27.2097C29.782 27.5469 30.0782 27.8431 30.4428 28.0984C30.8165 28.3536 31.2221 28.5905 31.6596 28.8093C32.0788 28.6088 32.4708 28.3855 32.8353 28.1394C33.1999 27.8933 33.4961 27.5971 33.724 27.2507C33.9519 26.9043 34.0658 26.4896 34.0658 26.0066C34.0658 25.3594 33.8334 24.8581 33.3685 24.5027C32.9128 24.1472 32.334 23.9695 31.6322 23.9695Z" fill="#343333"/>
</g>
<defs>
<filter id="filter0_d_7_1098" x="24.6322" y="20.8796" width="17.0273" height="22.5215" filterUnits="userSpaceOnUse" color-interpolation-filters="sRGB">
<feFlood flood-opacity="0" result="BackgroundImageFix"/>
<feColorMatrix in="SourceAlpha" type="matrix" values="0 0 0 0 0 0 0 0 0 0 0 0 0 0 0 0 0 0 127 0" result="hardAlpha"/>
<feOffset dx="2" dy="1"/>
<feGaussianBlur stdDeviation="0.5"/>
<feComposite in2="hardAlpha" operator="out"/>
<feColorMatrix type="matrix" values="0 0 0 0 0.968627 0 0 0 0 0.984314 0 0 0 0 0.980392 0 0 0 1 0"/>
<feBlend mode="normal" in2="BackgroundImageFix" result="effect1_dropShadow_7_1098"/>
<feBlend mode="normal" in="SourceGraphic" in2="effect1_dropShadow_7_1098" result="shape"/>
</filter>
<radialGradient id="paint0_radial_7_1098" cx="0" cy="0" r="1" gradientUnits="userSpaceOnUse" gradientTransform="translate(31.6595 31.5944) scale(31.2766 31.1901)">
<stop offset="0.3" stop-color="#E6E7E8"/>
<stop offset="0.5" stop-color="#DFE0E2"/>
<stop offset="0.78" stop-color="#CCD0D2"/>
<stop offset="1" stop-color="#BABFC3"/>
</radialGradient>
<linearGradient id="paint1_linear_7_1098" x1="7.47595" y1="32.0095" x2="55.8432" y2="32.0095" gradientUnits="userSpaceOnUse">
<stop stop-color="#CFD1D6"/>
<stop offset="0.72" stop-color="#C8CBCF"/>
<stop offset="1" stop-color="#C4C8CC"/>
</linearGradient>
</defs>
</svg>
